#N canvas 543 214 432 407 10;
#X obj 72 45 tgl 15 1 empty empty empty 0 -6 0 8 -262144 -1 -1 0 1
;
#X obj 72 255 efficient-kick;
#X obj 189 346 dac~;
#X msg 72 225 1;
#X obj 189 254 efficient-snare;
#X obj 72 87 f;
#X obj 103 87 + 1;
#X obj 139 87 mod 16;
#X obj 190 305 *~ 0.5;
#X msg 189 224 1;
#X obj 72 111 sel 0 1 2 3 4 5 6 7 8 9 10 11 12 13 14 15;
#X obj 72 66 metro 100;
#X obj 310 254 efficient-fmhh;
#X msg 292 220 1;
#X msg 330 220 2;
#X text 199 20 By Obiwannabe;
#X text 198 35 from forum.pdpatchrepo.info;
#X connect 0 0 11 0;
#X connect 1 0 8 0;
#X connect 3 0 1 0;
#X connect 4 0 8 0;
#X connect 5 0 6 0;
#X connect 5 0 10 0;
#X connect 6 0 7 0;
#X connect 7 0 5 1;
#X connect 8 0 2 0;
#X connect 8 0 2 1;
#X connect 9 0 4 0;
#X connect 10 0 3 0;
#X connect 10 0 13 0;
#X connect 10 2 13 0;
#X connect 10 4 9 0;
#X connect 10 4 13 0;
#X connect 10 6 14 0;
#X connect 10 8 13 0;
#X connect 10 10 3 0;
#X connect 10 10 13 0;
#X connect 10 12 9 0;
#X connect 10 12 13 0;
#X connect 10 14 13 0;
#X connect 10 15 13 0;
#X connect 11 0 5 0;
#X connect 12 0 8 0;
#X connect 13 0 12 0;
#X connect 14 0 12 0;
