#N canvas 83 68 1170 504 10;
#X obj 90 269 *~ 0.4;
#X obj 45 463 dac~;
#X obj 81 395 *~;
#X obj 721 11 bng 15 250 50 0 empty empty empty 17 7 0 10 -262144 -1
-1;
#X obj 544 19 t b b;
#N canvas 90 53 450 300 harmonic1 0;
#X obj 119 156 osc~;
#X msg 190 52 1;
#X obj 120 91 *;
#X floatatom 121 128 5 0 0 0 - - -;
#X obj 162 91 expr 1/$f1;
#X floatatom 168 127 5 0 0 0 - - -;
#X obj 151 187 *~;
#X obj 149 237 outlet~;
#X obj 121 28 inlet freq;
#X obj 191 28 inlet bang;
#X connect 0 0 6 0;
#X connect 1 0 2 1;
#X connect 1 0 4 0;
#X connect 2 0 3 0;
#X connect 3 0 0 0;
#X connect 4 0 5 0;
#X connect 5 0 6 1;
#X connect 6 0 7 0;
#X connect 8 0 2 0;
#X connect 9 0 1 0;
#X restore 59 139 pd harmonic1;
#N canvas 437 175 450 300 harmonic2 0;
#X obj 119 156 osc~;
#X obj 120 91 *;
#X floatatom 121 128 5 0 0 0 - - -;
#X obj 162 91 expr 1/$f1;
#X floatatom 168 127 5 0 0 0 - - -;
#X obj 151 187 *~;
#X obj 149 237 outlet~;
#X obj 121 28 inlet freq;
#X obj 191 28 inlet bang;
#X msg 190 52 2;
#X connect 0 0 5 0;
#X connect 1 0 2 0;
#X connect 2 0 0 0;
#X connect 3 0 4 0;
#X connect 4 0 5 1;
#X connect 5 0 6 0;
#X connect 7 0 1 0;
#X connect 8 0 9 0;
#X connect 9 0 1 1;
#X connect 9 0 3 0;
#X restore 140 140 pd harmonic2;
#N canvas 90 53 450 300 harmonic3 0;
#X obj 119 156 osc~;
#X obj 120 91 *;
#X floatatom 121 128 5 0 0 0 - - -;
#X obj 162 91 expr 1/$f1;
#X floatatom 168 127 5 0 0 0 - - -;
#X obj 151 187 *~;
#X obj 149 237 outlet~;
#X obj 121 28 inlet freq;
#X obj 191 28 inlet bang;
#X msg 190 52 3;
#X connect 0 0 5 0;
#X connect 1 0 2 0;
#X connect 2 0 0 0;
#X connect 3 0 4 0;
#X connect 4 0 5 1;
#X connect 5 0 6 0;
#X connect 7 0 1 0;
#X connect 8 0 9 0;
#X connect 9 0 1 1;
#X connect 9 0 3 0;
#X restore 223 141 pd harmonic3;
#N canvas 90 53 450 300 harmonic4 0;
#X obj 119 156 osc~;
#X obj 120 91 *;
#X floatatom 121 128 5 0 0 0 - - -;
#X obj 162 91 expr 1/$f1;
#X floatatom 168 127 5 0 0 0 - - -;
#X obj 151 187 *~;
#X obj 149 237 outlet~;
#X obj 121 28 inlet freq;
#X obj 191 28 inlet bang;
#X msg 190 52 4;
#X connect 0 0 5 0;
#X connect 1 0 2 0;
#X connect 2 0 0 0;
#X connect 3 0 4 0;
#X connect 4 0 5 1;
#X connect 5 0 6 0;
#X connect 7 0 1 0;
#X connect 8 0 9 0;
#X connect 9 0 1 1;
#X connect 9 0 3 0;
#X restore 306 141 pd harmonic4;
#N canvas 642 304 450 300 harmonic5 0;
#X obj 119 156 osc~;
#X obj 120 91 *;
#X floatatom 121 128 5 0 0 0 - - -;
#X obj 162 91 expr 1/$f1;
#X floatatom 168 127 5 0 0 0 - - -;
#X obj 151 187 *~;
#X obj 149 237 outlet~;
#X obj 121 28 inlet freq;
#X obj 191 28 inlet bang;
#X msg 190 52 5;
#X connect 0 0 5 0;
#X connect 1 0 2 0;
#X connect 2 0 0 0;
#X connect 3 0 4 0;
#X connect 4 0 5 1;
#X connect 5 0 6 0;
#X connect 7 0 1 0;
#X connect 8 0 9 0;
#X connect 9 0 1 1;
#X connect 9 0 3 0;
#X restore 389 143 pd harmonic5;
#N canvas 90 53 450 300 harmonic6 0;
#X obj 119 156 osc~;
#X obj 120 91 *;
#X floatatom 121 128 5 0 0 0 - - -;
#X obj 162 91 expr 1/$f1;
#X floatatom 168 127 5 0 0 0 - - -;
#X obj 151 187 *~;
#X obj 149 237 outlet~;
#X obj 121 28 inlet freq;
#X obj 191 28 inlet bang;
#X msg 190 52 6;
#X connect 0 0 5 0;
#X connect 1 0 2 0;
#X connect 2 0 0 0;
#X connect 3 0 4 0;
#X connect 4 0 5 1;
#X connect 5 0 6 0;
#X connect 7 0 1 0;
#X connect 8 0 9 0;
#X connect 9 0 1 1;
#X connect 9 0 3 0;
#X restore 470 143 pd harmonic6;
#N canvas 90 53 450 300 harmonic7 0;
#X obj 119 156 osc~;
#X obj 120 91 *;
#X floatatom 121 128 5 0 0 0 - - -;
#X obj 162 91 expr 1/$f1;
#X floatatom 168 127 5 0 0 0 - - -;
#X obj 151 187 *~;
#X obj 149 237 outlet~;
#X obj 121 28 inlet freq;
#X obj 191 28 inlet bang;
#X msg 191 52 7;
#X connect 0 0 5 0;
#X connect 1 0 2 0;
#X connect 2 0 0 0;
#X connect 3 0 4 0;
#X connect 4 0 5 1;
#X connect 5 0 6 0;
#X connect 7 0 1 0;
#X connect 8 0 9 0;
#X connect 9 0 1 1;
#X connect 9 0 3 0;
#X restore 551 143 pd harmonic7;
#N canvas 90 53 450 300 harmonic8 0;
#X obj 119 156 osc~;
#X obj 120 91 *;
#X floatatom 121 128 5 0 0 0 - - -;
#X obj 162 91 expr 1/$f1;
#X floatatom 168 127 5 0 0 0 - - -;
#X obj 151 187 *~;
#X obj 149 237 outlet~;
#X obj 121 28 inlet freq;
#X obj 191 28 inlet bang;
#X msg 190 52 8;
#X connect 0 0 5 0;
#X connect 1 0 2 0;
#X connect 2 0 0 0;
#X connect 3 0 4 0;
#X connect 4 0 5 1;
#X connect 5 0 6 0;
#X connect 7 0 1 0;
#X connect 8 0 9 0;
#X connect 9 0 1 1;
#X connect 9 0 3 0;
#X restore 633 142 pd harmonic8;
#N canvas 585 267 450 300 harmonic9 0;
#X obj 119 156 osc~;
#X obj 120 91 *;
#X floatatom 121 128 5 0 0 0 - - -;
#X obj 162 91 expr 1/$f1;
#X floatatom 168 127 5 0 0 0 - - -;
#X obj 151 187 *~;
#X obj 149 237 outlet~;
#X obj 121 28 inlet freq;
#X obj 191 28 inlet bang;
#X msg 190 52 9;
#X connect 0 0 5 0;
#X connect 1 0 2 0;
#X connect 2 0 0 0;
#X connect 3 0 4 0;
#X connect 4 0 5 1;
#X connect 5 0 6 0;
#X connect 7 0 1 0;
#X connect 8 0 9 0;
#X connect 9 0 1 1;
#X connect 9 0 3 0;
#X restore 715 141 pd harmonic9;
#N canvas 90 53 450 300 harmonic10 0;
#X obj 119 156 osc~;
#X obj 120 91 *;
#X floatatom 121 128 5 0 0 0 - - -;
#X obj 162 91 expr 1/$f1;
#X floatatom 168 127 5 0 0 0 - - -;
#X obj 151 187 *~;
#X obj 149 237 outlet~;
#X obj 121 28 inlet freq;
#X obj 191 28 inlet bang;
#X msg 190 52 10;
#X connect 0 0 5 0;
#X connect 1 0 2 0;
#X connect 2 0 0 0;
#X connect 3 0 4 0;
#X connect 4 0 5 1;
#X connect 5 0 6 0;
#X connect 7 0 1 0;
#X connect 8 0 9 0;
#X connect 9 0 1 1;
#X connect 9 0 3 0;
#X restore 797 141 pd harmonic10;
#N canvas 90 53 450 300 harmonic11 0;
#X obj 119 156 osc~;
#X obj 120 91 *;
#X floatatom 121 128 5 0 0 0 - - -;
#X obj 162 91 expr 1/$f1;
#X floatatom 168 127 5 0 0 0 - - -;
#X obj 151 187 *~;
#X obj 149 237 outlet~;
#X obj 121 28 inlet freq;
#X obj 191 28 inlet bang;
#X msg 190 52 11;
#X connect 0 0 5 0;
#X connect 1 0 2 0;
#X connect 2 0 0 0;
#X connect 3 0 4 0;
#X connect 4 0 5 1;
#X connect 5 0 6 0;
#X connect 7 0 1 0;
#X connect 8 0 9 0;
#X connect 9 0 1 1;
#X connect 9 0 3 0;
#X restore 885 140 pd harmonic11;
#N canvas 394 326 450 300 harmonic12 0;
#X obj 119 156 osc~;
#X obj 120 91 *;
#X floatatom 121 128 5 0 0 0 - - -;
#X obj 162 91 expr 1/$f1;
#X floatatom 168 127 5 0 0 0 - - -;
#X obj 151 187 *~;
#X obj 149 237 outlet~;
#X obj 121 28 inlet freq;
#X obj 191 28 inlet bang;
#X msg 190 52 12;
#X connect 0 0 5 0;
#X connect 1 0 2 0;
#X connect 2 0 0 0;
#X connect 3 0 4 0;
#X connect 4 0 5 1;
#X connect 5 0 6 0;
#X connect 7 0 1 0;
#X connect 8 0 9 0;
#X connect 9 0 1 1;
#X connect 9 0 3 0;
#X restore 977 141 pd harmonic12;
#X msg 376 50 110;
#X obj 140 360 tgl 15 0 empty empty empty 17 7 0 10 -262144 -1 -1 0
1;
#X connect 0 0 2 0;
#X connect 2 0 1 0;
#X connect 2 0 1 1;
#X connect 3 0 4 0;
#X connect 3 0 18 0;
#X connect 4 0 17 0;
#X connect 4 1 5 1;
#X connect 4 1 6 1;
#X connect 4 1 7 1;
#X connect 4 1 8 1;
#X connect 4 1 9 1;
#X connect 4 1 10 1;
#X connect 4 1 11 1;
#X connect 4 1 12 1;
#X connect 4 1 13 1;
#X connect 4 1 14 1;
#X connect 4 1 15 1;
#X connect 4 1 16 1;
#X connect 5 0 0 0;
#X connect 6 0 0 0;
#X connect 7 0 0 0;
#X connect 8 0 0 0;
#X connect 9 0 0 0;
#X connect 10 0 0 0;
#X connect 11 0 0 0;
#X connect 12 0 0 0;
#X connect 13 0 0 0;
#X connect 14 0 0 0;
#X connect 15 0 0 0;
#X connect 16 0 0 0;
#X connect 17 0 5 0;
#X connect 17 0 6 0;
#X connect 17 0 7 0;
#X connect 17 0 8 0;
#X connect 17 0 9 0;
#X connect 17 0 10 0;
#X connect 17 0 11 0;
#X connect 17 0 12 0;
#X connect 17 0 13 0;
#X connect 17 0 14 0;
#X connect 17 0 15 0;
#X connect 17 0 16 0;
#X connect 18 0 2 1;
