#N canvas 89 137 1170 504 10;
#X obj 466 365 dac~;
#X obj 694 50 bng 15 250 50 0 empty empty empty 17 7 0 10 -262144 -1
-1;
#X obj 443 159 t b b;
#N canvas 188 192 1111 540 harmonics 1;
#X obj 431 20 inlet freq;
#X obj 528 412 outlet~;
#N canvas 90 53 450 300 h01 0;
#X obj 119 156 osc~;
#X msg 190 52 1;
#X obj 120 91 *;
#X floatatom 121 128 5 0 0 0 - - -;
#X obj 162 91 expr 1/$f1;
#X floatatom 168 127 5 0 0 0 - - -;
#X obj 151 187 *~;
#X obj 149 237 outlet~;
#X obj 121 28 inlet freq;
#X obj 191 28 inlet bang;
#X connect 0 0 6 0;
#X connect 1 0 2 1;
#X connect 1 0 4 0;
#X connect 2 0 3 0;
#X connect 3 0 0 0;
#X connect 4 0 5 0;
#X connect 5 0 6 1;
#X connect 6 0 7 0;
#X connect 8 0 2 0;
#X connect 9 0 1 0;
#X restore 133 171 pd h01;
#X obj 583 22 inlet trigger;
#X obj 749 24 inlet a;
#X obj 799 23 inlet d;
#X obj 848 23 inlet s;
#X obj 897 22 inlet r;
#X connect 0 0 2 0;
#X connect 2 0 1 0;
#X connect 3 0 2 1;
#X restore 425 266 pd harmonics;
#X msg 421 201 55;
#N canvas 737 301 450 300 amp 0;
#X obj 155 22 inlet~;
#X obj 187 256 outlet~;
#X obj 182 92 *~ 0.4;
#X obj 187 182 *~;
#X obj 272 27 inlet~ env;
#X connect 0 0 2 0;
#X connect 2 0 3 0;
#X connect 3 0 1 0;
#X connect 4 0 3 1;
#X restore 463 313 pd amp;
#N canvas 567 183 458 495 ADSR 0;
#X obj 77 142 pack f f f f;
#X msg 78 172 1 \$2 \, \$4 \$3 \$2;
#X obj 129 211 vline~;
#X obj 131 271 outlet~;
#X obj 123 61 inlet trigger;
#X obj -59 22 inlet a;
#X obj -11 23 inlet d;
#X obj 35 22 inlet s;
#X obj 83 22 inlet r;
#X obj 211 61 inlet velocity;
#X obj 212 103 sel 0;
#X obj 181 140 pack f f;
#X msg 180 173 0 \$2;
#X connect 0 0 1 0;
#X connect 1 0 2 0;
#X connect 2 0 3 0;
#X connect 4 0 0 0;
#X connect 5 0 0 1;
#X connect 6 0 0 2;
#X connect 7 0 0 3;
#X connect 8 0 11 1;
#X connect 9 0 10 0;
#X connect 10 0 11 0;
#X connect 11 0 12 0;
#X connect 12 0 2 1;
#X restore 551 300 pd ADSR;
#X obj 823 7 vsl 15 128 0 127 0 0 empty empty A 0 -9 0 10 -262144 -1
-1 6100 1;
#X obj 860 6 vsl 15 128 5 500 0 0 empty empty D 0 -9 0 10 -262144 -1
-1 10600 1;
#X obj 895 7 vsl 15 128 0 1 0 0 empty empty S 0 -9 0 10 -262144 -1
-1 0 1;
#X obj 932 6 vsl 15 128 0 500 0 0 empty empty R 0 -9 0 10 -262144 -1
-1 0 1;
#X floatatom 818 146 5 0 0 0 - - -;
#X floatatom 854 145 5 0 0 0 - - -;
#X floatatom 891 145 5 0 0 0 - - -;
#X floatatom 928 145 5 0 0 0 - - -;
#X text 857 -29 amp envelope;
#X connect 1 0 2 0;
#X connect 1 0 6 4;
#X connect 1 0 3 1;
#X connect 2 0 4 0;
#X connect 3 0 5 0;
#X connect 4 0 3 0;
#X connect 5 0 0 0;
#X connect 5 0 0 1;
#X connect 6 0 5 1;
#X connect 7 0 11 0;
#X connect 8 0 12 0;
#X connect 9 0 13 0;
#X connect 10 0 14 0;
#X connect 11 0 6 0;
#X connect 11 0 3 2;
#X connect 12 0 6 1;
#X connect 12 0 3 3;
#X connect 13 0 6 2;
#X connect 13 0 3 4;
#X connect 14 0 6 3;
#X connect 14 0 3 5;
