#N canvas 77 121 1170 504 10;
#X obj 538 231 *~ 0.4;
#X obj 489 424 dac~;
#X obj 538 320 *~;
#X obj 624 11 bng 15 250 50 0 empty empty empty 17 7 0 10 -262144 -1
-1;
#X obj 552 51 t b b;
#X msg 530 93 110;
#X obj 606 286 tgl 15 0 empty empty empty 17 7 0 10 -262144 -1 -1 0
1;
#N canvas 127 70 1111 540 harmonics 1;
#X obj 431 20 inlet freq;
#X obj 602 22 inlet bang;
#X obj 552 328 outlet~;
#N canvas 90 53 450 300 h01 0;
#X obj 119 156 osc~;
#X msg 190 52 1;
#X obj 120 91 *;
#X floatatom 121 128 5 0 0 0 - - -;
#X obj 162 91 expr 1/$f1;
#X floatatom 168 127 5 0 0 0 - - -;
#X obj 151 187 *~;
#X obj 149 237 outlet~;
#X obj 121 28 inlet freq;
#X obj 191 28 inlet bang;
#X connect 0 0 6 0;
#X connect 1 0 2 1;
#X connect 1 0 4 0;
#X connect 2 0 3 0;
#X connect 3 0 0 0;
#X connect 4 0 5 0;
#X connect 5 0 6 1;
#X connect 6 0 7 0;
#X connect 8 0 2 0;
#X connect 9 0 1 0;
#X restore 113 80 pd h01;
#N canvas 437 175 450 300 h02 0;
#X obj 119 156 osc~;
#X obj 120 91 *;
#X floatatom 121 128 5 0 0 0 - - -;
#X obj 162 91 expr 1/$f1;
#X floatatom 168 127 5 0 0 0 - - -;
#X obj 151 187 *~;
#X obj 149 237 outlet~;
#X obj 121 28 inlet freq;
#X obj 191 28 inlet bang;
#X msg 190 52 2;
#X connect 0 0 5 0;
#X connect 1 0 2 0;
#X connect 2 0 0 0;
#X connect 3 0 4 0;
#X connect 4 0 5 1;
#X connect 5 0 6 0;
#X connect 7 0 1 0;
#X connect 8 0 9 0;
#X connect 9 0 1 1;
#X connect 9 0 3 0;
#X restore 155 81 pd h02;
#N canvas 90 53 450 300 h03 0;
#X obj 119 156 osc~;
#X obj 120 91 *;
#X floatatom 121 128 5 0 0 0 - - -;
#X obj 162 91 expr 1/$f1;
#X floatatom 168 127 5 0 0 0 - - -;
#X obj 151 187 *~;
#X obj 149 237 outlet~;
#X obj 121 28 inlet freq;
#X obj 191 28 inlet bang;
#X msg 190 52 3;
#X connect 0 0 5 0;
#X connect 1 0 2 0;
#X connect 2 0 0 0;
#X connect 3 0 4 0;
#X connect 4 0 5 1;
#X connect 5 0 6 0;
#X connect 7 0 1 0;
#X connect 8 0 9 0;
#X connect 9 0 1 1;
#X connect 9 0 3 0;
#X restore 199 81 pd h03;
#N canvas 90 53 450 300 h04 0;
#X obj 119 156 osc~;
#X obj 120 91 *;
#X floatatom 121 128 5 0 0 0 - - -;
#X obj 162 91 expr 1/$f1;
#X floatatom 168 127 5 0 0 0 - - -;
#X obj 151 187 *~;
#X obj 149 237 outlet~;
#X obj 121 28 inlet freq;
#X obj 191 28 inlet bang;
#X msg 190 52 4;
#X connect 0 0 5 0;
#X connect 1 0 2 0;
#X connect 2 0 0 0;
#X connect 3 0 4 0;
#X connect 4 0 5 1;
#X connect 5 0 6 0;
#X connect 7 0 1 0;
#X connect 8 0 9 0;
#X connect 9 0 1 1;
#X connect 9 0 3 0;
#X restore 242 81 pd h04;
#N canvas 642 304 450 300 h05 0;
#X obj 119 156 osc~;
#X obj 120 91 *;
#X floatatom 121 128 5 0 0 0 - - -;
#X obj 162 91 expr 1/$f1;
#X floatatom 168 127 5 0 0 0 - - -;
#X obj 151 187 *~;
#X obj 149 237 outlet~;
#X obj 121 28 inlet freq;
#X obj 191 28 inlet bang;
#X msg 190 52 5;
#X connect 0 0 5 0;
#X connect 1 0 2 0;
#X connect 2 0 0 0;
#X connect 3 0 4 0;
#X connect 4 0 5 1;
#X connect 5 0 6 0;
#X connect 7 0 1 0;
#X connect 8 0 9 0;
#X connect 9 0 1 1;
#X connect 9 0 3 0;
#X restore 284 81 pd h05;
#N canvas 90 53 450 300 h06 0;
#X obj 119 156 osc~;
#X obj 120 91 *;
#X floatatom 121 128 5 0 0 0 - - -;
#X obj 162 91 expr 1/$f1;
#X floatatom 168 127 5 0 0 0 - - -;
#X obj 151 187 *~;
#X obj 149 237 outlet~;
#X obj 121 28 inlet freq;
#X obj 191 28 inlet bang;
#X msg 190 52 6;
#X connect 0 0 5 0;
#X connect 1 0 2 0;
#X connect 2 0 0 0;
#X connect 3 0 4 0;
#X connect 4 0 5 1;
#X connect 5 0 6 0;
#X connect 7 0 1 0;
#X connect 8 0 9 0;
#X connect 9 0 1 1;
#X connect 9 0 3 0;
#X restore 328 81 pd h06;
#N canvas 90 53 450 300 h07 0;
#X obj 119 156 osc~;
#X obj 120 91 *;
#X floatatom 121 128 5 0 0 0 - - -;
#X obj 162 91 expr 1/$f1;
#X floatatom 168 127 5 0 0 0 - - -;
#X obj 151 187 *~;
#X obj 149 237 outlet~;
#X obj 121 28 inlet freq;
#X obj 191 28 inlet bang;
#X msg 191 52 7;
#X connect 0 0 5 0;
#X connect 1 0 2 0;
#X connect 2 0 0 0;
#X connect 3 0 4 0;
#X connect 4 0 5 1;
#X connect 5 0 6 0;
#X connect 7 0 1 0;
#X connect 8 0 9 0;
#X connect 9 0 1 1;
#X connect 9 0 3 0;
#X restore 371 81 pd h07;
#N canvas 90 53 450 300 h08 0;
#X obj 119 156 osc~;
#X obj 120 91 *;
#X floatatom 121 128 5 0 0 0 - - -;
#X obj 162 91 expr 1/$f1;
#X floatatom 168 127 5 0 0 0 - - -;
#X obj 151 187 *~;
#X obj 149 237 outlet~;
#X obj 121 28 inlet freq;
#X obj 191 28 inlet bang;
#X msg 190 52 8;
#X connect 0 0 5 0;
#X connect 1 0 2 0;
#X connect 2 0 0 0;
#X connect 3 0 4 0;
#X connect 4 0 5 1;
#X connect 5 0 6 0;
#X connect 7 0 1 0;
#X connect 8 0 9 0;
#X connect 9 0 1 1;
#X connect 9 0 3 0;
#X restore 415 81 pd h08;
#N canvas 585 267 450 300 h09 0;
#X obj 119 156 osc~;
#X obj 120 91 *;
#X floatatom 121 128 5 0 0 0 - - -;
#X obj 162 91 expr 1/$f1;
#X floatatom 168 127 5 0 0 0 - - -;
#X obj 151 187 *~;
#X obj 149 237 outlet~;
#X obj 121 28 inlet freq;
#X obj 191 28 inlet bang;
#X msg 190 52 9;
#X connect 0 0 5 0;
#X connect 1 0 2 0;
#X connect 2 0 0 0;
#X connect 3 0 4 0;
#X connect 4 0 5 1;
#X connect 5 0 6 0;
#X connect 7 0 1 0;
#X connect 8 0 9 0;
#X connect 9 0 1 1;
#X connect 9 0 3 0;
#X restore 458 82 pd h09;
#N canvas 90 53 450 300 h10 0;
#X obj 119 156 osc~;
#X obj 120 91 *;
#X floatatom 121 128 5 0 0 0 - - -;
#X obj 162 91 expr 1/$f1;
#X floatatom 168 127 5 0 0 0 - - -;
#X obj 151 187 *~;
#X obj 149 237 outlet~;
#X obj 121 28 inlet freq;
#X obj 191 28 inlet bang;
#X msg 190 52 10;
#X connect 0 0 5 0;
#X connect 1 0 2 0;
#X connect 2 0 0 0;
#X connect 3 0 4 0;
#X connect 4 0 5 1;
#X connect 5 0 6 0;
#X connect 7 0 1 0;
#X connect 8 0 9 0;
#X connect 9 0 1 1;
#X connect 9 0 3 0;
#X restore 500 82 pd h10;
#N canvas 90 53 450 300 h11 0;
#X obj 119 156 osc~;
#X obj 120 91 *;
#X floatatom 121 128 5 0 0 0 - - -;
#X obj 162 91 expr 1/$f1;
#X floatatom 168 127 5 0 0 0 - - -;
#X obj 151 187 *~;
#X obj 149 237 outlet~;
#X obj 121 28 inlet freq;
#X obj 191 28 inlet bang;
#X msg 190 52 11;
#X connect 0 0 5 0;
#X connect 1 0 2 0;
#X connect 2 0 0 0;
#X connect 3 0 4 0;
#X connect 4 0 5 1;
#X connect 5 0 6 0;
#X connect 7 0 1 0;
#X connect 8 0 9 0;
#X connect 9 0 1 1;
#X connect 9 0 3 0;
#X restore 542 82 pd h11;
#N canvas 394 326 450 300 h12 0;
#X obj 119 156 osc~;
#X obj 120 91 *;
#X floatatom 121 128 5 0 0 0 - - -;
#X obj 162 91 expr 1/$f1;
#X floatatom 168 127 5 0 0 0 - - -;
#X obj 151 187 *~;
#X obj 149 237 outlet~;
#X obj 121 28 inlet freq;
#X obj 191 28 inlet bang;
#X msg 190 52 12;
#X connect 0 0 5 0;
#X connect 1 0 2 0;
#X connect 2 0 0 0;
#X connect 3 0 4 0;
#X connect 4 0 5 1;
#X connect 5 0 6 0;
#X connect 7 0 1 0;
#X connect 8 0 9 0;
#X connect 9 0 1 1;
#X connect 9 0 3 0;
#X restore 585 82 pd h12;
#N canvas 394 326 450 300 h13 0;
#X obj 119 156 osc~;
#X obj 120 91 *;
#X floatatom 121 128 5 0 0 0 - - -;
#X obj 162 91 expr 1/$f1;
#X floatatom 168 127 5 0 0 0 - - -;
#X obj 151 187 *~;
#X obj 149 237 outlet~;
#X obj 121 28 inlet freq;
#X obj 191 28 inlet bang;
#X msg 190 52 13;
#X connect 0 0 5 0;
#X connect 1 0 2 0;
#X connect 2 0 0 0;
#X connect 3 0 4 0;
#X connect 4 0 5 1;
#X connect 5 0 6 0;
#X connect 7 0 1 0;
#X connect 8 0 9 0;
#X connect 9 0 1 1;
#X connect 9 0 3 0;
#X restore 627 82 pd h13;
#N canvas 394 326 450 300 h14 0;
#X obj 119 156 osc~;
#X obj 120 91 *;
#X floatatom 121 128 5 0 0 0 - - -;
#X obj 162 91 expr 1/$f1;
#X floatatom 168 127 5 0 0 0 - - -;
#X obj 151 187 *~;
#X obj 149 237 outlet~;
#X obj 121 28 inlet freq;
#X obj 191 28 inlet bang;
#X msg 190 52 14;
#X connect 0 0 5 0;
#X connect 1 0 2 0;
#X connect 2 0 0 0;
#X connect 3 0 4 0;
#X connect 4 0 5 1;
#X connect 5 0 6 0;
#X connect 7 0 1 0;
#X connect 8 0 9 0;
#X connect 9 0 1 1;
#X connect 9 0 3 0;
#X restore 670 82 pd h14;
#N canvas 394 326 450 300 h15 0;
#X obj 119 156 osc~;
#X obj 120 91 *;
#X floatatom 121 128 5 0 0 0 - - -;
#X obj 162 91 expr 1/$f1;
#X floatatom 168 127 5 0 0 0 - - -;
#X obj 151 187 *~;
#X obj 149 237 outlet~;
#X obj 121 28 inlet freq;
#X obj 191 28 inlet bang;
#X msg 190 52 15;
#X connect 0 0 5 0;
#X connect 1 0 2 0;
#X connect 2 0 0 0;
#X connect 3 0 4 0;
#X connect 4 0 5 1;
#X connect 5 0 6 0;
#X connect 7 0 1 0;
#X connect 8 0 9 0;
#X connect 9 0 1 1;
#X connect 9 0 3 0;
#X restore 712 82 pd h15;
#N canvas 394 326 450 300 h16 0;
#X obj 119 156 osc~;
#X obj 120 91 *;
#X floatatom 121 128 5 0 0 0 - - -;
#X obj 162 91 expr 1/$f1;
#X floatatom 168 127 5 0 0 0 - - -;
#X obj 151 187 *~;
#X obj 149 237 outlet~;
#X obj 121 28 inlet freq;
#X obj 191 28 inlet bang;
#X msg 190 52 16;
#X connect 0 0 5 0;
#X connect 1 0 2 0;
#X connect 2 0 0 0;
#X connect 3 0 4 0;
#X connect 4 0 5 1;
#X connect 5 0 6 0;
#X connect 7 0 1 0;
#X connect 8 0 9 0;
#X connect 9 0 1 1;
#X connect 9 0 3 0;
#X restore 755 82 pd h16;
#N canvas 394 326 450 300 h17 0;
#X obj 119 156 osc~;
#X obj 120 91 *;
#X floatatom 121 128 5 0 0 0 - - -;
#X obj 162 91 expr 1/$f1;
#X floatatom 168 127 5 0 0 0 - - -;
#X obj 151 187 *~;
#X obj 149 237 outlet~;
#X obj 121 28 inlet freq;
#X obj 191 28 inlet bang;
#X msg 190 52 17;
#X connect 0 0 5 0;
#X connect 1 0 2 0;
#X connect 2 0 0 0;
#X connect 3 0 4 0;
#X connect 4 0 5 1;
#X connect 5 0 6 0;
#X connect 7 0 1 0;
#X connect 8 0 9 0;
#X connect 9 0 1 1;
#X connect 9 0 3 0;
#X restore 797 81 pd h17;
#N canvas 394 326 450 300 h18 0;
#X obj 119 156 osc~;
#X obj 120 91 *;
#X floatatom 121 128 5 0 0 0 - - -;
#X obj 162 91 expr 1/$f1;
#X floatatom 168 127 5 0 0 0 - - -;
#X obj 151 187 *~;
#X obj 149 237 outlet~;
#X obj 121 28 inlet freq;
#X obj 191 28 inlet bang;
#X msg 190 52 18;
#X connect 0 0 5 0;
#X connect 1 0 2 0;
#X connect 2 0 0 0;
#X connect 3 0 4 0;
#X connect 4 0 5 1;
#X connect 5 0 6 0;
#X connect 7 0 1 0;
#X connect 8 0 9 0;
#X connect 9 0 1 1;
#X connect 9 0 3 0;
#X restore 839 81 pd h18;
#N canvas 394 326 450 300 h19 0;
#X obj 119 156 osc~;
#X obj 120 91 *;
#X floatatom 121 128 5 0 0 0 - - -;
#X obj 162 91 expr 1/$f1;
#X floatatom 168 127 5 0 0 0 - - -;
#X obj 151 187 *~;
#X obj 149 237 outlet~;
#X obj 121 28 inlet freq;
#X obj 191 28 inlet bang;
#X msg 190 52 19;
#X connect 0 0 5 0;
#X connect 1 0 2 0;
#X connect 2 0 0 0;
#X connect 3 0 4 0;
#X connect 4 0 5 1;
#X connect 5 0 6 0;
#X connect 7 0 1 0;
#X connect 8 0 9 0;
#X connect 9 0 1 1;
#X connect 9 0 3 0;
#X restore 882 80 pd h19;
#N canvas 394 326 450 300 h20 0;
#X obj 119 156 osc~;
#X obj 120 91 *;
#X floatatom 121 128 5 0 0 0 - - -;
#X obj 162 91 expr 1/$f1;
#X floatatom 168 127 5 0 0 0 - - -;
#X obj 151 187 *~;
#X obj 149 237 outlet~;
#X obj 121 28 inlet freq;
#X obj 191 28 inlet bang;
#X msg 190 52 20;
#X connect 0 0 5 0;
#X connect 1 0 2 0;
#X connect 2 0 0 0;
#X connect 3 0 4 0;
#X connect 4 0 5 1;
#X connect 5 0 6 0;
#X connect 7 0 1 0;
#X connect 8 0 9 0;
#X connect 9 0 1 1;
#X connect 9 0 3 0;
#X restore 925 80 pd h20;
#N canvas 90 53 450 300 h21 0;
#X obj 119 156 osc~;
#X obj 120 91 *;
#X floatatom 121 128 5 0 0 0 - - -;
#X obj 162 91 expr 1/$f1;
#X floatatom 168 127 5 0 0 0 - - -;
#X obj 151 187 *~;
#X obj 149 237 outlet~;
#X obj 121 28 inlet freq;
#X obj 191 28 inlet bang;
#X msg 190 52 21;
#X connect 0 0 5 0;
#X connect 1 0 2 0;
#X connect 2 0 0 0;
#X connect 3 0 4 0;
#X connect 4 0 5 1;
#X connect 5 0 6 0;
#X connect 7 0 1 0;
#X connect 8 0 9 0;
#X connect 9 0 1 1;
#X connect 9 0 3 0;
#X restore 130 377 pd h21;
#N canvas 437 175 450 300 h22 0;
#X obj 119 156 osc~;
#X obj 120 91 *;
#X floatatom 121 128 5 0 0 0 - - -;
#X obj 162 91 expr 1/$f1;
#X floatatom 168 127 5 0 0 0 - - -;
#X obj 151 187 *~;
#X obj 149 237 outlet~;
#X obj 121 28 inlet freq;
#X obj 191 28 inlet bang;
#X msg 190 52 22;
#X connect 0 0 5 0;
#X connect 1 0 2 0;
#X connect 2 0 0 0;
#X connect 3 0 4 0;
#X connect 4 0 5 1;
#X connect 5 0 6 0;
#X connect 7 0 1 0;
#X connect 8 0 9 0;
#X connect 9 0 1 1;
#X connect 9 0 3 0;
#X restore 172 378 pd h22;
#N canvas 90 53 450 300 h23 0;
#X obj 119 156 osc~;
#X obj 120 91 *;
#X floatatom 121 128 5 0 0 0 - - -;
#X obj 162 91 expr 1/$f1;
#X floatatom 168 127 5 0 0 0 - - -;
#X obj 151 187 *~;
#X obj 149 237 outlet~;
#X obj 121 28 inlet freq;
#X obj 191 28 inlet bang;
#X msg 190 52 23;
#X connect 0 0 5 0;
#X connect 1 0 2 0;
#X connect 2 0 0 0;
#X connect 3 0 4 0;
#X connect 4 0 5 1;
#X connect 5 0 6 0;
#X connect 7 0 1 0;
#X connect 8 0 9 0;
#X connect 9 0 1 1;
#X connect 9 0 3 0;
#X restore 216 378 pd h23;
#N canvas 90 53 450 300 h24 0;
#X obj 119 156 osc~;
#X obj 120 91 *;
#X floatatom 121 128 5 0 0 0 - - -;
#X obj 162 91 expr 1/$f1;
#X floatatom 168 127 5 0 0 0 - - -;
#X obj 151 187 *~;
#X obj 149 237 outlet~;
#X obj 121 28 inlet freq;
#X obj 191 28 inlet bang;
#X msg 190 52 4;
#X connect 0 0 5 0;
#X connect 1 0 2 0;
#X connect 2 0 0 0;
#X connect 3 0 4 0;
#X connect 4 0 5 1;
#X connect 5 0 6 0;
#X connect 7 0 1 0;
#X connect 8 0 9 0;
#X connect 9 0 1 1;
#X connect 9 0 3 0;
#X restore 259 378 pd h24;
#N canvas 642 304 450 300 h25 0;
#X obj 119 156 osc~;
#X obj 120 91 *;
#X floatatom 121 128 5 0 0 0 - - -;
#X obj 162 91 expr 1/$f1;
#X floatatom 168 127 5 0 0 0 - - -;
#X obj 151 187 *~;
#X obj 149 237 outlet~;
#X obj 121 28 inlet freq;
#X obj 191 28 inlet bang;
#X msg 190 52 5;
#X connect 0 0 5 0;
#X connect 1 0 2 0;
#X connect 2 0 0 0;
#X connect 3 0 4 0;
#X connect 4 0 5 1;
#X connect 5 0 6 0;
#X connect 7 0 1 0;
#X connect 8 0 9 0;
#X connect 9 0 1 1;
#X connect 9 0 3 0;
#X restore 301 378 pd h25;
#N canvas 90 53 450 300 h26 0;
#X obj 119 156 osc~;
#X obj 120 91 *;
#X floatatom 121 128 5 0 0 0 - - -;
#X obj 162 91 expr 1/$f1;
#X floatatom 168 127 5 0 0 0 - - -;
#X obj 151 187 *~;
#X obj 149 237 outlet~;
#X obj 121 28 inlet freq;
#X obj 191 28 inlet bang;
#X msg 190 52 6;
#X connect 0 0 5 0;
#X connect 1 0 2 0;
#X connect 2 0 0 0;
#X connect 3 0 4 0;
#X connect 4 0 5 1;
#X connect 5 0 6 0;
#X connect 7 0 1 0;
#X connect 8 0 9 0;
#X connect 9 0 1 1;
#X connect 9 0 3 0;
#X restore 345 378 pd h26;
#N canvas 90 53 450 300 h27 0;
#X obj 119 156 osc~;
#X obj 120 91 *;
#X floatatom 121 128 5 0 0 0 - - -;
#X obj 162 91 expr 1/$f1;
#X floatatom 168 127 5 0 0 0 - - -;
#X obj 151 187 *~;
#X obj 149 237 outlet~;
#X obj 121 28 inlet freq;
#X obj 191 28 inlet bang;
#X msg 191 52 7;
#X connect 0 0 5 0;
#X connect 1 0 2 0;
#X connect 2 0 0 0;
#X connect 3 0 4 0;
#X connect 4 0 5 1;
#X connect 5 0 6 0;
#X connect 7 0 1 0;
#X connect 8 0 9 0;
#X connect 9 0 1 1;
#X connect 9 0 3 0;
#X restore 388 378 pd h27;
#N canvas 90 53 450 300 h28 0;
#X obj 119 156 osc~;
#X obj 120 91 *;
#X floatatom 121 128 5 0 0 0 - - -;
#X obj 162 91 expr 1/$f1;
#X floatatom 168 127 5 0 0 0 - - -;
#X obj 151 187 *~;
#X obj 149 237 outlet~;
#X obj 121 28 inlet freq;
#X obj 191 28 inlet bang;
#X msg 190 52 8;
#X connect 0 0 5 0;
#X connect 1 0 2 0;
#X connect 2 0 0 0;
#X connect 3 0 4 0;
#X connect 4 0 5 1;
#X connect 5 0 6 0;
#X connect 7 0 1 0;
#X connect 8 0 9 0;
#X connect 9 0 1 1;
#X connect 9 0 3 0;
#X restore 432 378 pd h28;
#N canvas 585 267 450 300 h29 0;
#X obj 119 156 osc~;
#X obj 120 91 *;
#X floatatom 121 128 5 0 0 0 - - -;
#X obj 162 91 expr 1/$f1;
#X floatatom 168 127 5 0 0 0 - - -;
#X obj 151 187 *~;
#X obj 149 237 outlet~;
#X obj 121 28 inlet freq;
#X obj 191 28 inlet bang;
#X msg 190 52 9;
#X connect 0 0 5 0;
#X connect 1 0 2 0;
#X connect 2 0 0 0;
#X connect 3 0 4 0;
#X connect 4 0 5 1;
#X connect 5 0 6 0;
#X connect 7 0 1 0;
#X connect 8 0 9 0;
#X connect 9 0 1 1;
#X connect 9 0 3 0;
#X restore 475 379 pd h29;
#N canvas 90 53 450 300 h30 0;
#X obj 119 156 osc~;
#X obj 120 91 *;
#X floatatom 121 128 5 0 0 0 - - -;
#X obj 162 91 expr 1/$f1;
#X floatatom 168 127 5 0 0 0 - - -;
#X obj 151 187 *~;
#X obj 149 237 outlet~;
#X obj 121 28 inlet freq;
#X obj 191 28 inlet bang;
#X msg 190 52 10;
#X connect 0 0 5 0;
#X connect 1 0 2 0;
#X connect 2 0 0 0;
#X connect 3 0 4 0;
#X connect 4 0 5 1;
#X connect 5 0 6 0;
#X connect 7 0 1 0;
#X connect 8 0 9 0;
#X connect 9 0 1 1;
#X connect 9 0 3 0;
#X restore 517 379 pd h30;
#N canvas 90 53 450 300 h31 0;
#X obj 119 156 osc~;
#X obj 120 91 *;
#X floatatom 121 128 5 0 0 0 - - -;
#X obj 162 91 expr 1/$f1;
#X floatatom 168 127 5 0 0 0 - - -;
#X obj 151 187 *~;
#X obj 149 237 outlet~;
#X obj 121 28 inlet freq;
#X obj 191 28 inlet bang;
#X msg 190 52 11;
#X connect 0 0 5 0;
#X connect 1 0 2 0;
#X connect 2 0 0 0;
#X connect 3 0 4 0;
#X connect 4 0 5 1;
#X connect 5 0 6 0;
#X connect 7 0 1 0;
#X connect 8 0 9 0;
#X connect 9 0 1 1;
#X connect 9 0 3 0;
#X restore 559 379 pd h31;
#N canvas 394 326 450 300 h32 0;
#X obj 119 156 osc~;
#X obj 120 91 *;
#X floatatom 121 128 5 0 0 0 - - -;
#X obj 162 91 expr 1/$f1;
#X floatatom 168 127 5 0 0 0 - - -;
#X obj 151 187 *~;
#X obj 149 237 outlet~;
#X obj 121 28 inlet freq;
#X obj 191 28 inlet bang;
#X msg 190 52 12;
#X connect 0 0 5 0;
#X connect 1 0 2 0;
#X connect 2 0 0 0;
#X connect 3 0 4 0;
#X connect 4 0 5 1;
#X connect 5 0 6 0;
#X connect 7 0 1 0;
#X connect 8 0 9 0;
#X connect 9 0 1 1;
#X connect 9 0 3 0;
#X restore 602 379 pd h32;
#N canvas 394 326 450 300 h33 0;
#X obj 119 156 osc~;
#X obj 120 91 *;
#X floatatom 121 128 5 0 0 0 - - -;
#X obj 162 91 expr 1/$f1;
#X floatatom 168 127 5 0 0 0 - - -;
#X obj 151 187 *~;
#X obj 149 237 outlet~;
#X obj 121 28 inlet freq;
#X obj 191 28 inlet bang;
#X msg 190 52 13;
#X connect 0 0 5 0;
#X connect 1 0 2 0;
#X connect 2 0 0 0;
#X connect 3 0 4 0;
#X connect 4 0 5 1;
#X connect 5 0 6 0;
#X connect 7 0 1 0;
#X connect 8 0 9 0;
#X connect 9 0 1 1;
#X connect 9 0 3 0;
#X restore 644 379 pd h33;
#N canvas 394 326 450 300 h34 0;
#X obj 119 156 osc~;
#X obj 120 91 *;
#X floatatom 121 128 5 0 0 0 - - -;
#X obj 162 91 expr 1/$f1;
#X floatatom 168 127 5 0 0 0 - - -;
#X obj 151 187 *~;
#X obj 149 237 outlet~;
#X obj 121 28 inlet freq;
#X obj 191 28 inlet bang;
#X msg 190 52 14;
#X connect 0 0 5 0;
#X connect 1 0 2 0;
#X connect 2 0 0 0;
#X connect 3 0 4 0;
#X connect 4 0 5 1;
#X connect 5 0 6 0;
#X connect 7 0 1 0;
#X connect 8 0 9 0;
#X connect 9 0 1 1;
#X connect 9 0 3 0;
#X restore 687 379 pd h34;
#N canvas 394 326 450 300 h35 0;
#X obj 119 156 osc~;
#X obj 120 91 *;
#X floatatom 121 128 5 0 0 0 - - -;
#X obj 162 91 expr 1/$f1;
#X floatatom 168 127 5 0 0 0 - - -;
#X obj 151 187 *~;
#X obj 149 237 outlet~;
#X obj 121 28 inlet freq;
#X obj 191 28 inlet bang;
#X msg 190 52 15;
#X connect 0 0 5 0;
#X connect 1 0 2 0;
#X connect 2 0 0 0;
#X connect 3 0 4 0;
#X connect 4 0 5 1;
#X connect 5 0 6 0;
#X connect 7 0 1 0;
#X connect 8 0 9 0;
#X connect 9 0 1 1;
#X connect 9 0 3 0;
#X restore 729 379 pd h35;
#N canvas 394 326 450 300 h36 0;
#X obj 119 156 osc~;
#X obj 120 91 *;
#X floatatom 121 128 5 0 0 0 - - -;
#X obj 162 91 expr 1/$f1;
#X floatatom 168 127 5 0 0 0 - - -;
#X obj 151 187 *~;
#X obj 149 237 outlet~;
#X obj 121 28 inlet freq;
#X obj 191 28 inlet bang;
#X msg 190 52 16;
#X connect 0 0 5 0;
#X connect 1 0 2 0;
#X connect 2 0 0 0;
#X connect 3 0 4 0;
#X connect 4 0 5 1;
#X connect 5 0 6 0;
#X connect 7 0 1 0;
#X connect 8 0 9 0;
#X connect 9 0 1 1;
#X connect 9 0 3 0;
#X restore 772 379 pd h36;
#N canvas 394 326 450 300 h37 0;
#X obj 119 156 osc~;
#X obj 120 91 *;
#X floatatom 121 128 5 0 0 0 - - -;
#X obj 162 91 expr 1/$f1;
#X floatatom 168 127 5 0 0 0 - - -;
#X obj 151 187 *~;
#X obj 149 237 outlet~;
#X obj 121 28 inlet freq;
#X obj 191 28 inlet bang;
#X msg 190 52 17;
#X connect 0 0 5 0;
#X connect 1 0 2 0;
#X connect 2 0 0 0;
#X connect 3 0 4 0;
#X connect 4 0 5 1;
#X connect 5 0 6 0;
#X connect 7 0 1 0;
#X connect 8 0 9 0;
#X connect 9 0 1 1;
#X connect 9 0 3 0;
#X restore 814 378 pd h37;
#N canvas 394 326 450 300 h38 0;
#X obj 119 156 osc~;
#X obj 120 91 *;
#X floatatom 121 128 5 0 0 0 - - -;
#X obj 162 91 expr 1/$f1;
#X floatatom 168 127 5 0 0 0 - - -;
#X obj 151 187 *~;
#X obj 149 237 outlet~;
#X obj 121 28 inlet freq;
#X obj 191 28 inlet bang;
#X msg 190 52 18;
#X connect 0 0 5 0;
#X connect 1 0 2 0;
#X connect 2 0 0 0;
#X connect 3 0 4 0;
#X connect 4 0 5 1;
#X connect 5 0 6 0;
#X connect 7 0 1 0;
#X connect 8 0 9 0;
#X connect 9 0 1 1;
#X connect 9 0 3 0;
#X restore 856 378 pd h38;
#N canvas 394 326 450 300 h39 0;
#X obj 119 156 osc~;
#X obj 120 91 *;
#X floatatom 121 128 5 0 0 0 - - -;
#X obj 162 91 expr 1/$f1;
#X floatatom 168 127 5 0 0 0 - - -;
#X obj 151 187 *~;
#X obj 149 237 outlet~;
#X obj 121 28 inlet freq;
#X obj 191 28 inlet bang;
#X msg 190 52 19;
#X connect 0 0 5 0;
#X connect 1 0 2 0;
#X connect 2 0 0 0;
#X connect 3 0 4 0;
#X connect 4 0 5 1;
#X connect 5 0 6 0;
#X connect 7 0 1 0;
#X connect 8 0 9 0;
#X connect 9 0 1 1;
#X connect 9 0 3 0;
#X restore 899 377 pd h39;
#N canvas 394 326 450 300 h40 0;
#X obj 119 156 osc~;
#X obj 120 91 *;
#X floatatom 121 128 5 0 0 0 - - -;
#X obj 162 91 expr 1/$f1;
#X floatatom 168 127 5 0 0 0 - - -;
#X obj 151 187 *~;
#X obj 149 237 outlet~;
#X obj 121 28 inlet freq;
#X obj 191 28 inlet bang;
#X msg 190 52 20;
#X connect 0 0 5 0;
#X connect 1 0 2 0;
#X connect 2 0 0 0;
#X connect 3 0 4 0;
#X connect 4 0 5 1;
#X connect 5 0 6 0;
#X connect 7 0 1 0;
#X connect 8 0 9 0;
#X connect 9 0 1 1;
#X connect 9 0 3 0;
#X restore 942 377 pd h40;
#X connect 0 0 3 0;
#X connect 0 0 4 0;
#X connect 0 0 5 0;
#X connect 0 0 6 0;
#X connect 0 0 7 0;
#X connect 0 0 8 0;
#X connect 0 0 9 0;
#X connect 0 0 10 0;
#X connect 0 0 11 0;
#X connect 0 0 12 0;
#X connect 0 0 13 0;
#X connect 0 0 14 0;
#X connect 0 0 15 0;
#X connect 0 0 16 0;
#X connect 0 0 17 0;
#X connect 0 0 18 0;
#X connect 0 0 19 0;
#X connect 0 0 20 0;
#X connect 0 0 21 0;
#X connect 0 0 22 0;
#X connect 1 0 3 1;
#X connect 1 0 4 1;
#X connect 1 0 5 1;
#X connect 1 0 6 1;
#X connect 1 0 7 1;
#X connect 1 0 8 1;
#X connect 1 0 9 1;
#X connect 1 0 10 1;
#X connect 1 0 11 1;
#X connect 1 0 12 1;
#X connect 1 0 13 1;
#X connect 1 0 14 1;
#X connect 1 0 15 1;
#X connect 1 0 16 1;
#X connect 1 0 17 1;
#X connect 1 0 19 1;
#X connect 1 0 18 1;
#X connect 1 0 20 1;
#X connect 1 0 21 1;
#X connect 1 0 22 1;
#X connect 3 0 2 0;
#X connect 4 0 2 0;
#X connect 5 0 2 0;
#X connect 6 0 2 0;
#X connect 7 0 2 0;
#X connect 8 0 2 0;
#X connect 9 0 2 0;
#X connect 10 0 2 0;
#X connect 11 0 2 0;
#X connect 12 0 2 0;
#X connect 13 0 2 0;
#X connect 14 0 2 0;
#X connect 15 0 2 0;
#X connect 16 0 2 0;
#X connect 17 0 2 0;
#X connect 18 0 2 0;
#X connect 19 0 2 0;
#X connect 20 0 2 0;
#X connect 21 0 2 0;
#X connect 22 0 2 0;
#X restore 526 155 pd harmonics;
#X connect 0 0 2 0;
#X connect 2 0 1 0;
#X connect 2 0 1 1;
#X connect 3 0 4 0;
#X connect 3 0 6 0;
#X connect 4 0 5 0;
#X connect 4 1 7 1;
#X connect 5 0 7 0;
#X connect 6 0 2 1;
#X connect 7 0 0 0;
