#N canvas 137 165 1170 504 10;
#X obj 466 365 dac~;
#X obj 535 72 bng 15 250 50 0 empty empty empty 17 7 0 10 -262144 -1
-1;
#X obj 443 159 t b b;
#N canvas 89 105 1111 540 harmonics 1;
#X obj 130 20 inlet freq;
#X obj 456 474 outlet~;
#N canvas 368 307 625 431 h01 1;
#X obj 181 219 osc~;
#X msg 202 85 1;
#X obj 182 154 *;
#X floatatom 183 191 5 0 0 0 - - -;
#X obj 224 154 expr 1/$f1;
#X floatatom 230 190 5 0 0 0 - - -;
#X obj 213 258 *~;
#N canvas 567 183 458 495 ADSR 0;
#X obj 77 142 pack f f f f;
#X msg 78 172 1 \$2 \, \$4 \$3 \$2;
#X obj 129 211 vline~;
#X obj 131 271 outlet~;
#X obj 123 61 inlet trigger;
#X obj -59 22 inlet a;
#X obj -11 23 inlet d;
#X obj 35 22 inlet s;
#X obj 83 22 inlet r;
#X obj 211 61 inlet velocity;
#X obj 212 103 sel 0;
#X obj 181 140 pack f f;
#X msg 180 173 0 \$2;
#X connect 0 0 1 0;
#X connect 1 0 2 0;
#X connect 2 0 3 0;
#X connect 4 0 0 0;
#X connect 5 0 0 1;
#X connect 6 0 0 2;
#X connect 7 0 0 3;
#X connect 8 0 11 1;
#X connect 9 0 10 0;
#X connect 10 0 11 0;
#X connect 11 0 12 0;
#X connect 12 0 2 1;
#X restore 395 150 pd ADSR;
#X obj 133 16 r freq;
#X obj 215 9 r trigger;
#X obj 377 16 r a;
#X obj 404 17 r d;
#X obj 432 18 r s;
#X obj 459 17 r r;
#X obj 208 305 s~ harmonics_out;
#X floatatom 509 96 5 0 0 0 - - -;
#X connect 0 0 6 0;
#X connect 1 0 2 1;
#X connect 1 0 4 0;
#X connect 2 0 3 0;
#X connect 3 0 0 0;
#X connect 4 0 5 0;
#X connect 5 0 6 1;
#X connect 6 0 14 0;
#X connect 8 0 2 0;
#X connect 9 0 1 0;
#X connect 9 0 7 4;
#X connect 10 0 7 0;
#X connect 10 0 15 0;
#X connect 11 0 7 1;
#X connect 11 0 15 0;
#X connect 12 0 7 2;
#X connect 12 0 15 0;
#X connect 13 0 7 3;
#X connect 13 0 15 0;
#X restore 447 202 pd h01;
#X obj 282 22 inlet trigger;
#X obj 749 24 inlet a;
#X obj 799 23 inlet d;
#X obj 848 23 inlet s;
#X obj 897 22 inlet r;
#X obj 131 49 s freq;
#X obj 282 48 s trigger;
#X obj 749 56 s a;
#X obj 798 54 s d;
#X obj 847 53 s s;
#X obj 897 52 s r;
#X obj 454 443 r~ harmonics_out;
#X text 433 23 for simplicity all harmonic modules use send and receive
objects instead of connections;
#X connect 0 0 8 0;
#X connect 3 0 9 0;
#X connect 4 0 10 0;
#X connect 5 0 11 0;
#X connect 6 0 12 0;
#X connect 7 0 13 0;
#X connect 14 0 1 0;
#X restore 425 266 pd harmonics;
#N canvas 416 320 450 300 amp 0;
#X obj 129 15 inlet~;
#X obj 187 256 outlet~;
#X obj 187 182 *~;
#X obj 287 26 inlet~ env;
#X obj 198 20 inlet volume;
#X obj 182 92 *~;
#X connect 0 0 5 0;
#X connect 2 0 1 0;
#X connect 3 0 2 1;
#X connect 4 0 5 1;
#X connect 5 0 2 0;
#X restore 463 313 pd amp;
#N canvas 567 183 458 495 ADSR 0;
#X obj 77 142 pack f f f f;
#X msg 78 172 1 \$2 \, \$4 \$3 \$2;
#X obj 129 211 vline~;
#X obj 131 271 outlet~;
#X obj 123 61 inlet trigger;
#X obj -59 22 inlet a;
#X obj -11 23 inlet d;
#X obj 35 22 inlet s;
#X obj 83 22 inlet r;
#X obj 211 61 inlet velocity;
#X obj 212 103 sel 0;
#X obj 181 140 pack f f;
#X msg 180 173 0 \$2;
#X connect 0 0 1 0;
#X connect 1 0 2 0;
#X connect 2 0 3 0;
#X connect 4 0 0 0;
#X connect 5 0 0 1;
#X connect 6 0 0 2;
#X connect 7 0 0 3;
#X connect 8 0 11 1;
#X connect 9 0 10 0;
#X connect 10 0 11 0;
#X connect 11 0 12 0;
#X connect 12 0 2 1;
#X restore 544 293 pd ADSR;
#X obj 823 7 vsl 15 128 0 127 0 0 empty empty A 0 -9 0 10 -262144 -1
-1 7500 1;
#X obj 860 6 vsl 15 128 5 500 0 0 empty empty D 0 -9 0 10 -262144 -1
-1 10600 1;
#X obj 895 7 vsl 15 128 0 1 0 0 empty empty S 0 -9 0 10 -262144 -1
-1 0 1;
#X obj 932 6 vsl 15 128 0 500 0 0 empty empty R 0 -9 0 10 -262144 -1
-1 0 1;
#X floatatom 818 146 5 0 0 0 - - -;
#X floatatom 854 145 5 0 0 0 - - -;
#X floatatom 891 145 5 0 0 0 - - -;
#X floatatom 928 145 5 0 0 0 - - -;
#X text 857 -29 amp envelope;
#X msg 421 201 500;
#X obj 737 10 vsl 15 128 0 1 0 0 empty empty volume 0 -9 0 10 -262144
-1 -1 8700 1;
#X connect 1 0 2 0;
#X connect 1 0 5 4;
#X connect 1 0 3 1;
#X connect 2 0 15 0;
#X connect 3 0 4 0;
#X connect 4 0 0 0;
#X connect 4 0 0 1;
#X connect 5 0 4 2;
#X connect 6 0 10 0;
#X connect 7 0 11 0;
#X connect 8 0 12 0;
#X connect 9 0 13 0;
#X connect 10 0 5 0;
#X connect 10 0 3 2;
#X connect 11 0 5 1;
#X connect 11 0 3 3;
#X connect 12 0 5 2;
#X connect 12 0 3 4;
#X connect 13 0 5 3;
#X connect 13 0 3 5;
#X connect 15 0 3 0;
#X connect 16 0 4 1;
