#N canvas 28 151 1170 504 10;
#X obj 515 332 dac~;
#X obj 559 50 bng 15 250 50 0 empty empty empty 17 7 0 10 -262144 -1
-1;
#X obj 492 126 t b b;
#N canvas 170 143 1111 540 harmonics 0;
#X obj 431 20 inlet freq;
#X obj 583 22 inlet bang;
#X obj 552 328 outlet~;
#N canvas 90 53 450 300 h01 0;
#X obj 119 156 osc~;
#X msg 190 52 1;
#X obj 120 91 *;
#X floatatom 121 128 5 0 0 0 - - -;
#X obj 162 91 expr 1/$f1;
#X floatatom 168 127 5 0 0 0 - - -;
#X obj 151 187 *~;
#X obj 149 237 outlet~;
#X obj 121 28 inlet freq;
#X obj 191 28 inlet bang;
#X connect 0 0 6 0;
#X connect 1 0 2 1;
#X connect 1 0 4 0;
#X connect 2 0 3 0;
#X connect 3 0 0 0;
#X connect 4 0 5 0;
#X connect 5 0 6 1;
#X connect 6 0 7 0;
#X connect 8 0 2 0;
#X connect 9 0 1 0;
#X restore 113 80 pd h01;
#N canvas 437 175 450 300 h02 0;
#X obj 119 156 osc~;
#X obj 120 91 *;
#X floatatom 121 128 5 0 0 0 - - -;
#X obj 162 91 expr 1/$f1;
#X floatatom 168 127 5 0 0 0 - - -;
#X obj 151 187 *~;
#X obj 149 237 outlet~;
#X obj 121 28 inlet freq;
#X obj 191 28 inlet bang;
#X msg 190 52 2;
#X connect 0 0 5 0;
#X connect 1 0 2 0;
#X connect 2 0 0 0;
#X connect 3 0 4 0;
#X connect 4 0 5 1;
#X connect 5 0 6 0;
#X connect 7 0 1 0;
#X connect 8 0 9 0;
#X connect 9 0 1 1;
#X connect 9 0 3 0;
#X restore 155 81 pd h02;
#N canvas 90 53 450 300 h03 0;
#X obj 119 156 osc~;
#X obj 120 91 *;
#X floatatom 121 128 5 0 0 0 - - -;
#X obj 162 91 expr 1/$f1;
#X floatatom 168 127 5 0 0 0 - - -;
#X obj 151 187 *~;
#X obj 149 237 outlet~;
#X obj 121 28 inlet freq;
#X obj 191 28 inlet bang;
#X msg 190 52 3;
#X connect 0 0 5 0;
#X connect 1 0 2 0;
#X connect 2 0 0 0;
#X connect 3 0 4 0;
#X connect 4 0 5 1;
#X connect 5 0 6 0;
#X connect 7 0 1 0;
#X connect 8 0 9 0;
#X connect 9 0 1 1;
#X connect 9 0 3 0;
#X restore 199 81 pd h03;
#N canvas 90 53 450 300 h04 0;
#X obj 119 156 osc~;
#X obj 120 91 *;
#X floatatom 121 128 5 0 0 0 - - -;
#X obj 162 91 expr 1/$f1;
#X floatatom 168 127 5 0 0 0 - - -;
#X obj 151 187 *~;
#X obj 149 237 outlet~;
#X obj 121 28 inlet freq;
#X obj 191 28 inlet bang;
#X msg 190 52 4;
#X connect 0 0 5 0;
#X connect 1 0 2 0;
#X connect 2 0 0 0;
#X connect 3 0 4 0;
#X connect 4 0 5 1;
#X connect 5 0 6 0;
#X connect 7 0 1 0;
#X connect 8 0 9 0;
#X connect 9 0 1 1;
#X connect 9 0 3 0;
#X restore 242 81 pd h04;
#N canvas 642 304 450 300 h05 0;
#X obj 119 156 osc~;
#X obj 120 91 *;
#X floatatom 121 128 5 0 0 0 - - -;
#X obj 162 91 expr 1/$f1;
#X floatatom 168 127 5 0 0 0 - - -;
#X obj 151 187 *~;
#X obj 149 237 outlet~;
#X obj 121 28 inlet freq;
#X obj 191 28 inlet bang;
#X msg 190 52 5;
#X connect 0 0 5 0;
#X connect 1 0 2 0;
#X connect 2 0 0 0;
#X connect 3 0 4 0;
#X connect 4 0 5 1;
#X connect 5 0 6 0;
#X connect 7 0 1 0;
#X connect 8 0 9 0;
#X connect 9 0 1 1;
#X connect 9 0 3 0;
#X restore 284 81 pd h05;
#N canvas 90 53 450 300 h06 0;
#X obj 119 156 osc~;
#X obj 120 91 *;
#X floatatom 121 128 5 0 0 0 - - -;
#X obj 162 91 expr 1/$f1;
#X floatatom 168 127 5 0 0 0 - - -;
#X obj 151 187 *~;
#X obj 149 237 outlet~;
#X obj 121 28 inlet freq;
#X obj 191 28 inlet bang;
#X msg 190 52 6;
#X connect 0 0 5 0;
#X connect 1 0 2 0;
#X connect 2 0 0 0;
#X connect 3 0 4 0;
#X connect 4 0 5 1;
#X connect 5 0 6 0;
#X connect 7 0 1 0;
#X connect 8 0 9 0;
#X connect 9 0 1 1;
#X connect 9 0 3 0;
#X restore 328 81 pd h06;
#N canvas 90 53 450 300 h07 0;
#X obj 119 156 osc~;
#X obj 120 91 *;
#X floatatom 121 128 5 0 0 0 - - -;
#X obj 162 91 expr 1/$f1;
#X floatatom 168 127 5 0 0 0 - - -;
#X obj 151 187 *~;
#X obj 149 237 outlet~;
#X obj 121 28 inlet freq;
#X obj 191 28 inlet bang;
#X msg 191 52 7;
#X connect 0 0 5 0;
#X connect 1 0 2 0;
#X connect 2 0 0 0;
#X connect 3 0 4 0;
#X connect 4 0 5 1;
#X connect 5 0 6 0;
#X connect 7 0 1 0;
#X connect 8 0 9 0;
#X connect 9 0 1 1;
#X connect 9 0 3 0;
#X restore 371 81 pd h07;
#N canvas 90 53 450 300 h08 0;
#X obj 119 156 osc~;
#X obj 120 91 *;
#X floatatom 121 128 5 0 0 0 - - -;
#X obj 162 91 expr 1/$f1;
#X floatatom 168 127 5 0 0 0 - - -;
#X obj 151 187 *~;
#X obj 149 237 outlet~;
#X obj 121 28 inlet freq;
#X obj 191 28 inlet bang;
#X msg 190 52 8;
#X connect 0 0 5 0;
#X connect 1 0 2 0;
#X connect 2 0 0 0;
#X connect 3 0 4 0;
#X connect 4 0 5 1;
#X connect 5 0 6 0;
#X connect 7 0 1 0;
#X connect 8 0 9 0;
#X connect 9 0 1 1;
#X connect 9 0 3 0;
#X restore 415 81 pd h08;
#N canvas 585 267 450 300 h09 0;
#X obj 119 156 osc~;
#X obj 120 91 *;
#X floatatom 121 128 5 0 0 0 - - -;
#X obj 162 91 expr 1/$f1;
#X floatatom 168 127 5 0 0 0 - - -;
#X obj 151 187 *~;
#X obj 149 237 outlet~;
#X obj 121 28 inlet freq;
#X obj 191 28 inlet bang;
#X msg 190 52 9;
#X connect 0 0 5 0;
#X connect 1 0 2 0;
#X connect 2 0 0 0;
#X connect 3 0 4 0;
#X connect 4 0 5 1;
#X connect 5 0 6 0;
#X connect 7 0 1 0;
#X connect 8 0 9 0;
#X connect 9 0 1 1;
#X connect 9 0 3 0;
#X restore 458 82 pd h09;
#N canvas 90 53 450 300 h10 0;
#X obj 119 156 osc~;
#X obj 120 91 *;
#X floatatom 121 128 5 0 0 0 - - -;
#X obj 162 91 expr 1/$f1;
#X floatatom 168 127 5 0 0 0 - - -;
#X obj 151 187 *~;
#X obj 149 237 outlet~;
#X obj 121 28 inlet freq;
#X obj 191 28 inlet bang;
#X msg 190 52 10;
#X connect 0 0 5 0;
#X connect 1 0 2 0;
#X connect 2 0 0 0;
#X connect 3 0 4 0;
#X connect 4 0 5 1;
#X connect 5 0 6 0;
#X connect 7 0 1 0;
#X connect 8 0 9 0;
#X connect 9 0 1 1;
#X connect 9 0 3 0;
#X restore 500 82 pd h10;
#N canvas 90 53 450 300 h11 0;
#X obj 119 156 osc~;
#X obj 120 91 *;
#X floatatom 121 128 5 0 0 0 - - -;
#X obj 162 91 expr 1/$f1;
#X floatatom 168 127 5 0 0 0 - - -;
#X obj 151 187 *~;
#X obj 149 237 outlet~;
#X obj 121 28 inlet freq;
#X obj 191 28 inlet bang;
#X msg 190 52 11;
#X connect 0 0 5 0;
#X connect 1 0 2 0;
#X connect 2 0 0 0;
#X connect 3 0 4 0;
#X connect 4 0 5 1;
#X connect 5 0 6 0;
#X connect 7 0 1 0;
#X connect 8 0 9 0;
#X connect 9 0 1 1;
#X connect 9 0 3 0;
#X restore 542 82 pd h11;
#N canvas 394 326 450 300 h12 0;
#X obj 119 156 osc~;
#X obj 120 91 *;
#X floatatom 121 128 5 0 0 0 - - -;
#X obj 162 91 expr 1/$f1;
#X floatatom 168 127 5 0 0 0 - - -;
#X obj 151 187 *~;
#X obj 149 237 outlet~;
#X obj 121 28 inlet freq;
#X obj 191 28 inlet bang;
#X msg 190 52 12;
#X connect 0 0 5 0;
#X connect 1 0 2 0;
#X connect 2 0 0 0;
#X connect 3 0 4 0;
#X connect 4 0 5 1;
#X connect 5 0 6 0;
#X connect 7 0 1 0;
#X connect 8 0 9 0;
#X connect 9 0 1 1;
#X connect 9 0 3 0;
#X restore 585 82 pd h12;
#N canvas 394 326 450 300 h13 0;
#X obj 119 156 osc~;
#X obj 120 91 *;
#X floatatom 121 128 5 0 0 0 - - -;
#X obj 162 91 expr 1/$f1;
#X floatatom 168 127 5 0 0 0 - - -;
#X obj 151 187 *~;
#X obj 149 237 outlet~;
#X obj 121 28 inlet freq;
#X obj 191 28 inlet bang;
#X msg 190 52 13;
#X connect 0 0 5 0;
#X connect 1 0 2 0;
#X connect 2 0 0 0;
#X connect 3 0 4 0;
#X connect 4 0 5 1;
#X connect 5 0 6 0;
#X connect 7 0 1 0;
#X connect 8 0 9 0;
#X connect 9 0 1 1;
#X connect 9 0 3 0;
#X restore 627 82 pd h13;
#N canvas 394 326 450 300 h14 0;
#X obj 119 156 osc~;
#X obj 120 91 *;
#X floatatom 121 128 5 0 0 0 - - -;
#X obj 162 91 expr 1/$f1;
#X floatatom 168 127 5 0 0 0 - - -;
#X obj 151 187 *~;
#X obj 149 237 outlet~;
#X obj 121 28 inlet freq;
#X obj 191 28 inlet bang;
#X msg 190 52 14;
#X connect 0 0 5 0;
#X connect 1 0 2 0;
#X connect 2 0 0 0;
#X connect 3 0 4 0;
#X connect 4 0 5 1;
#X connect 5 0 6 0;
#X connect 7 0 1 0;
#X connect 8 0 9 0;
#X connect 9 0 1 1;
#X connect 9 0 3 0;
#X restore 670 82 pd h14;
#N canvas 394 326 450 300 h15 0;
#X obj 119 156 osc~;
#X obj 120 91 *;
#X floatatom 121 128 5 0 0 0 - - -;
#X obj 162 91 expr 1/$f1;
#X floatatom 168 127 5 0 0 0 - - -;
#X obj 151 187 *~;
#X obj 149 237 outlet~;
#X obj 121 28 inlet freq;
#X obj 191 28 inlet bang;
#X msg 190 52 15;
#X connect 0 0 5 0;
#X connect 1 0 2 0;
#X connect 2 0 0 0;
#X connect 3 0 4 0;
#X connect 4 0 5 1;
#X connect 5 0 6 0;
#X connect 7 0 1 0;
#X connect 8 0 9 0;
#X connect 9 0 1 1;
#X connect 9 0 3 0;
#X restore 712 82 pd h15;
#N canvas 394 326 450 300 h16 0;
#X obj 119 156 osc~;
#X obj 120 91 *;
#X floatatom 121 128 5 0 0 0 - - -;
#X obj 162 91 expr 1/$f1;
#X floatatom 168 127 5 0 0 0 - - -;
#X obj 151 187 *~;
#X obj 149 237 outlet~;
#X obj 121 28 inlet freq;
#X obj 191 28 inlet bang;
#X msg 190 52 16;
#X connect 0 0 5 0;
#X connect 1 0 2 0;
#X connect 2 0 0 0;
#X connect 3 0 4 0;
#X connect 4 0 5 1;
#X connect 5 0 6 0;
#X connect 7 0 1 0;
#X connect 8 0 9 0;
#X connect 9 0 1 1;
#X connect 9 0 3 0;
#X restore 755 82 pd h16;
#N canvas 394 326 450 300 h17 0;
#X obj 119 156 osc~;
#X obj 120 91 *;
#X floatatom 121 128 5 0 0 0 - - -;
#X obj 162 91 expr 1/$f1;
#X floatatom 168 127 5 0 0 0 - - -;
#X obj 151 187 *~;
#X obj 149 237 outlet~;
#X obj 121 28 inlet freq;
#X obj 191 28 inlet bang;
#X msg 190 52 17;
#X connect 0 0 5 0;
#X connect 1 0 2 0;
#X connect 2 0 0 0;
#X connect 3 0 4 0;
#X connect 4 0 5 1;
#X connect 5 0 6 0;
#X connect 7 0 1 0;
#X connect 8 0 9 0;
#X connect 9 0 1 1;
#X connect 9 0 3 0;
#X restore 797 81 pd h17;
#N canvas 394 326 450 300 h18 0;
#X obj 119 156 osc~;
#X obj 120 91 *;
#X floatatom 121 128 5 0 0 0 - - -;
#X obj 162 91 expr 1/$f1;
#X floatatom 168 127 5 0 0 0 - - -;
#X obj 151 187 *~;
#X obj 149 237 outlet~;
#X obj 121 28 inlet freq;
#X obj 191 28 inlet bang;
#X msg 190 52 18;
#X connect 0 0 5 0;
#X connect 1 0 2 0;
#X connect 2 0 0 0;
#X connect 3 0 4 0;
#X connect 4 0 5 1;
#X connect 5 0 6 0;
#X connect 7 0 1 0;
#X connect 8 0 9 0;
#X connect 9 0 1 1;
#X connect 9 0 3 0;
#X restore 839 81 pd h18;
#N canvas 394 326 450 300 h19 0;
#X obj 119 156 osc~;
#X obj 120 91 *;
#X floatatom 121 128 5 0 0 0 - - -;
#X obj 162 91 expr 1/$f1;
#X floatatom 168 127 5 0 0 0 - - -;
#X obj 151 187 *~;
#X obj 149 237 outlet~;
#X obj 121 28 inlet freq;
#X obj 191 28 inlet bang;
#X msg 190 52 19;
#X connect 0 0 5 0;
#X connect 1 0 2 0;
#X connect 2 0 0 0;
#X connect 3 0 4 0;
#X connect 4 0 5 1;
#X connect 5 0 6 0;
#X connect 7 0 1 0;
#X connect 8 0 9 0;
#X connect 9 0 1 1;
#X connect 9 0 3 0;
#X restore 882 80 pd h19;
#N canvas 394 326 450 300 h20 0;
#X obj 119 156 osc~;
#X obj 120 91 *;
#X floatatom 121 128 5 0 0 0 - - -;
#X obj 162 91 expr 1/$f1;
#X floatatom 168 127 5 0 0 0 - - -;
#X obj 151 187 *~;
#X obj 149 237 outlet~;
#X obj 121 28 inlet freq;
#X obj 191 28 inlet bang;
#X msg 190 52 20;
#X connect 0 0 5 0;
#X connect 1 0 2 0;
#X connect 2 0 0 0;
#X connect 3 0 4 0;
#X connect 4 0 5 1;
#X connect 5 0 6 0;
#X connect 7 0 1 0;
#X connect 8 0 9 0;
#X connect 9 0 1 1;
#X connect 9 0 3 0;
#X restore 925 80 pd h20;
#N canvas 90 53 450 300 h21 0;
#X obj 119 156 osc~;
#X obj 120 91 *;
#X floatatom 121 128 5 0 0 0 - - -;
#X obj 162 91 expr 1/$f1;
#X floatatom 168 127 5 0 0 0 - - -;
#X obj 151 187 *~;
#X obj 149 237 outlet~;
#X obj 121 28 inlet freq;
#X obj 191 28 inlet bang;
#X msg 190 52 21;
#X connect 0 0 5 0;
#X connect 1 0 2 0;
#X connect 2 0 0 0;
#X connect 3 0 4 0;
#X connect 4 0 5 1;
#X connect 5 0 6 0;
#X connect 7 0 1 0;
#X connect 8 0 9 0;
#X connect 9 0 1 1;
#X connect 9 0 3 0;
#X restore 115 118 pd h21;
#N canvas 437 175 450 300 h22 0;
#X obj 119 156 osc~;
#X obj 120 91 *;
#X floatatom 121 128 5 0 0 0 - - -;
#X obj 162 91 expr 1/$f1;
#X floatatom 168 127 5 0 0 0 - - -;
#X obj 151 187 *~;
#X obj 149 237 outlet~;
#X obj 121 28 inlet freq;
#X obj 191 28 inlet bang;
#X msg 190 52 22;
#X connect 0 0 5 0;
#X connect 1 0 2 0;
#X connect 2 0 0 0;
#X connect 3 0 4 0;
#X connect 4 0 5 1;
#X connect 5 0 6 0;
#X connect 7 0 1 0;
#X connect 8 0 9 0;
#X connect 9 0 1 1;
#X connect 9 0 3 0;
#X restore 157 119 pd h22;
#N canvas 90 53 450 300 h23 0;
#X obj 119 156 osc~;
#X obj 120 91 *;
#X floatatom 121 128 5 0 0 0 - - -;
#X obj 162 91 expr 1/$f1;
#X floatatom 168 127 5 0 0 0 - - -;
#X obj 151 187 *~;
#X obj 149 237 outlet~;
#X obj 121 28 inlet freq;
#X obj 191 28 inlet bang;
#X msg 190 52 23;
#X connect 0 0 5 0;
#X connect 1 0 2 0;
#X connect 2 0 0 0;
#X connect 3 0 4 0;
#X connect 4 0 5 1;
#X connect 5 0 6 0;
#X connect 7 0 1 0;
#X connect 8 0 9 0;
#X connect 9 0 1 1;
#X connect 9 0 3 0;
#X restore 201 119 pd h23;
#N canvas 90 53 450 300 h24 0;
#X obj 119 156 osc~;
#X obj 120 91 *;
#X floatatom 121 128 5 0 0 0 - - -;
#X obj 162 91 expr 1/$f1;
#X floatatom 168 127 5 0 0 0 - - -;
#X obj 151 187 *~;
#X obj 149 237 outlet~;
#X obj 121 28 inlet freq;
#X obj 191 28 inlet bang;
#X msg 190 52 24;
#X connect 0 0 5 0;
#X connect 1 0 2 0;
#X connect 2 0 0 0;
#X connect 3 0 4 0;
#X connect 4 0 5 1;
#X connect 5 0 6 0;
#X connect 7 0 1 0;
#X connect 8 0 9 0;
#X connect 9 0 1 1;
#X connect 9 0 3 0;
#X restore 244 119 pd h24;
#N canvas 642 304 450 300 h25 0;
#X obj 119 156 osc~;
#X obj 120 91 *;
#X floatatom 121 128 5 0 0 0 - - -;
#X obj 162 91 expr 1/$f1;
#X floatatom 168 127 5 0 0 0 - - -;
#X obj 151 187 *~;
#X obj 149 237 outlet~;
#X obj 121 28 inlet freq;
#X obj 191 28 inlet bang;
#X msg 190 52 25;
#X connect 0 0 5 0;
#X connect 1 0 2 0;
#X connect 2 0 0 0;
#X connect 3 0 4 0;
#X connect 4 0 5 1;
#X connect 5 0 6 0;
#X connect 7 0 1 0;
#X connect 8 0 9 0;
#X connect 9 0 1 1;
#X connect 9 0 3 0;
#X restore 286 119 pd h25;
#N canvas 90 53 450 300 h26 0;
#X obj 119 156 osc~;
#X obj 120 91 *;
#X floatatom 121 128 5 0 0 0 - - -;
#X obj 162 91 expr 1/$f1;
#X floatatom 168 127 5 0 0 0 - - -;
#X obj 151 187 *~;
#X obj 149 237 outlet~;
#X obj 121 28 inlet freq;
#X obj 191 28 inlet bang;
#X msg 190 52 26;
#X connect 0 0 5 0;
#X connect 1 0 2 0;
#X connect 2 0 0 0;
#X connect 3 0 4 0;
#X connect 4 0 5 1;
#X connect 5 0 6 0;
#X connect 7 0 1 0;
#X connect 8 0 9 0;
#X connect 9 0 1 1;
#X connect 9 0 3 0;
#X restore 330 119 pd h26;
#N canvas 90 53 450 300 h27 0;
#X obj 119 156 osc~;
#X obj 120 91 *;
#X floatatom 121 128 5 0 0 0 - - -;
#X obj 162 91 expr 1/$f1;
#X floatatom 168 127 5 0 0 0 - - -;
#X obj 151 187 *~;
#X obj 149 237 outlet~;
#X obj 121 28 inlet freq;
#X obj 191 28 inlet bang;
#X msg 191 52 27;
#X connect 0 0 5 0;
#X connect 1 0 2 0;
#X connect 2 0 0 0;
#X connect 3 0 4 0;
#X connect 4 0 5 1;
#X connect 5 0 6 0;
#X connect 7 0 1 0;
#X connect 8 0 9 0;
#X connect 9 0 1 1;
#X connect 9 0 3 0;
#X restore 373 119 pd h27;
#N canvas 90 53 450 300 h28 0;
#X obj 119 156 osc~;
#X obj 120 91 *;
#X floatatom 121 128 5 0 0 0 - - -;
#X obj 162 91 expr 1/$f1;
#X floatatom 168 127 5 0 0 0 - - -;
#X obj 151 187 *~;
#X obj 149 237 outlet~;
#X obj 121 28 inlet freq;
#X obj 191 28 inlet bang;
#X msg 190 52 28;
#X connect 0 0 5 0;
#X connect 1 0 2 0;
#X connect 2 0 0 0;
#X connect 3 0 4 0;
#X connect 4 0 5 1;
#X connect 5 0 6 0;
#X connect 7 0 1 0;
#X connect 8 0 9 0;
#X connect 9 0 1 1;
#X connect 9 0 3 0;
#X restore 417 119 pd h28;
#N canvas 585 267 450 300 h29 0;
#X obj 119 156 osc~;
#X obj 120 91 *;
#X floatatom 121 128 5 0 0 0 - - -;
#X obj 162 91 expr 1/$f1;
#X floatatom 168 127 5 0 0 0 - - -;
#X obj 151 187 *~;
#X obj 149 237 outlet~;
#X obj 121 28 inlet freq;
#X obj 191 28 inlet bang;
#X msg 190 52 29;
#X connect 0 0 5 0;
#X connect 1 0 2 0;
#X connect 2 0 0 0;
#X connect 3 0 4 0;
#X connect 4 0 5 1;
#X connect 5 0 6 0;
#X connect 7 0 1 0;
#X connect 8 0 9 0;
#X connect 9 0 1 1;
#X connect 9 0 3 0;
#X restore 460 120 pd h29;
#N canvas 90 53 450 300 h30 0;
#X obj 119 156 osc~;
#X obj 120 91 *;
#X floatatom 121 128 5 0 0 0 - - -;
#X obj 162 91 expr 1/$f1;
#X floatatom 168 127 5 0 0 0 - - -;
#X obj 151 187 *~;
#X obj 149 237 outlet~;
#X obj 121 28 inlet freq;
#X obj 191 28 inlet bang;
#X msg 190 52 30;
#X connect 0 0 5 0;
#X connect 1 0 2 0;
#X connect 2 0 0 0;
#X connect 3 0 4 0;
#X connect 4 0 5 1;
#X connect 5 0 6 0;
#X connect 7 0 1 0;
#X connect 8 0 9 0;
#X connect 9 0 1 1;
#X connect 9 0 3 0;
#X restore 502 120 pd h30;
#N canvas 90 53 450 300 h31 0;
#X obj 119 156 osc~;
#X obj 120 91 *;
#X floatatom 121 128 5 0 0 0 - - -;
#X obj 162 91 expr 1/$f1;
#X floatatom 168 127 5 0 0 0 - - -;
#X obj 151 187 *~;
#X obj 149 237 outlet~;
#X obj 121 28 inlet freq;
#X obj 191 28 inlet bang;
#X msg 190 52 31;
#X connect 0 0 5 0;
#X connect 1 0 2 0;
#X connect 2 0 0 0;
#X connect 3 0 4 0;
#X connect 4 0 5 1;
#X connect 5 0 6 0;
#X connect 7 0 1 0;
#X connect 8 0 9 0;
#X connect 9 0 1 1;
#X connect 9 0 3 0;
#X restore 544 120 pd h31;
#N canvas 394 326 450 300 h32 0;
#X obj 119 156 osc~;
#X obj 120 91 *;
#X floatatom 121 128 5 0 0 0 - - -;
#X obj 162 91 expr 1/$f1;
#X floatatom 168 127 5 0 0 0 - - -;
#X obj 151 187 *~;
#X obj 149 237 outlet~;
#X obj 121 28 inlet freq;
#X obj 191 28 inlet bang;
#X msg 190 52 32;
#X connect 0 0 5 0;
#X connect 1 0 2 0;
#X connect 2 0 0 0;
#X connect 3 0 4 0;
#X connect 4 0 5 1;
#X connect 5 0 6 0;
#X connect 7 0 1 0;
#X connect 8 0 9 0;
#X connect 9 0 1 1;
#X connect 9 0 3 0;
#X restore 587 120 pd h32;
#N canvas 394 326 450 300 h33 0;
#X obj 119 156 osc~;
#X obj 120 91 *;
#X floatatom 121 128 5 0 0 0 - - -;
#X obj 162 91 expr 1/$f1;
#X floatatom 168 127 5 0 0 0 - - -;
#X obj 151 187 *~;
#X obj 149 237 outlet~;
#X obj 121 28 inlet freq;
#X obj 191 28 inlet bang;
#X msg 190 52 33;
#X connect 0 0 5 0;
#X connect 1 0 2 0;
#X connect 2 0 0 0;
#X connect 3 0 4 0;
#X connect 4 0 5 1;
#X connect 5 0 6 0;
#X connect 7 0 1 0;
#X connect 8 0 9 0;
#X connect 9 0 1 1;
#X connect 9 0 3 0;
#X restore 629 120 pd h33;
#N canvas 394 326 450 300 h34 0;
#X obj 119 156 osc~;
#X obj 120 91 *;
#X floatatom 121 128 5 0 0 0 - - -;
#X obj 162 91 expr 1/$f1;
#X floatatom 168 127 5 0 0 0 - - -;
#X obj 151 187 *~;
#X obj 149 237 outlet~;
#X obj 121 28 inlet freq;
#X obj 191 28 inlet bang;
#X msg 190 52 34;
#X connect 0 0 5 0;
#X connect 1 0 2 0;
#X connect 2 0 0 0;
#X connect 3 0 4 0;
#X connect 4 0 5 1;
#X connect 5 0 6 0;
#X connect 7 0 1 0;
#X connect 8 0 9 0;
#X connect 9 0 1 1;
#X connect 9 0 3 0;
#X restore 672 120 pd h34;
#N canvas 394 326 450 300 h35 0;
#X obj 119 156 osc~;
#X obj 120 91 *;
#X floatatom 121 128 5 0 0 0 - - -;
#X obj 162 91 expr 1/$f1;
#X floatatom 168 127 5 0 0 0 - - -;
#X obj 151 187 *~;
#X obj 149 237 outlet~;
#X obj 121 28 inlet freq;
#X obj 191 28 inlet bang;
#X msg 190 52 35;
#X connect 0 0 5 0;
#X connect 1 0 2 0;
#X connect 2 0 0 0;
#X connect 3 0 4 0;
#X connect 4 0 5 1;
#X connect 5 0 6 0;
#X connect 7 0 1 0;
#X connect 8 0 9 0;
#X connect 9 0 1 1;
#X connect 9 0 3 0;
#X restore 714 120 pd h35;
#N canvas 394 326 450 300 h36 0;
#X obj 119 156 osc~;
#X obj 120 91 *;
#X floatatom 121 128 5 0 0 0 - - -;
#X obj 162 91 expr 1/$f1;
#X floatatom 168 127 5 0 0 0 - - -;
#X obj 151 187 *~;
#X obj 149 237 outlet~;
#X obj 121 28 inlet freq;
#X obj 191 28 inlet bang;
#X msg 190 52 36;
#X connect 0 0 5 0;
#X connect 1 0 2 0;
#X connect 2 0 0 0;
#X connect 3 0 4 0;
#X connect 4 0 5 1;
#X connect 5 0 6 0;
#X connect 7 0 1 0;
#X connect 8 0 9 0;
#X connect 9 0 1 1;
#X connect 9 0 3 0;
#X restore 757 120 pd h36;
#N canvas 394 326 450 300 h37 0;
#X obj 119 156 osc~;
#X obj 120 91 *;
#X floatatom 121 128 5 0 0 0 - - -;
#X obj 162 91 expr 1/$f1;
#X floatatom 168 127 5 0 0 0 - - -;
#X obj 151 187 *~;
#X obj 149 237 outlet~;
#X obj 121 28 inlet freq;
#X obj 191 28 inlet bang;
#X msg 190 52 37;
#X connect 0 0 5 0;
#X connect 1 0 2 0;
#X connect 2 0 0 0;
#X connect 3 0 4 0;
#X connect 4 0 5 1;
#X connect 5 0 6 0;
#X connect 7 0 1 0;
#X connect 8 0 9 0;
#X connect 9 0 1 1;
#X connect 9 0 3 0;
#X restore 799 119 pd h37;
#N canvas 394 326 450 300 h38 0;
#X obj 119 156 osc~;
#X obj 120 91 *;
#X floatatom 121 128 5 0 0 0 - - -;
#X obj 162 91 expr 1/$f1;
#X floatatom 168 127 5 0 0 0 - - -;
#X obj 151 187 *~;
#X obj 149 237 outlet~;
#X obj 121 28 inlet freq;
#X obj 191 28 inlet bang;
#X msg 190 52 38;
#X connect 0 0 5 0;
#X connect 1 0 2 0;
#X connect 2 0 0 0;
#X connect 3 0 4 0;
#X connect 4 0 5 1;
#X connect 5 0 6 0;
#X connect 7 0 1 0;
#X connect 8 0 9 0;
#X connect 9 0 1 1;
#X connect 9 0 3 0;
#X restore 841 119 pd h38;
#N canvas 394 326 450 300 h39 0;
#X obj 119 156 osc~;
#X obj 120 91 *;
#X floatatom 121 128 5 0 0 0 - - -;
#X obj 162 91 expr 1/$f1;
#X floatatom 168 127 5 0 0 0 - - -;
#X obj 151 187 *~;
#X obj 149 237 outlet~;
#X obj 121 28 inlet freq;
#X obj 191 28 inlet bang;
#X msg 190 52 39;
#X connect 0 0 5 0;
#X connect 1 0 2 0;
#X connect 2 0 0 0;
#X connect 3 0 4 0;
#X connect 4 0 5 1;
#X connect 5 0 6 0;
#X connect 7 0 1 0;
#X connect 8 0 9 0;
#X connect 9 0 1 1;
#X connect 9 0 3 0;
#X restore 884 118 pd h39;
#N canvas 394 326 450 300 h40 0;
#X obj 119 156 osc~;
#X obj 120 91 *;
#X floatatom 121 128 5 0 0 0 - - -;
#X obj 162 91 expr 1/$f1;
#X floatatom 168 127 5 0 0 0 - - -;
#X obj 151 187 *~;
#X obj 149 237 outlet~;
#X obj 121 28 inlet freq;
#X obj 191 28 inlet bang;
#X msg 190 52 40;
#X connect 0 0 5 0;
#X connect 1 0 2 0;
#X connect 2 0 0 0;
#X connect 3 0 4 0;
#X connect 4 0 5 1;
#X connect 5 0 6 0;
#X connect 7 0 1 0;
#X connect 8 0 9 0;
#X connect 9 0 1 1;
#X connect 9 0 3 0;
#X restore 927 118 pd h40;
#X connect 0 0 3 0;
#X connect 0 0 4 0;
#X connect 0 0 5 0;
#X connect 0 0 6 0;
#X connect 0 0 7 0;
#X connect 0 0 8 0;
#X connect 0 0 9 0;
#X connect 0 0 10 0;
#X connect 0 0 11 0;
#X connect 0 0 12 0;
#X connect 0 0 13 0;
#X connect 0 0 14 0;
#X connect 0 0 15 0;
#X connect 0 0 16 0;
#X connect 0 0 17 0;
#X connect 0 0 18 0;
#X connect 0 0 19 0;
#X connect 0 0 20 0;
#X connect 0 0 21 0;
#X connect 0 0 22 0;
#X connect 0 0 23 0;
#X connect 0 0 24 0;
#X connect 0 0 25 0;
#X connect 0 0 26 0;
#X connect 0 0 27 0;
#X connect 0 0 28 0;
#X connect 0 0 29 0;
#X connect 0 0 30 0;
#X connect 0 0 31 0;
#X connect 0 0 32 0;
#X connect 0 0 33 0;
#X connect 0 0 34 0;
#X connect 0 0 35 0;
#X connect 0 0 36 0;
#X connect 0 0 37 0;
#X connect 0 0 38 0;
#X connect 0 0 39 0;
#X connect 0 0 40 0;
#X connect 0 0 41 0;
#X connect 0 0 42 0;
#X connect 1 0 3 1;
#X connect 1 0 4 1;
#X connect 1 0 5 1;
#X connect 1 0 6 1;
#X connect 1 0 7 1;
#X connect 1 0 8 1;
#X connect 1 0 9 1;
#X connect 1 0 10 1;
#X connect 1 0 11 1;
#X connect 1 0 12 1;
#X connect 1 0 13 1;
#X connect 1 0 14 1;
#X connect 1 0 15 1;
#X connect 1 0 16 1;
#X connect 1 0 17 1;
#X connect 1 0 19 1;
#X connect 1 0 18 1;
#X connect 1 0 20 1;
#X connect 1 0 21 1;
#X connect 1 0 22 1;
#X connect 1 0 23 1;
#X connect 1 0 24 1;
#X connect 1 0 25 1;
#X connect 1 0 26 1;
#X connect 1 0 27 1;
#X connect 1 0 28 1;
#X connect 1 0 29 1;
#X connect 1 0 30 1;
#X connect 1 0 31 1;
#X connect 1 0 32 1;
#X connect 1 0 33 1;
#X connect 1 0 34 1;
#X connect 1 0 35 1;
#X connect 1 0 36 1;
#X connect 1 0 37 1;
#X connect 1 0 38 1;
#X connect 1 0 39 1;
#X connect 1 0 40 1;
#X connect 1 0 41 1;
#X connect 1 0 42 1;
#X connect 3 0 2 0;
#X connect 4 0 2 0;
#X connect 5 0 2 0;
#X connect 6 0 2 0;
#X connect 7 0 2 0;
#X connect 8 0 2 0;
#X connect 9 0 2 0;
#X connect 10 0 2 0;
#X connect 11 0 2 0;
#X connect 12 0 2 0;
#X connect 13 0 2 0;
#X connect 14 0 2 0;
#X connect 15 0 2 0;
#X connect 16 0 2 0;
#X connect 17 0 2 0;
#X connect 18 0 2 0;
#X connect 19 0 2 0;
#X connect 20 0 2 0;
#X connect 21 0 2 0;
#X connect 22 0 2 0;
#X connect 23 0 2 0;
#X connect 24 0 2 0;
#X connect 25 0 2 0;
#X connect 26 0 2 0;
#X connect 27 0 2 0;
#X connect 28 0 2 0;
#X connect 29 0 2 0;
#X connect 30 0 2 0;
#X connect 31 0 2 0;
#X connect 32 0 2 0;
#X connect 33 0 2 0;
#X connect 34 0 2 0;
#X connect 35 0 2 0;
#X connect 36 0 2 0;
#X connect 37 0 2 0;
#X connect 38 0 2 0;
#X connect 39 0 2 0;
#X connect 40 0 2 0;
#X connect 41 0 2 0;
#X connect 42 0 2 0;
#X restore 466 230 pd harmonics;
#X msg 470 168 55;
#N canvas 737 301 450 300 amp 0;
#X obj 155 22 inlet~;
#X obj 187 256 outlet~;
#X obj 182 92 *~ 0.4;
#X obj 187 182 *~;
#X obj 272 27 inlet~ env;
#X connect 0 0 2 0;
#X connect 2 0 3 0;
#X connect 3 0 1 0;
#X connect 4 0 3 1;
#X restore 512 280 pd amp;
#N canvas 567 183 458 495 ADSR 0;
#X obj 77 142 pack f f f f;
#X msg 78 172 1 \$2 \, \$4 \$3 \$2;
#X obj 129 211 vline~;
#X obj 131 271 outlet~;
#X obj 123 61 inlet trigger;
#X obj -59 22 inlet a;
#X obj -11 23 inlet d;
#X obj 35 22 inlet s;
#X obj 83 22 inlet r;
#X obj 211 61 inlet velocity;
#X obj 212 103 sel 0;
#X obj 181 140 pack f f;
#X msg 180 173 0 \$2;
#X connect 0 0 1 0;
#X connect 1 0 2 0;
#X connect 2 0 3 0;
#X connect 4 0 0 0;
#X connect 5 0 0 1;
#X connect 6 0 0 2;
#X connect 7 0 0 3;
#X connect 8 0 11 1;
#X connect 9 0 10 0;
#X connect 10 0 11 0;
#X connect 11 0 12 0;
#X connect 12 0 2 1;
#X restore 600 267 pd ADSR;
#X obj 823 7 vsl 15 128 0 127 0 0 empty empty A 0 -9 0 10 -262144 -1
-1 0 1;
#X obj 860 6 vsl 15 128 0 127 0 0 empty empty D 0 -9 0 10 -262144 -1
-1 0 1;
#X obj 895 7 vsl 15 128 0 127 0 0 empty empty S 0 -9 0 10 -262144 -1
-1 0 1;
#X obj 932 6 vsl 15 128 0 127 0 0 empty empty R 0 -9 0 10 -262144 -1
-1 0 1;
#X floatatom 818 146 5 0 0 0 - - -;
#X floatatom 854 145 5 0 0 0 - - -;
#X floatatom 891 145 5 0 0 0 - - -;
#X floatatom 928 145 5 0 0 0 - - -;
#X connect 1 0 2 0;
#X connect 1 0 6 4;
#X connect 2 0 4 0;
#X connect 2 1 3 1;
#X connect 3 0 5 0;
#X connect 4 0 3 0;
#X connect 5 0 0 0;
#X connect 5 0 0 1;
#X connect 6 0 5 1;
#X connect 7 0 11 0;
#X connect 8 0 12 0;
#X connect 9 0 13 0;
#X connect 10 0 14 0;
#X connect 11 0 6 0;
#X connect 12 0 6 1;
#X connect 13 0 6 2;
#X connect 14 0 6 3;
