#N canvas 673 214 483 305 10;
#N canvas 321 51 450 300 wave_sequence 1;
#N canvas 654 415 450 300 amp 0;
#X obj 327 16 r volume;
#X obj 165 139 *~;
#X obj 227 142 *~;
#X obj 326 44 / 64;
#X obj 125 18 catch~ LtoAmp;
#X obj 219 19 catch~ RtoAmp;
#X obj 204 243 dac~;
#N canvas 763 354 450 300 smoother 0;
#X obj 194 81 inlet;
#X obj 197 165 outlet~;
#X obj 196 110 pack 0 50;
#X obj 196 137 line~;
#X connect 0 0 2 0;
#X connect 2 0 3 0;
#X connect 3 0 1 0;
#X restore 325 72 pd smoother;
#X connect 0 0 3 0;
#X connect 1 0 6 0;
#X connect 2 0 6 1;
#X connect 3 0 7 0;
#X connect 4 0 1 0;
#X connect 5 0 2 0;
#X connect 7 0 2 1;
#X connect 7 0 1 1;
#X restore 200 245 pd amp;
#N canvas 442 327 450 300 tempo 0;
#X obj 64 42 r main_bpm;
#X obj 64 68 expr 1000/($f1/60);
#X obj 64 95 s tempo;
#X connect 0 0 1 0;
#X connect 1 0 2 0;
#X restore 7 7 pd tempo;
#N canvas 105 268 493 365 atom0 1;
#X obj 166 94 metro 1000;
#X obj 22 63 osc~;
#X obj 112 3 r start;
#X obj 22 31 r main_freq;
#X obj 169 2 r stop;
#X floatatom 177 61 5 0 0 0 - - -;
#N canvas 462 228 673 497 ADSR 0;
#X obj 145 174 pack f f f f;
#X msg 146 204 1 \$2 \, \$4 \$3 \$2;
#X obj 197 243 vline~;
#X obj 199 303 outlet~;
#X obj 210 86 inlet trigger;
#X obj 328 85 inlet velocity;
#X obj 280 135 sel 0;
#X obj 249 172 pack f f;
#X msg 248 205 0 \$2;
#X text 315 110 second outlet from notein here;
#X text 172 69 first outlet from notein here;
#X obj 28 56 r a;
#X obj 57 55 r d;
#X obj 84 54 r s;
#X obj 111 54 r r;
#X connect 0 0 1 0;
#X connect 1 0 2 0;
#X connect 2 0 3 0;
#X connect 4 0 0 0;
#X connect 5 0 6 0;
#X connect 6 0 7 0;
#X connect 7 0 8 0;
#X connect 8 0 2 1;
#X connect 11 0 0 1;
#X connect 12 0 0 2;
#X connect 13 0 0 3;
#X connect 14 0 7 1;
#X restore 174 133 pd ADSR;
#X obj 163 180 *~;
#X obj 164 205 *~ 0.5;
#X obj 337 140 hsl 128 15 0 1 0 0 empty empty empty -2 -8 0 10 -262144
-1 -1 6350 1;
#X obj 335 170 expr 1 - $f1;
#N canvas 763 354 450 300 smoother 0;
#X obj 194 81 inlet;
#X obj 197 165 outlet~;
#X obj 196 110 pack 0 50;
#X obj 196 137 line~;
#X connect 0 0 2 0;
#X connect 2 0 3 0;
#X connect 3 0 1 0;
#X restore 383 195 pd smoother;
#N canvas 763 354 450 300 smoother 0;
#X obj 194 81 inlet;
#X obj 197 165 outlet~;
#X obj 196 110 pack 0 50;
#X obj 196 137 line~;
#X connect 0 0 2 0;
#X connect 2 0 3 0;
#X connect 3 0 1 0;
#X restore 306 195 pd smoother;
#X obj 159 247 *~;
#X obj 196 246 *~;
#X text 378 123 panning;
#X obj 220 3 r tempo;
#X obj 236 66 -;
#X obj 105 289 throw~ LtoAmp;
#X obj 217 290 throw~ RtoAmp;
#X obj 283 3 r tempo_offset;
#X obj 334 95 loadbang;
#X msg 334 116 0.5;
#X floatatom 262 116 5 0 0 0 - - -;
#X obj 293 51 * 1;
#X obj 244 29 t b b b;
#X connect 0 0 6 0;
#X connect 1 0 7 0;
#X connect 2 0 0 0;
#X connect 2 0 9 0;
#X connect 3 0 1 0;
#X connect 4 0 5 0;
#X connect 5 0 0 0;
#X connect 6 0 7 1;
#X connect 7 0 8 0;
#X connect 8 0 13 0;
#X connect 8 0 14 0;
#X connect 9 0 10 0;
#X connect 9 0 11 0;
#X connect 10 0 12 0;
#X connect 11 0 14 1;
#X connect 12 0 13 1;
#X connect 13 0 18 0;
#X connect 14 0 19 0;
#X connect 16 0 17 0;
#X connect 17 0 0 1;
#X connect 17 0 23 0;
#X connect 20 0 24 0;
#X connect 20 0 25 0;
#X connect 21 0 22 0;
#X connect 22 0 9 0;
#X connect 24 0 17 1;
#X connect 25 0 17 0;
#X connect 25 1 24 0;
#X connect 25 2 24 0;
#X restore 128 100 pd atom0;
#X restore 137 275 pd wave_sequence;
#X obj 52 4 bng 15 250 50 0 empty empty empty 17 7 0 10 -4034 -1 -1
;
#X floatatom 164 4 5 0 0 0 - - -;
#X obj 164 29 s main_freq;
#X obj 52 24 s start;
#X obj 107 4 bng 15 250 50 0 empty empty empty 17 7 0 10 -258113 -1
-1;
#X obj 108 23 s stop;
#X obj -36 79 vsl 15 128 0 127 0 0 empty empty A 0 -9 0 10 -262144
-1 -1 300 1;
#X obj -12 79 vsl 15 128 0 127 0 0 empty empty D 0 -9 0 10 -262144
-1 -1 5400 1;
#X obj 12 79 vsl 15 128 0 127 0 0 empty empty S 0 -9 0 10 -262144 -1
-1 0 1;
#X obj 35 80 vsl 15 128 0 127 0 0 empty empty R 0 -9 0 10 -262144 -1
-1 0 1;
#X obj -44 217 s a;
#X obj -17 218 s d;
#X obj 11 218 s s;
#X obj 38 218 s r;
#N canvas 376 313 450 300 cpu_usage 0;
#X obj 149 161 cputime;
#X obj 149 21 loadbang;
#X obj 149 105 metro 1000;
#X msg 149 49 1;
#X floatatom 149 77 0 0 0 0 - - -;
#X obj 149 133 t b b;
#X obj 149 221 * 0.1;
#X obj 149 190 int;
#X text 194 77 <-- on/off;
#X text 82 277 CPU load in percent;
#X obj 148 248 outlet;
#X connect 0 0 7 0;
#X connect 1 0 3 0;
#X connect 2 0 5 0;
#X connect 3 0 4 0;
#X connect 4 0 2 0;
#X connect 5 0 0 0;
#X connect 5 1 0 1;
#X connect 6 0 10 0;
#X connect 7 0 6 0;
#X restore -36 10 pd cpu_usage;
#X floatatom -36 34 5 0 0 0 - - -;
#X obj 281 32 s volume;
#X obj 283 9 hsl 128 15 0 127 0 0 empty empty empty -2 -8 0 10 -262144
-1 -1 8100 1;
#X floatatom 71 63 5 0 0 0 - - -;
#X obj 71 89 s main_bpm;
#X floatatom 155 64 5 0 0 0 - - -;
#X obj 155 87 s tempo_offset;
#X connect 1 0 4 0;
#X connect 2 0 3 0;
#X connect 5 0 6 0;
#X connect 7 0 11 0;
#X connect 8 0 12 0;
#X connect 9 0 13 0;
#X connect 10 0 14 0;
#X connect 15 0 16 0;
#X connect 18 0 17 0;
#X connect 19 0 20 0;
#X connect 21 0 22 0;
