#N canvas 348 173 494 352 10;
#N canvas 600 434 450 300 wave_sequence 0;
#N canvas 654 415 450 300 amp 0;
#X obj 327 16 r volume;
#X obj 165 139 *~;
#X obj 227 142 *~;
#X obj 326 44 / 64;
#X obj 125 18 catch~ LtoAmp;
#X obj 219 19 catch~ RtoAmp;
#X obj 204 243 dac~;
#N canvas 763 354 450 300 smoother 0;
#X obj 194 81 inlet;
#X obj 197 165 outlet~;
#X obj 196 110 pack 0 50;
#X obj 196 137 line~;
#X connect 0 0 2 0;
#X connect 2 0 3 0;
#X connect 3 0 1 0;
#X restore 325 72 pd smoother;
#X connect 0 0 3 0;
#X connect 1 0 6 0;
#X connect 2 0 6 1;
#X connect 3 0 7 0;
#X connect 4 0 1 0;
#X connect 5 0 2 0;
#X connect 7 0 2 1;
#X connect 7 0 1 1;
#X restore 199 259 pd amp;
#N canvas 442 327 450 300 tempo 0;
#X obj 64 42 r main_bpm;
#X obj 64 68 expr 1000/($f1/60);
#X obj 64 95 s tempo;
#X connect 0 0 1 0;
#X connect 1 0 2 0;
#X restore 7 7 pd tempo;
#N canvas 44 441 493 365 atom0 0;
#X obj 232 116 metro 1000;
#X obj 86 122 osc~;
#N canvas 462 228 673 497 ADSR 0;
#X obj 145 174 pack f f f f;
#X msg 146 204 1 \$2 \, \$4 \$3 \$2;
#X obj 197 243 vline~;
#X obj 199 303 outlet~;
#X obj 210 86 inlet trigger;
#X obj 328 85 inlet velocity;
#X obj 280 135 sel 0;
#X obj 249 172 pack f f;
#X msg 248 205 0 \$2;
#X text 315 110 second outlet from notein here;
#X text 172 69 first outlet from notein here;
#X obj 28 56 r a;
#X obj 57 55 r d;
#X obj 84 54 r s;
#X obj 111 54 r r;
#X connect 0 0 1 0;
#X connect 1 0 2 0;
#X connect 2 0 3 0;
#X connect 4 0 0 0;
#X connect 5 0 6 0;
#X connect 6 0 7 0;
#X connect 7 0 8 0;
#X connect 8 0 2 1;
#X connect 11 0 0 1;
#X connect 12 0 0 2;
#X connect 13 0 0 3;
#X connect 14 0 7 1;
#X restore 199 148 pd ADSR;
#X obj 112 276 throw~ LtoAmp;
#X obj 224 277 throw~ RtoAmp;
#N canvas 335 405 450 300 atom_tempo 0;
#X obj 148 206 outlet;
#X obj 86 15 r tempo;
#X obj 203 130 -;
#X obj 190 6 r tempo_offset;
#X obj 172 56 t b b b;
#X obj 254 93 *;
#X obj 292 14 inlet atom_number;
#X connect 1 0 2 0;
#X connect 2 0 0 0;
#X connect 3 0 4 0;
#X connect 3 0 5 0;
#X connect 4 0 2 0;
#X connect 4 1 5 0;
#X connect 4 2 5 0;
#X connect 5 0 2 1;
#X connect 6 0 5 1;
#X restore 272 75 pd atom_tempo;
#N canvas 655 429 450 300 atom_freq 0;
#X obj 204 234 outlet;
#X obj 79 28 r main_freq;
#X obj 254 14 inlet atom_number;
#X obj 162 15 r freq_offset;
#X obj 232 55 *;
#X obj 205 140 +;
#X floatatom 282 197 5 0 0 0 - - -;
#X obj 201 88 t b;
#X connect 1 0 5 0;
#X connect 2 0 4 1;
#X connect 3 0 4 0;
#X connect 4 0 5 1;
#X connect 4 0 7 0;
#X connect 5 0 0 0;
#X connect 5 0 6 0;
#X connect 7 0 5 0;
#X restore 86 88 pd atom_freq;
#N canvas 745 358 450 300 atom_triggers 0;
#X obj 136 179 outlet start;
#X obj 237 180 outlet stop;
#X obj 131 134 r start;
#X obj 231 112 r stop;
#X floatatom 234 145 5 0 0 0 - - -;
#X connect 2 0 0 0;
#X connect 3 0 4 0;
#X connect 4 0 1 0;
#X restore 140 4 pd atom_triggers;
#X obj 267 18 r loadbang;
#X text 296 47 atom number;
#N canvas 393 415 450 300 pan 0;
#X obj 66 -29 *~;
#X obj 67 -4 *~ 0.5;
#X obj 80 106 *~;
#X obj 117 105 *~;
#N canvas 705 360 450 300 pan 0;
#X obj 174 129 hsl 128 15 0 1 0 0 empty empty empty -2 -8 0 10 -262144
-1 -1 6350 1;
#X obj 172 159 expr 1 - $f1;
#N canvas 763 354 450 300 smoother 0;
#X obj 194 81 inlet;
#X obj 197 165 outlet~;
#X obj 196 110 pack 0 50;
#X obj 196 137 line~;
#X connect 0 0 2 0;
#X connect 2 0 3 0;
#X connect 3 0 1 0;
#X restore 220 184 pd smoother;
#N canvas 763 354 450 300 smoother 0;
#X obj 194 81 inlet;
#X obj 197 165 outlet~;
#X obj 196 110 pack 0 50;
#X obj 196 137 line~;
#X connect 0 0 2 0;
#X connect 2 0 3 0;
#X connect 3 0 1 0;
#X restore 143 184 pd smoother;
#X text 215 112 panning;
#X msg 171 105 0.5;
#X obj 86 36 inlet start;
#X obj 146 222 outlet~ L;
#X obj 222 217 outlet~ R;
#X obj 171 71 r loadbang;
#X connect 0 0 1 0;
#X connect 0 0 2 0;
#X connect 1 0 3 0;
#X connect 2 0 8 0;
#X connect 3 0 7 0;
#X connect 5 0 0 0;
#X connect 6 0 0 0;
#X connect 9 0 5 0;
#X restore 122 -13 pd pan;
#X obj 8 -74 inlet~ osc;
#X obj 81 -74 inlet~ ADSR;
#X obj 121 -45 inlet trigger;
#X obj 32 154 outlet~ L;
#X obj 167 155 outlet~ R;
#N canvas 220 444 450 300 partial_amp 0;
#X obj 117 -40 r partial_amp;
#X obj 239 -38 inlet atom_number;
#X obj 241 39 expr 1/($f1+1);
#X msg 208 78 1;
#X obj 191 147 outlet;
#X obj 149 45 + 1;
#X obj 192 109 switch;
#X obj 180 1 t b b;
#X connect 0 0 5 0;
#X connect 0 0 7 0;
#X connect 1 0 2 0;
#X connect 2 0 6 2;
#X connect 3 0 6 1;
#X connect 5 0 6 0;
#X connect 6 0 4 0;
#X connect 7 0 2 0;
#X connect 7 1 6 0;
#X restore 220 -42 pd partial_amp;
#X obj 218 -77 inlet atom_number;
#X obj 75 50 *~ 1;
#X connect 0 0 1 0;
#X connect 1 0 12 0;
#X connect 2 0 8 0;
#X connect 3 0 9 0;
#X connect 4 0 2 1;
#X connect 4 1 3 1;
#X connect 5 0 0 0;
#X connect 6 0 0 1;
#X connect 7 0 4 0;
#X connect 10 0 12 1;
#X connect 11 0 10 0;
#X connect 12 0 2 0;
#X connect 12 0 3 0;
#X restore 151 199 pd pan and amp;
#X msg 268 48 0;
#X floatatom 324 131 5 0 0 0 - - -;
#X text 39 39 comment;
#X text 39 39 comment;
#X text 39 39 comment;
#X connect 0 0 2 0;
#X connect 1 0 10 0;
#X connect 2 0 10 1;
#X connect 5 0 0 1;
#X connect 5 0 12 0;
#X connect 6 0 1 0;
#X connect 7 0 0 0;
#X connect 7 0 11 0;
#X connect 7 0 10 2;
#X connect 7 1 0 0;
#X connect 8 0 11 0;
#X connect 10 0 3 0;
#X connect 10 1 4 0;
#X connect 11 0 5 0;
#X connect 11 0 6 0;
#X connect 11 0 10 3;
#X restore 72 77 pd atom0;
#N canvas 670 358 450 300 loadbang 0;
#X obj 184 27 loadbang;
#X obj 183 55 s loadbang;
#X connect 0 0 1 0;
#X restore 64 9 pd loadbang;
#N canvas 0 444 493 365 atom0 0;
#X obj 232 116 metro 1000;
#X obj 86 122 osc~;
#N canvas 462 228 673 497 ADSR 0;
#X obj 145 174 pack f f f f;
#X msg 146 204 1 \$2 \, \$4 \$3 \$2;
#X obj 197 243 vline~;
#X obj 199 303 outlet~;
#X obj 210 86 inlet trigger;
#X obj 328 85 inlet velocity;
#X obj 280 135 sel 0;
#X obj 249 172 pack f f;
#X msg 248 205 0 \$2;
#X text 315 110 second outlet from notein here;
#X text 172 69 first outlet from notein here;
#X obj 28 56 r a;
#X obj 57 55 r d;
#X obj 84 54 r s;
#X obj 111 54 r r;
#X connect 0 0 1 0;
#X connect 1 0 2 0;
#X connect 2 0 3 0;
#X connect 4 0 0 0;
#X connect 5 0 6 0;
#X connect 6 0 7 0;
#X connect 7 0 8 0;
#X connect 8 0 2 1;
#X connect 11 0 0 1;
#X connect 12 0 0 2;
#X connect 13 0 0 3;
#X connect 14 0 7 1;
#X restore 199 148 pd ADSR;
#X obj 112 276 throw~ LtoAmp;
#X obj 224 277 throw~ RtoAmp;
#N canvas 268 402 450 300 atom_tempo 0;
#X obj 148 206 outlet;
#X obj 86 15 r tempo;
#X obj 203 130 -;
#X obj 190 6 r tempo_offset;
#X obj 172 56 t b b b;
#X obj 254 93 *;
#X obj 292 14 inlet atom_number;
#X connect 1 0 2 0;
#X connect 2 0 0 0;
#X connect 3 0 4 0;
#X connect 3 0 5 0;
#X connect 4 0 2 0;
#X connect 4 1 5 0;
#X connect 4 2 5 0;
#X connect 5 0 2 1;
#X connect 6 0 5 1;
#X restore 272 75 pd atom_tempo;
#N canvas 655 429 450 300 atom_freq 0;
#X obj 204 234 outlet;
#X obj 79 28 r main_freq;
#X obj 254 14 inlet atom_number;
#X obj 162 15 r freq_offset;
#X obj 232 55 *;
#X obj 205 140 +;
#X floatatom 282 197 5 0 0 0 - - -;
#X obj 201 88 t b;
#X connect 1 0 5 0;
#X connect 2 0 4 1;
#X connect 3 0 4 0;
#X connect 4 0 5 1;
#X connect 4 0 7 0;
#X connect 5 0 0 0;
#X connect 5 0 6 0;
#X connect 7 0 5 0;
#X restore 86 88 pd atom_freq;
#N canvas 745 358 450 300 atom_triggers 0;
#X obj 136 179 outlet start;
#X obj 237 180 outlet stop;
#X obj 131 134 r start;
#X obj 231 112 r stop;
#X floatatom 234 145 5 0 0 0 - - -;
#X connect 2 0 0 0;
#X connect 3 0 4 0;
#X connect 4 0 1 0;
#X restore 140 4 pd atom_triggers;
#X obj 267 18 r loadbang;
#X text 296 47 atom number;
#N canvas 652 556 450 300 pan 0;
#X obj 66 -29 *~;
#X obj 67 -4 *~ 0.5;
#X obj 80 106 *~;
#X obj 117 105 *~;
#N canvas 705 360 450 300 pan 0;
#X obj 174 129 hsl 128 15 0 1 0 0 empty empty empty -2 -8 0 10 -262144
-1 -1 6350 1;
#X obj 172 159 expr 1 - $f1;
#N canvas 763 354 450 300 smoother 0;
#X obj 194 81 inlet;
#X obj 197 165 outlet~;
#X obj 196 110 pack 0 50;
#X obj 196 137 line~;
#X connect 0 0 2 0;
#X connect 2 0 3 0;
#X connect 3 0 1 0;
#X restore 220 184 pd smoother;
#N canvas 763 354 450 300 smoother 0;
#X obj 194 81 inlet;
#X obj 197 165 outlet~;
#X obj 196 110 pack 0 50;
#X obj 196 137 line~;
#X connect 0 0 2 0;
#X connect 2 0 3 0;
#X connect 3 0 1 0;
#X restore 143 184 pd smoother;
#X text 215 112 panning;
#X msg 171 105 0.5;
#X obj 86 36 inlet start;
#X obj 146 222 outlet~ L;
#X obj 222 217 outlet~ R;
#X obj 171 71 r loadbang;
#X connect 0 0 1 0;
#X connect 0 0 2 0;
#X connect 1 0 3 0;
#X connect 2 0 8 0;
#X connect 3 0 7 0;
#X connect 5 0 0 0;
#X connect 6 0 0 0;
#X connect 9 0 5 0;
#X restore 122 -13 pd pan;
#X obj 8 -74 inlet~ osc;
#X obj 81 -74 inlet~ ADSR;
#X obj 121 -45 inlet trigger;
#X obj 32 154 outlet~ L;
#X obj 167 155 outlet~ R;
#N canvas 220 444 450 300 partial_amp 0;
#X obj 117 -40 r partial_amp;
#X obj 239 -38 inlet atom_number;
#X obj 241 39 expr 1/($f1+1);
#X msg 208 78 1;
#X obj 191 147 outlet;
#X obj 149 45 + 1;
#X obj 192 109 switch;
#X obj 180 1 t b b;
#X connect 0 0 5 0;
#X connect 0 0 7 0;
#X connect 1 0 2 0;
#X connect 2 0 6 2;
#X connect 3 0 6 1;
#X connect 5 0 6 0;
#X connect 6 0 4 0;
#X connect 7 0 2 0;
#X connect 7 1 6 0;
#X restore 220 -42 pd partial_amp;
#X obj 218 -77 inlet atom_number;
#X obj 75 50 *~ 1;
#X connect 0 0 1 0;
#X connect 1 0 12 0;
#X connect 2 0 8 0;
#X connect 3 0 9 0;
#X connect 4 0 2 1;
#X connect 4 1 3 1;
#X connect 5 0 0 0;
#X connect 6 0 0 1;
#X connect 7 0 4 0;
#X connect 10 0 12 1;
#X connect 11 0 10 0;
#X connect 12 0 2 0;
#X connect 12 0 3 0;
#X restore 151 199 pd pan and amp;
#X msg 268 48 1;
#X floatatom 338 113 5 0 0 0 - - -;
#X connect 0 0 2 0;
#X connect 1 0 10 0;
#X connect 2 0 10 1;
#X connect 5 0 0 1;
#X connect 5 0 12 0;
#X connect 6 0 1 0;
#X connect 7 0 0 0;
#X connect 7 0 11 0;
#X connect 7 0 10 2;
#X connect 7 1 0 0;
#X connect 8 0 11 0;
#X connect 10 0 3 0;
#X connect 10 1 4 0;
#X connect 11 0 5 0;
#X connect 11 0 6 0;
#X connect 11 0 10 3;
#X restore 133 78 pd atom0;
#N canvas 719 439 493 365 atom0 0;
#X obj 232 116 metro 1000;
#X obj 86 122 osc~;
#N canvas 462 228 673 497 ADSR 0;
#X obj 145 174 pack f f f f;
#X msg 146 204 1 \$2 \, \$4 \$3 \$2;
#X obj 197 243 vline~;
#X obj 199 303 outlet~;
#X obj 210 86 inlet trigger;
#X obj 328 85 inlet velocity;
#X obj 280 135 sel 0;
#X obj 249 172 pack f f;
#X msg 248 205 0 \$2;
#X text 315 110 second outlet from notein here;
#X text 172 69 first outlet from notein here;
#X obj 28 56 r a;
#X obj 57 55 r d;
#X obj 84 54 r s;
#X obj 111 54 r r;
#X connect 0 0 1 0;
#X connect 1 0 2 0;
#X connect 2 0 3 0;
#X connect 4 0 0 0;
#X connect 5 0 6 0;
#X connect 6 0 7 0;
#X connect 7 0 8 0;
#X connect 8 0 2 1;
#X connect 11 0 0 1;
#X connect 12 0 0 2;
#X connect 13 0 0 3;
#X connect 14 0 7 1;
#X restore 199 148 pd ADSR;
#X obj 112 276 throw~ LtoAmp;
#X obj 224 277 throw~ RtoAmp;
#N canvas 268 402 450 300 atom_tempo 0;
#X obj 148 206 outlet;
#X obj 86 15 r tempo;
#X obj 203 130 -;
#X obj 190 6 r tempo_offset;
#X obj 172 56 t b b b;
#X obj 254 93 *;
#X obj 292 14 inlet atom_number;
#X connect 1 0 2 0;
#X connect 2 0 0 0;
#X connect 3 0 4 0;
#X connect 3 0 5 0;
#X connect 4 0 2 0;
#X connect 4 1 5 0;
#X connect 4 2 5 0;
#X connect 5 0 2 1;
#X connect 6 0 5 1;
#X restore 272 75 pd atom_tempo;
#N canvas 655 429 450 300 atom_freq 0;
#X obj 204 234 outlet;
#X obj 79 28 r main_freq;
#X obj 254 14 inlet atom_number;
#X obj 162 15 r freq_offset;
#X obj 232 55 *;
#X obj 205 140 +;
#X floatatom 282 197 5 0 0 0 - - -;
#X obj 201 88 t b;
#X connect 1 0 5 0;
#X connect 2 0 4 1;
#X connect 3 0 4 0;
#X connect 4 0 5 1;
#X connect 4 0 7 0;
#X connect 5 0 0 0;
#X connect 5 0 6 0;
#X connect 7 0 5 0;
#X restore 86 88 pd atom_freq;
#N canvas 745 358 450 300 atom_triggers 0;
#X obj 136 179 outlet start;
#X obj 237 180 outlet stop;
#X obj 131 134 r start;
#X obj 231 112 r stop;
#X floatatom 234 145 5 0 0 0 - - -;
#X connect 2 0 0 0;
#X connect 3 0 4 0;
#X connect 4 0 1 0;
#X restore 140 4 pd atom_triggers;
#X obj 267 18 r loadbang;
#X text 296 47 atom number;
#N canvas 393 415 450 300 pan 0;
#X obj 66 -29 *~;
#X obj 67 -4 *~ 0.5;
#X obj 80 106 *~;
#X obj 117 105 *~;
#N canvas 705 360 450 300 pan 0;
#X obj 174 129 hsl 128 15 0 1 0 0 empty empty empty -2 -8 0 10 -262144
-1 -1 6350 1;
#X obj 172 159 expr 1 - $f1;
#N canvas 763 354 450 300 smoother 0;
#X obj 194 81 inlet;
#X obj 197 165 outlet~;
#X obj 196 110 pack 0 50;
#X obj 196 137 line~;
#X connect 0 0 2 0;
#X connect 2 0 3 0;
#X connect 3 0 1 0;
#X restore 220 184 pd smoother;
#N canvas 763 354 450 300 smoother 0;
#X obj 194 81 inlet;
#X obj 197 165 outlet~;
#X obj 196 110 pack 0 50;
#X obj 196 137 line~;
#X connect 0 0 2 0;
#X connect 2 0 3 0;
#X connect 3 0 1 0;
#X restore 143 184 pd smoother;
#X text 215 112 panning;
#X msg 171 105 0.5;
#X obj 86 36 inlet start;
#X obj 146 222 outlet~ L;
#X obj 222 217 outlet~ R;
#X obj 171 71 r loadbang;
#X connect 0 0 1 0;
#X connect 0 0 2 0;
#X connect 1 0 3 0;
#X connect 2 0 8 0;
#X connect 3 0 7 0;
#X connect 5 0 0 0;
#X connect 6 0 0 0;
#X connect 9 0 5 0;
#X restore 122 -13 pd pan;
#X obj 8 -74 inlet~ osc;
#X obj 81 -74 inlet~ ADSR;
#X obj 121 -45 inlet trigger;
#X obj 32 154 outlet~ L;
#X obj 167 155 outlet~ R;
#N canvas 220 444 450 300 partial_amp 0;
#X obj 117 -40 r partial_amp;
#X obj 239 -38 inlet atom_number;
#X obj 241 39 expr 1/($f1+1);
#X msg 208 78 1;
#X obj 191 147 outlet;
#X obj 149 45 + 1;
#X obj 192 109 switch;
#X obj 180 1 t b b;
#X connect 0 0 5 0;
#X connect 0 0 7 0;
#X connect 1 0 2 0;
#X connect 2 0 6 2;
#X connect 3 0 6 1;
#X connect 5 0 6 0;
#X connect 6 0 4 0;
#X connect 7 0 2 0;
#X connect 7 1 6 0;
#X restore 220 -42 pd partial_amp;
#X obj 218 -77 inlet atom_number;
#X obj 75 50 *~ 1;
#X connect 0 0 1 0;
#X connect 1 0 12 0;
#X connect 2 0 8 0;
#X connect 3 0 9 0;
#X connect 4 0 2 1;
#X connect 4 1 3 1;
#X connect 5 0 0 0;
#X connect 6 0 0 1;
#X connect 7 0 4 0;
#X connect 10 0 12 1;
#X connect 11 0 10 0;
#X connect 12 0 2 0;
#X connect 12 0 3 0;
#X restore 151 199 pd pan and amp;
#X msg 268 48 2;
#X floatatom 345 141 5 0 0 0 - - -;
#X connect 0 0 2 0;
#X connect 1 0 10 0;
#X connect 2 0 10 1;
#X connect 5 0 0 1;
#X connect 5 0 12 0;
#X connect 6 0 1 0;
#X connect 7 0 0 0;
#X connect 7 0 11 0;
#X connect 7 0 10 2;
#X connect 7 1 0 0;
#X connect 8 0 11 0;
#X connect 10 0 3 0;
#X connect 10 1 4 0;
#X connect 11 0 5 0;
#X connect 11 0 6 0;
#X connect 11 0 10 3;
#X restore 192 80 pd atom0;
#N canvas 309 183 493 365 atom0 0;
#X obj 232 116 metro 1000;
#X obj 86 122 osc~;
#N canvas 462 228 673 497 ADSR 0;
#X obj 145 174 pack f f f f;
#X msg 146 204 1 \$2 \, \$4 \$3 \$2;
#X obj 197 243 vline~;
#X obj 199 303 outlet~;
#X obj 210 86 inlet trigger;
#X obj 328 85 inlet velocity;
#X obj 280 135 sel 0;
#X obj 249 172 pack f f;
#X msg 248 205 0 \$2;
#X text 315 110 second outlet from notein here;
#X text 172 69 first outlet from notein here;
#X obj 28 56 r a;
#X obj 57 55 r d;
#X obj 84 54 r s;
#X obj 111 54 r r;
#X connect 0 0 1 0;
#X connect 1 0 2 0;
#X connect 2 0 3 0;
#X connect 4 0 0 0;
#X connect 5 0 6 0;
#X connect 6 0 7 0;
#X connect 7 0 8 0;
#X connect 8 0 2 1;
#X connect 11 0 0 1;
#X connect 12 0 0 2;
#X connect 13 0 0 3;
#X connect 14 0 7 1;
#X restore 199 148 pd ADSR;
#X obj 112 276 throw~ LtoAmp;
#X obj 224 277 throw~ RtoAmp;
#N canvas 268 402 450 300 atom_tempo 0;
#X obj 148 206 outlet;
#X obj 86 15 r tempo;
#X obj 203 130 -;
#X obj 190 6 r tempo_offset;
#X obj 172 56 t b b b;
#X obj 254 93 *;
#X obj 292 14 inlet atom_number;
#X connect 1 0 2 0;
#X connect 2 0 0 0;
#X connect 3 0 4 0;
#X connect 3 0 5 0;
#X connect 4 0 2 0;
#X connect 4 1 5 0;
#X connect 4 2 5 0;
#X connect 5 0 2 1;
#X connect 6 0 5 1;
#X restore 272 75 pd atom_tempo;
#N canvas 655 429 450 300 atom_freq 0;
#X obj 204 234 outlet;
#X obj 79 28 r main_freq;
#X obj 254 14 inlet atom_number;
#X obj 162 15 r freq_offset;
#X obj 232 55 *;
#X obj 205 140 +;
#X floatatom 282 197 5 0 0 0 - - -;
#X obj 201 88 t b;
#X connect 1 0 5 0;
#X connect 2 0 4 1;
#X connect 3 0 4 0;
#X connect 4 0 5 1;
#X connect 4 0 7 0;
#X connect 5 0 0 0;
#X connect 5 0 6 0;
#X connect 7 0 5 0;
#X restore 86 88 pd atom_freq;
#N canvas 745 358 450 300 atom_triggers 0;
#X obj 136 179 outlet start;
#X obj 237 180 outlet stop;
#X obj 131 134 r start;
#X obj 231 112 r stop;
#X floatatom 234 145 5 0 0 0 - - -;
#X connect 2 0 0 0;
#X connect 3 0 4 0;
#X connect 4 0 1 0;
#X restore 140 4 pd atom_triggers;
#X obj 267 18 r loadbang;
#X text 296 47 atom number;
#N canvas 393 415 450 300 pan 0;
#X obj 66 -29 *~;
#X obj 67 -4 *~ 0.5;
#X obj 80 106 *~;
#X obj 117 105 *~;
#N canvas 705 360 450 300 pan 0;
#X obj 174 129 hsl 128 15 0 1 0 0 empty empty empty -2 -8 0 10 -262144
-1 -1 6350 1;
#X obj 172 159 expr 1 - $f1;
#N canvas 763 354 450 300 smoother 0;
#X obj 194 81 inlet;
#X obj 197 165 outlet~;
#X obj 196 110 pack 0 50;
#X obj 196 137 line~;
#X connect 0 0 2 0;
#X connect 2 0 3 0;
#X connect 3 0 1 0;
#X restore 220 184 pd smoother;
#N canvas 763 354 450 300 smoother 0;
#X obj 194 81 inlet;
#X obj 197 165 outlet~;
#X obj 196 110 pack 0 50;
#X obj 196 137 line~;
#X connect 0 0 2 0;
#X connect 2 0 3 0;
#X connect 3 0 1 0;
#X restore 143 184 pd smoother;
#X text 215 112 panning;
#X msg 171 105 0.5;
#X obj 86 36 inlet start;
#X obj 146 222 outlet~ L;
#X obj 222 217 outlet~ R;
#X obj 171 71 r loadbang;
#X connect 0 0 1 0;
#X connect 0 0 2 0;
#X connect 1 0 3 0;
#X connect 2 0 8 0;
#X connect 3 0 7 0;
#X connect 5 0 0 0;
#X connect 6 0 0 0;
#X connect 9 0 5 0;
#X restore 122 -13 pd pan;
#X obj 8 -74 inlet~ osc;
#X obj 81 -74 inlet~ ADSR;
#X obj 121 -45 inlet trigger;
#X obj 32 154 outlet~ L;
#X obj 167 155 outlet~ R;
#N canvas 220 444 450 300 partial_amp 0;
#X obj 117 -40 r partial_amp;
#X obj 239 -38 inlet atom_number;
#X obj 241 39 expr 1/($f1+1);
#X msg 208 78 1;
#X obj 191 147 outlet;
#X obj 149 45 + 1;
#X obj 192 109 switch;
#X obj 180 1 t b b;
#X connect 0 0 5 0;
#X connect 0 0 7 0;
#X connect 1 0 2 0;
#X connect 2 0 6 2;
#X connect 3 0 6 1;
#X connect 5 0 6 0;
#X connect 6 0 4 0;
#X connect 7 0 2 0;
#X connect 7 1 6 0;
#X restore 220 -42 pd partial_amp;
#X obj 218 -77 inlet atom_number;
#X obj 75 50 *~ 1;
#X connect 0 0 1 0;
#X connect 1 0 12 0;
#X connect 2 0 8 0;
#X connect 3 0 9 0;
#X connect 4 0 2 1;
#X connect 4 1 3 1;
#X connect 5 0 0 0;
#X connect 6 0 0 1;
#X connect 7 0 4 0;
#X connect 10 0 12 1;
#X connect 11 0 10 0;
#X connect 12 0 2 0;
#X connect 12 0 3 0;
#X restore 151 199 pd pan and amp;
#X msg 268 48 3;
#X connect 0 0 2 0;
#X connect 1 0 10 0;
#X connect 2 0 10 1;
#X connect 5 0 0 1;
#X connect 6 0 1 0;
#X connect 7 0 0 0;
#X connect 7 0 11 0;
#X connect 7 0 10 2;
#X connect 7 1 0 0;
#X connect 8 0 11 0;
#X connect 10 0 3 0;
#X connect 10 1 4 0;
#X connect 11 0 5 0;
#X connect 11 0 6 0;
#X connect 11 0 10 3;
#X restore 254 83 pd atom0;
#N canvas 309 183 493 365 atom0 0;
#X obj 232 116 metro 1000;
#X obj 86 122 osc~;
#N canvas 462 228 673 497 ADSR 0;
#X obj 145 174 pack f f f f;
#X msg 146 204 1 \$2 \, \$4 \$3 \$2;
#X obj 197 243 vline~;
#X obj 199 303 outlet~;
#X obj 210 86 inlet trigger;
#X obj 328 85 inlet velocity;
#X obj 280 135 sel 0;
#X obj 249 172 pack f f;
#X msg 248 205 0 \$2;
#X text 315 110 second outlet from notein here;
#X text 172 69 first outlet from notein here;
#X obj 28 56 r a;
#X obj 57 55 r d;
#X obj 84 54 r s;
#X obj 111 54 r r;
#X connect 0 0 1 0;
#X connect 1 0 2 0;
#X connect 2 0 3 0;
#X connect 4 0 0 0;
#X connect 5 0 6 0;
#X connect 6 0 7 0;
#X connect 7 0 8 0;
#X connect 8 0 2 1;
#X connect 11 0 0 1;
#X connect 12 0 0 2;
#X connect 13 0 0 3;
#X connect 14 0 7 1;
#X restore 199 148 pd ADSR;
#X obj 112 276 throw~ LtoAmp;
#X obj 224 277 throw~ RtoAmp;
#N canvas 268 402 450 300 atom_tempo 0;
#X obj 148 206 outlet;
#X obj 86 15 r tempo;
#X obj 203 130 -;
#X obj 190 6 r tempo_offset;
#X obj 172 56 t b b b;
#X obj 254 93 *;
#X obj 292 14 inlet atom_number;
#X connect 1 0 2 0;
#X connect 2 0 0 0;
#X connect 3 0 4 0;
#X connect 3 0 5 0;
#X connect 4 0 2 0;
#X connect 4 1 5 0;
#X connect 4 2 5 0;
#X connect 5 0 2 1;
#X connect 6 0 5 1;
#X restore 272 75 pd atom_tempo;
#N canvas 655 429 450 300 atom_freq 0;
#X obj 204 234 outlet;
#X obj 79 28 r main_freq;
#X obj 254 14 inlet atom_number;
#X obj 162 15 r freq_offset;
#X obj 232 55 *;
#X obj 205 140 +;
#X floatatom 282 197 5 0 0 0 - - -;
#X obj 201 88 t b;
#X connect 1 0 5 0;
#X connect 2 0 4 1;
#X connect 3 0 4 0;
#X connect 4 0 5 1;
#X connect 4 0 7 0;
#X connect 5 0 0 0;
#X connect 5 0 6 0;
#X connect 7 0 5 0;
#X restore 86 88 pd atom_freq;
#N canvas 745 358 450 300 atom_triggers 0;
#X obj 136 179 outlet start;
#X obj 237 180 outlet stop;
#X obj 131 134 r start;
#X obj 231 112 r stop;
#X floatatom 234 145 5 0 0 0 - - -;
#X connect 2 0 0 0;
#X connect 3 0 4 0;
#X connect 4 0 1 0;
#X restore 140 4 pd atom_triggers;
#X obj 267 18 r loadbang;
#X text 296 47 atom number;
#N canvas 393 415 450 300 pan 0;
#X obj 66 -29 *~;
#X obj 67 -4 *~ 0.5;
#X obj 80 106 *~;
#X obj 117 105 *~;
#N canvas 705 360 450 300 pan 0;
#X obj 174 129 hsl 128 15 0 1 0 0 empty empty empty -2 -8 0 10 -262144
-1 -1 6350 1;
#X obj 172 159 expr 1 - $f1;
#N canvas 763 354 450 300 smoother 0;
#X obj 194 81 inlet;
#X obj 197 165 outlet~;
#X obj 196 110 pack 0 50;
#X obj 196 137 line~;
#X connect 0 0 2 0;
#X connect 2 0 3 0;
#X connect 3 0 1 0;
#X restore 220 184 pd smoother;
#N canvas 763 354 450 300 smoother 0;
#X obj 194 81 inlet;
#X obj 197 165 outlet~;
#X obj 196 110 pack 0 50;
#X obj 196 137 line~;
#X connect 0 0 2 0;
#X connect 2 0 3 0;
#X connect 3 0 1 0;
#X restore 143 184 pd smoother;
#X text 215 112 panning;
#X msg 171 105 0.5;
#X obj 86 36 inlet start;
#X obj 146 222 outlet~ L;
#X obj 222 217 outlet~ R;
#X obj 171 71 r loadbang;
#X connect 0 0 1 0;
#X connect 0 0 2 0;
#X connect 1 0 3 0;
#X connect 2 0 8 0;
#X connect 3 0 7 0;
#X connect 5 0 0 0;
#X connect 6 0 0 0;
#X connect 9 0 5 0;
#X restore 122 -13 pd pan;
#X obj 8 -74 inlet~ osc;
#X obj 81 -74 inlet~ ADSR;
#X obj 121 -45 inlet trigger;
#X obj 32 154 outlet~ L;
#X obj 167 155 outlet~ R;
#N canvas 220 444 450 300 partial_amp 0;
#X obj 117 -40 r partial_amp;
#X obj 239 -38 inlet atom_number;
#X obj 241 39 expr 1/($f1+1);
#X msg 208 78 1;
#X obj 191 147 outlet;
#X obj 149 45 + 1;
#X obj 192 109 switch;
#X obj 180 1 t b b;
#X connect 0 0 5 0;
#X connect 0 0 7 0;
#X connect 1 0 2 0;
#X connect 2 0 6 2;
#X connect 3 0 6 1;
#X connect 5 0 6 0;
#X connect 6 0 4 0;
#X connect 7 0 2 0;
#X connect 7 1 6 0;
#X restore 220 -42 pd partial_amp;
#X obj 218 -77 inlet atom_number;
#X obj 75 50 *~ 1;
#X connect 0 0 1 0;
#X connect 1 0 12 0;
#X connect 2 0 8 0;
#X connect 3 0 9 0;
#X connect 4 0 2 1;
#X connect 4 1 3 1;
#X connect 5 0 0 0;
#X connect 6 0 0 1;
#X connect 7 0 4 0;
#X connect 10 0 12 1;
#X connect 11 0 10 0;
#X connect 12 0 2 0;
#X connect 12 0 3 0;
#X restore 151 199 pd pan and amp;
#X msg 268 48 4;
#X connect 0 0 2 0;
#X connect 1 0 10 0;
#X connect 2 0 10 1;
#X connect 5 0 0 1;
#X connect 6 0 1 0;
#X connect 7 0 0 0;
#X connect 7 0 11 0;
#X connect 7 0 10 2;
#X connect 7 1 0 0;
#X connect 8 0 11 0;
#X connect 10 0 3 0;
#X connect 10 1 4 0;
#X connect 11 0 5 0;
#X connect 11 0 6 0;
#X connect 11 0 10 3;
#X restore 79 103 pd atom0;
#N canvas 309 183 493 365 atom0 0;
#X obj 232 116 metro 1000;
#X obj 86 122 osc~;
#N canvas 462 228 673 497 ADSR 0;
#X obj 145 174 pack f f f f;
#X msg 146 204 1 \$2 \, \$4 \$3 \$2;
#X obj 197 243 vline~;
#X obj 199 303 outlet~;
#X obj 210 86 inlet trigger;
#X obj 328 85 inlet velocity;
#X obj 280 135 sel 0;
#X obj 249 172 pack f f;
#X msg 248 205 0 \$2;
#X text 315 110 second outlet from notein here;
#X text 172 69 first outlet from notein here;
#X obj 28 56 r a;
#X obj 57 55 r d;
#X obj 84 54 r s;
#X obj 111 54 r r;
#X connect 0 0 1 0;
#X connect 1 0 2 0;
#X connect 2 0 3 0;
#X connect 4 0 0 0;
#X connect 5 0 6 0;
#X connect 6 0 7 0;
#X connect 7 0 8 0;
#X connect 8 0 2 1;
#X connect 11 0 0 1;
#X connect 12 0 0 2;
#X connect 13 0 0 3;
#X connect 14 0 7 1;
#X restore 199 148 pd ADSR;
#X obj 112 276 throw~ LtoAmp;
#X obj 224 277 throw~ RtoAmp;
#N canvas 268 402 450 300 atom_tempo 0;
#X obj 148 206 outlet;
#X obj 86 15 r tempo;
#X obj 203 130 -;
#X obj 190 6 r tempo_offset;
#X obj 172 56 t b b b;
#X obj 254 93 *;
#X obj 292 14 inlet atom_number;
#X connect 1 0 2 0;
#X connect 2 0 0 0;
#X connect 3 0 4 0;
#X connect 3 0 5 0;
#X connect 4 0 2 0;
#X connect 4 1 5 0;
#X connect 4 2 5 0;
#X connect 5 0 2 1;
#X connect 6 0 5 1;
#X restore 272 75 pd atom_tempo;
#N canvas 655 429 450 300 atom_freq 0;
#X obj 204 234 outlet;
#X obj 79 28 r main_freq;
#X obj 254 14 inlet atom_number;
#X obj 162 15 r freq_offset;
#X obj 232 55 *;
#X obj 205 140 +;
#X floatatom 282 197 5 0 0 0 - - -;
#X obj 201 88 t b;
#X connect 1 0 5 0;
#X connect 2 0 4 1;
#X connect 3 0 4 0;
#X connect 4 0 5 1;
#X connect 4 0 7 0;
#X connect 5 0 0 0;
#X connect 5 0 6 0;
#X connect 7 0 5 0;
#X restore 86 88 pd atom_freq;
#N canvas 745 358 450 300 atom_triggers 0;
#X obj 136 179 outlet start;
#X obj 237 180 outlet stop;
#X obj 131 134 r start;
#X obj 231 112 r stop;
#X floatatom 234 145 5 0 0 0 - - -;
#X connect 2 0 0 0;
#X connect 3 0 4 0;
#X connect 4 0 1 0;
#X restore 140 4 pd atom_triggers;
#X obj 267 18 r loadbang;
#X text 296 47 atom number;
#N canvas 393 415 450 300 pan 0;
#X obj 66 -29 *~;
#X obj 67 -4 *~ 0.5;
#X obj 80 106 *~;
#X obj 117 105 *~;
#N canvas 705 360 450 300 pan 0;
#X obj 174 129 hsl 128 15 0 1 0 0 empty empty empty -2 -8 0 10 -262144
-1 -1 6350 1;
#X obj 172 159 expr 1 - $f1;
#N canvas 763 354 450 300 smoother 0;
#X obj 194 81 inlet;
#X obj 197 165 outlet~;
#X obj 196 110 pack 0 50;
#X obj 196 137 line~;
#X connect 0 0 2 0;
#X connect 2 0 3 0;
#X connect 3 0 1 0;
#X restore 220 184 pd smoother;
#N canvas 763 354 450 300 smoother 0;
#X obj 194 81 inlet;
#X obj 197 165 outlet~;
#X obj 196 110 pack 0 50;
#X obj 196 137 line~;
#X connect 0 0 2 0;
#X connect 2 0 3 0;
#X connect 3 0 1 0;
#X restore 143 184 pd smoother;
#X text 215 112 panning;
#X msg 171 105 0.5;
#X obj 86 36 inlet start;
#X obj 146 222 outlet~ L;
#X obj 222 217 outlet~ R;
#X obj 171 71 r loadbang;
#X connect 0 0 1 0;
#X connect 0 0 2 0;
#X connect 1 0 3 0;
#X connect 2 0 8 0;
#X connect 3 0 7 0;
#X connect 5 0 0 0;
#X connect 6 0 0 0;
#X connect 9 0 5 0;
#X restore 122 -13 pd pan;
#X obj 8 -74 inlet~ osc;
#X obj 81 -74 inlet~ ADSR;
#X obj 121 -45 inlet trigger;
#X obj 32 154 outlet~ L;
#X obj 167 155 outlet~ R;
#N canvas 220 444 450 300 partial_amp 0;
#X obj 117 -40 r partial_amp;
#X obj 239 -38 inlet atom_number;
#X obj 241 39 expr 1/($f1+1);
#X msg 208 78 1;
#X obj 191 147 outlet;
#X obj 149 45 + 1;
#X obj 192 109 switch;
#X obj 180 1 t b b;
#X connect 0 0 5 0;
#X connect 0 0 7 0;
#X connect 1 0 2 0;
#X connect 2 0 6 2;
#X connect 3 0 6 1;
#X connect 5 0 6 0;
#X connect 6 0 4 0;
#X connect 7 0 2 0;
#X connect 7 1 6 0;
#X restore 220 -42 pd partial_amp;
#X obj 218 -77 inlet atom_number;
#X obj 75 50 *~ 1;
#X connect 0 0 1 0;
#X connect 1 0 12 0;
#X connect 2 0 8 0;
#X connect 3 0 9 0;
#X connect 4 0 2 1;
#X connect 4 1 3 1;
#X connect 5 0 0 0;
#X connect 6 0 0 1;
#X connect 7 0 4 0;
#X connect 10 0 12 1;
#X connect 11 0 10 0;
#X connect 12 0 2 0;
#X connect 12 0 3 0;
#X restore 151 199 pd pan and amp;
#X msg 268 48 5;
#X connect 0 0 2 0;
#X connect 1 0 10 0;
#X connect 2 0 10 1;
#X connect 5 0 0 1;
#X connect 6 0 1 0;
#X connect 7 0 0 0;
#X connect 7 0 11 0;
#X connect 7 0 10 2;
#X connect 7 1 0 0;
#X connect 8 0 11 0;
#X connect 10 0 3 0;
#X connect 10 1 4 0;
#X connect 11 0 5 0;
#X connect 11 0 6 0;
#X connect 11 0 10 3;
#X restore 140 104 pd atom0;
#N canvas 309 183 493 365 atom0 0;
#X obj 232 116 metro 1000;
#X obj 86 122 osc~;
#N canvas 462 228 673 497 ADSR 0;
#X obj 145 174 pack f f f f;
#X msg 146 204 1 \$2 \, \$4 \$3 \$2;
#X obj 197 243 vline~;
#X obj 199 303 outlet~;
#X obj 210 86 inlet trigger;
#X obj 328 85 inlet velocity;
#X obj 280 135 sel 0;
#X obj 249 172 pack f f;
#X msg 248 205 0 \$2;
#X text 315 110 second outlet from notein here;
#X text 172 69 first outlet from notein here;
#X obj 28 56 r a;
#X obj 57 55 r d;
#X obj 84 54 r s;
#X obj 111 54 r r;
#X connect 0 0 1 0;
#X connect 1 0 2 0;
#X connect 2 0 3 0;
#X connect 4 0 0 0;
#X connect 5 0 6 0;
#X connect 6 0 7 0;
#X connect 7 0 8 0;
#X connect 8 0 2 1;
#X connect 11 0 0 1;
#X connect 12 0 0 2;
#X connect 13 0 0 3;
#X connect 14 0 7 1;
#X restore 199 148 pd ADSR;
#X obj 112 276 throw~ LtoAmp;
#X obj 224 277 throw~ RtoAmp;
#N canvas 268 402 450 300 atom_tempo 0;
#X obj 148 206 outlet;
#X obj 86 15 r tempo;
#X obj 203 130 -;
#X obj 190 6 r tempo_offset;
#X obj 172 56 t b b b;
#X obj 254 93 *;
#X obj 292 14 inlet atom_number;
#X connect 1 0 2 0;
#X connect 2 0 0 0;
#X connect 3 0 4 0;
#X connect 3 0 5 0;
#X connect 4 0 2 0;
#X connect 4 1 5 0;
#X connect 4 2 5 0;
#X connect 5 0 2 1;
#X connect 6 0 5 1;
#X restore 272 75 pd atom_tempo;
#N canvas 655 429 450 300 atom_freq 0;
#X obj 204 234 outlet;
#X obj 79 28 r main_freq;
#X obj 254 14 inlet atom_number;
#X obj 162 15 r freq_offset;
#X obj 232 55 *;
#X obj 205 140 +;
#X floatatom 282 197 5 0 0 0 - - -;
#X obj 201 88 t b;
#X connect 1 0 5 0;
#X connect 2 0 4 1;
#X connect 3 0 4 0;
#X connect 4 0 5 1;
#X connect 4 0 7 0;
#X connect 5 0 0 0;
#X connect 5 0 6 0;
#X connect 7 0 5 0;
#X restore 86 88 pd atom_freq;
#N canvas 745 358 450 300 atom_triggers 0;
#X obj 136 179 outlet start;
#X obj 237 180 outlet stop;
#X obj 131 134 r start;
#X obj 231 112 r stop;
#X floatatom 234 145 5 0 0 0 - - -;
#X connect 2 0 0 0;
#X connect 3 0 4 0;
#X connect 4 0 1 0;
#X restore 140 4 pd atom_triggers;
#X obj 267 18 r loadbang;
#X text 296 47 atom number;
#N canvas 393 415 450 300 pan 0;
#X obj 66 -29 *~;
#X obj 67 -4 *~ 0.5;
#X obj 80 106 *~;
#X obj 117 105 *~;
#N canvas 705 360 450 300 pan 0;
#X obj 174 129 hsl 128 15 0 1 0 0 empty empty empty -2 -8 0 10 -262144
-1 -1 6350 1;
#X obj 172 159 expr 1 - $f1;
#N canvas 763 354 450 300 smoother 0;
#X obj 194 81 inlet;
#X obj 197 165 outlet~;
#X obj 196 110 pack 0 50;
#X obj 196 137 line~;
#X connect 0 0 2 0;
#X connect 2 0 3 0;
#X connect 3 0 1 0;
#X restore 220 184 pd smoother;
#N canvas 763 354 450 300 smoother 0;
#X obj 194 81 inlet;
#X obj 197 165 outlet~;
#X obj 196 110 pack 0 50;
#X obj 196 137 line~;
#X connect 0 0 2 0;
#X connect 2 0 3 0;
#X connect 3 0 1 0;
#X restore 143 184 pd smoother;
#X text 215 112 panning;
#X msg 171 105 0.5;
#X obj 86 36 inlet start;
#X obj 146 222 outlet~ L;
#X obj 222 217 outlet~ R;
#X obj 171 71 r loadbang;
#X connect 0 0 1 0;
#X connect 0 0 2 0;
#X connect 1 0 3 0;
#X connect 2 0 8 0;
#X connect 3 0 7 0;
#X connect 5 0 0 0;
#X connect 6 0 0 0;
#X connect 9 0 5 0;
#X restore 122 -13 pd pan;
#X obj 8 -74 inlet~ osc;
#X obj 81 -74 inlet~ ADSR;
#X obj 121 -45 inlet trigger;
#X obj 32 154 outlet~ L;
#X obj 167 155 outlet~ R;
#N canvas 220 444 450 300 partial_amp 0;
#X obj 117 -40 r partial_amp;
#X obj 239 -38 inlet atom_number;
#X obj 241 39 expr 1/($f1+1);
#X msg 208 78 1;
#X obj 191 147 outlet;
#X obj 149 45 + 1;
#X obj 192 109 switch;
#X obj 180 1 t b b;
#X connect 0 0 5 0;
#X connect 0 0 7 0;
#X connect 1 0 2 0;
#X connect 2 0 6 2;
#X connect 3 0 6 1;
#X connect 5 0 6 0;
#X connect 6 0 4 0;
#X connect 7 0 2 0;
#X connect 7 1 6 0;
#X restore 220 -42 pd partial_amp;
#X obj 218 -77 inlet atom_number;
#X obj 75 50 *~ 1;
#X connect 0 0 1 0;
#X connect 1 0 12 0;
#X connect 2 0 8 0;
#X connect 3 0 9 0;
#X connect 4 0 2 1;
#X connect 4 1 3 1;
#X connect 5 0 0 0;
#X connect 6 0 0 1;
#X connect 7 0 4 0;
#X connect 10 0 12 1;
#X connect 11 0 10 0;
#X connect 12 0 2 0;
#X connect 12 0 3 0;
#X restore 151 199 pd pan and amp;
#X msg 268 48 6;
#X connect 0 0 2 0;
#X connect 1 0 10 0;
#X connect 2 0 10 1;
#X connect 5 0 0 1;
#X connect 6 0 1 0;
#X connect 7 0 0 0;
#X connect 7 0 11 0;
#X connect 7 0 10 2;
#X connect 7 1 0 0;
#X connect 8 0 11 0;
#X connect 10 0 3 0;
#X connect 10 1 4 0;
#X connect 11 0 5 0;
#X connect 11 0 6 0;
#X connect 11 0 10 3;
#X restore 199 106 pd atom0;
#N canvas 309 183 493 365 atom0 0;
#X obj 232 116 metro 1000;
#X obj 86 122 osc~;
#N canvas 462 228 673 497 ADSR 0;
#X obj 145 174 pack f f f f;
#X msg 146 204 1 \$2 \, \$4 \$3 \$2;
#X obj 197 243 vline~;
#X obj 199 303 outlet~;
#X obj 210 86 inlet trigger;
#X obj 328 85 inlet velocity;
#X obj 280 135 sel 0;
#X obj 249 172 pack f f;
#X msg 248 205 0 \$2;
#X text 315 110 second outlet from notein here;
#X text 172 69 first outlet from notein here;
#X obj 28 56 r a;
#X obj 57 55 r d;
#X obj 84 54 r s;
#X obj 111 54 r r;
#X connect 0 0 1 0;
#X connect 1 0 2 0;
#X connect 2 0 3 0;
#X connect 4 0 0 0;
#X connect 5 0 6 0;
#X connect 6 0 7 0;
#X connect 7 0 8 0;
#X connect 8 0 2 1;
#X connect 11 0 0 1;
#X connect 12 0 0 2;
#X connect 13 0 0 3;
#X connect 14 0 7 1;
#X restore 199 148 pd ADSR;
#X obj 112 276 throw~ LtoAmp;
#X obj 224 277 throw~ RtoAmp;
#N canvas 268 402 450 300 atom_tempo 0;
#X obj 148 206 outlet;
#X obj 86 15 r tempo;
#X obj 203 130 -;
#X obj 190 6 r tempo_offset;
#X obj 172 56 t b b b;
#X obj 254 93 *;
#X obj 292 14 inlet atom_number;
#X connect 1 0 2 0;
#X connect 2 0 0 0;
#X connect 3 0 4 0;
#X connect 3 0 5 0;
#X connect 4 0 2 0;
#X connect 4 1 5 0;
#X connect 4 2 5 0;
#X connect 5 0 2 1;
#X connect 6 0 5 1;
#X restore 272 75 pd atom_tempo;
#N canvas 655 429 450 300 atom_freq 0;
#X obj 204 234 outlet;
#X obj 79 28 r main_freq;
#X obj 254 14 inlet atom_number;
#X obj 162 15 r freq_offset;
#X obj 232 55 *;
#X obj 205 140 +;
#X floatatom 282 197 5 0 0 0 - - -;
#X obj 201 88 t b;
#X connect 1 0 5 0;
#X connect 2 0 4 1;
#X connect 3 0 4 0;
#X connect 4 0 5 1;
#X connect 4 0 7 0;
#X connect 5 0 0 0;
#X connect 5 0 6 0;
#X connect 7 0 5 0;
#X restore 86 88 pd atom_freq;
#N canvas 745 358 450 300 atom_triggers 0;
#X obj 136 179 outlet start;
#X obj 237 180 outlet stop;
#X obj 131 134 r start;
#X obj 231 112 r stop;
#X floatatom 234 145 5 0 0 0 - - -;
#X connect 2 0 0 0;
#X connect 3 0 4 0;
#X connect 4 0 1 0;
#X restore 140 4 pd atom_triggers;
#X obj 267 18 r loadbang;
#X text 296 47 atom number;
#N canvas 393 415 450 300 pan 0;
#X obj 66 -29 *~;
#X obj 67 -4 *~ 0.5;
#X obj 80 106 *~;
#X obj 117 105 *~;
#N canvas 705 360 450 300 pan 0;
#X obj 174 129 hsl 128 15 0 1 0 0 empty empty empty -2 -8 0 10 -262144
-1 -1 6350 1;
#X obj 172 159 expr 1 - $f1;
#N canvas 763 354 450 300 smoother 0;
#X obj 194 81 inlet;
#X obj 197 165 outlet~;
#X obj 196 110 pack 0 50;
#X obj 196 137 line~;
#X connect 0 0 2 0;
#X connect 2 0 3 0;
#X connect 3 0 1 0;
#X restore 220 184 pd smoother;
#N canvas 763 354 450 300 smoother 0;
#X obj 194 81 inlet;
#X obj 197 165 outlet~;
#X obj 196 110 pack 0 50;
#X obj 196 137 line~;
#X connect 0 0 2 0;
#X connect 2 0 3 0;
#X connect 3 0 1 0;
#X restore 143 184 pd smoother;
#X text 215 112 panning;
#X msg 171 105 0.5;
#X obj 86 36 inlet start;
#X obj 146 222 outlet~ L;
#X obj 222 217 outlet~ R;
#X obj 171 71 r loadbang;
#X connect 0 0 1 0;
#X connect 0 0 2 0;
#X connect 1 0 3 0;
#X connect 2 0 8 0;
#X connect 3 0 7 0;
#X connect 5 0 0 0;
#X connect 6 0 0 0;
#X connect 9 0 5 0;
#X restore 122 -13 pd pan;
#X obj 8 -74 inlet~ osc;
#X obj 81 -74 inlet~ ADSR;
#X obj 121 -45 inlet trigger;
#X obj 32 154 outlet~ L;
#X obj 167 155 outlet~ R;
#N canvas 220 444 450 300 partial_amp 0;
#X obj 117 -40 r partial_amp;
#X obj 239 -38 inlet atom_number;
#X obj 241 39 expr 1/($f1+1);
#X msg 208 78 1;
#X obj 191 147 outlet;
#X obj 149 45 + 1;
#X obj 192 109 switch;
#X obj 180 1 t b b;
#X connect 0 0 5 0;
#X connect 0 0 7 0;
#X connect 1 0 2 0;
#X connect 2 0 6 2;
#X connect 3 0 6 1;
#X connect 5 0 6 0;
#X connect 6 0 4 0;
#X connect 7 0 2 0;
#X connect 7 1 6 0;
#X restore 220 -42 pd partial_amp;
#X obj 218 -77 inlet atom_number;
#X obj 75 50 *~ 1;
#X connect 0 0 1 0;
#X connect 1 0 12 0;
#X connect 2 0 8 0;
#X connect 3 0 9 0;
#X connect 4 0 2 1;
#X connect 4 1 3 1;
#X connect 5 0 0 0;
#X connect 6 0 0 1;
#X connect 7 0 4 0;
#X connect 10 0 12 1;
#X connect 11 0 10 0;
#X connect 12 0 2 0;
#X connect 12 0 3 0;
#X restore 151 199 pd pan and amp;
#X msg 268 48 7;
#X connect 0 0 2 0;
#X connect 1 0 10 0;
#X connect 2 0 10 1;
#X connect 5 0 0 1;
#X connect 6 0 1 0;
#X connect 7 0 0 0;
#X connect 7 0 11 0;
#X connect 7 0 10 2;
#X connect 7 1 0 0;
#X connect 8 0 11 0;
#X connect 10 0 3 0;
#X connect 10 1 4 0;
#X connect 11 0 5 0;
#X connect 11 0 6 0;
#X connect 11 0 10 3;
#X restore 261 109 pd atom0;
#N canvas 309 183 493 365 atom0 0;
#X obj 232 116 metro 1000;
#X obj 86 122 osc~;
#N canvas 462 228 673 497 ADSR 0;
#X obj 145 174 pack f f f f;
#X msg 146 204 1 \$2 \, \$4 \$3 \$2;
#X obj 197 243 vline~;
#X obj 199 303 outlet~;
#X obj 210 86 inlet trigger;
#X obj 328 85 inlet velocity;
#X obj 280 135 sel 0;
#X obj 249 172 pack f f;
#X msg 248 205 0 \$2;
#X text 315 110 second outlet from notein here;
#X text 172 69 first outlet from notein here;
#X obj 28 56 r a;
#X obj 57 55 r d;
#X obj 84 54 r s;
#X obj 111 54 r r;
#X connect 0 0 1 0;
#X connect 1 0 2 0;
#X connect 2 0 3 0;
#X connect 4 0 0 0;
#X connect 5 0 6 0;
#X connect 6 0 7 0;
#X connect 7 0 8 0;
#X connect 8 0 2 1;
#X connect 11 0 0 1;
#X connect 12 0 0 2;
#X connect 13 0 0 3;
#X connect 14 0 7 1;
#X restore 199 148 pd ADSR;
#X obj 112 276 throw~ LtoAmp;
#X obj 224 277 throw~ RtoAmp;
#N canvas 268 402 450 300 atom_tempo 0;
#X obj 148 206 outlet;
#X obj 86 15 r tempo;
#X obj 203 130 -;
#X obj 190 6 r tempo_offset;
#X obj 172 56 t b b b;
#X obj 254 93 *;
#X obj 292 14 inlet atom_number;
#X connect 1 0 2 0;
#X connect 2 0 0 0;
#X connect 3 0 4 0;
#X connect 3 0 5 0;
#X connect 4 0 2 0;
#X connect 4 1 5 0;
#X connect 4 2 5 0;
#X connect 5 0 2 1;
#X connect 6 0 5 1;
#X restore 272 75 pd atom_tempo;
#N canvas 655 429 450 300 atom_freq 0;
#X obj 204 234 outlet;
#X obj 79 28 r main_freq;
#X obj 254 14 inlet atom_number;
#X obj 162 15 r freq_offset;
#X obj 232 55 *;
#X obj 205 140 +;
#X floatatom 282 197 5 0 0 0 - - -;
#X obj 201 88 t b;
#X connect 1 0 5 0;
#X connect 2 0 4 1;
#X connect 3 0 4 0;
#X connect 4 0 5 1;
#X connect 4 0 7 0;
#X connect 5 0 0 0;
#X connect 5 0 6 0;
#X connect 7 0 5 0;
#X restore 86 88 pd atom_freq;
#N canvas 745 358 450 300 atom_triggers 0;
#X obj 136 179 outlet start;
#X obj 237 180 outlet stop;
#X obj 131 134 r start;
#X obj 231 112 r stop;
#X floatatom 234 145 5 0 0 0 - - -;
#X connect 2 0 0 0;
#X connect 3 0 4 0;
#X connect 4 0 1 0;
#X restore 140 4 pd atom_triggers;
#X obj 267 18 r loadbang;
#X text 296 47 atom number;
#N canvas 393 415 450 300 pan 0;
#X obj 66 -29 *~;
#X obj 67 -4 *~ 0.5;
#X obj 80 106 *~;
#X obj 117 105 *~;
#N canvas 705 360 450 300 pan 0;
#X obj 174 129 hsl 128 15 0 1 0 0 empty empty empty -2 -8 0 10 -262144
-1 -1 6350 1;
#X obj 172 159 expr 1 - $f1;
#N canvas 763 354 450 300 smoother 0;
#X obj 194 81 inlet;
#X obj 197 165 outlet~;
#X obj 196 110 pack 0 50;
#X obj 196 137 line~;
#X connect 0 0 2 0;
#X connect 2 0 3 0;
#X connect 3 0 1 0;
#X restore 220 184 pd smoother;
#N canvas 763 354 450 300 smoother 0;
#X obj 194 81 inlet;
#X obj 197 165 outlet~;
#X obj 196 110 pack 0 50;
#X obj 196 137 line~;
#X connect 0 0 2 0;
#X connect 2 0 3 0;
#X connect 3 0 1 0;
#X restore 143 184 pd smoother;
#X text 215 112 panning;
#X msg 171 105 0.5;
#X obj 86 36 inlet start;
#X obj 146 222 outlet~ L;
#X obj 222 217 outlet~ R;
#X obj 171 71 r loadbang;
#X connect 0 0 1 0;
#X connect 0 0 2 0;
#X connect 1 0 3 0;
#X connect 2 0 8 0;
#X connect 3 0 7 0;
#X connect 5 0 0 0;
#X connect 6 0 0 0;
#X connect 9 0 5 0;
#X restore 122 -13 pd pan;
#X obj 8 -74 inlet~ osc;
#X obj 81 -74 inlet~ ADSR;
#X obj 121 -45 inlet trigger;
#X obj 32 154 outlet~ L;
#X obj 167 155 outlet~ R;
#N canvas 220 444 450 300 partial_amp 0;
#X obj 117 -40 r partial_amp;
#X obj 239 -38 inlet atom_number;
#X obj 241 39 expr 1/($f1+1);
#X msg 208 78 1;
#X obj 191 147 outlet;
#X obj 149 45 + 1;
#X obj 192 109 switch;
#X obj 180 1 t b b;
#X connect 0 0 5 0;
#X connect 0 0 7 0;
#X connect 1 0 2 0;
#X connect 2 0 6 2;
#X connect 3 0 6 1;
#X connect 5 0 6 0;
#X connect 6 0 4 0;
#X connect 7 0 2 0;
#X connect 7 1 6 0;
#X restore 220 -42 pd partial_amp;
#X obj 218 -77 inlet atom_number;
#X obj 75 50 *~ 1;
#X connect 0 0 1 0;
#X connect 1 0 12 0;
#X connect 2 0 8 0;
#X connect 3 0 9 0;
#X connect 4 0 2 1;
#X connect 4 1 3 1;
#X connect 5 0 0 0;
#X connect 6 0 0 1;
#X connect 7 0 4 0;
#X connect 10 0 12 1;
#X connect 11 0 10 0;
#X connect 12 0 2 0;
#X connect 12 0 3 0;
#X restore 151 199 pd pan and amp;
#X msg 268 48 8;
#X connect 0 0 2 0;
#X connect 1 0 10 0;
#X connect 2 0 10 1;
#X connect 5 0 0 1;
#X connect 6 0 1 0;
#X connect 7 0 0 0;
#X connect 7 0 11 0;
#X connect 7 0 10 2;
#X connect 7 1 0 0;
#X connect 8 0 11 0;
#X connect 10 0 3 0;
#X connect 10 1 4 0;
#X connect 11 0 5 0;
#X connect 11 0 6 0;
#X connect 11 0 10 3;
#X restore 81 132 pd atom0;
#N canvas 309 183 493 365 atom0 0;
#X obj 232 116 metro 1000;
#X obj 86 122 osc~;
#N canvas 462 228 673 497 ADSR 0;
#X obj 145 174 pack f f f f;
#X msg 146 204 1 \$2 \, \$4 \$3 \$2;
#X obj 197 243 vline~;
#X obj 199 303 outlet~;
#X obj 210 86 inlet trigger;
#X obj 328 85 inlet velocity;
#X obj 280 135 sel 0;
#X obj 249 172 pack f f;
#X msg 248 205 0 \$2;
#X text 315 110 second outlet from notein here;
#X text 172 69 first outlet from notein here;
#X obj 28 56 r a;
#X obj 57 55 r d;
#X obj 84 54 r s;
#X obj 111 54 r r;
#X connect 0 0 1 0;
#X connect 1 0 2 0;
#X connect 2 0 3 0;
#X connect 4 0 0 0;
#X connect 5 0 6 0;
#X connect 6 0 7 0;
#X connect 7 0 8 0;
#X connect 8 0 2 1;
#X connect 11 0 0 1;
#X connect 12 0 0 2;
#X connect 13 0 0 3;
#X connect 14 0 7 1;
#X restore 199 148 pd ADSR;
#X obj 112 276 throw~ LtoAmp;
#X obj 224 277 throw~ RtoAmp;
#N canvas 268 402 450 300 atom_tempo 0;
#X obj 148 206 outlet;
#X obj 86 15 r tempo;
#X obj 203 130 -;
#X obj 190 6 r tempo_offset;
#X obj 172 56 t b b b;
#X obj 254 93 *;
#X obj 292 14 inlet atom_number;
#X connect 1 0 2 0;
#X connect 2 0 0 0;
#X connect 3 0 4 0;
#X connect 3 0 5 0;
#X connect 4 0 2 0;
#X connect 4 1 5 0;
#X connect 4 2 5 0;
#X connect 5 0 2 1;
#X connect 6 0 5 1;
#X restore 272 75 pd atom_tempo;
#N canvas 655 429 450 300 atom_freq 0;
#X obj 204 234 outlet;
#X obj 79 28 r main_freq;
#X obj 254 14 inlet atom_number;
#X obj 162 15 r freq_offset;
#X obj 232 55 *;
#X obj 205 140 +;
#X floatatom 282 197 5 0 0 0 - - -;
#X obj 201 88 t b;
#X connect 1 0 5 0;
#X connect 2 0 4 1;
#X connect 3 0 4 0;
#X connect 4 0 5 1;
#X connect 4 0 7 0;
#X connect 5 0 0 0;
#X connect 5 0 6 0;
#X connect 7 0 5 0;
#X restore 86 88 pd atom_freq;
#N canvas 745 358 450 300 atom_triggers 0;
#X obj 136 179 outlet start;
#X obj 237 180 outlet stop;
#X obj 131 134 r start;
#X obj 231 112 r stop;
#X floatatom 234 145 5 0 0 0 - - -;
#X connect 2 0 0 0;
#X connect 3 0 4 0;
#X connect 4 0 1 0;
#X restore 140 4 pd atom_triggers;
#X obj 267 18 r loadbang;
#X text 296 47 atom number;
#N canvas 393 415 450 300 pan 0;
#X obj 66 -29 *~;
#X obj 67 -4 *~ 0.5;
#X obj 80 106 *~;
#X obj 117 105 *~;
#N canvas 705 360 450 300 pan 0;
#X obj 174 129 hsl 128 15 0 1 0 0 empty empty empty -2 -8 0 10 -262144
-1 -1 6350 1;
#X obj 172 159 expr 1 - $f1;
#N canvas 763 354 450 300 smoother 0;
#X obj 194 81 inlet;
#X obj 197 165 outlet~;
#X obj 196 110 pack 0 50;
#X obj 196 137 line~;
#X connect 0 0 2 0;
#X connect 2 0 3 0;
#X connect 3 0 1 0;
#X restore 220 184 pd smoother;
#N canvas 763 354 450 300 smoother 0;
#X obj 194 81 inlet;
#X obj 197 165 outlet~;
#X obj 196 110 pack 0 50;
#X obj 196 137 line~;
#X connect 0 0 2 0;
#X connect 2 0 3 0;
#X connect 3 0 1 0;
#X restore 143 184 pd smoother;
#X text 215 112 panning;
#X msg 171 105 0.5;
#X obj 86 36 inlet start;
#X obj 146 222 outlet~ L;
#X obj 222 217 outlet~ R;
#X obj 171 71 r loadbang;
#X connect 0 0 1 0;
#X connect 0 0 2 0;
#X connect 1 0 3 0;
#X connect 2 0 8 0;
#X connect 3 0 7 0;
#X connect 5 0 0 0;
#X connect 6 0 0 0;
#X connect 9 0 5 0;
#X restore 122 -13 pd pan;
#X obj 8 -74 inlet~ osc;
#X obj 81 -74 inlet~ ADSR;
#X obj 121 -45 inlet trigger;
#X obj 32 154 outlet~ L;
#X obj 167 155 outlet~ R;
#N canvas 220 444 450 300 partial_amp 0;
#X obj 117 -40 r partial_amp;
#X obj 239 -38 inlet atom_number;
#X obj 241 39 expr 1/($f1+1);
#X msg 208 78 1;
#X obj 191 147 outlet;
#X obj 149 45 + 1;
#X obj 192 109 switch;
#X obj 180 1 t b b;
#X connect 0 0 5 0;
#X connect 0 0 7 0;
#X connect 1 0 2 0;
#X connect 2 0 6 2;
#X connect 3 0 6 1;
#X connect 5 0 6 0;
#X connect 6 0 4 0;
#X connect 7 0 2 0;
#X connect 7 1 6 0;
#X restore 220 -42 pd partial_amp;
#X obj 218 -77 inlet atom_number;
#X obj 75 50 *~ 1;
#X connect 0 0 1 0;
#X connect 1 0 12 0;
#X connect 2 0 8 0;
#X connect 3 0 9 0;
#X connect 4 0 2 1;
#X connect 4 1 3 1;
#X connect 5 0 0 0;
#X connect 6 0 0 1;
#X connect 7 0 4 0;
#X connect 10 0 12 1;
#X connect 11 0 10 0;
#X connect 12 0 2 0;
#X connect 12 0 3 0;
#X restore 151 199 pd pan and amp;
#X msg 268 48 9;
#X connect 0 0 2 0;
#X connect 1 0 10 0;
#X connect 2 0 10 1;
#X connect 5 0 0 1;
#X connect 6 0 1 0;
#X connect 7 0 0 0;
#X connect 7 0 11 0;
#X connect 7 0 10 2;
#X connect 7 1 0 0;
#X connect 8 0 11 0;
#X connect 10 0 3 0;
#X connect 10 1 4 0;
#X connect 11 0 5 0;
#X connect 11 0 6 0;
#X connect 11 0 10 3;
#X restore 142 133 pd atom0;
#N canvas 309 183 493 365 atom0 0;
#X obj 232 116 metro 1000;
#X obj 86 122 osc~;
#N canvas 462 228 673 497 ADSR 0;
#X obj 145 174 pack f f f f;
#X msg 146 204 1 \$2 \, \$4 \$3 \$2;
#X obj 197 243 vline~;
#X obj 199 303 outlet~;
#X obj 210 86 inlet trigger;
#X obj 328 85 inlet velocity;
#X obj 280 135 sel 0;
#X obj 249 172 pack f f;
#X msg 248 205 0 \$2;
#X text 315 110 second outlet from notein here;
#X text 172 69 first outlet from notein here;
#X obj 28 56 r a;
#X obj 57 55 r d;
#X obj 84 54 r s;
#X obj 111 54 r r;
#X connect 0 0 1 0;
#X connect 1 0 2 0;
#X connect 2 0 3 0;
#X connect 4 0 0 0;
#X connect 5 0 6 0;
#X connect 6 0 7 0;
#X connect 7 0 8 0;
#X connect 8 0 2 1;
#X connect 11 0 0 1;
#X connect 12 0 0 2;
#X connect 13 0 0 3;
#X connect 14 0 7 1;
#X restore 199 148 pd ADSR;
#X obj 112 276 throw~ LtoAmp;
#X obj 224 277 throw~ RtoAmp;
#N canvas 268 402 450 300 atom_tempo 0;
#X obj 148 206 outlet;
#X obj 86 15 r tempo;
#X obj 203 130 -;
#X obj 190 6 r tempo_offset;
#X obj 172 56 t b b b;
#X obj 254 93 *;
#X obj 292 14 inlet atom_number;
#X connect 1 0 2 0;
#X connect 2 0 0 0;
#X connect 3 0 4 0;
#X connect 3 0 5 0;
#X connect 4 0 2 0;
#X connect 4 1 5 0;
#X connect 4 2 5 0;
#X connect 5 0 2 1;
#X connect 6 0 5 1;
#X restore 272 75 pd atom_tempo;
#N canvas 655 429 450 300 atom_freq 0;
#X obj 204 234 outlet;
#X obj 79 28 r main_freq;
#X obj 254 14 inlet atom_number;
#X obj 162 15 r freq_offset;
#X obj 232 55 *;
#X obj 205 140 +;
#X floatatom 282 197 5 0 0 0 - - -;
#X obj 201 88 t b;
#X connect 1 0 5 0;
#X connect 2 0 4 1;
#X connect 3 0 4 0;
#X connect 4 0 5 1;
#X connect 4 0 7 0;
#X connect 5 0 0 0;
#X connect 5 0 6 0;
#X connect 7 0 5 0;
#X restore 86 88 pd atom_freq;
#N canvas 745 358 450 300 atom_triggers 0;
#X obj 136 179 outlet start;
#X obj 237 180 outlet stop;
#X obj 131 134 r start;
#X obj 231 112 r stop;
#X floatatom 234 145 5 0 0 0 - - -;
#X connect 2 0 0 0;
#X connect 3 0 4 0;
#X connect 4 0 1 0;
#X restore 140 4 pd atom_triggers;
#X obj 267 18 r loadbang;
#X text 296 47 atom number;
#N canvas 393 415 450 300 pan 0;
#X obj 66 -29 *~;
#X obj 67 -4 *~ 0.5;
#X obj 80 106 *~;
#X obj 117 105 *~;
#N canvas 705 360 450 300 pan 0;
#X obj 174 129 hsl 128 15 0 1 0 0 empty empty empty -2 -8 0 10 -262144
-1 -1 6350 1;
#X obj 172 159 expr 1 - $f1;
#N canvas 763 354 450 300 smoother 0;
#X obj 194 81 inlet;
#X obj 197 165 outlet~;
#X obj 196 110 pack 0 50;
#X obj 196 137 line~;
#X connect 0 0 2 0;
#X connect 2 0 3 0;
#X connect 3 0 1 0;
#X restore 220 184 pd smoother;
#N canvas 763 354 450 300 smoother 0;
#X obj 194 81 inlet;
#X obj 197 165 outlet~;
#X obj 196 110 pack 0 50;
#X obj 196 137 line~;
#X connect 0 0 2 0;
#X connect 2 0 3 0;
#X connect 3 0 1 0;
#X restore 143 184 pd smoother;
#X text 215 112 panning;
#X msg 171 105 0.5;
#X obj 86 36 inlet start;
#X obj 146 222 outlet~ L;
#X obj 222 217 outlet~ R;
#X obj 171 71 r loadbang;
#X connect 0 0 1 0;
#X connect 0 0 2 0;
#X connect 1 0 3 0;
#X connect 2 0 8 0;
#X connect 3 0 7 0;
#X connect 5 0 0 0;
#X connect 6 0 0 0;
#X connect 9 0 5 0;
#X restore 122 -13 pd pan;
#X obj 8 -74 inlet~ osc;
#X obj 81 -74 inlet~ ADSR;
#X obj 121 -45 inlet trigger;
#X obj 32 154 outlet~ L;
#X obj 167 155 outlet~ R;
#N canvas 220 444 450 300 partial_amp 0;
#X obj 117 -40 r partial_amp;
#X obj 239 -38 inlet atom_number;
#X obj 241 39 expr 1/($f1+1);
#X msg 208 78 1;
#X obj 191 147 outlet;
#X obj 149 45 + 1;
#X obj 192 109 switch;
#X obj 180 1 t b b;
#X connect 0 0 5 0;
#X connect 0 0 7 0;
#X connect 1 0 2 0;
#X connect 2 0 6 2;
#X connect 3 0 6 1;
#X connect 5 0 6 0;
#X connect 6 0 4 0;
#X connect 7 0 2 0;
#X connect 7 1 6 0;
#X restore 220 -42 pd partial_amp;
#X obj 218 -77 inlet atom_number;
#X obj 75 50 *~ 1;
#X connect 0 0 1 0;
#X connect 1 0 12 0;
#X connect 2 0 8 0;
#X connect 3 0 9 0;
#X connect 4 0 2 1;
#X connect 4 1 3 1;
#X connect 5 0 0 0;
#X connect 6 0 0 1;
#X connect 7 0 4 0;
#X connect 10 0 12 1;
#X connect 11 0 10 0;
#X connect 12 0 2 0;
#X connect 12 0 3 0;
#X restore 151 199 pd pan and amp;
#X msg 268 48 10;
#X connect 0 0 2 0;
#X connect 1 0 10 0;
#X connect 2 0 10 1;
#X connect 5 0 0 1;
#X connect 6 0 1 0;
#X connect 7 0 0 0;
#X connect 7 0 11 0;
#X connect 7 0 10 2;
#X connect 7 1 0 0;
#X connect 8 0 11 0;
#X connect 10 0 3 0;
#X connect 10 1 4 0;
#X connect 11 0 5 0;
#X connect 11 0 6 0;
#X connect 11 0 10 3;
#X restore 201 135 pd atom0;
#N canvas 309 183 493 365 atom0 0;
#X obj 232 116 metro 1000;
#X obj 86 122 osc~;
#N canvas 462 228 673 497 ADSR 0;
#X obj 145 174 pack f f f f;
#X msg 146 204 1 \$2 \, \$4 \$3 \$2;
#X obj 197 243 vline~;
#X obj 199 303 outlet~;
#X obj 210 86 inlet trigger;
#X obj 328 85 inlet velocity;
#X obj 280 135 sel 0;
#X obj 249 172 pack f f;
#X msg 248 205 0 \$2;
#X text 315 110 second outlet from notein here;
#X text 172 69 first outlet from notein here;
#X obj 28 56 r a;
#X obj 57 55 r d;
#X obj 84 54 r s;
#X obj 111 54 r r;
#X connect 0 0 1 0;
#X connect 1 0 2 0;
#X connect 2 0 3 0;
#X connect 4 0 0 0;
#X connect 5 0 6 0;
#X connect 6 0 7 0;
#X connect 7 0 8 0;
#X connect 8 0 2 1;
#X connect 11 0 0 1;
#X connect 12 0 0 2;
#X connect 13 0 0 3;
#X connect 14 0 7 1;
#X restore 199 148 pd ADSR;
#X obj 112 276 throw~ LtoAmp;
#X obj 224 277 throw~ RtoAmp;
#N canvas 268 402 450 300 atom_tempo 0;
#X obj 148 206 outlet;
#X obj 86 15 r tempo;
#X obj 203 130 -;
#X obj 190 6 r tempo_offset;
#X obj 172 56 t b b b;
#X obj 254 93 *;
#X obj 292 14 inlet atom_number;
#X connect 1 0 2 0;
#X connect 2 0 0 0;
#X connect 3 0 4 0;
#X connect 3 0 5 0;
#X connect 4 0 2 0;
#X connect 4 1 5 0;
#X connect 4 2 5 0;
#X connect 5 0 2 1;
#X connect 6 0 5 1;
#X restore 272 75 pd atom_tempo;
#N canvas 655 429 450 300 atom_freq 0;
#X obj 204 234 outlet;
#X obj 79 28 r main_freq;
#X obj 254 14 inlet atom_number;
#X obj 162 15 r freq_offset;
#X obj 232 55 *;
#X obj 205 140 +;
#X floatatom 282 197 5 0 0 0 - - -;
#X obj 201 88 t b;
#X connect 1 0 5 0;
#X connect 2 0 4 1;
#X connect 3 0 4 0;
#X connect 4 0 5 1;
#X connect 4 0 7 0;
#X connect 5 0 0 0;
#X connect 5 0 6 0;
#X connect 7 0 5 0;
#X restore 86 88 pd atom_freq;
#N canvas 745 358 450 300 atom_triggers 0;
#X obj 136 179 outlet start;
#X obj 237 180 outlet stop;
#X obj 131 134 r start;
#X obj 231 112 r stop;
#X floatatom 234 145 5 0 0 0 - - -;
#X connect 2 0 0 0;
#X connect 3 0 4 0;
#X connect 4 0 1 0;
#X restore 140 4 pd atom_triggers;
#X obj 267 18 r loadbang;
#X text 296 47 atom number;
#N canvas 393 415 450 300 pan 0;
#X obj 66 -29 *~;
#X obj 67 -4 *~ 0.5;
#X obj 80 106 *~;
#X obj 117 105 *~;
#N canvas 705 360 450 300 pan 0;
#X obj 174 129 hsl 128 15 0 1 0 0 empty empty empty -2 -8 0 10 -262144
-1 -1 6350 1;
#X obj 172 159 expr 1 - $f1;
#N canvas 763 354 450 300 smoother 0;
#X obj 194 81 inlet;
#X obj 197 165 outlet~;
#X obj 196 110 pack 0 50;
#X obj 196 137 line~;
#X connect 0 0 2 0;
#X connect 2 0 3 0;
#X connect 3 0 1 0;
#X restore 220 184 pd smoother;
#N canvas 763 354 450 300 smoother 0;
#X obj 194 81 inlet;
#X obj 197 165 outlet~;
#X obj 196 110 pack 0 50;
#X obj 196 137 line~;
#X connect 0 0 2 0;
#X connect 2 0 3 0;
#X connect 3 0 1 0;
#X restore 143 184 pd smoother;
#X text 215 112 panning;
#X msg 171 105 0.5;
#X obj 86 36 inlet start;
#X obj 146 222 outlet~ L;
#X obj 222 217 outlet~ R;
#X obj 171 71 r loadbang;
#X connect 0 0 1 0;
#X connect 0 0 2 0;
#X connect 1 0 3 0;
#X connect 2 0 8 0;
#X connect 3 0 7 0;
#X connect 5 0 0 0;
#X connect 6 0 0 0;
#X connect 9 0 5 0;
#X restore 122 -13 pd pan;
#X obj 8 -74 inlet~ osc;
#X obj 81 -74 inlet~ ADSR;
#X obj 121 -45 inlet trigger;
#X obj 32 154 outlet~ L;
#X obj 167 155 outlet~ R;
#N canvas 220 444 450 300 partial_amp 0;
#X obj 117 -40 r partial_amp;
#X obj 239 -38 inlet atom_number;
#X obj 241 39 expr 1/($f1+1);
#X msg 208 78 1;
#X obj 191 147 outlet;
#X obj 149 45 + 1;
#X obj 192 109 switch;
#X obj 180 1 t b b;
#X connect 0 0 5 0;
#X connect 0 0 7 0;
#X connect 1 0 2 0;
#X connect 2 0 6 2;
#X connect 3 0 6 1;
#X connect 5 0 6 0;
#X connect 6 0 4 0;
#X connect 7 0 2 0;
#X connect 7 1 6 0;
#X restore 220 -42 pd partial_amp;
#X obj 218 -77 inlet atom_number;
#X obj 75 50 *~ 1;
#X connect 0 0 1 0;
#X connect 1 0 12 0;
#X connect 2 0 8 0;
#X connect 3 0 9 0;
#X connect 4 0 2 1;
#X connect 4 1 3 1;
#X connect 5 0 0 0;
#X connect 6 0 0 1;
#X connect 7 0 4 0;
#X connect 10 0 12 1;
#X connect 11 0 10 0;
#X connect 12 0 2 0;
#X connect 12 0 3 0;
#X restore 151 199 pd pan and amp;
#X msg 268 48 11;
#X connect 0 0 2 0;
#X connect 1 0 10 0;
#X connect 2 0 10 1;
#X connect 5 0 0 1;
#X connect 6 0 1 0;
#X connect 7 0 0 0;
#X connect 7 0 11 0;
#X connect 7 0 10 2;
#X connect 7 1 0 0;
#X connect 8 0 11 0;
#X connect 10 0 3 0;
#X connect 10 1 4 0;
#X connect 11 0 5 0;
#X connect 11 0 6 0;
#X connect 11 0 10 3;
#X restore 263 138 pd atom0;
#N canvas 309 183 493 365 atom0 0;
#X obj 232 116 metro 1000;
#X obj 86 122 osc~;
#N canvas 462 228 673 497 ADSR 0;
#X obj 145 174 pack f f f f;
#X msg 146 204 1 \$2 \, \$4 \$3 \$2;
#X obj 197 243 vline~;
#X obj 199 303 outlet~;
#X obj 210 86 inlet trigger;
#X obj 328 85 inlet velocity;
#X obj 280 135 sel 0;
#X obj 249 172 pack f f;
#X msg 248 205 0 \$2;
#X text 315 110 second outlet from notein here;
#X text 172 69 first outlet from notein here;
#X obj 28 56 r a;
#X obj 57 55 r d;
#X obj 84 54 r s;
#X obj 111 54 r r;
#X connect 0 0 1 0;
#X connect 1 0 2 0;
#X connect 2 0 3 0;
#X connect 4 0 0 0;
#X connect 5 0 6 0;
#X connect 6 0 7 0;
#X connect 7 0 8 0;
#X connect 8 0 2 1;
#X connect 11 0 0 1;
#X connect 12 0 0 2;
#X connect 13 0 0 3;
#X connect 14 0 7 1;
#X restore 199 148 pd ADSR;
#X obj 112 276 throw~ LtoAmp;
#X obj 224 277 throw~ RtoAmp;
#N canvas 268 402 450 300 atom_tempo 0;
#X obj 148 206 outlet;
#X obj 86 15 r tempo;
#X obj 203 130 -;
#X obj 190 6 r tempo_offset;
#X obj 172 56 t b b b;
#X obj 254 93 *;
#X obj 292 14 inlet atom_number;
#X connect 1 0 2 0;
#X connect 2 0 0 0;
#X connect 3 0 4 0;
#X connect 3 0 5 0;
#X connect 4 0 2 0;
#X connect 4 1 5 0;
#X connect 4 2 5 0;
#X connect 5 0 2 1;
#X connect 6 0 5 1;
#X restore 272 75 pd atom_tempo;
#N canvas 655 429 450 300 atom_freq 0;
#X obj 204 234 outlet;
#X obj 79 28 r main_freq;
#X obj 254 14 inlet atom_number;
#X obj 162 15 r freq_offset;
#X obj 232 55 *;
#X obj 205 140 +;
#X floatatom 282 197 5 0 0 0 - - -;
#X obj 201 88 t b;
#X connect 1 0 5 0;
#X connect 2 0 4 1;
#X connect 3 0 4 0;
#X connect 4 0 5 1;
#X connect 4 0 7 0;
#X connect 5 0 0 0;
#X connect 5 0 6 0;
#X connect 7 0 5 0;
#X restore 86 88 pd atom_freq;
#N canvas 745 358 450 300 atom_triggers 0;
#X obj 136 179 outlet start;
#X obj 237 180 outlet stop;
#X obj 131 134 r start;
#X obj 231 112 r stop;
#X floatatom 234 145 5 0 0 0 - - -;
#X connect 2 0 0 0;
#X connect 3 0 4 0;
#X connect 4 0 1 0;
#X restore 140 4 pd atom_triggers;
#X obj 267 18 r loadbang;
#X text 296 47 atom number;
#N canvas 393 415 450 300 pan 0;
#X obj 66 -29 *~;
#X obj 67 -4 *~ 0.5;
#X obj 80 106 *~;
#X obj 117 105 *~;
#N canvas 705 360 450 300 pan 0;
#X obj 174 129 hsl 128 15 0 1 0 0 empty empty empty -2 -8 0 10 -262144
-1 -1 6350 1;
#X obj 172 159 expr 1 - $f1;
#N canvas 763 354 450 300 smoother 0;
#X obj 194 81 inlet;
#X obj 197 165 outlet~;
#X obj 196 110 pack 0 50;
#X obj 196 137 line~;
#X connect 0 0 2 0;
#X connect 2 0 3 0;
#X connect 3 0 1 0;
#X restore 220 184 pd smoother;
#N canvas 763 354 450 300 smoother 0;
#X obj 194 81 inlet;
#X obj 197 165 outlet~;
#X obj 196 110 pack 0 50;
#X obj 196 137 line~;
#X connect 0 0 2 0;
#X connect 2 0 3 0;
#X connect 3 0 1 0;
#X restore 143 184 pd smoother;
#X text 215 112 panning;
#X msg 171 105 0.5;
#X obj 86 36 inlet start;
#X obj 146 222 outlet~ L;
#X obj 222 217 outlet~ R;
#X obj 171 71 r loadbang;
#X connect 0 0 1 0;
#X connect 0 0 2 0;
#X connect 1 0 3 0;
#X connect 2 0 8 0;
#X connect 3 0 7 0;
#X connect 5 0 0 0;
#X connect 6 0 0 0;
#X connect 9 0 5 0;
#X restore 122 -13 pd pan;
#X obj 8 -74 inlet~ osc;
#X obj 81 -74 inlet~ ADSR;
#X obj 121 -45 inlet trigger;
#X obj 32 154 outlet~ L;
#X obj 167 155 outlet~ R;
#N canvas 220 444 450 300 partial_amp 0;
#X obj 117 -40 r partial_amp;
#X obj 239 -38 inlet atom_number;
#X obj 241 39 expr 1/($f1+1);
#X msg 208 78 1;
#X obj 191 147 outlet;
#X obj 149 45 + 1;
#X obj 192 109 switch;
#X obj 180 1 t b b;
#X connect 0 0 5 0;
#X connect 0 0 7 0;
#X connect 1 0 2 0;
#X connect 2 0 6 2;
#X connect 3 0 6 1;
#X connect 5 0 6 0;
#X connect 6 0 4 0;
#X connect 7 0 2 0;
#X connect 7 1 6 0;
#X restore 220 -42 pd partial_amp;
#X obj 218 -77 inlet atom_number;
#X obj 75 50 *~ 1;
#X connect 0 0 1 0;
#X connect 1 0 12 0;
#X connect 2 0 8 0;
#X connect 3 0 9 0;
#X connect 4 0 2 1;
#X connect 4 1 3 1;
#X connect 5 0 0 0;
#X connect 6 0 0 1;
#X connect 7 0 4 0;
#X connect 10 0 12 1;
#X connect 11 0 10 0;
#X connect 12 0 2 0;
#X connect 12 0 3 0;
#X restore 151 199 pd pan and amp;
#X msg 268 48 12;
#X connect 0 0 2 0;
#X connect 1 0 10 0;
#X connect 2 0 10 1;
#X connect 5 0 0 1;
#X connect 6 0 1 0;
#X connect 7 0 0 0;
#X connect 7 0 11 0;
#X connect 7 0 10 2;
#X connect 7 1 0 0;
#X connect 8 0 11 0;
#X connect 10 0 3 0;
#X connect 10 1 4 0;
#X connect 11 0 5 0;
#X connect 11 0 6 0;
#X connect 11 0 10 3;
#X restore 85 161 pd atom0;
#N canvas 309 183 493 365 atom0 0;
#X obj 232 116 metro 1000;
#X obj 86 122 osc~;
#N canvas 462 228 673 497 ADSR 0;
#X obj 145 174 pack f f f f;
#X msg 146 204 1 \$2 \, \$4 \$3 \$2;
#X obj 197 243 vline~;
#X obj 199 303 outlet~;
#X obj 210 86 inlet trigger;
#X obj 328 85 inlet velocity;
#X obj 280 135 sel 0;
#X obj 249 172 pack f f;
#X msg 248 205 0 \$2;
#X text 315 110 second outlet from notein here;
#X text 172 69 first outlet from notein here;
#X obj 28 56 r a;
#X obj 57 55 r d;
#X obj 84 54 r s;
#X obj 111 54 r r;
#X connect 0 0 1 0;
#X connect 1 0 2 0;
#X connect 2 0 3 0;
#X connect 4 0 0 0;
#X connect 5 0 6 0;
#X connect 6 0 7 0;
#X connect 7 0 8 0;
#X connect 8 0 2 1;
#X connect 11 0 0 1;
#X connect 12 0 0 2;
#X connect 13 0 0 3;
#X connect 14 0 7 1;
#X restore 199 148 pd ADSR;
#X obj 112 276 throw~ LtoAmp;
#X obj 224 277 throw~ RtoAmp;
#N canvas 268 402 450 300 atom_tempo 0;
#X obj 148 206 outlet;
#X obj 86 15 r tempo;
#X obj 203 130 -;
#X obj 190 6 r tempo_offset;
#X obj 172 56 t b b b;
#X obj 254 93 *;
#X obj 292 14 inlet atom_number;
#X connect 1 0 2 0;
#X connect 2 0 0 0;
#X connect 3 0 4 0;
#X connect 3 0 5 0;
#X connect 4 0 2 0;
#X connect 4 1 5 0;
#X connect 4 2 5 0;
#X connect 5 0 2 1;
#X connect 6 0 5 1;
#X restore 272 75 pd atom_tempo;
#N canvas 655 429 450 300 atom_freq 0;
#X obj 204 234 outlet;
#X obj 79 28 r main_freq;
#X obj 254 14 inlet atom_number;
#X obj 162 15 r freq_offset;
#X obj 232 55 *;
#X obj 205 140 +;
#X floatatom 282 197 5 0 0 0 - - -;
#X obj 201 88 t b;
#X connect 1 0 5 0;
#X connect 2 0 4 1;
#X connect 3 0 4 0;
#X connect 4 0 5 1;
#X connect 4 0 7 0;
#X connect 5 0 0 0;
#X connect 5 0 6 0;
#X connect 7 0 5 0;
#X restore 86 88 pd atom_freq;
#N canvas 745 358 450 300 atom_triggers 0;
#X obj 136 179 outlet start;
#X obj 237 180 outlet stop;
#X obj 131 134 r start;
#X obj 231 112 r stop;
#X floatatom 234 145 5 0 0 0 - - -;
#X connect 2 0 0 0;
#X connect 3 0 4 0;
#X connect 4 0 1 0;
#X restore 140 4 pd atom_triggers;
#X obj 267 18 r loadbang;
#X text 296 47 atom number;
#N canvas 393 415 450 300 pan 0;
#X obj 66 -29 *~;
#X obj 67 -4 *~ 0.5;
#X obj 80 106 *~;
#X obj 117 105 *~;
#N canvas 705 360 450 300 pan 0;
#X obj 174 129 hsl 128 15 0 1 0 0 empty empty empty -2 -8 0 10 -262144
-1 -1 6350 1;
#X obj 172 159 expr 1 - $f1;
#N canvas 763 354 450 300 smoother 0;
#X obj 194 81 inlet;
#X obj 197 165 outlet~;
#X obj 196 110 pack 0 50;
#X obj 196 137 line~;
#X connect 0 0 2 0;
#X connect 2 0 3 0;
#X connect 3 0 1 0;
#X restore 220 184 pd smoother;
#N canvas 763 354 450 300 smoother 0;
#X obj 194 81 inlet;
#X obj 197 165 outlet~;
#X obj 196 110 pack 0 50;
#X obj 196 137 line~;
#X connect 0 0 2 0;
#X connect 2 0 3 0;
#X connect 3 0 1 0;
#X restore 143 184 pd smoother;
#X text 215 112 panning;
#X msg 171 105 0.5;
#X obj 86 36 inlet start;
#X obj 146 222 outlet~ L;
#X obj 222 217 outlet~ R;
#X obj 171 71 r loadbang;
#X connect 0 0 1 0;
#X connect 0 0 2 0;
#X connect 1 0 3 0;
#X connect 2 0 8 0;
#X connect 3 0 7 0;
#X connect 5 0 0 0;
#X connect 6 0 0 0;
#X connect 9 0 5 0;
#X restore 122 -13 pd pan;
#X obj 8 -74 inlet~ osc;
#X obj 81 -74 inlet~ ADSR;
#X obj 121 -45 inlet trigger;
#X obj 32 154 outlet~ L;
#X obj 167 155 outlet~ R;
#N canvas 220 444 450 300 partial_amp 0;
#X obj 117 -40 r partial_amp;
#X obj 239 -38 inlet atom_number;
#X obj 241 39 expr 1/($f1+1);
#X msg 208 78 1;
#X obj 191 147 outlet;
#X obj 149 45 + 1;
#X obj 192 109 switch;
#X obj 180 1 t b b;
#X connect 0 0 5 0;
#X connect 0 0 7 0;
#X connect 1 0 2 0;
#X connect 2 0 6 2;
#X connect 3 0 6 1;
#X connect 5 0 6 0;
#X connect 6 0 4 0;
#X connect 7 0 2 0;
#X connect 7 1 6 0;
#X restore 220 -42 pd partial_amp;
#X obj 218 -77 inlet atom_number;
#X obj 75 50 *~ 1;
#X connect 0 0 1 0;
#X connect 1 0 12 0;
#X connect 2 0 8 0;
#X connect 3 0 9 0;
#X connect 4 0 2 1;
#X connect 4 1 3 1;
#X connect 5 0 0 0;
#X connect 6 0 0 1;
#X connect 7 0 4 0;
#X connect 10 0 12 1;
#X connect 11 0 10 0;
#X connect 12 0 2 0;
#X connect 12 0 3 0;
#X restore 151 199 pd pan and amp;
#X msg 268 48 13;
#X connect 0 0 2 0;
#X connect 1 0 10 0;
#X connect 2 0 10 1;
#X connect 5 0 0 1;
#X connect 6 0 1 0;
#X connect 7 0 0 0;
#X connect 7 0 11 0;
#X connect 7 0 10 2;
#X connect 7 1 0 0;
#X connect 8 0 11 0;
#X connect 10 0 3 0;
#X connect 10 1 4 0;
#X connect 11 0 5 0;
#X connect 11 0 6 0;
#X connect 11 0 10 3;
#X restore 146 162 pd atom0;
#N canvas 309 183 493 365 atom0 0;
#X obj 232 116 metro 1000;
#X obj 86 122 osc~;
#N canvas 462 228 673 497 ADSR 0;
#X obj 145 174 pack f f f f;
#X msg 146 204 1 \$2 \, \$4 \$3 \$2;
#X obj 197 243 vline~;
#X obj 199 303 outlet~;
#X obj 210 86 inlet trigger;
#X obj 328 85 inlet velocity;
#X obj 280 135 sel 0;
#X obj 249 172 pack f f;
#X msg 248 205 0 \$2;
#X text 315 110 second outlet from notein here;
#X text 172 69 first outlet from notein here;
#X obj 28 56 r a;
#X obj 57 55 r d;
#X obj 84 54 r s;
#X obj 111 54 r r;
#X connect 0 0 1 0;
#X connect 1 0 2 0;
#X connect 2 0 3 0;
#X connect 4 0 0 0;
#X connect 5 0 6 0;
#X connect 6 0 7 0;
#X connect 7 0 8 0;
#X connect 8 0 2 1;
#X connect 11 0 0 1;
#X connect 12 0 0 2;
#X connect 13 0 0 3;
#X connect 14 0 7 1;
#X restore 199 148 pd ADSR;
#X obj 112 276 throw~ LtoAmp;
#X obj 224 277 throw~ RtoAmp;
#N canvas 268 402 450 300 atom_tempo 0;
#X obj 148 206 outlet;
#X obj 86 15 r tempo;
#X obj 203 130 -;
#X obj 190 6 r tempo_offset;
#X obj 172 56 t b b b;
#X obj 254 93 *;
#X obj 292 14 inlet atom_number;
#X connect 1 0 2 0;
#X connect 2 0 0 0;
#X connect 3 0 4 0;
#X connect 3 0 5 0;
#X connect 4 0 2 0;
#X connect 4 1 5 0;
#X connect 4 2 5 0;
#X connect 5 0 2 1;
#X connect 6 0 5 1;
#X restore 272 75 pd atom_tempo;
#N canvas 655 429 450 300 atom_freq 0;
#X obj 204 234 outlet;
#X obj 79 28 r main_freq;
#X obj 254 14 inlet atom_number;
#X obj 162 15 r freq_offset;
#X obj 232 55 *;
#X obj 205 140 +;
#X floatatom 282 197 5 0 0 0 - - -;
#X obj 201 88 t b;
#X connect 1 0 5 0;
#X connect 2 0 4 1;
#X connect 3 0 4 0;
#X connect 4 0 5 1;
#X connect 4 0 7 0;
#X connect 5 0 0 0;
#X connect 5 0 6 0;
#X connect 7 0 5 0;
#X restore 86 88 pd atom_freq;
#N canvas 745 358 450 300 atom_triggers 0;
#X obj 136 179 outlet start;
#X obj 237 180 outlet stop;
#X obj 131 134 r start;
#X obj 231 112 r stop;
#X floatatom 234 145 5 0 0 0 - - -;
#X connect 2 0 0 0;
#X connect 3 0 4 0;
#X connect 4 0 1 0;
#X restore 140 4 pd atom_triggers;
#X obj 267 18 r loadbang;
#X text 296 47 atom number;
#N canvas 393 415 450 300 pan 0;
#X obj 66 -29 *~;
#X obj 67 -4 *~ 0.5;
#X obj 80 106 *~;
#X obj 117 105 *~;
#N canvas 705 360 450 300 pan 0;
#X obj 174 129 hsl 128 15 0 1 0 0 empty empty empty -2 -8 0 10 -262144
-1 -1 6350 1;
#X obj 172 159 expr 1 - $f1;
#N canvas 763 354 450 300 smoother 0;
#X obj 194 81 inlet;
#X obj 197 165 outlet~;
#X obj 196 110 pack 0 50;
#X obj 196 137 line~;
#X connect 0 0 2 0;
#X connect 2 0 3 0;
#X connect 3 0 1 0;
#X restore 220 184 pd smoother;
#N canvas 763 354 450 300 smoother 0;
#X obj 194 81 inlet;
#X obj 197 165 outlet~;
#X obj 196 110 pack 0 50;
#X obj 196 137 line~;
#X connect 0 0 2 0;
#X connect 2 0 3 0;
#X connect 3 0 1 0;
#X restore 143 184 pd smoother;
#X text 215 112 panning;
#X msg 171 105 0.5;
#X obj 86 36 inlet start;
#X obj 146 222 outlet~ L;
#X obj 222 217 outlet~ R;
#X obj 171 71 r loadbang;
#X connect 0 0 1 0;
#X connect 0 0 2 0;
#X connect 1 0 3 0;
#X connect 2 0 8 0;
#X connect 3 0 7 0;
#X connect 5 0 0 0;
#X connect 6 0 0 0;
#X connect 9 0 5 0;
#X restore 122 -13 pd pan;
#X obj 8 -74 inlet~ osc;
#X obj 81 -74 inlet~ ADSR;
#X obj 121 -45 inlet trigger;
#X obj 32 154 outlet~ L;
#X obj 167 155 outlet~ R;
#N canvas 220 444 450 300 partial_amp 0;
#X obj 117 -40 r partial_amp;
#X obj 239 -38 inlet atom_number;
#X obj 241 39 expr 1/($f1+1);
#X msg 208 78 1;
#X obj 191 147 outlet;
#X obj 149 45 + 1;
#X obj 192 109 switch;
#X obj 180 1 t b b;
#X connect 0 0 5 0;
#X connect 0 0 7 0;
#X connect 1 0 2 0;
#X connect 2 0 6 2;
#X connect 3 0 6 1;
#X connect 5 0 6 0;
#X connect 6 0 4 0;
#X connect 7 0 2 0;
#X connect 7 1 6 0;
#X restore 220 -42 pd partial_amp;
#X obj 218 -77 inlet atom_number;
#X obj 75 50 *~ 1;
#X connect 0 0 1 0;
#X connect 1 0 12 0;
#X connect 2 0 8 0;
#X connect 3 0 9 0;
#X connect 4 0 2 1;
#X connect 4 1 3 1;
#X connect 5 0 0 0;
#X connect 6 0 0 1;
#X connect 7 0 4 0;
#X connect 10 0 12 1;
#X connect 11 0 10 0;
#X connect 12 0 2 0;
#X connect 12 0 3 0;
#X restore 151 199 pd pan and amp;
#X msg 268 48 14;
#X connect 0 0 2 0;
#X connect 1 0 10 0;
#X connect 2 0 10 1;
#X connect 5 0 0 1;
#X connect 6 0 1 0;
#X connect 7 0 0 0;
#X connect 7 0 11 0;
#X connect 7 0 10 2;
#X connect 7 1 0 0;
#X connect 8 0 11 0;
#X connect 10 0 3 0;
#X connect 10 1 4 0;
#X connect 11 0 5 0;
#X connect 11 0 6 0;
#X connect 11 0 10 3;
#X restore 205 164 pd atom0;
#N canvas 309 183 493 365 atom0 0;
#X obj 232 116 metro 1000;
#X obj 86 122 osc~;
#N canvas 462 228 673 497 ADSR 0;
#X obj 145 174 pack f f f f;
#X msg 146 204 1 \$2 \, \$4 \$3 \$2;
#X obj 197 243 vline~;
#X obj 199 303 outlet~;
#X obj 210 86 inlet trigger;
#X obj 328 85 inlet velocity;
#X obj 280 135 sel 0;
#X obj 249 172 pack f f;
#X msg 248 205 0 \$2;
#X text 315 110 second outlet from notein here;
#X text 172 69 first outlet from notein here;
#X obj 28 56 r a;
#X obj 57 55 r d;
#X obj 84 54 r s;
#X obj 111 54 r r;
#X connect 0 0 1 0;
#X connect 1 0 2 0;
#X connect 2 0 3 0;
#X connect 4 0 0 0;
#X connect 5 0 6 0;
#X connect 6 0 7 0;
#X connect 7 0 8 0;
#X connect 8 0 2 1;
#X connect 11 0 0 1;
#X connect 12 0 0 2;
#X connect 13 0 0 3;
#X connect 14 0 7 1;
#X restore 199 148 pd ADSR;
#X obj 112 276 throw~ LtoAmp;
#X obj 224 277 throw~ RtoAmp;
#N canvas 268 402 450 300 atom_tempo 0;
#X obj 148 206 outlet;
#X obj 86 15 r tempo;
#X obj 203 130 -;
#X obj 190 6 r tempo_offset;
#X obj 172 56 t b b b;
#X obj 254 93 *;
#X obj 292 14 inlet atom_number;
#X connect 1 0 2 0;
#X connect 2 0 0 0;
#X connect 3 0 4 0;
#X connect 3 0 5 0;
#X connect 4 0 2 0;
#X connect 4 1 5 0;
#X connect 4 2 5 0;
#X connect 5 0 2 1;
#X connect 6 0 5 1;
#X restore 272 75 pd atom_tempo;
#N canvas 655 429 450 300 atom_freq 0;
#X obj 204 234 outlet;
#X obj 79 28 r main_freq;
#X obj 254 14 inlet atom_number;
#X obj 162 15 r freq_offset;
#X obj 232 55 *;
#X obj 205 140 +;
#X floatatom 282 197 5 0 0 0 - - -;
#X obj 201 88 t b;
#X connect 1 0 5 0;
#X connect 2 0 4 1;
#X connect 3 0 4 0;
#X connect 4 0 5 1;
#X connect 4 0 7 0;
#X connect 5 0 0 0;
#X connect 5 0 6 0;
#X connect 7 0 5 0;
#X restore 86 88 pd atom_freq;
#N canvas 745 358 450 300 atom_triggers 0;
#X obj 136 179 outlet start;
#X obj 237 180 outlet stop;
#X obj 131 134 r start;
#X obj 231 112 r stop;
#X floatatom 234 145 5 0 0 0 - - -;
#X connect 2 0 0 0;
#X connect 3 0 4 0;
#X connect 4 0 1 0;
#X restore 140 4 pd atom_triggers;
#X obj 267 18 r loadbang;
#X text 296 47 atom number;
#N canvas 393 415 450 300 pan 0;
#X obj 66 -29 *~;
#X obj 67 -4 *~ 0.5;
#X obj 80 106 *~;
#X obj 117 105 *~;
#N canvas 705 360 450 300 pan 0;
#X obj 174 129 hsl 128 15 0 1 0 0 empty empty empty -2 -8 0 10 -262144
-1 -1 6350 1;
#X obj 172 159 expr 1 - $f1;
#N canvas 763 354 450 300 smoother 0;
#X obj 194 81 inlet;
#X obj 197 165 outlet~;
#X obj 196 110 pack 0 50;
#X obj 196 137 line~;
#X connect 0 0 2 0;
#X connect 2 0 3 0;
#X connect 3 0 1 0;
#X restore 220 184 pd smoother;
#N canvas 763 354 450 300 smoother 0;
#X obj 194 81 inlet;
#X obj 197 165 outlet~;
#X obj 196 110 pack 0 50;
#X obj 196 137 line~;
#X connect 0 0 2 0;
#X connect 2 0 3 0;
#X connect 3 0 1 0;
#X restore 143 184 pd smoother;
#X text 215 112 panning;
#X msg 171 105 0.5;
#X obj 86 36 inlet start;
#X obj 146 222 outlet~ L;
#X obj 222 217 outlet~ R;
#X obj 171 71 r loadbang;
#X connect 0 0 1 0;
#X connect 0 0 2 0;
#X connect 1 0 3 0;
#X connect 2 0 8 0;
#X connect 3 0 7 0;
#X connect 5 0 0 0;
#X connect 6 0 0 0;
#X connect 9 0 5 0;
#X restore 122 -13 pd pan;
#X obj 8 -74 inlet~ osc;
#X obj 81 -74 inlet~ ADSR;
#X obj 121 -45 inlet trigger;
#X obj 32 154 outlet~ L;
#X obj 167 155 outlet~ R;
#N canvas 220 444 450 300 partial_amp 0;
#X obj 117 -40 r partial_amp;
#X obj 239 -38 inlet atom_number;
#X obj 241 39 expr 1/($f1+1);
#X msg 208 78 1;
#X obj 191 147 outlet;
#X obj 149 45 + 1;
#X obj 192 109 switch;
#X obj 180 1 t b b;
#X connect 0 0 5 0;
#X connect 0 0 7 0;
#X connect 1 0 2 0;
#X connect 2 0 6 2;
#X connect 3 0 6 1;
#X connect 5 0 6 0;
#X connect 6 0 4 0;
#X connect 7 0 2 0;
#X connect 7 1 6 0;
#X restore 220 -42 pd partial_amp;
#X obj 218 -77 inlet atom_number;
#X obj 75 50 *~ 1;
#X connect 0 0 1 0;
#X connect 1 0 12 0;
#X connect 2 0 8 0;
#X connect 3 0 9 0;
#X connect 4 0 2 1;
#X connect 4 1 3 1;
#X connect 5 0 0 0;
#X connect 6 0 0 1;
#X connect 7 0 4 0;
#X connect 10 0 12 1;
#X connect 11 0 10 0;
#X connect 12 0 2 0;
#X connect 12 0 3 0;
#X restore 151 199 pd pan and amp;
#X msg 268 48 15;
#X connect 0 0 2 0;
#X connect 1 0 10 0;
#X connect 2 0 10 1;
#X connect 5 0 0 1;
#X connect 6 0 1 0;
#X connect 7 0 0 0;
#X connect 7 0 11 0;
#X connect 7 0 10 2;
#X connect 7 1 0 0;
#X connect 8 0 11 0;
#X connect 10 0 3 0;
#X connect 10 1 4 0;
#X connect 11 0 5 0;
#X connect 11 0 6 0;
#X connect 11 0 10 3;
#X restore 267 167 pd atom0;
#X restore -40 265 pd wave_sequence;
#X obj 52 4 bng 15 250 50 0 empty empty empty 17 7 0 10 -4034 -1 -1
;
#X floatatom 71 117 5 0 0 0 - - -;
#X obj 71 142 s main_freq;
#X obj 52 24 s start;
#X obj 107 4 bng 15 250 50 0 empty empty empty 17 7 0 10 -258113 -1
-1;
#X obj 108 23 s stop;
#X obj -36 79 vsl 15 128 0 127 0 0 empty empty A 0 -9 0 10 -262144
-1 -1 300 1;
#X obj -12 79 vsl 15 128 0 127 0 0 empty empty D 0 -9 0 10 -262144
-1 -1 2000 1;
#X obj 12 79 vsl 15 128 0 1 0 0 empty empty S 0 -9 0 10 -262144 -1
-1 0 1;
#X obj 35 80 vsl 15 128 0 127 0 0 empty empty R 0 -9 0 10 -262144 -1
-1 0 1;
#X obj -44 217 s a;
#X obj -17 218 s d;
#X obj 11 218 s s;
#X obj 38 218 s r;
#N canvas 376 313 450 300 cpu_usage 0;
#X obj 149 161 cputime;
#X obj 149 21 loadbang;
#X obj 149 105 metro 1000;
#X msg 149 49 1;
#X floatatom 149 77 0 0 0 0 - - -;
#X obj 149 133 t b b;
#X obj 149 221 * 0.1;
#X obj 149 190 int;
#X text 194 77 <-- on/off;
#X text 82 277 CPU load in percent;
#X obj 148 248 outlet;
#X connect 0 0 7 0;
#X connect 1 0 3 0;
#X connect 2 0 5 0;
#X connect 3 0 4 0;
#X connect 4 0 2 0;
#X connect 5 0 0 0;
#X connect 5 1 0 1;
#X connect 6 0 10 0;
#X connect 7 0 6 0;
#X restore -36 10 pd cpu_usage;
#X floatatom -36 34 5 0 0 0 - - -;
#X obj 165 25 s volume;
#X obj 168 2 hsl 128 15 0 127 0 0 empty empty empty -2 -8 0 10 -262144
-1 -1 4700 1;
#X floatatom 71 63 5 0 0 0 - - -;
#X obj 71 89 s main_bpm;
#X floatatom 155 64 5 0 0 0 - - -;
#X obj 155 87 s tempo_offset;
#X obj 150 142 s freq_offset;
#X floatatom 150 117 5 0 0 0 - - -;
#X obj 71 167 tgl 15 0 empty empty empty 17 7 0 10 -262144 -1 -1 1
1;
#X obj 72 188 s partial_amp;
#X text 86 240 1: Setting tempo_offset to 0 doesnt sync atoms tempo
;
#X text 88 258 2: Make sustain work without actual midi input;
#X text 85 274 3: Implement other waveform choices and filter!;
#X text 86 297 4: Implement some panning dynamic;
#X text 88 223 BUGS AND TODOS;
#X connect 1 0 4 0;
#X connect 2 0 3 0;
#X connect 5 0 6 0;
#X connect 7 0 11 0;
#X connect 8 0 12 0;
#X connect 9 0 13 0;
#X connect 10 0 14 0;
#X connect 15 0 16 0;
#X connect 18 0 17 0;
#X connect 19 0 20 0;
#X connect 21 0 22 0;
#X connect 24 0 23 0;
#X connect 25 0 26 0;
