#N canvas 589 127 506 407 10;
#N canvas 137 148 466 470 sliders1-2 0;
#X obj 198 111 osc~;
#X obj 216 151 snapshot~;
#X obj 216 173 + 1;
#X obj 216 194 * 25;
#X obj 141 338 s \$0_h1;
#X obj 94 353 s \$0_v1;
#X obj 258 339 s \$0_h2;
#X obj 142 368 s \$0_h3;
#X obj 260 368 s \$0_h4;
#X obj 140 404 s \$0_h5;
#X obj 264 402 s \$0_h6;
#X obj 199 355 s \$0_v2;
#X obj 318 356 s \$0_v3;
#X obj 91 384 s \$0_v4;
#X obj 196 386 s \$0_v5;
#X obj 315 387 s \$0_v6;
#X obj 275 226 - 50;
#X obj 276 246 abs;
#X obj 197 31 r \$0_freq;
#X obj 263 72 loadbang;
#X obj 246 59 bng 15 250 50 0 empty empty empty 17 7 0 10 -262144 -1
-1;
#X obj 242 116 metro 1;
#X obj 173 -27 r \$0_fmamt;
#X obj 97 2 osc~;
#X obj 97 -27 r \$0_fmfreq;
#X obj 127 36 *~;
#X obj 182 68 +~;
#X floatatom 98 83 5 0 0 0 - - -;
#X connect 0 0 1 0;
#X connect 1 0 2 0;
#X connect 2 0 3 0;
#X connect 3 0 16 0;
#X connect 3 0 4 0;
#X connect 3 0 13 0;
#X connect 3 0 9 0;
#X connect 3 0 8 0;
#X connect 3 0 15 0;
#X connect 3 0 11 0;
#X connect 16 0 17 0;
#X connect 17 0 6 0;
#X connect 17 0 5 0;
#X connect 17 0 12 0;
#X connect 17 0 10 0;
#X connect 17 0 7 0;
#X connect 17 0 14 0;
#X connect 18 0 26 1;
#X connect 19 0 21 0;
#X connect 20 0 21 0;
#X connect 21 0 1 0;
#X connect 22 0 25 1;
#X connect 23 0 25 0;
#X connect 24 0 23 0;
#X connect 24 0 27 0;
#X connect 25 0 26 0;
#X connect 26 0 0 0;
#X restore 184 389 pd sliders1-2;
#X obj -12 2 cnv 15 500 400 empty empty empty 20 12 0 14 -1 -66577
0;
#X obj 169 108 hsl 50 8 1 50 0 0 \$0_nothing \$0_h1 empty -2 -8 0 10
-1 -262144 -1 340 1;
#X obj 169 163 hsl 50 8 1 50 0 0 \$0_nothing \$0_h3 empty -2 -8 0 10
-1 -262144 -1 4460 1;
#X obj 157 114 vsl 8 50 1 50 0 0 \$0_nothing \$0_v1 empty 0 -9 0 10
-1 -262144 -1 4460 1;
#X obj 221 114 vsl 8 50 1 50 0 0 \$0_nothing \$0_v2 empty 0 -9 0 10
-1 -262144 -1 340 1;
#X obj 169 219 hsl 50 8 1 50 0 0 \$0_nothing \$0_h5 empty -2 -8 0 10
-1 -262144 -1 340 1;
#X obj 157 170 vsl 8 50 1 50 0 0 \$0_nothing \$0_v4 empty 0 -9 0 10
-1 -262144 -1 340 1;
#X obj 221 170 vsl 8 50 1 50 0 0 \$0_nothing \$0_v5 empty 0 -9 0 10
-1 -262144 -1 4460 1;
#X obj 233 108 hsl 50 8 1 50 0 0 \$0_nothing \$0_h2 empty -2 -8 0 10
-1 -262144 -1 4460 1;
#X obj 233 163 hsl 50 8 1 50 0 0 \$0_nothing \$0_h4 empty -2 -8 0 10
-1 -262144 -1 340 1;
#X obj 286 114 vsl 8 50 1 50 0 0 \$0_nothing \$0_v3 empty 0 -9 0 10
-1 -262144 -1 4460 1;
#X obj 233 219 hsl 50 8 1 50 0 0 \$0_nothing \$0_h6 empty -2 -8 0 10
-1 -262144 -1 4460 1;
#X obj 286 170 vsl 8 50 1 50 0 0 \$0_nothing \$0_v6 empty 0 -9 0 10
-1 -262144 -1 340 1;
#X obj 189 143 vsl 8 17 1 50 0 0 \$0_nothing \$0_v2 empty 0 -9 0 10
-1 -262144 -1 111 1;
#X obj 189 120 vsl 8 17 1 50 0 0 \$0_nothing \$0_v1 empty 0 -9 0 10
-1 -262144 -1 1456 1;
#X obj 201 136 hsl 17 8 1 50 0 0 \$0_nothing \$0_h3 empty -2 -8 0 10
-1 -262144 -1 1456 1;
#X obj 170 136 hsl 17 8 1 50 0 0 \$0_nothing \$0_h1 empty -2 -8 0 10
-1 -262144 -1 111 1;
#X obj 253 143 vsl 8 17 1 50 0 0 \$0_nothing \$0_v2 empty 0 -9 0 10
-1 -262144 -1 111 1;
#X obj 253 120 vsl 8 17 1 50 0 0 \$0_nothing \$0_v1 empty 0 -9 0 10
-1 -262144 -1 1456 1;
#X obj 265 136 hsl 17 8 1 50 0 0 \$0_nothing \$0_h3 empty -2 -8 0 10
-1 -262144 -1 1456 1;
#X obj 234 136 hsl 17 8 1 50 0 0 \$0_nothing \$0_h1 empty -2 -8 0 10
-1 -262144 -1 111 1;
#X obj 253 199 vsl 8 17 1 50 0 0 \$0_nothing \$0_v2 empty 0 -9 0 10
-1 -262144 -1 111 1;
#X obj 253 176 vsl 8 17 1 50 0 0 \$0_nothing \$0_v1 empty 0 -9 0 10
-1 -262144 -1 1456 1;
#X obj 265 192 hsl 17 8 1 50 0 0 \$0_nothing \$0_h3 empty -2 -8 0 10
-1 -262144 -1 1456 1;
#X obj 234 192 hsl 17 8 1 50 0 0 \$0_nothing \$0_h1 empty -2 -8 0 10
-1 -262144 -1 111 1;
#X obj 189 199 vsl 8 17 1 50 0 0 \$0_nothing \$0_v2 empty 0 -9 0 10
-1 -262144 -1 111 1;
#X obj 189 176 vsl 8 17 1 50 0 0 \$0_nothing \$0_v1 empty 0 -9 0 10
-1 -262144 -1 1456 1;
#X obj 201 192 hsl 17 8 1 50 0 0 \$0_nothing \$0_h3 empty -2 -8 0 10
-1 -262144 -1 1456 1;
#X obj 170 192 hsl 17 8 1 50 0 0 \$0_nothing \$0_h1 empty -2 -8 0 10
-1 -262144 -1 111 1;
#X obj 299 108 hsl 50 8 1 50 0 0 \$0_nothing \$0_h1 empty -2 -8 0 10
-1 -262144 -1 340 1;
#X obj 299 163 hsl 50 8 1 50 0 0 \$0_nothing \$0_h3 empty -2 -8 0 10
-1 -262144 -1 4460 1;
#X obj 351 114 vsl 8 50 1 50 0 0 \$0_nothing \$0_v2 empty 0 -9 0 10
-1 -262144 -1 340 1;
#X obj 299 219 hsl 50 8 1 50 0 0 \$0_nothing \$0_h5 empty -2 -8 0 10
-1 -262144 -1 340 1;
#X obj 351 170 vsl 8 50 1 50 0 0 \$0_nothing \$0_v5 empty 0 -9 0 10
-1 -262144 -1 4460 1;
#X obj 319 143 vsl 8 17 1 50 0 0 \$0_nothing \$0_v2 empty 0 -9 0 10
-1 -262144 -1 111 1;
#X obj 319 120 vsl 8 17 1 50 0 0 \$0_nothing \$0_v1 empty 0 -9 0 10
-1 -262144 -1 1456 1;
#X obj 331 136 hsl 17 8 1 50 0 0 \$0_nothing \$0_h3 empty -2 -8 0 10
-1 -262144 -1 1456 1;
#X obj 300 136 hsl 17 8 1 50 0 0 \$0_nothing \$0_h1 empty -2 -8 0 10
-1 -262144 -1 111 1;
#X obj 319 199 vsl 8 17 1 50 0 0 \$0_nothing \$0_v2 empty 0 -9 0 10
-1 -262144 -1 111 1;
#X obj 319 176 vsl 8 17 1 50 0 0 \$0_nothing \$0_v1 empty 0 -9 0 10
-1 -262144 -1 1456 1;
#X obj 331 192 hsl 17 8 1 50 0 0 \$0_nothing \$0_h3 empty -2 -8 0 10
-1 -262144 -1 1456 1;
#X obj 300 192 hsl 17 8 1 50 0 0 \$0_nothing \$0_h1 empty -2 -8 0 10
-1 -262144 -1 111 1;
#X obj 169 276 hsl 50 8 1 50 0 0 \$0_nothing \$0_h3 empty -2 -8 0 10
-1 -262144 -1 4460 1;
#X obj 157 227 vsl 8 50 1 50 0 0 \$0_nothing \$0_v1 empty 0 -9 0 10
-1 -262144 -1 4460 1;
#X obj 221 227 vsl 8 50 1 50 0 0 \$0_nothing \$0_v2 empty 0 -9 0 10
-1 -262144 -1 340 1;
#X obj 169 332 hsl 50 8 1 50 0 0 \$0_nothing \$0_h5 empty -2 -8 0 10
-1 -262144 -1 340 1;
#X obj 157 283 vsl 8 50 1 50 0 0 \$0_nothing \$0_v4 empty 0 -9 0 10
-1 -262144 -1 340 1;
#X obj 221 283 vsl 8 50 1 50 0 0 \$0_nothing \$0_v5 empty 0 -9 0 10
-1 -262144 -1 4460 1;
#X obj 233 276 hsl 50 8 1 50 0 0 \$0_nothing \$0_h4 empty -2 -8 0 10
-1 -262144 -1 340 1;
#X obj 286 227 vsl 8 50 1 50 0 0 \$0_nothing \$0_v3 empty 0 -9 0 10
-1 -262144 -1 4460 1;
#X obj 233 332 hsl 50 8 1 50 0 0 \$0_nothing \$0_h6 empty -2 -8 0 10
-1 -262144 -1 4460 1;
#X obj 286 283 vsl 8 50 1 50 0 0 \$0_nothing \$0_v6 empty 0 -9 0 10
-1 -262144 -1 340 1;
#X obj 189 256 vsl 8 17 1 50 0 0 \$0_nothing \$0_v2 empty 0 -9 0 10
-1 -262144 -1 111 1;
#X obj 189 233 vsl 8 17 1 50 0 0 \$0_nothing \$0_v1 empty 0 -9 0 10
-1 -262144 -1 1456 1;
#X obj 201 249 hsl 17 8 1 50 0 0 \$0_nothing \$0_h3 empty -2 -8 0 10
-1 -262144 -1 1456 1;
#X obj 170 249 hsl 17 8 1 50 0 0 \$0_nothing \$0_h1 empty -2 -8 0 10
-1 -262144 -1 111 1;
#X obj 253 256 vsl 8 17 1 50 0 0 \$0_nothing \$0_v2 empty 0 -9 0 10
-1 -262144 -1 111 1;
#X obj 253 233 vsl 8 17 1 50 0 0 \$0_nothing \$0_v1 empty 0 -9 0 10
-1 -262144 -1 1456 1;
#X obj 265 249 hsl 17 8 1 50 0 0 \$0_nothing \$0_h3 empty -2 -8 0 10
-1 -262144 -1 1456 1;
#X obj 234 249 hsl 17 8 1 50 0 0 \$0_nothing \$0_h1 empty -2 -8 0 10
-1 -262144 -1 111 1;
#X obj 253 312 vsl 8 17 1 50 0 0 \$0_nothing \$0_v2 empty 0 -9 0 10
-1 -262144 -1 111 1;
#X obj 253 289 vsl 8 17 1 50 0 0 \$0_nothing \$0_v1 empty 0 -9 0 10
-1 -262144 -1 1456 1;
#X obj 265 305 hsl 17 8 1 50 0 0 \$0_nothing \$0_h3 empty -2 -8 0 10
-1 -262144 -1 1456 1;
#X obj 234 305 hsl 17 8 1 50 0 0 \$0_nothing \$0_h1 empty -2 -8 0 10
-1 -262144 -1 111 1;
#X obj 189 312 vsl 8 17 1 50 0 0 \$0_nothing \$0_v2 empty 0 -9 0 10
-1 -262144 -1 111 1;
#X obj 189 289 vsl 8 17 1 50 0 0 \$0_nothing \$0_v1 empty 0 -9 0 10
-1 -262144 -1 1456 1;
#X obj 201 305 hsl 17 8 1 50 0 0 \$0_nothing \$0_h3 empty -2 -8 0 10
-1 -262144 -1 1456 1;
#X obj 170 305 hsl 17 8 1 50 0 0 \$0_nothing \$0_h1 empty -2 -8 0 10
-1 -262144 -1 111 1;
#X obj 299 276 hsl 50 8 1 50 0 0 \$0_nothing \$0_h3 empty -2 -8 0 10
-1 -262144 -1 4460 1;
#X obj 351 227 vsl 8 50 1 50 0 0 \$0_nothing \$0_v2 empty 0 -9 0 10
-1 -262144 -1 340 1;
#X obj 299 332 hsl 50 8 1 50 0 0 \$0_nothing \$0_h5 empty -2 -8 0 10
-1 -262144 -1 340 1;
#X obj 351 283 vsl 8 50 1 50 0 0 \$0_nothing \$0_v5 empty 0 -9 0 10
-1 -262144 -1 4460 1;
#X obj 319 256 vsl 8 17 1 50 0 0 \$0_nothing \$0_v2 empty 0 -9 0 10
-1 -262144 -1 111 1;
#X obj 319 233 vsl 8 17 1 50 0 0 \$0_nothing \$0_v1 empty 0 -9 0 10
-1 -262144 -1 1456 1;
#X obj 331 249 hsl 17 8 1 50 0 0 \$0_nothing \$0_h3 empty -2 -8 0 10
-1 -262144 -1 1456 1;
#X obj 300 249 hsl 17 8 1 50 0 0 \$0_nothing \$0_h1 empty -2 -8 0 10
-1 -262144 -1 111 1;
#X obj 319 312 vsl 8 17 1 50 0 0 \$0_nothing \$0_v2 empty 0 -9 0 10
-1 -262144 -1 111 1;
#X obj 319 289 vsl 8 17 1 50 0 0 \$0_nothing \$0_v1 empty 0 -9 0 10
-1 -262144 -1 1456 1;
#X obj 331 305 hsl 17 8 1 50 0 0 \$0_nothing \$0_h3 empty -2 -8 0 10
-1 -262144 -1 1456 1;
#X obj 300 305 hsl 17 8 1 50 0 0 \$0_nothing \$0_h1 empty -2 -8 0 10
-1 -262144 -1 111 1;
#X obj 93 114 vsl 8 50 1 50 0 0 \$0_nothing \$0_v2 empty 0 -9 0 10
-1 -262144 -1 340 1;
#X obj 93 170 vsl 8 50 1 50 0 0 \$0_nothing \$0_v5 empty 0 -9 0 10
-1 -262144 -1 4460 1;
#X obj 105 108 hsl 50 8 1 50 0 0 \$0_nothing \$0_h2 empty -2 -8 0 10
-1 -262144 -1 4460 1;
#X obj 105 163 hsl 50 8 1 50 0 0 \$0_nothing \$0_h4 empty -2 -8 0 10
-1 -262144 -1 340 1;
#X obj 105 219 hsl 50 8 1 50 0 0 \$0_nothing \$0_h6 empty -2 -8 0 10
-1 -262144 -1 4460 1;
#X obj 125 143 vsl 8 17 1 50 0 0 \$0_nothing \$0_v2 empty 0 -9 0 10
-1 -262144 -1 111 1;
#X obj 125 120 vsl 8 17 1 50 0 0 \$0_nothing \$0_v1 empty 0 -9 0 10
-1 -262144 -1 1456 1;
#X obj 137 136 hsl 17 8 1 50 0 0 \$0_nothing \$0_h3 empty -2 -8 0 10
-1 -262144 -1 1456 1;
#X obj 106 136 hsl 17 8 1 50 0 0 \$0_nothing \$0_h1 empty -2 -8 0 10
-1 -262144 -1 111 1;
#X obj 125 199 vsl 8 17 1 50 0 0 \$0_nothing \$0_v2 empty 0 -9 0 10
-1 -262144 -1 111 1;
#X obj 125 176 vsl 8 17 1 50 0 0 \$0_nothing \$0_v1 empty 0 -9 0 10
-1 -262144 -1 1456 1;
#X obj 137 192 hsl 17 8 1 50 0 0 \$0_nothing \$0_h3 empty -2 -8 0 10
-1 -262144 -1 1456 1;
#X obj 106 192 hsl 17 8 1 50 0 0 \$0_nothing \$0_h1 empty -2 -8 0 10
-1 -262144 -1 111 1;
#X obj 93 227 vsl 8 50 1 50 0 0 \$0_nothing \$0_v2 empty 0 -9 0 10
-1 -262144 -1 340 1;
#X obj 93 283 vsl 8 50 1 50 0 0 \$0_nothing \$0_v5 empty 0 -9 0 10
-1 -262144 -1 4460 1;
#X obj 105 276 hsl 50 8 1 50 0 0 \$0_nothing \$0_h4 empty -2 -8 0 10
-1 -262144 -1 340 1;
#X obj 105 332 hsl 50 8 1 50 0 0 \$0_nothing \$0_h6 empty -2 -8 0 10
-1 -262144 -1 4460 1;
#X obj 125 256 vsl 8 17 1 50 0 0 \$0_nothing \$0_v2 empty 0 -9 0 10
-1 -262144 -1 111 1;
#X obj 125 233 vsl 8 17 1 50 0 0 \$0_nothing \$0_v1 empty 0 -9 0 10
-1 -262144 -1 1456 1;
#X obj 137 249 hsl 17 8 1 50 0 0 \$0_nothing \$0_h3 empty -2 -8 0 10
-1 -262144 -1 1456 1;
#X obj 106 249 hsl 17 8 1 50 0 0 \$0_nothing \$0_h1 empty -2 -8 0 10
-1 -262144 -1 111 1;
#X obj 125 312 vsl 8 17 1 50 0 0 \$0_nothing \$0_v2 empty 0 -9 0 10
-1 -262144 -1 111 1;
#X obj 125 289 vsl 8 17 1 50 0 0 \$0_nothing \$0_v1 empty 0 -9 0 10
-1 -262144 -1 1456 1;
#X obj 137 305 hsl 17 8 1 50 0 0 \$0_nothing \$0_h3 empty -2 -8 0 10
-1 -262144 -1 1456 1;
#X obj 106 305 hsl 17 8 1 50 0 0 \$0_nothing \$0_h1 empty -2 -8 0 10
-1 -262144 -1 111 1;
#X obj 167 9 hsl 128 15 0 1 0 0 \$0_freq empty frequency 10 8 0 10
-99865 -262144 -262144 800 1;
#X obj 167 31 hsl 128 15 0 1 0 0 \$0_fmamt empty fm_amt 10 8 0 10 -99865
-262144 -262144 2500 1;
#X obj 167 52 hsl 128 15 0 7 0 0 \$0_fmfreq empty fm_freq 10 8 0 10
-99865 -262144 -262144 1400 1;
