#N canvas 673 22 450 300 10;
#N canvas 594 105 552 578 WaveFilter 1;
#X obj 174 25 adc~;
#X obj 190 254 dac~;
#X obj 230 9 r volume;
#X obj 149 101 *~;
#X obj 199 103 *~;
#X obj 135 150 vcf~ 2;
#X obj 209 150 vcf~ 2;
#X floatatom 337 94 5 0 0 0 - - -;
#X obj 297 98 *~;
#X obj 301 132 hsl 128 15 0 4 0 0 empty empty empty -2 -8 0 10 -262144
-1 -1 0 1;
#X obj 298 65 phasor~;
#X obj 324 -1 phasor~;
#X obj 385 30 *~;
#X floatatom 407 3 5 0 0 0 - - -;
#X floatatom 331 -30 5 0 0 0 - - -;
#X connect 0 0 3 0;
#X connect 0 1 4 0;
#X connect 2 0 3 1;
#X connect 2 0 4 1;
#X connect 3 0 5 0;
#X connect 4 0 6 0;
#X connect 5 0 1 0;
#X connect 6 0 1 1;
#X connect 7 0 8 1;
#X connect 8 0 5 1;
#X connect 8 0 6 1;
#X connect 9 0 5 2;
#X connect 9 0 6 2;
#X connect 10 0 8 0;
#X connect 11 0 12 0;
#X connect 12 0 10 0;
#X connect 13 0 12 1;
#X connect 14 0 11 0;
#X restore 176 256 pd WaveFilter;
#X obj 388 28 vsl 15 128 0 1 0 0 empty empty empty 0 -9 0 10 -262144
-1 -1 12700 1;
#X obj 387 174 s volume;
#X connect 1 0 2 0;
