#N canvas 615 58 408 159 10;
#N canvas 638 387 492 343 AMSwipe 0;
#X obj 190 177 osc~;
#X obj -38 39 osc~;
#X obj -38 17 r carrier_freq;
#N canvas 763 354 450 300 smoother 0;
#X obj 194 81 inlet;
#X obj 197 165 outlet~;
#X obj 196 110 pack 0 50;
#X obj 196 137 line~;
#X connect 0 0 2 0;
#X connect 2 0 3 0;
#X connect 3 0 1 0;
#X restore 350 44 pd smoother;
#X obj 350 20 r volume;
#X obj -38 63 *~ 0.5;
#X obj 174 208 *~;
#X obj 172 296 dac~;
#X obj 174 264 *~;
#X obj 190 147 vline~;
#X obj 204 84 pack;
#X obj 182 8 r target_freq;
#X obj 277 4 r time;
#X obj 189 110 l;
#X obj 130 15 r start;
#X obj 74 17 r stop;
#X obj 204 59 bondo;
#X obj -25 225 snapshot~;
#X obj -25 199 metro 50;
#N canvas 719 504 450 300 loadbangs 0;
#X obj 186 23 loadbang;
#X obj 193 179 outlet;
#X msg 182 60 0.2;
#X msg 103 59 40;
#X msg 141 60 30;
#X msg 227 60 500;
#X obj 103 84 s l1;
#X obj 142 83 s l2;
#X obj 182 82 s l3;
#X obj 228 86 s l4;
#X connect 0 0 1 0;
#X connect 0 0 5 0;
#X connect 0 0 4 0;
#X connect 0 0 3 0;
#X connect 0 0 2 0;
#X connect 2 0 8 0;
#X connect 3 0 6 0;
#X connect 4 0 7 0;
#X connect 5 0 9 0;
#X restore -25 174 pd loadbangs;
#X obj -28 255 s current_freq;
#X obj 277 27 * 1000;
#X msg 74 46 0 1000;
#X obj 174 236 *~;
#X obj 130 43 delay 1000;
#X msg 284 162 1 1000;
#X obj 284 187 vline~;
#X obj 341 133 delay 1000;
#X msg 342 161 0 1000;
#X connect 0 0 6 1;
#X connect 1 0 5 0;
#X connect 2 0 1 0;
#X connect 3 0 8 1;
#X connect 4 0 3 0;
#X connect 5 0 6 0;
#X connect 6 0 23 0;
#X connect 8 0 7 0;
#X connect 8 0 7 1;
#X connect 9 0 0 0;
#X connect 9 0 17 0;
#X connect 10 0 13 1;
#X connect 11 0 16 0;
#X connect 12 0 21 0;
#X connect 13 0 9 0;
#X connect 14 0 24 0;
#X connect 14 0 25 0;
#X connect 15 0 22 0;
#X connect 15 0 27 0;
#X connect 16 0 10 0;
#X connect 16 1 10 1;
#X connect 17 0 20 0;
#X connect 18 0 17 0;
#X connect 19 0 18 0;
#X connect 21 0 16 1;
#X connect 22 0 9 0;
#X connect 23 0 8 0;
#X connect 24 0 13 0;
#X connect 25 0 26 0;
#X connect 26 0 23 1;
#X connect 27 0 28 0;
#X connect 28 0 26 0;
#X restore 161 120 pd AMSwipe;
#X obj 15 12 bng 15 250 50 0 empty empty empty 17 7 0 10 -204786 -4034
-1;
#X obj 16 58 bng 15 250 50 0 empty empty empty 17 7 0 10 -261234 -258113
-1;
#X obj 15 31 s start;
#X obj 16 78 s stop;
#X obj 249 54 r current_freq;
#X floatatom 249 78 5 0 0 0 - - -;
#X obj 82 2 r l1;
#X obj 177 1 r l2;
#X obj 247 5 r l3;
#X obj 83 59 r l4;
#X obj 82 58 cnv 15 40 33 empty empty empty 20 12 0 14 -262130 -66577
0;
#X obj 177 1 cnv 15 40 33 empty empty empty 20 12 0 14 -262130 -66577
0;
#X obj 81 2 cnv 15 40 33 empty empty empty 20 12 0 14 -262130 -66577
0;
#X floatatom 86 15 5 0 0 0 - - -;
#X obj 183 36 s time;
#X floatatom 183 13 5 0 0 0 - - -;
#X obj 86 36 s target_freq;
#X text 180 -2 secs;
#X text 85 0 hz;
#X floatatom 86 62 5 0 0 0 - - -;
#X obj 86 82 s carrier_freq;
#X obj 251 6 hsl 128 15 0 1 0 0 empty empty empty -2 -8 0 10 -203904
-1 -1 2540 1;
#X obj 248 28 s volume;
#X connect 1 0 3 0;
#X connect 2 0 4 0;
#X connect 5 0 6 0;
#X connect 7 0 14 0;
#X connect 8 0 16 0;
#X connect 9 0 22 0;
#X connect 10 0 20 0;
#X connect 14 0 17 0;
#X connect 16 0 15 0;
#X connect 20 0 21 0;
#X connect 22 0 23 0;
