#N canvas 582 257 353 123 10;
#N canvas 580 438 427 300 SawSwipe 0;
#X obj 222 9 r time;
#X obj 145 9 r end_freq;
#X obj 322 25 r volume;
#X obj 178 278 dac~;
#X obj 150 170 phasor~;
#X obj 184 230 *~;
#N canvas 763 354 450 300 smoother 0;
#X obj 194 81 inlet;
#X obj 197 165 outlet~;
#X obj 196 110 pack 0 50;
#X obj 196 137 line~;
#X connect 0 0 2 0;
#X connect 2 0 3 0;
#X connect 3 0 1 0;
#X restore 322 47 pd smoother;
#X obj 150 145 vline~;
#X obj 164 90 pack;
#X obj 85 9 r start;
#X obj 150 113 l;
#X obj 151 195 *~ 0.2;
#X obj 222 32 * 1000;
#X obj 26 10 r stop;
#X obj 160 64 bondo;
#X msg 35 79 0 1000;
#N canvas 414 248 158 153 loadbangs 0;
#X obj 52 29 loadbang;
#X msg 28 64 30;
#X msg 66 65 100;
#X msg 108 63 0.2;
#X obj 27 88 s l1;
#X obj 67 89 s l2;
#X obj 108 87 s l3;
#X obj 62 128 outlet;
#X connect 0 0 1 0;
#X connect 0 0 2 0;
#X connect 0 0 3 0;
#X connect 0 0 7 0;
#X connect 1 0 4 0;
#X connect 2 0 5 0;
#X connect 3 0 6 0;
#X restore 15 155 pd loadbangs;
#X obj 43 243 snapshot~;
#X obj 43 268 s current_freq;
#X obj 44 216 metro 50;
#X connect 0 0 12 0;
#X connect 1 0 14 0;
#X connect 2 0 6 0;
#X connect 4 0 11 0;
#X connect 5 0 3 0;
#X connect 5 0 3 1;
#X connect 6 0 5 1;
#X connect 7 0 4 0;
#X connect 7 0 17 0;
#X connect 8 0 10 1;
#X connect 9 0 10 0;
#X connect 10 0 7 0;
#X connect 11 0 5 0;
#X connect 12 0 14 1;
#X connect 13 0 15 0;
#X connect 14 0 8 0;
#X connect 14 1 8 1;
#X connect 15 0 7 0;
#X connect 16 0 19 0;
#X connect 17 0 18 0;
#X connect 19 0 17 0;
#X restore 248 89 pd SawSwipe;
#X obj 15 9 bng 15 250 50 0 empty empty empty 17 7 0 10 -204786 -262144
-1;
#X obj 15 30 s start;
#X obj 15 57 bng 15 250 50 0 empty empty empty 17 7 0 10 -261234 -262144
-1;
#X obj 15 80 s stop;
#X obj 67 -3 r l1;
#X obj 119 -3 r l2;
#X obj 196 9 r l3;
#X obj 195 33 s volume;
#X obj 198 10 hsl 128 15 0 1 0 0 empty empty empty -2 -8 0 10 -203904
-1 -1 2540 1;
#X obj 117 -3 cnv 15 40 33 empty empty empty 20 12 0 14 -262130 -66577
0;
#X obj 121 32 s end_freq;
#X floatatom 121 12 5 0 0 0 - - -;
#X text 119 -5 hz;
#X obj 65 -3 cnv 15 40 33 empty empty empty 20 12 0 14 -262130 -66577
0;
#X obj 70 32 s time;
#X floatatom 70 11 5 0 0 0 - - -;
#X text 67 -6 secs;
#X floatatom 98 85 5 0 0 0 - - -;
#X obj 98 62 r current_freq;
#X connect 1 0 2 0;
#X connect 3 0 4 0;
#X connect 5 0 16 0;
#X connect 6 0 12 0;
#X connect 7 0 9 0;
#X connect 9 0 8 0;
#X connect 12 0 11 0;
#X connect 16 0 15 0;
#X connect 19 0 18 0;
