#N canvas 530 329 317 229 12;
#X text 6 7 Inlet 1: 1 for start \, 0 for stop;
#X text 6 27 Inlet 2: BPM;
#X text 12 186 Made by Rjpg from forum.pdpatchrepo.info;
#N canvas 828 404 450 300 MIDIclock 0;
#X obj 102 199 midiout;
#X text 100 214 external clock;
#X text 95 18 1:start \, 0:stop;
#X obj 220 86 expr 60000 / (24 * $f1);
#X obj 220 45 inlet;
#X obj 104 80 t f f;
#X msg 102 133 250;
#X msg 134 133 252;
#X msg 167 133 248;
#X obj 104 45 inlet;
#X obj 102 161 f;
#X obj 102 110 sel 1;
#X text 224 18 BPM;
#X obj 167 110 metro 25;
#X connect 3 0 13 1;
#X connect 4 0 3 0;
#X connect 5 0 13 0;
#X connect 5 1 11 0;
#X connect 6 0 10 0;
#X connect 7 0 10 0;
#X connect 8 0 10 0;
#X connect 9 0 5 0;
#X connect 10 0 0 0;
#X connect 11 0 6 0;
#X connect 11 1 7 0;
#X connect 13 0 8 0;
#X restore 105 103 pd MIDIclock;
