#N canvas 635 292 249 171 10;
#N canvas 392 354 224 297 on_off_route 1;
#X obj 86 31 notein;
#X obj 72 132 route 0;
#X obj 23 245 outlet on;
#X obj 114 246 outlet off;
#X obj 111 160 list split 1;
#X obj 84 65 swap;
#X obj 82 93 pack;
#X connect 0 0 5 0;
#X connect 0 1 5 1;
#X connect 1 0 3 0;
#X connect 1 1 4 0;
#X connect 4 1 2 0;
#X connect 5 0 6 0;
#X connect 5 1 6 1;
#X connect 6 0 1 0;
#X restore 64 94 pd on_off_route;
#X text 27 17 Routes MIDI note on messages to;
#X text 27 35 the left outlet \, and note off;
#X text 28 53 messages to the right outlet;
#X text 38 100 on;
#X text 167 99 off;
