#N canvas 408 51 698 708 10;
#N canvas 900 434 433 214 ModSynth 0;
#N canvas 803 432 202 204 Amp 0;
#X obj 47 23 inlet~;
#X obj 66 108 *~;
#X obj 65 162 dac~;
#X obj 104 42 r~ \$0_volume;
#X obj 52 59 *~ 0.5;
#X connect 0 0 4 0;
#X connect 1 0 2 0;
#X connect 1 0 2 1;
#X connect 3 0 1 1;
#X connect 4 0 1 0;
#X restore 184 110 pd Amp;
#N canvas 902 501 123 46 values 0;
#N canvas 724 313 118 106 Amp 0;
#X obj 11 11 r \$0_volumeX;
#X obj 12 33 / 127;
#N canvas 763 354 450 300 smoother 0;
#X obj 194 81 inlet;
#X obj 197 165 outlet~;
#X obj 196 110 pack 0 50;
#X obj 196 137 line~;
#X connect 0 0 2 0;
#X connect 2 0 3 0;
#X connect 3 0 1 0;
#X restore 12 57 pd smoother;
#X obj 12 77 s~ \$0_volume;
#X connect 0 0 1 0;
#X connect 1 0 2 0;
#X connect 2 0 3 0;
#X restore 64 11 pd Amp;
#N canvas 866 193 159 109 osc1 0;
#N canvas 931 344 140 62 PMvals 0;
#N canvas 632 224 315 243 PMfreq 0;
#X obj 37 26 r \$0_freq;
#N canvas 780 364 207 263 PMratio 0;
#X obj 44 198 outlet;
#X obj 53 21 r \$0_PMratio;
#X obj 53 44 + 1;
#X obj 43 163 switch 5;
#X obj 52 70 t b f;
#X msg 33 111 0.25;
#X msg 70 111 0.5;
#X msg 101 111 1;
#X msg 132 111 2;
#X msg 163 112 4;
#X obj 94 199 s \$0_PMmultinum;
#X connect 1 0 2 0;
#X connect 2 0 4 0;
#X connect 3 0 0 0;
#X connect 3 0 10 0;
#X connect 4 0 5 0;
#X connect 4 0 6 0;
#X connect 4 0 7 0;
#X connect 4 0 8 0;
#X connect 4 0 9 0;
#X connect 4 1 3 0;
#X connect 5 0 3 1;
#X connect 6 0 3 2;
#X connect 7 0 3 3;
#X connect 8 0 3 4;
#X connect 9 0 3 5;
#X restore 103 26 pd PMratio;
#X obj 65 57 t b f;
#X obj 51 90 * 1;
#X obj 109 138 + 0;
#X obj 157 77 t b f;
#X obj 85 187 s~ \$0_PMfreq;
#N canvas 886 286 241 172 smoother 0;
#X obj 36 40 inlet;
#X obj 32 137 outlet~;
#X obj 31 109 line~;
#X obj 88 26 / 127;
#X obj 89 48 * 250;
#X obj 88 4 r \$0_PMsmoothTimeX;
#X obj 31 82 pack 0 1;
#X connect 0 0 6 0;
#X connect 2 0 1 0;
#X connect 3 0 4 0;
#X connect 4 0 6 1;
#X connect 5 0 3 0;
#X connect 6 0 2 0;
#X restore 85 166 pd smoother;
#N canvas 714 384 259 213 PMfreqoffset 0;
#X obj 53 169 outlet;
#X obj 23 14 r \$0_PMfreqoffset;
#X obj 24 37 / 127;
#X obj 25 61 * 2;
#X obj 26 84 - 1;
#N canvas 786 34 193 218 PMfreqoffsetmulti 0;
#X obj 43 184 outlet;
#X obj 33 24 r \$0_PMfreqoffsetmulti;
#X obj 42 147 switch 3;
#X obj 30 74 t b f;
#X msg 45 110 1;
#X msg 78 113 10;
#X msg 116 115 100;
#X obj 31 51 + 1;
#X connect 1 0 7 0;
#X connect 2 0 0 0;
#X connect 3 0 4 0;
#X connect 3 0 5 0;
#X connect 3 0 6 0;
#X connect 3 1 2 0;
#X connect 4 0 2 1;
#X connect 5 0 2 2;
#X connect 6 0 2 3;
#X connect 7 0 3 0;
#X restore 73 63 pd PMfreqoffsetmulti;
#X obj 71 101 t b f;
#X obj 117 90 r \$0_PMfreqoffsetreset;
#X obj 55 136 * 1;
#X obj 117 144 s \$0_PMoffsettomid;
#X msg 117 118 63.5;
#X connect 1 0 2 0;
#X connect 2 0 3 0;
#X connect 3 0 4 0;
#X connect 4 0 8 0;
#X connect 5 0 6 0;
#X connect 6 0 8 0;
#X connect 6 1 8 1;
#X connect 7 0 10 0;
#X connect 8 0 0 0;
#X connect 10 0 9 0;
#X restore 178 28 pd PMfreqoffset;
#X obj 169 167 s \$0_PMfreqnum;
#X connect 0 0 3 0;
#X connect 1 0 2 0;
#X connect 2 0 3 0;
#X connect 2 1 3 1;
#X connect 3 0 4 0;
#X connect 4 0 7 0;
#X connect 4 0 9 0;
#X connect 5 0 4 0;
#X connect 5 1 4 1;
#X connect 7 0 6 0;
#X connect 8 0 5 0;
#X restore -12 13 pd PMfreq;
#N canvas 748 300 174 205 PMamt 0;
#N canvas 253 251 113 157 smoother 0;
#X obj 22 24 inlet;
#X obj 25 108 outlet~;
#X obj 24 80 line~;
#X obj 24 51 pack 0 50;
#X connect 0 0 3 0;
#X connect 2 0 1 0;
#X connect 3 0 2 0;
#X restore 26 143 pd smoother;
#X obj 26 167 s~ \$0_PMamt;
#X obj 39 123 s \$0_PMamtnum;
#X obj 33 95 + 0;
#N canvas 843 294 165 246 PMamtkbt 0;
#X obj 8 20 r \$0_PMamtkbt;
#X obj 8 42 / 127;
#N canvas 869 77 157 214 PMamtkbtmulti 0;
#X obj 19 40 + 1;
#X obj 18 150 outlet;
#X obj 19 126 switch 3;
#X obj 19 63 t b f;
#X msg 31 92 1;
#X msg 65 92 10;
#X msg 100 92 100;
#X obj 19 13 r \$0_PMamtkbtmulti;
#X connect 0 0 3 0;
#X connect 2 0 1 0;
#X connect 3 0 4 0;
#X connect 3 0 5 0;
#X connect 3 0 6 0;
#X connect 3 1 2 0;
#X connect 4 0 2 1;
#X connect 5 0 2 2;
#X connect 6 0 2 3;
#X connect 7 0 0 0;
#X restore 51 43 pd PMamtkbtmulti;
#X obj 46 102 * 1;
#X obj 47 67 t b f;
#X obj 89 73 r \$0_freq;
#X obj 88 126 t b f;
#X obj 65 204 outlet;
#X obj 72 156 * 1;
#X obj 90 102 / 100;
#X connect 0 0 1 0;
#X connect 1 0 3 0;
#X connect 2 0 4 0;
#X connect 3 0 8 0;
#X connect 4 0 3 0;
#X connect 4 1 3 1;
#X connect 5 0 9 0;
#X connect 6 0 8 0;
#X connect 6 1 8 1;
#X connect 8 0 7 0;
#X connect 9 0 6 0;
#X restore 76 15 pd PMamtkbt;
#N canvas 618 400 167 206 PMamt 0;
#X obj 21 16 r \$0_PMamtX;
#X obj 21 42 expr ($f1 / 127) * 10;
#X obj 20 146 * 1;
#X obj 37 104 t b f;
#N canvas 400 263 157 214 PMamtmulti 0;
#X obj 19 13 r \$0_PMamtmulti;
#X obj 19 40 + 1;
#X obj 18 150 outlet;
#X obj 19 126 switch 3;
#X obj 19 63 t b f;
#X msg 31 92 1;
#X msg 65 92 10;
#X msg 100 92 100;
#X connect 0 0 1 0;
#X connect 1 0 4 0;
#X connect 3 0 2 0;
#X connect 4 0 5 0;
#X connect 4 0 6 0;
#X connect 4 0 7 0;
#X connect 4 1 3 0;
#X connect 5 0 3 1;
#X connect 6 0 3 2;
#X connect 7 0 3 3;
#X restore 36 69 pd PMamtmulti;
#X obj 19 174 outlet;
#X connect 0 0 1 0;
#X connect 1 0 2 0;
#X connect 2 0 5 0;
#X connect 3 0 2 0;
#X connect 3 1 2 1;
#X connect 4 0 3 0;
#X restore 8 15 pd PMamt;
#X obj 56 57 t b f;
#X connect 0 0 1 0;
#X connect 3 0 2 0;
#X connect 3 0 0 0;
#X connect 4 0 6 0;
#X connect 5 0 3 0;
#X connect 6 0 3 0;
#X connect 6 1 3 1;
#X restore 51 13 pd PMamt;
#N canvas 680 377 275 122 PMphase 0;
#X obj 98 46 / 127;
#X obj 98 24 r \$0_PMphaseX;
#X obj 97 72 s \$0_PMphase;
#X connect 0 0 2 0;
#X connect 1 0 0 0;
#X restore -10 39 pd PMphase;
#X restore 7 10 pd PMvals;
#N canvas 1016 401 149 72 AMvals 0;
#N canvas 863 515 315 243 AMfreq 0;
#X obj 37 26 r \$0_freq;
#X obj 65 57 t b f;
#X obj 51 90 * 1;
#X obj 109 138 + 0;
#X obj 157 77 t b f;
#N canvas 871 494 264 220 smoother 0;
#X obj 41 76 inlet;
#X obj 44 160 outlet~;
#X obj 43 132 line~;
#X obj 95 50 / 127;
#X obj 96 72 * 250;
#X obj 95 29 r \$0_AMsmoothTimeX;
#X obj 43 105 pack 0 1;
#X connect 0 0 6 0;
#X connect 2 0 1 0;
#X connect 3 0 4 0;
#X connect 4 0 6 1;
#X connect 5 0 3 0;
#X connect 6 0 2 0;
#X restore 85 166 pd smoother;
#X obj 84 187 s~ \$0_AMfreq;
#X obj 169 167 s \$0_AMfreqnum;
#N canvas 780 364 207 263 AMratio 0;
#X obj 44 198 outlet;
#X obj 53 44 + 1;
#X obj 43 163 switch 5;
#X obj 52 70 t b f;
#X msg 33 111 0.25;
#X msg 70 111 0.5;
#X msg 101 111 1;
#X msg 132 111 2;
#X msg 163 112 4;
#X obj 53 21 r \$0_AMratio;
#X obj 94 199 s \$0_AMmultinum;
#X connect 1 0 3 0;
#X connect 2 0 0 0;
#X connect 2 0 10 0;
#X connect 3 0 4 0;
#X connect 3 0 5 0;
#X connect 3 0 6 0;
#X connect 3 0 7 0;
#X connect 3 0 8 0;
#X connect 3 1 2 0;
#X connect 4 0 2 1;
#X connect 5 0 2 2;
#X connect 6 0 2 3;
#X connect 7 0 2 4;
#X connect 8 0 2 5;
#X connect 9 0 1 0;
#X restore 103 26 pd AMratio;
#N canvas 714 384 259 213 AMfreqoffset 0;
#X obj 53 169 outlet;
#X obj 24 37 / 127;
#X obj 25 61 * 2;
#X obj 26 84 - 1;
#X obj 71 101 t b f;
#X obj 55 136 * 1;
#X msg 117 118 63.5;
#X obj 23 14 r \$0_AMfreqoffset;
#X obj 117 90 r \$0_AMfreqoffsetreset;
#X obj 117 144 s \$0_AMoffsettomid;
#N canvas 786 34 193 218 AMfreqoffsetmulti 0;
#X obj 43 184 outlet;
#X obj 42 147 switch 3;
#X obj 30 74 t b f;
#X msg 45 110 1;
#X msg 78 113 10;
#X msg 116 115 100;
#X obj 31 51 + 1;
#X obj 33 24 r \$0_AMfreqoffsetmulti;
#X connect 1 0 0 0;
#X connect 2 0 3 0;
#X connect 2 0 4 0;
#X connect 2 0 5 0;
#X connect 2 1 1 0;
#X connect 3 0 1 1;
#X connect 4 0 1 2;
#X connect 5 0 1 3;
#X connect 6 0 2 0;
#X connect 7 0 6 0;
#X restore 73 63 pd AMfreqoffsetmulti;
#X connect 1 0 2 0;
#X connect 2 0 3 0;
#X connect 3 0 5 0;
#X connect 4 0 5 0;
#X connect 4 1 5 1;
#X connect 5 0 0 0;
#X connect 6 0 9 0;
#X connect 7 0 1 0;
#X connect 8 0 6 0;
#X connect 10 0 4 0;
#X restore 178 28 pd AMfreqoffset;
#X connect 0 0 2 0;
#X connect 1 0 2 0;
#X connect 1 1 2 1;
#X connect 2 0 3 0;
#X connect 3 0 5 0;
#X connect 3 0 7 0;
#X connect 4 0 3 0;
#X connect 4 1 3 1;
#X connect 5 0 6 0;
#X connect 8 0 1 0;
#X connect 9 0 4 0;
#X restore -12 21 pd AMfreq;
#N canvas 516 315 157 256 AMamt 0;
#N canvas 543 316 139 167 smoother 0;
#X obj 29 25 inlet;
#X obj 32 109 outlet~;
#X obj 31 81 line~;
#X obj 31 52 pack 0 100;
#X connect 0 0 3 0;
#X connect 2 0 1 0;
#X connect 3 0 2 0;
#X restore 29 196 pd smoother;
#X obj 33 87 + 0;
#X obj 51 48 t b f;
#X obj 29 220 s~ \$0_AMamt;
#X obj 42 176 s \$0_AMamtnum;
#N canvas 540 415 143 100 AMamt 0;
#X obj 20 70 outlet;
#X obj 21 16 r \$0_AMamtX;
#X obj 21 42 expr ($f1 / 127)*2;
#X connect 1 0 2 0;
#X connect 2 0 0 0;
#X restore 8 15 pd AMamt;
#N canvas 856 373 154 209 AMamtkbt 0;
#X obj 8 42 / 127;
#X obj 72 45 r \$0_freq;
#X obj 71 98 t b f;
#X obj 53 159 outlet;
#X obj 55 128 * 1;
#X obj 8 20 r \$0_AMamtkbt;
#X obj 73 74 / 2000;
#X connect 0 0 4 0;
#X connect 1 0 6 0;
#X connect 2 0 4 0;
#X connect 2 1 4 1;
#X connect 4 0 3 0;
#X connect 5 0 0 0;
#X connect 6 0 2 0;
#X restore 76 15 pd AMamtkbt;
#X obj 41 154 * 100;
#X obj 28 111 limit 0 2;
#X connect 0 0 3 0;
#X connect 1 0 8 0;
#X connect 2 0 1 0;
#X connect 2 1 1 1;
#X connect 5 0 1 0;
#X connect 6 0 2 0;
#X connect 7 0 4 0;
#X connect 8 0 7 0;
#X connect 8 0 0 0;
#X restore 66 22 pd AMamt;
#N canvas 680 377 275 122 AMphase 0;
#X obj 98 46 / 127;
#X obj 98 24 r \$0_AMphaseX;
#X obj 97 72 s \$0_AMphase;
#X connect 0 0 2 0;
#X connect 1 0 0 0;
#X restore -7 46 pd AMphase;
#X restore 7 33 pd AMvals;
#N canvas 1002 478 140 62 FMvals 0;
#N canvas 927 148 315 243 FMfreq 0;
#X obj 37 26 r \$0_freq;
#X obj 65 57 t b f;
#X obj 51 90 * 1;
#X obj 109 138 + 0;
#X obj 157 77 t b f;
#N canvas 904 71 198 182 smoother 0;
#X obj 14 39 inlet;
#X obj 24 151 outlet~;
#X obj 23 124 line~;
#X obj 23 97 pack 0 1;
#X obj 66 19 r \$0_FMsmoothTimeX;
#X obj 66 41 / 127;
#X obj 67 63 * 250;
#X connect 0 0 3 0;
#X connect 2 0 1 0;
#X connect 3 0 2 0;
#X connect 4 0 5 0;
#X connect 5 0 6 0;
#X connect 6 0 3 1;
#X restore 85 166 pd smoother;
#X obj 169 167 s \$0_FMfreqnum;
#X obj 85 187 s~ \$0_FMfreq;
#N canvas 714 362 207 263 FMratio 0;
#X obj 44 198 outlet;
#X obj 53 44 + 1;
#X obj 43 163 switch 5;
#X obj 52 70 t b f;
#X msg 33 111 0.25;
#X msg 70 111 0.5;
#X msg 101 111 1;
#X msg 132 111 2;
#X msg 163 112 4;
#X obj 53 20 r \$0_FMratio;
#X obj 94 199 s \$0_FMmultinum;
#X connect 1 0 3 0;
#X connect 2 0 0 0;
#X connect 2 0 10 0;
#X connect 3 0 4 0;
#X connect 3 0 5 0;
#X connect 3 0 6 0;
#X connect 3 0 7 0;
#X connect 3 0 8 0;
#X connect 3 1 2 0;
#X connect 4 0 2 1;
#X connect 5 0 2 2;
#X connect 6 0 2 3;
#X connect 7 0 2 4;
#X connect 8 0 2 5;
#X connect 9 0 1 0;
#X restore 102 26 pd FMratio;
#N canvas 947 374 259 213 FMfreqoffset 0;
#X obj 53 169 outlet;
#X obj 24 37 / 127;
#X obj 25 61 * 2;
#X obj 26 84 - 1;
#X obj 71 101 t b f;
#X obj 55 136 * 1;
#X msg 117 118 63.5;
#X obj 23 14 r \$0_FMfreqoffset;
#X obj 117 90 r \$0_FMfreqoffsetreset;
#X obj 117 144 s \$0_FMoffsettomid;
#N canvas 165 409 193 218 FMfreqoffsetmulti 0;
#X obj 43 184 outlet;
#X obj 42 147 switch 3;
#X obj 30 74 t b f;
#X msg 45 110 1;
#X msg 78 113 10;
#X msg 116 115 100;
#X obj 31 51 + 1;
#X obj 33 24 r \$0_FMfreqoffsetmulti;
#X connect 1 0 0 0;
#X connect 2 0 3 0;
#X connect 2 0 4 0;
#X connect 2 0 5 0;
#X connect 2 1 1 0;
#X connect 3 0 1 1;
#X connect 4 0 1 2;
#X connect 5 0 1 3;
#X connect 6 0 2 0;
#X connect 7 0 6 0;
#X restore 73 63 pd FMfreqoffsetmulti;
#X connect 1 0 2 0;
#X connect 2 0 3 0;
#X connect 3 0 5 0;
#X connect 4 0 5 0;
#X connect 4 1 5 1;
#X connect 5 0 0 0;
#X connect 6 0 9 0;
#X connect 7 0 1 0;
#X connect 8 0 6 0;
#X connect 10 0 4 0;
#X restore 178 28 pd FMfreqoffset;
#X connect 0 0 2 0;
#X connect 1 0 2 0;
#X connect 1 1 2 1;
#X connect 2 0 3 0;
#X connect 3 0 5 0;
#X connect 3 0 6 0;
#X connect 4 0 3 0;
#X connect 4 1 3 1;
#X connect 5 0 7 0;
#X connect 8 0 1 0;
#X connect 9 0 4 0;
#X restore -12 13 pd FMfreq;
#N canvas 529 411 174 205 FMamt 0;
#N canvas 763 354 101 161 smoother 0;
#X obj 12 17 inlet;
#X obj 15 101 outlet~;
#X obj 14 73 line~;
#X obj 14 44 pack 0 10;
#X connect 0 0 3 0;
#X connect 2 0 1 0;
#X connect 3 0 2 0;
#X restore 26 143 pd smoother;
#X obj 33 95 + 0;
#X obj 56 57 t b f;
#N canvas 302 416 167 206 FMamt 0;
#X obj 21 42 expr ($f1 / 127) * 10;
#X obj 20 146 * 1;
#X obj 37 104 t b f;
#X obj 19 174 outlet;
#X obj 21 16 r \$0_FMamtX;
#N canvas 184 406 157 214 FMamtmulti 0;
#X obj 19 40 + 1;
#X obj 18 150 outlet;
#X obj 19 126 switch 3;
#X obj 19 63 t b f;
#X obj 19 13 r \$0_FMamtmulti;
#X msg 31 92 10;
#X msg 65 92 100;
#X msg 100 92 1000;
#X connect 0 0 3 0;
#X connect 2 0 1 0;
#X connect 3 0 5 0;
#X connect 3 0 6 0;
#X connect 3 0 7 0;
#X connect 3 1 2 0;
#X connect 4 0 0 0;
#X connect 5 0 2 1;
#X connect 6 0 2 2;
#X connect 7 0 2 3;
#X restore 36 69 pd FMamtmulti;
#X connect 0 0 1 0;
#X connect 1 0 3 0;
#X connect 2 0 1 0;
#X connect 2 1 1 1;
#X connect 4 0 0 0;
#X connect 5 0 2 0;
#X restore 8 15 pd FMamt;
#N canvas 730 399 165 246 FMamtkbt 0;
#X obj 8 42 / 127;
#X obj 46 102 * 1;
#X obj 47 67 t b f;
#X obj 89 73 r \$0_freq;
#X obj 88 126 t b f;
#X obj 65 204 outlet;
#X obj 72 156 * 1;
#X obj 90 102 / 100;
#X obj 8 20 r \$0_FMamtkbt;
#N canvas 913 420 157 214 FMamtkbtmulti 0;
#X obj 19 40 + 1;
#X obj 18 150 outlet;
#X obj 19 126 switch 3;
#X obj 19 63 t b f;
#X obj 19 13 r \$0_FMamtkbtmulti;
#X msg 31 92 10;
#X msg 65 92 100;
#X msg 100 92 1000;
#X connect 0 0 3 0;
#X connect 2 0 1 0;
#X connect 3 0 5 0;
#X connect 3 0 6 0;
#X connect 3 0 7 0;
#X connect 3 1 2 0;
#X connect 4 0 0 0;
#X connect 5 0 2 1;
#X connect 6 0 2 2;
#X connect 7 0 2 3;
#X restore 51 43 pd FMamtkbtmulti;
#X connect 0 0 1 0;
#X connect 1 0 6 0;
#X connect 2 0 1 0;
#X connect 2 1 1 1;
#X connect 3 0 7 0;
#X connect 4 0 6 0;
#X connect 4 1 6 1;
#X connect 6 0 5 0;
#X connect 7 0 4 0;
#X connect 8 0 0 0;
#X connect 9 0 2 0;
#X restore 76 15 pd FMamtkbt;
#X obj 39 123 s \$0_FMamtnum;
#X obj 26 167 s~ \$0_FMamt;
#X connect 0 0 6 0;
#X connect 1 0 0 0;
#X connect 1 0 5 0;
#X connect 2 0 1 0;
#X connect 2 1 1 1;
#X connect 3 0 1 0;
#X connect 4 0 2 0;
#X restore 51 13 pd FMamt;
#N canvas 548 193 450 300 FMphase 0;
#X obj 129 80 r \$0_FMphaseX;
#X obj 129 102 / 127;
#X obj 128 128 s \$0_FMphase;
#X connect 0 0 1 0;
#X connect 1 0 2 0;
#X restore -13 38 pd FMphase;
#X restore 8 55 pd FMvals;
#N canvas 738 70 446 361 Filter 0;
#X obj 19 80 r \$0_filtercutoffX;
#X obj 19 135 expr ($f1/127)*20000;
#X obj 317 15 r \$0_filterqX;
#X obj 318 37 expr ($f1/127)*4;
#N canvas 763 354 450 300 smoother 0;
#X obj 194 81 inlet;
#X obj 197 165 outlet~;
#X obj 196 110 pack 0 50;
#X obj 196 137 line~;
#X connect 0 0 2 0;
#X connect 2 0 3 0;
#X connect 3 0 1 0;
#X restore 318 59 pd smoother;
#X obj 318 80 s~ \$0_filterq;
#X obj 159 12 r \$0_filterkbt;
#X obj 159 34 / 127;
#X obj 159 143 * 1;
#X obj 175 56 r \$0_freq;
#X obj 171 108 t b f;
#X obj 87 208 +;
#X obj 130 169 t b f;
#N canvas 763 354 450 300 smoother 0;
#X obj 194 81 inlet;
#X obj 197 165 outlet~;
#X obj 196 110 pack 0 50;
#X obj 196 137 line~;
#X connect 0 0 2 0;
#X connect 2 0 3 0;
#X connect 3 0 1 0;
#X restore 77 296 pd smoother;
#X obj 105 272 s \$0_filtercutoffnum;
#X obj 70 235 limit 10 25000;
#X obj 74 333 s~ \$0_filtercutoff;
#X obj 20 106 - 1;
#X connect 0 0 17 0;
#X connect 1 0 11 0;
#X connect 2 0 3 0;
#X connect 3 0 4 0;
#X connect 4 0 5 0;
#X connect 6 0 7 0;
#X connect 7 0 8 0;
#X connect 8 0 12 0;
#X connect 9 0 10 0;
#X connect 10 0 8 0;
#X connect 10 1 8 1;
#X connect 11 0 15 0;
#X connect 12 0 11 0;
#X connect 12 1 11 1;
#X connect 13 0 16 0;
#X connect 15 0 14 0;
#X connect 15 0 13 0;
#X connect 17 0 1 0;
#X restore 8 77 pd Filter;
#N canvas 876 357 569 253 AmpEnv 0;
#X obj 6 20 r \$0_ampenvattX;
#X obj 114 21 r \$0_ampenvdcyX;
#X obj 221 21 r \$0_ampenvsustX;
#X obj 332 19 r \$0_ampenvsuslX;
#X obj 442 19 r \$0_ampenvrelX;
#X obj 114 43 / 127;
#X obj 6 43 / 127;
#X obj 222 44 / 127;
#X obj 332 41 / 127;
#X obj 443 42 / 127;
#X obj 7 69 * 1000;
#X obj 442 72 * 1000;
#X obj 222 68 * 1000;
#X obj 114 67 * 1000;
#X obj 7 96 s \$0_ampenvatt;
#X obj 109 93 s \$0_ampenvdcy;
#X obj 219 99 s \$0_ampenvsust;
#X obj 333 83 s \$0_ampenvsusl;
#X obj 441 102 s \$0_ampenvrel;
#X connect 0 0 6 0;
#X connect 1 0 5 0;
#X connect 2 0 7 0;
#X connect 3 0 8 0;
#X connect 4 0 9 0;
#X connect 5 0 13 0;
#X connect 6 0 10 0;
#X connect 7 0 12 0;
#X connect 8 0 17 0;
#X connect 9 0 11 0;
#X connect 10 0 14 0;
#X connect 11 0 18 0;
#X connect 12 0 16 0;
#X connect 13 0 15 0;
#X restore 73 10 pd AmpEnv;
#N canvas 662 584 572 140 FiltEnv 0;
#X obj 114 43 / 127;
#X obj 6 43 / 127;
#X obj 222 44 / 127;
#X obj 332 41 / 127;
#X obj 443 42 / 127;
#X obj 222 68 * 1000;
#X obj 114 67 * 1000;
#X obj 6 20 r \$0_filtenvattX;
#X obj 114 21 r \$0_filtenvdcyX;
#X obj 221 21 r \$0_filtenvsustX;
#X obj 332 19 r \$0_filtenvsuslX;
#X obj 442 19 r \$0_filtenvrelX;
#X obj 7 96 s \$0_filtenvatt;
#X obj 109 93 s \$0_filtenvdcy;
#X obj 219 99 s \$0_filtenvsust;
#X obj 333 83 s \$0_filtenvsusl;
#X obj 441 102 s \$0_filtenvrel;
#X obj 442 72 * 1000;
#X obj 7 69 * 500;
#X connect 0 0 6 0;
#X connect 1 0 18 0;
#X connect 2 0 5 0;
#X connect 3 0 15 0;
#X connect 4 0 17 0;
#X connect 5 0 14 0;
#X connect 6 0 13 0;
#X connect 7 0 1 0;
#X connect 8 0 0 0;
#X connect 9 0 2 0;
#X connect 10 0 3 0;
#X connect 11 0 4 0;
#X connect 17 0 16 0;
#X connect 18 0 12 0;
#X restore 74 36 pd FiltEnv;
#N canvas 815 394 148 68 Carrier 0;
#N canvas 680 377 275 122 Carrierphase 0;
#X obj 98 46 / 127;
#X obj 100 23 r \$0_CarrierPhaseX;
#X obj 97 72 s \$0_CarrierPhase;
#X connect 0 0 2 0;
#X connect 1 0 0 0;
#X restore 8 21 pd Carrierphase;
#X restore 75 62 pd Carrier;
#X restore 7 12 pd osc1;
#X restore 11 8 pd values;
#N canvas 928 75 151 290 osc1 0;
#N canvas 583 362 274 271 osc 0;
#X obj 62 93 phasor~;
#X obj 91 124 +~;
#X obj 99 185 cos~;
#X obj 99 216 outlet~;
#X obj 127 93 inlet~ phasemod;
#N canvas 800 438 272 161 osc_phase 0;
#X obj 38 118 outlet;
#X obj 14 6 r \$0_PhaseTrigger;
#X obj 85 53 r \$0_carrier_phase_retrigger;
#X obj 36 84 spigot;
#X obj 34 30 r \$0_CarrierPhase;
#X obj 21 56 f 0;
#X connect 1 0 5 0;
#X connect 2 0 3 1;
#X connect 3 0 0 0;
#X connect 4 0 5 1;
#X connect 5 0 3 0;
#X restore 100 66 pd osc_phase;
#X obj 1 6 inlet~ freq;
#X connect 0 0 1 0;
#X connect 1 0 2 0;
#X connect 2 0 3 0;
#X connect 4 0 1 1;
#X connect 5 0 0 1;
#X connect 6 0 0 0;
#X restore 43 55 pd osc;
#N canvas 968 58 155 221 PM 0;
#X obj 29 77 osc~;
#X obj 42 116 *~;
#X obj 43 180 outlet~;
#X obj 74 75 r~ \$0_PMamt;
#X obj 29 29 r~ \$0_PMfreq;
#N canvas 1021 347 255 168 PMphase 0;
#X obj 49 134 outlet;
#X obj 37 18 r \$0_PhaseTrigger;
#X obj 67 38 r \$0_PMphase;
#X obj 52 65 f 0;
#X obj 51 96 spigot;
#X obj 87 71 r \$0_PM_phase_retrigger;
#X connect 1 0 3 0;
#X connect 2 0 3 1;
#X connect 3 0 4 0;
#X connect 4 0 0 0;
#X connect 5 0 4 1;
#X restore 47 52 pd PMphase;
#X connect 0 0 1 0;
#X connect 1 0 2 0;
#X connect 3 0 1 1;
#X connect 4 0 0 0;
#X connect 5 0 0 1;
#X restore 75 27 pd PM;
#N canvas 898 57 225 296 FM 0;
#X obj 130 80 r \$0_freq;
#X obj 3 122 osc~;
#X obj 39 158 *~;
#X obj 49 198 +~;
#X obj 48 229 outlet~;
#X obj 17 15 r~ \$0_FMfreq;
#X obj 113 29 r~ \$0_FMamt;
#N canvas 939 75 277 171 FMphase 0;
#X obj 87 46 r \$0_FMphase;
#X obj 57 26 r \$0_PhaseTrigger;
#X obj 72 73 f 0;
#X obj 72 103 spigot;
#X obj 72 137 outlet;
#X obj 107 76 r \$0_FM_phase_retrigger;
#X connect 0 0 2 1;
#X connect 1 0 2 0;
#X connect 2 0 3 0;
#X connect 3 0 4 0;
#X connect 5 0 3 1;
#X restore 29 61 pd FMphase;
#X connect 0 0 3 1;
#X connect 1 0 2 0;
#X connect 2 0 3 0;
#X connect 3 0 4 0;
#X connect 5 0 1 0;
#X connect 6 0 2 1;
#X connect 7 0 1 1;
#X restore 37 27 pd FM;
#N canvas 759 376 259 294 AM 0;
#X obj 24 132 inlet~;
#X obj 83 36 osc~;
#X obj 84 60 *~ 0.5;
#X obj 89 101 *~;
#X obj 89 130 +~ 0.5;
#X obj 34 191 *~;
#X obj 34 217 outlet~;
#X obj 81 -29 r~ \$0_AMfreq;
#X obj 160 -30 r~ \$0_AMamt;
#N canvas 816 368 275 215 AMphase 0;
#X obj 66 193 outlet;
#X obj 57 26 r \$0_PhaseTrigger;
#X obj 86 46 r \$0_AMphase;
#X obj 72 72 f 0;
#X obj 73 127 spigot;
#X obj 107 91 r \$0_AM_phase_retrigger;
#X connect 1 0 3 0;
#X connect 2 0 3 1;
#X connect 3 0 4 0;
#X connect 4 0 0 0;
#X connect 5 0 4 1;
#X restore 106 4 pd AMphase;
#X connect 0 0 5 0;
#X connect 1 0 2 0;
#X connect 2 0 3 0;
#X connect 3 0 4 0;
#X connect 4 0 5 1;
#X connect 5 0 6 0;
#X connect 7 0 1 0;
#X connect 8 0 3 1;
#X connect 9 0 1 1;
#X restore 43 79 pd AM;
#X obj 48 256 outlet~;
#N canvas 884 298 286 359 filter 0;
#X obj 10 13 inlet~;
#X obj 42 188 outlet~;
#X obj 41 127 moog~;
#X obj 137 73 r~ \$0_filterq;
#X obj 70 12 r~ \$0_filtercutoff;
#N canvas 276 187 519 202 filterenv 0;
#N canvas 507 294 427 359 ADSR2qua 0;
#X obj 78 200 vline~;
#X obj -12 74 inlet trigger;
#X obj 73 39 inlet a;
#X obj 128 40 inlet d;
#X obj 187 39 inlet s;
#X obj 311 40 inlet r;
#X obj 245 40 inlet st;
#X obj 77 142 pack f f f f f f;
#X msg 78 172 1 \$2 \, \$4 \$3 \$2 \, 0 \$6 \$5;
#N canvas 705 320 449 277 adst 0;
#X obj 89 45 inlet a;
#X obj 155 46 inlet d;
#X obj 215 46 inlet st;
#X obj 142 111 expr $f1+$f2+$f3;
#X obj 155 70 t b f;
#X obj 215 69 t b f;
#X obj 141 141 outlet result;
#X text 78 178 sum of attack \, decay \, and sustain time;
#X text 78 195 used for the third initial delay value;
#X text 56 213 (decay triggers after attack \, decay \, and sustain
time);
#X connect 0 0 3 0;
#X connect 1 0 4 0;
#X connect 2 0 5 0;
#X connect 3 0 6 0;
#X connect 4 0 3 0;
#X connect 4 1 3 1;
#X connect 5 0 3 0;
#X connect 5 1 3 2;
#X restore 186 90 pd adst;
#X obj 78 233 *~;
#X obj 77 262 *~;
#X obj 77 293 outlet~;
#X connect 0 0 10 0;
#X connect 0 0 10 1;
#X connect 1 0 7 0;
#X connect 2 0 7 1;
#X connect 2 0 9 0;
#X connect 3 0 7 2;
#X connect 3 0 9 1;
#X connect 4 0 7 3;
#X connect 5 0 7 5;
#X connect 6 0 9 2;
#X connect 7 0 8 0;
#X connect 8 0 0 0;
#X connect 9 0 7 4;
#X connect 10 0 11 0;
#X connect 10 0 11 1;
#X connect 11 0 12 0;
#X restore 214 141 pd ADSR2qua;
#X obj 4 42 r \$0_filtenvatt;
#X obj 99 22 r \$0_filtenvdcy;
#X obj 199 47 r \$0_filtenvsusl;
#X obj 309 25 r \$0_filtenvsust;
#X obj 407 48 r \$0_filtenvrel;
#X obj 212 175 outlet~;
#X obj 206 24 r \$0_EnvTrigger;
#X connect 0 0 6 0;
#X connect 1 0 0 1;
#X connect 2 0 0 2;
#X connect 3 0 0 3;
#X connect 4 0 0 4;
#X connect 5 0 0 5;
#X connect 7 0 0 0;
#X restore 100 40 pd filterenv;
#X obj 81 74 *~;
#X connect 0 0 2 0;
#X connect 2 0 1 0;
#X connect 3 0 2 2;
#X connect 4 0 6 0;
#X connect 5 0 6 1;
#X connect 6 0 2 1;
#X restore 43 105 pd filter;
#N canvas 217 313 549 295 ampenv 0;
#X obj 165 154 inlet~;
#X obj 177 232 outlet~;
#N canvas 507 294 427 359 ADSR2qua 0;
#X obj 78 200 vline~;
#X obj -12 74 inlet trigger;
#X obj 73 39 inlet a;
#X obj 128 40 inlet d;
#X obj 187 39 inlet s;
#X obj 311 40 inlet r;
#X obj 245 40 inlet st;
#X obj 77 142 pack f f f f f f;
#X msg 78 172 1 \$2 \, \$4 \$3 \$2 \, 0 \$6 \$5;
#N canvas 705 320 449 277 adst 0;
#X obj 89 45 inlet a;
#X obj 155 46 inlet d;
#X obj 215 46 inlet st;
#X obj 142 111 expr $f1+$f2+$f3;
#X obj 155 70 t b f;
#X obj 215 69 t b f;
#X obj 141 141 outlet result;
#X text 78 178 sum of attack \, decay \, and sustain time;
#X text 78 195 used for the third initial delay value;
#X text 56 213 (decay triggers after attack \, decay \, and sustain
time);
#X connect 0 0 3 0;
#X connect 1 0 4 0;
#X connect 2 0 5 0;
#X connect 3 0 6 0;
#X connect 4 0 3 0;
#X connect 4 1 3 1;
#X connect 5 0 3 0;
#X connect 5 1 3 2;
#X restore 186 90 pd adst;
#X obj 78 233 *~;
#X obj 77 262 *~;
#X obj 77 293 outlet~;
#X connect 0 0 10 0;
#X connect 0 0 10 1;
#X connect 1 0 7 0;
#X connect 2 0 7 1;
#X connect 2 0 9 0;
#X connect 3 0 7 2;
#X connect 3 0 9 1;
#X connect 4 0 7 3;
#X connect 5 0 7 5;
#X connect 6 0 9 2;
#X connect 7 0 8 0;
#X connect 8 0 0 0;
#X connect 9 0 7 4;
#X connect 10 0 11 0;
#X connect 10 0 11 1;
#X connect 11 0 12 0;
#X restore 220 139 pd ADSR2qua;
#X obj 177 204 *~;
#X obj 10 40 r \$0_ampenvatt;
#X obj 102 43 r \$0_ampenvdcy;
#X obj 205 45 r \$0_ampenvsusl;
#X obj 313 45 r \$0_ampenvsust;
#X obj 413 46 r \$0_ampenvrel;
#X obj 213 22 r \$0_EnvTrigger;
#X connect 0 0 3 0;
#X connect 2 0 3 1;
#X connect 3 0 1 0;
#X connect 4 0 2 1;
#X connect 5 0 2 2;
#X connect 6 0 2 3;
#X connect 7 0 2 4;
#X connect 8 0 2 5;
#X connect 9 0 2 0;
#X restore 43 160 pd ampenv;
#X connect 0 0 3 0;
#X connect 1 0 0 1;
#X connect 2 0 0 0;
#X connect 3 0 5 0;
#X connect 5 0 6 0;
#X connect 6 0 4 0;
#X restore 184 72 pd osc1;
#N canvas 795 230 224 66 presets 0;
#N canvas 820 251 314 119 init 0;
#N canvas 352 266 283 164 Ratios 0;
#X obj 41 15 inlet;
#X obj 14 103 s \$0_FMratioR;
#X obj 105 103 s \$0_PMratioR;
#X obj 192 103 s \$0_AMratioR;
#X msg 41 37 2;
#X connect 0 0 4 0;
#X connect 4 0 1 0;
#X connect 4 0 2 0;
#X connect 4 0 3 0;
#X restore 27 57 pd Ratios;
#N canvas 540 387 428 130 freqoffsets 0;
#X obj 47 13 inlet;
#X msg 47 36 63.5;
#X obj 27 82 s \$0_FMoffsettomid;
#X obj 142 84 s \$0_PMoffsettomid;
#X obj 261 82 s \$0_AMoffsettomid;
#X connect 0 0 1 0;
#X connect 1 0 2 0;
#X connect 1 0 3 0;
#X connect 1 0 4 0;
#X restore 91 55 pd freqoffsets;
#X obj 77 19 loadbang;
#N canvas 523 420 162 139 filter 0;
#X obj 12 9 inlet;
#X obj 13 63 s \$0_filtercutoffR;
#X msg 12 34 128;
#X connect 0 0 2 0;
#X connect 2 0 1 0;
#X restore 182 56 pd filter;
#N canvas 421 342 138 128 volume 0;
#X obj 19 15 inlet;
#X obj 19 70 s \$0_volumeR;
#X msg 19 41 10;
#X connect 0 0 2 0;
#X connect 2 0 1 0;
#X restore 29 82 pd volume;
#N canvas 867 421 431 156 envelopes 0;
#X obj 201 13 inlet;
#X obj 23 107 s \$0_FiltEnvST;
#X obj 117 108 s \$0_FiltEnvSL;
#X msg 200 49 127;
#X obj 217 108 s \$0_AmpEnvST;
#X obj 311 109 s \$0_AmpEnvSL;
#X connect 0 0 3 0;
#X connect 3 0 1 0;
#X connect 3 0 2 0;
#X connect 3 0 4 0;
#X connect 3 0 5 0;
#X restore 94 80 pd envelopes;
#X connect 2 0 0 0;
#X connect 2 0 1 0;
#X connect 2 0 3 0;
#X connect 2 0 4 0;
#X connect 2 0 5 0;
#X restore 12 9 pd init;
#X restore 72 8 pd presets;
#N canvas 1002 574 235 130 triggerOrder 0;
#X obj 54 23 r \$0_trigger;
#X obj 44 94 s \$0_EnvTrigger;
#X obj 79 68 s \$0_PhaseTrigger;
#X obj 52 45 t b b;
#X connect 0 0 3 0;
#X connect 3 0 1 0;
#X connect 3 1 2 0;
#X restore 142 9 pd triggerOrder;
#X connect 2 0 0 0;
#X restore 576 440 pd ModSynth;
#X obj 303 5 hsl 128 15 0 127 0 0 \$0_volumeX \$0_volumeR volume 10
8 0 10 -262144 -1 -1 11100 1;
#X obj 67 276 hsl 128 17 0 127 0 0 \$0_PMamtX empty PM_amt 10 9 0 10
-262144 -1 -1 1800 1;
#X obj 202 276 hradio 15 1 0 3 \$0_PMamtmulti empty empty 0 -8 0 10
-262144 -1 -1 0;
#X obj 147 232 nbx 6 14 -1e+37 1e+37 0 0 \$0_NoThInG \$0_PMamtnum amt
20 -6 0 10 -262144 -1 -1 7.38189 256;
#X obj 22 265 vradio 15 1 0 5 \$0_PMratio \$0_PMratioR ratio -5 -8
0 10 -262144 -1 -1 1;
#X obj 10 344 nbx 4 14 -1e+37 1e+37 0 0 \$0_NoThInG \$0_PMmultinum
empty 0 -8 0 10 -262144 -1 -1 0.5 256;
#X obj 202 254 hradio 15 1 0 3 \$0_PMfreqoffsetmulti empty empty 0
-8 0 10 -262144 -1 -1 0;
#X obj 57 232 nbx 6 14 -1e+37 1e+37 0 0 \$0_NoThInG \$0_PMfreqnum freq
16 -6 0 10 -262144 -1 -1 252.5 256;
#X obj 67 299 hsl 128 17 0 127 0 0 \$0_PMamtkbt empty PM_amt_kbt 10
9 0 10 -262144 -1 -1 1500 1;
#X obj 202 301 hradio 15 1 0 3 \$0_PMamtkbtmulti empty empty 0 -8 0
10 -262144 -1 -1 1;
#X obj 64 254 r \$0_PMoffsettomid;
#X obj 67 253 hsl 128 17 0 127 0 0 \$0_PMfreqoffset empty PM_freq_offset
10 9 0 10 -262144 -1 -1 6350 1;
#X obj 125 238 bng 15 250 50 0 \$0_PMfreqoffsetreset empty empty 17
7 0 10 -262144 -1 -1;
#X obj 20 447 vradio 15 1 0 5 \$0_AMratio \$0_AMratioR ratio -5 -8
0 10 -262144 -1 -1 0;
#X obj 9 526 nbx 4 14 -1e+37 1e+37 0 0 \$0_NoThInG \$0_AMmultinum empty
0 -8 0 10 -262144 -1 -1 0.25 256;
#X obj 72 460 hsl 128 17 0 127 0 0 \$0_AMamtX empty AM_amt 10 9 0 10
-262144 -1 -1 12000 1;
#X obj 152 419 nbx 6 14 -1e+37 1e+37 0 0 \$0_NoThInG \$0_AMamtnum amt
20 -6 0 10 -262144 -1 -1 200 256;
#X obj 207 438 hradio 15 1 0 3 \$0_AMfreqoffsetmulti empty empty 0
-8 0 10 -262144 -1 -1 0;
#X obj 62 418 nbx 6 14 -1e+37 1e+37 0 0 \$0_NoThInG \$0_AMfreqnum freq
16 -6 0 10 -262144 -1 -1 126.25 256;
#X obj 72 485 hsl 128 17 0 127 0 0 \$0_AMamtkbt empty AM_amt_kbt 10
9 0 10 -262144 -1 -1 5900 1;
#X obj 130 422 bng 15 250 50 0 \$0_AMfreqoffsetreset empty empty 17
7 0 10 -262144 -1 -1;
#X obj 69 437 r \$0_AMoffsettomid;
#X obj 72 437 hsl 128 17 0 127 0 0 \$0_AMfreqoffset empty AM_freq_offset
10 9 0 10 -262144 -1 -1 6350 1;
#N canvas 386 151 107 287 CPU 0;
#X obj 15 164 cputime;
#X obj 15 24 loadbang;
#X obj 15 108 metro 1000;
#X obj 15 136 t b b;
#X obj 15 224 * 0.1;
#X obj 15 193 int;
#X obj 17 251 outlet;
#X obj 33 69 bng 15 250 50 0 empty empty empty 17 7 0 10 -262144 -1
-1;
#X connect 0 0 5 0;
#X connect 1 0 2 0;
#X connect 2 0 3 0;
#X connect 3 0 0 0;
#X connect 3 1 0 1;
#X connect 4 0 6 0;
#X connect 5 0 4 0;
#X connect 7 0 2 0;
#X restore 9 5 pd CPU;
#X floatatom 9 27 5 0 0 0 - - -;
#X obj 67 105 hsl 128 17 0 127 0 0 \$0_FMamtX empty FM_amt 10 9 0 10
-262144 -1 -1 12700 1;
#X obj 203 105 hradio 15 1 0 3 \$0_FMamtmulti empty empty 0 -8 0 10
-262144 -1 -1 2;
#X obj 149 60 nbx 6 14 -1e+37 1e+37 0 0 \$0_NoThInG \$0_FMamtnum amt
20 -6 0 10 -262144 -1 -1 15050 256;
#X obj 20 96 vradio 15 1 0 5 \$0_FMratio \$0_FMratioR ratio -5 -8 0
10 -262144 -1 -1 0;
#X obj 8 175 nbx 4 14 -1e+37 1e+37 0 0 \$0_NoThInG \$0_FMmultinum empty
0 -8 0 10 -262144 -1 -1 0.25 256;
#X obj 203 83 hradio 15 1 0 3 \$0_FMfreqoffsetmulti empty empty 0 -8
0 10 -262144 -1 -1 0;
#X obj 58 59 nbx 6 14 -1e+37 1e+37 0 0 \$0_NoThInG \$0_FMfreqnum freq
16 -6 0 10 -262144 -1 -1 126.25 256;
#X obj 67 129 hsl 128 17 0 127 0 0 \$0_FMamtkbt empty FM_amt_kbt 10
9 0 10 -262144 -1 -1 12700 1;
#X obj 203 130 hradio 15 1 0 3 \$0_FMamtkbtmulti empty empty 0 -8 0
10 -262144 -1 -1 2;
#X obj 126 66 bng 15 250 50 0 \$0_FMfreqoffsetreset empty empty 17
7 0 10 -262144 -1 -1;
#X obj 65 83 r \$0_FMoffsettomid;
#X obj 68 83 hsl 128 17 0 127 0 0 \$0_FMfreqoffset empty FM_freq_offset
10 9 0 10 -262144 -1 -1 6350 1;
#X obj 398 87 hsl 128 15 1 128 1 0 \$0_filtercutoffX \$0_filtercutoffR
cutoff 10 8 0 10 -262144 -1 -1 7900 1;
#X obj 398 108 hsl 128 15 0 127 0 0 \$0_filterkbt empty kbt 10 8 0
10 -262144 -1 -1 12700 1;
#X obj 398 129 hsl 128 15 0 127 0 0 \$0_filterqX empty resonance 10
8 0 10 -262144 -1 -1 4000 1;
#X obj 535 87 nbx 5 14 -1e+37 1e+37 0 0 \$0_NoThInG \$0_filtercutoffnum
empty 0 -8 0 10 -262144 -1 -1 3568.67 256;
#X obj 340 668 s \$0_freq;
#X floatatom 338 624 5 0 0 0 - - -;
#X obj 428 667 s \$0_trigger;
#X obj 364 531 bng 15 250 50 0 empty empty empty 17 7 0 10 -262144
-1 -1;
#X obj 395 364 hsl 128 15 0 127 0 0 \$0_ampenvattX empty attack 10
8 0 10 -262144 -1 -1 600 1;
#X obj 395 383 hsl 128 15 0 127 0 0 \$0_ampenvdcyX empty decay 10 8
0 10 -262144 -1 -1 2800 1;
#X obj 395 403 hsl 128 15 0 127 0 0 \$0_ampenvsustX \$0_AmpEnvST sustain_time
10 8 0 10 -262144 -1 -1 0 1;
#X obj 395 423 hsl 128 15 0 127 0 0 \$0_ampenvsuslX \$0_AmpEnvSL sustain_level
10 8 0 10 -262144 -1 -1 0 1;
#X obj 395 442 hsl 128 15 0 127 0 0 \$0_ampenvrelX empty release 10
8 0 10 -262144 -1 -1 0 1;
#X obj 397 215 hsl 128 15 0 127 0 0 \$0_filtenvattX empty attack 10
8 0 10 -262144 -1 -1 0 1;
#X obj 397 234 hsl 128 15 0 127 0 0 \$0_filtenvdcyX empty decay 10
8 0 10 -262144 -1 -1 3200 1;
#X obj 397 254 hsl 128 15 0 127 0 0 \$0_filtenvsustX \$0_FiltEnvST
sustain_time 10 8 0 10 -262144 -1 -1 0 1;
#X obj 397 274 hsl 128 15 0 127 0 0 \$0_filtenvsuslX \$0_FiltEnvSL
sustain_level 10 8 0 10 -262144 -1 -1 0 1;
#X obj 397 293 hsl 128 15 0 127 0 0 \$0_filtenvrelX empty release 10
8 0 10 -262144 -1 -1 0 1;
#X obj 67 155 hsl 128 15 0 127 0 0 \$0_FMphaseX empty FM_phase 10 9
0 10 -262144 -1 -1 7600 1;
#X obj 67 323 hsl 128 15 0 127 0 0 \$0_PMphaseX empty PM_phase 10 9
0 10 -262144 -1 -1 0 1;
#X obj 71 507 hsl 128 15 0 127 0 0 \$0_AMphaseX empty AM_phase 10 9
0 10 -262144 -1 -1 0 1;
#X obj 450 5 tgl 15 0 \$0_carrier_phase_retrigger empty carrier_phase_retrigger
17 7 0 10 -262144 -1 -1 1 1;
#X obj 453 27 hsl 128 15 0 127 0 0 \$0_CarrierPhaseX empty carrier_phase
10 9 0 10 -262144 -1 -1 10000 1;
#X obj 203 155 tgl 15 0 \$0_FM_phase_retrigger empty retrig 17 7 0
10 -262144 -1 -1 1 1;
#X obj 210 508 tgl 15 0 \$0_AM_phase_retrigger empty retrig 17 7 0
10 -262144 -1 -1 1 1;
#X obj 202 323 tgl 15 0 \$0_PM_phase_retrigger empty retrig 17 7 0
10 -262144 -1 -1 1 1;
#X obj 67 177 hsl 128 15 0 127 0 0 \$0_FMsmoothTimeX empty FM_smooth_time
10 9 0 10 -262144 -1 -1 0 1;
#X floatatom 431 633 5 0 0 0 - - -;
#X msg 390 523 stop;
#X obj 66 345 hsl 128 15 0 127 0 0 \$0_PMsmoothTimeX empty PM_smooth_time
10 9 0 10 -262144 -1 -1 0 1;
#X obj 71 529 hsl 128 15 0 127 0 0 \$0_AMsmoothTimeX empty AM_smooth_time
10 9 0 10 -262144 -1 -1 0 1;
#X obj 364 572 metro 500;
#X obj 406 603 delay 200;
#X floatatom 498 635 5 0 0 0 - - -;
#X obj 473 605 delay 260;
#X floatatom 433 540 5 0 0 0 - - -;
#X floatatom 448 573 5 0 0 0 - - -;
#X floatatom 507 572 5 0 0 0 - - -;
#X floatatom 576 633 5 0 0 0 - - -;
#X obj 551 603 delay 260;
#X floatatom 585 570 5 0 0 0 - - -;
#X connect 11 0 12 0;
#X connect 22 0 23 0;
#X connect 24 0 25 0;
#X connect 36 0 37 0;
#X connect 43 0 42 0;
#X connect 45 0 69 0;
#X connect 65 0 42 0;
#X connect 66 0 69 0;
#X connect 69 0 43 0;
#X connect 69 0 44 0;
#X connect 69 0 70 0;
#X connect 69 0 72 0;
#X connect 69 0 77 0;
#X connect 70 0 65 0;
#X connect 70 0 44 0;
#X connect 71 0 42 0;
#X connect 72 0 71 0;
#X connect 72 0 44 0;
#X connect 73 0 69 1;
#X connect 74 0 70 1;
#X connect 75 0 72 1;
#X connect 76 0 42 0;
#X connect 77 0 76 0;
#X connect 77 0 44 0;
#X connect 78 0 77 1;
