#N canvas 296 28 450 300 10;
#N canvas 755 26 450 300 ModSynth 1;
#N canvas 773 244 189 205 osc 0;
#X obj 21 55 phasor~;
#X obj 50 86 +~;
#X obj 50 114 cos~;
#X obj 50 154 outlet~;
#X obj 86 55 inlet~ phasemod;
#X obj 20 19 inlet~ freq;
#X connect 0 0 1 0;
#X connect 1 0 2 0;
#X connect 2 0 3 0;
#X connect 4 0 1 1;
#X connect 5 0 0 0;
#X restore 184 81 pd osc;
#N canvas 1144 426 155 221 PM 0;
#X obj 31 77 osc~;
#X obj 42 116 *~;
#X obj 43 180 outlet~;
#X obj 74 75 r~ \$0_PMamt;
#X obj 29 29 r~ \$0_PMfreq;
#X connect 0 0 1 0;
#X connect 1 0 2 0;
#X connect 3 0 1 1;
#X connect 4 0 0 0;
#X restore 216 53 pd PM;
#N canvas 720 391 182 197 FM 0;
#X obj 107 46 r \$0_freq;
#X obj 17 15 r \$0_FMfreq;
#X obj 98 14 r \$0_FMamt;
#X obj 17 41 osc~;
#X obj 45 81 *~;
#X obj 55 121 +~;
#X obj 54 152 outlet~;
#X connect 0 0 5 1;
#X connect 1 0 3 0;
#X connect 2 0 4 1;
#X connect 3 0 4 0;
#X connect 4 0 5 0;
#X connect 5 0 6 0;
#X restore 178 53 pd FM;
#N canvas 786 383 236 264 AM 0;
#X obj 24 132 inlet~;
#X obj 83 12 r \$0_AMfreq;
#X obj 159 11 r \$0_AMamt;
#X obj 83 36 osc~;
#X obj 84 60 *~ 0.5;
#X obj 89 101 *~;
#X obj 89 130 +~ 0.5;
#X obj 34 191 *~;
#X obj 34 217 outlet~;
#X connect 0 0 7 0;
#X connect 1 0 3 0;
#X connect 2 0 5 1;
#X connect 3 0 4 0;
#X connect 4 0 5 0;
#X connect 5 0 6 0;
#X connect 6 0 7 1;
#X connect 7 0 8 0;
#X restore 184 105 pd AM;
#N canvas 779 359 202 204 Amp 0;
#X obj 47 23 inlet~;
#X obj 56 94 *~;
#X obj 55 148 dac~;
#X obj 104 42 r~ \$0_volume;
#X connect 0 0 1 0;
#X connect 1 0 2 0;
#X connect 1 0 2 1;
#X connect 3 0 1 1;
#X restore 183 136 pd Amp;
#X obj 294 125 moog~;
#N canvas 766 29 450 300 values 0;
#X obj 11 11 r \$0_volumeX;
#X obj 12 33 / 127;
#N canvas 763 354 450 300 smoother 0;
#X obj 194 81 inlet;
#X obj 197 165 outlet~;
#X obj 196 110 pack 0 50;
#X obj 196 137 line~;
#X connect 0 0 2 0;
#X connect 2 0 3 0;
#X connect 3 0 1 0;
#X restore 12 57 pd smoother;
#X obj 12 77 s~ \$0_volume;
#N canvas 753 78 445 253 PMvals 1;
#X obj 290 9 r \$0_PMamtX;
#X obj 290 35 expr ($f1 / 127) * 10;
#N canvas 763 354 450 300 smoother 0;
#X obj 194 81 inlet;
#X obj 197 165 outlet~;
#X obj 196 137 line~;
#X obj 196 108 pack 0 100;
#X connect 0 0 3 0;
#X connect 2 0 1 0;
#X connect 3 0 2 0;
#X restore 289 185 pd smoother;
#X obj 289 209 s~ \$0_PMamt;
#X obj 289 139 * 1;
#X obj 306 97 t b f;
#X obj 302 165 s \$0_PMamtnum;
#N canvas 400 263 157 214 PMamtmulti 0;
#X obj 19 13 r \$0_PMamtmulti;
#X obj 19 40 + 1;
#X obj 18 150 outlet;
#X obj 19 126 switch 3;
#X obj 19 63 t b f;
#X msg 31 92 1;
#X msg 65 92 10;
#X msg 100 92 100;
#X connect 0 0 1 0;
#X connect 1 0 4 0;
#X connect 3 0 2 0;
#X connect 4 0 5 0;
#X connect 4 0 6 0;
#X connect 4 0 7 0;
#X connect 4 1 3 0;
#X connect 5 0 3 1;
#X connect 6 0 3 2;
#X connect 7 0 3 3;
#X restore 305 62 pd PMamtmulti;
#X obj 21 14 r \$0_freq;
#N canvas 780 364 207 263 PMratio 0;
#X obj 44 198 outlet;
#X obj 53 21 r \$0_PMratio;
#X obj 53 44 + 1;
#X obj 43 163 switch 5;
#X obj 52 70 t b f;
#X msg 33 111 0.25;
#X msg 70 111 0.5;
#X msg 101 111 1;
#X msg 132 111 2;
#X msg 163 112 4;
#X obj 94 199 s \$0_PMmultinum;
#X connect 1 0 2 0;
#X connect 2 0 4 0;
#X connect 3 0 0 0;
#X connect 3 0 10 0;
#X connect 4 0 5 0;
#X connect 4 0 6 0;
#X connect 4 0 7 0;
#X connect 4 0 8 0;
#X connect 4 0 9 0;
#X connect 4 1 3 0;
#X connect 5 0 3 1;
#X connect 6 0 3 2;
#X connect 7 0 3 3;
#X connect 8 0 3 4;
#X connect 9 0 3 5;
#X restore 87 14 pd PMratio;
#X obj 49 45 t b f;
#X obj 35 78 * 1;
#X obj 93 126 + 0;
#X obj 141 65 t b f;
#X obj 69 175 s~ \$0_PMfreq;
#N canvas 763 354 450 300 smoother 0;
#X obj 194 81 inlet;
#X obj 197 165 outlet~;
#X obj 196 110 pack 0 50;
#X obj 196 137 line~;
#X connect 0 0 2 0;
#X connect 2 0 3 0;
#X connect 3 0 1 0;
#X restore 69 154 pd smoother;
#N canvas 676 378 259 213 PMfreqoffset 1;
#X obj 53 169 outlet;
#X obj 23 14 r \$0_PMfreqoffset;
#X obj 24 37 / 127;
#X obj 25 61 * 2;
#X obj 26 84 - 1;
#N canvas 786 34 193 218 PMfreqoffsetmulti 0;
#X obj 43 184 outlet;
#X obj 33 24 r \$0_PMfreqoffsetmulti;
#X obj 42 147 switch 3;
#X obj 30 74 t b f;
#X msg 45 110 1;
#X msg 78 113 10;
#X msg 116 115 100;
#X obj 31 51 + 1;
#X connect 1 0 7 0;
#X connect 2 0 0 0;
#X connect 3 0 4 0;
#X connect 3 0 5 0;
#X connect 3 0 6 0;
#X connect 3 1 2 0;
#X connect 4 0 2 1;
#X connect 5 0 2 2;
#X connect 6 0 2 3;
#X connect 7 0 3 0;
#X restore 73 63 pd PMfreqoffsetmulti;
#X obj 55 136 *;
#X obj 71 101 t b f;
#X obj 117 90 r \$0_PMfreqoffsetreset;
#X msg 117 125 0;
#X connect 1 0 2 0;
#X connect 2 0 3 0;
#X connect 3 0 4 0;
#X connect 4 0 6 0;
#X connect 5 0 7 0;
#X connect 6 0 0 0;
#X connect 7 0 6 0;
#X connect 7 1 6 1;
#X connect 8 0 9 0;
#X connect 9 0 0 0;
#X restore 162 16 pd PMfreqoffset;
#X obj 153 155 s \$0_PMfreqnum;
#X connect 0 0 1 0;
#X connect 1 0 4 0;
#X connect 2 0 3 0;
#X connect 4 0 2 0;
#X connect 4 0 6 0;
#X connect 5 0 4 0;
#X connect 5 1 4 1;
#X connect 7 0 5 0;
#X connect 8 0 11 0;
#X connect 9 0 10 0;
#X connect 10 0 11 0;
#X connect 10 1 11 1;
#X connect 11 0 12 0;
#X connect 12 0 15 0;
#X connect 12 0 17 0;
#X connect 13 0 12 0;
#X connect 13 1 12 1;
#X connect 15 0 14 0;
#X connect 16 0 13 0;
#X restore 13 100 pd PMvals;
#X connect 0 0 1 0;
#X connect 1 0 2 0;
#X connect 2 0 3 0;
#X restore 11 8 pd values;
#X connect 0 0 3 0;
#X connect 1 0 0 1;
#X connect 2 0 0 0;
#X connect 3 0 4 0;
#X restore 192 275 pd ModSynth;
#X obj 303 5 hsl 128 15 0 127 0 0 \$0_volumeX empty volume 10 8 0 10
-262144 -1 -1 1000 1;
#X floatatom 38 25 5 0 0 0 freq - #0_freq;
#X floatatom 39 58 5 0 0 0 - - #0_FMfreq;
#X floatatom 78 56 5 0 0 0 - - #0_FMamt;
#X floatatom 40 84 5 0 0 0 - - #0_AMfreq;
#X floatatom 80 83 5 0 0 0 - - #0_AMamt;
#X obj 61 170 hsl 128 15 0 127 0 0 \$0_PMamtX empty PM_amt 10 8 0 10
-262144 -1 -1 1100 1;
#X obj 197 170 hradio 15 1 0 3 \$0_PMamtmulti empty empty 0 -8 0 10
-262144 -1 -1 0;
#X obj 250 170 nbx 6 14 -1e+37 1e+37 0 0 \$0_NoThInG \$0_PMamtnum empty
0 -8 0 10 -262144 -1 -1 0.866142 256;
#X obj 32 155 vradio 15 1 0 5 \$0_PMratio empty ratio 0 -8 0 10 -262144
-1 -1 1;
#X obj 20 234 nbx 4 14 -1e+37 1e+37 0 0 \$0_NoThInG \$0_PMmultinum
empty 0 -8 0 10 -262144 -1 -1 0.5 256;
#X obj 61 192 hsl 128 15 0 127 0 0 \$0_PMfreqoffset empty PM_freq_offset
10 8 0 10 -262144 -1 -1 6800 1;
#X obj 197 192 hradio 15 1 0 3 \$0_PMfreqoffsetmulti empty empty 0
-8 0 10 -262144 -1 -1 0;
#X obj 248 194 nbx 6 14 -1e+37 1e+37 0 0 \$0_NoThInG \$0_PMfreqnum
empty 0 -8 0 10 -262144 -1 -1 50.0709 256;
#X obj 119 208 bng 15 250 50 0 \$0_PMfreqoffsetreset empty empty 17
7 0 10 -262144 -1 -1;
