#N canvas 280 130 210 151 10;
#N canvas 704 58 897 756 waves12 1;
#N canvas 0 22 450 278 (subpatch) 0;
#X array \$0_wave50 50 float 4;
#X coords 0 1 49 -1 200 140 1;
#X restore 32 109 graph;
#N canvas 0 22 450 278 (subpatch) 0;
#X array \$0_wave100 100 float 4;
#X coords 0 1 99 -1 200 140 1;
#X restore 243 109 graph;
#N canvas 0 22 450 278 (subpatch) 0;
#X array \$0_wave400 400 float 4;
#X coords 0 1 399 -1 200 140 1 0 0;
#X restore 666 110 graph;
#N canvas 0 22 450 278 (subpatch) 0;
#X array \$0_wave200 200 float 4;
#X coords 0 1 199 -1 200 140 1;
#X restore 455 109 graph;
#X obj 419 22 bng 50 250 50 0 \$0_wave_bang empty empty 17 7 0 10 -261234
-86277 -1;
#N canvas 0 22 450 278 (subpatch) 0;
#X array \$0_wave800 800 float 4;
#X coords 0 1 799 -1 200 140 1 0 0;
#X restore 32 270 graph;
#N canvas 0 22 450 278 (subpatch) 0;
#X array \$0_wave1200 1200 float 4;
#X coords 0 1 1199 -1 200 140 1;
#X restore 243 270 graph;
#N canvas 0 22 450 278 (subpatch) 0;
#X array \$0_wave4800 4800 float 4;
#X coords 0 1 4799 -1 200 140 1;
#X restore 666 271 graph;
#N canvas 0 22 450 278 (subpatch) 0;
#X array \$0_wave2400 2400 float 4;
#X coords 0 1 2399 -1 200 140 1;
#X restore 455 270 graph;
#N canvas 0 22 450 278 (subpatch) 0;
#X array \$0_wave6000 6000 float 4;
#X coords 0 1 5999 -1 200 140 1;
#X restore 32 430 graph;
#N canvas 0 22 450 278 (subpatch) 0;
#X array \$0_wave10000 10000 float 4;
#X coords 0 1 9999 -1 200 140 1;
#X restore 243 430 graph;
#N canvas 0 22 450 278 (subpatch) 0;
#X array \$0_wave15000 15000 float 4;
#X coords 0 1 14999 -1 200 140 1;
#X restore 666 431 graph;
#N canvas 0 22 450 278 (subpatch) 0;
#X array \$0_wave12000 12000 float 4;
#X coords 0 1 11999 -1 200 140 1;
#X restore 455 430 graph;
#N canvas 0 22 450 278 (subpatch) 0;
#X array \$0_wave17000 17000 float 4;
#X coords 0 1 16999 -1 200 140 1;
#X restore 32 589 graph;
#N canvas 0 22 450 278 (subpatch) 0;
#X array \$0_wave19000 19000 float 4;
#X coords 0 1 18999 -1 200 140 1;
#X restore 243 589 graph;
#N canvas 0 22 450 278 (subpatch) 0;
#X array \$0_wave44000 44000 float 4;
#X coords 0 1 43999 -1 200 140 1;
#X restore 666 590 graph;
#N canvas 0 22 450 278 (subpatch) 0;
#X array \$0_wave22000 22000 float 4;
#X coords 0 1 21999 -1 200 140 1;
#X restore 455 589 graph;
#N canvas 130 210 576 202 table_sends 0;
#X obj -9 66 tabwrite~ \$0_wave50;
#X obj 114 66 tabwrite~ \$0_wave100;
#X obj 244 67 tabwrite~ \$0_wave200;
#X obj 376 67 tabwrite~ \$0_wave400;
#X obj -8 92 tabwrite~ \$0_wave800;
#X obj 120 92 tabwrite~ \$0_wave1200;
#X obj 254 92 tabwrite~ \$0_wave2400;
#X obj 389 92 tabwrite~ \$0_wave4800;
#X obj -9 118 tabwrite~ \$0_wave6000;
#X obj 126 118 tabwrite~ \$0_wave10000;
#X obj 270 118 tabwrite~ \$0_wave12000;
#X obj 413 117 tabwrite~ \$0_wave15000;
#X obj -7 145 tabwrite~ \$0_wave17000;
#X obj 135 145 tabwrite~ \$0_wave19000;
#X obj 276 143 tabwrite~ \$0_wave22000;
#X obj 418 143 tabwrite~ \$0_wave44000;
#X obj 157 18 r \$0_wave_bang;
#X obj 12 16 inlet~;
#X connect 16 0 0 0;
#X connect 16 0 1 0;
#X connect 16 0 2 0;
#X connect 16 0 3 0;
#X connect 16 0 4 0;
#X connect 16 0 5 0;
#X connect 16 0 6 0;
#X connect 16 0 7 0;
#X connect 16 0 8 0;
#X connect 16 0 9 0;
#X connect 16 0 10 0;
#X connect 16 0 11 0;
#X connect 16 0 12 0;
#X connect 16 0 13 0;
#X connect 16 0 14 0;
#X connect 16 0 15 0;
#X connect 17 0 0 0;
#X connect 17 0 1 0;
#X connect 17 0 2 0;
#X connect 17 0 4 0;
#X connect 17 0 8 0;
#X connect 17 0 12 0;
#X connect 17 0 5 0;
#X connect 17 0 9 0;
#X connect 17 0 13 0;
#X connect 17 0 6 0;
#X connect 17 0 10 0;
#X connect 17 0 14 0;
#X connect 17 0 7 0;
#X connect 17 0 11 0;
#X connect 17 0 15 0;
#X restore 68 53 pd table_sends;
#X obj 68 29 inlet~;
#X connect 18 0 17 0;
#X restore 70 75 pd waves12;
#X text 61 24 Inlet: Audio;
#X text 49 43 (waveforms inside);
