#N canvas 345 86 450 300 10;
#X text 78 53 Inlet 1: Trigger bang;
#X text 78 68 Inlet 2: Attack time in ms;
#X text 78 83 Inlet 3: Decay time in ms;
#X text 79 98 Outlet: AD envelope;
#X text 78 190 This implementation has;
#X text 79 207 quartive decay (curved envelope).;
#X text 80 226 See Designing Sound p 210;
#N canvas 215 262 326 282 ADqua 0;
#X obj 37 47 inlet trigger;
#X obj 110 221 outlet~;
#X obj 110 145 vline~;
#X msg 110 121 1 \$2 \, 0 \$3 \$2;
#X obj 110 99 pack f f f;
#X obj 133 47 inlet attack;
#X obj 230 49 inlet decay;
#X obj 110 171 *~;
#X obj 110 196 *~;
#X connect 0 0 4 0;
#X connect 2 0 7 0;
#X connect 2 0 7 1;
#X connect 3 0 2 0;
#X connect 4 0 3 0;
#X connect 5 0 4 1;
#X connect 6 0 4 2;
#X connect 7 0 8 0;
#X connect 7 0 8 1;
#X connect 8 0 1 0;
#X restore 188 146 pd ADqua;
