#N canvas 653 227 527 496 10;
#N canvas 567 183 458 495 ADSR 1;
#X obj 77 142 pack f f f f;
#X msg 78 172 1 \$2 \, \$4 \$3 \$2;
#X obj 129 211 vline~;
#X obj 131 271 outlet~;
#X obj 142 54 inlet trigger;
#X obj -59 22 inlet a;
#X obj -11 23 inlet d;
#X obj 35 22 inlet s;
#X obj 83 22 inlet r;
#X obj 260 53 inlet velocity;
#X obj 212 103 sel 0;
#X obj 181 140 pack f f;
#X msg 180 173 0 \$2;
#X text 264 18 second outlet from notein here;
#X text 144 22 first outlet from notein here;
#X connect 0 0 1 0;
#X connect 1 0 2 0;
#X connect 2 0 3 0;
#X connect 4 0 0 0;
#X connect 5 0 0 1;
#X connect 6 0 0 2;
#X connect 7 0 0 3;
#X connect 8 0 11 1;
#X connect 9 0 10 0;
#X connect 10 0 11 0;
#X connect 11 0 12 0;
#X connect 12 0 2 1;
#X restore 223 157 pd ADSR;
