#N canvas 408 151 450 300 10;
#N canvas 665 260 452 291 ADSR2 0;
#X obj 78 200 vline~;
#X obj 78 226 outlet~;
#X obj -12 74 inlet trigger;
#X obj 73 39 inlet a;
#X obj 128 40 inlet d;
#X obj 187 40 inlet s;
#X obj 311 40 inlet r;
#X obj 245 41 inlet st;
#X obj 77 142 pack f f f f f f;
#X msg 78 172 1 \$2 \, \$4 \$3 \$2 \, 0 \$6 \$5;
#N canvas 705 320 449 277 adst 0;
#X obj 89 45 inlet a;
#X obj 155 46 inlet d;
#X obj 215 46 inlet st;
#X obj 142 111 expr $f1+$f2+$f3;
#X obj 155 70 t b f;
#X obj 215 69 t b f;
#X obj 141 141 outlet result;
#X text 78 178 sum of attack \, decay \, and sustain time;
#X text 78 195 used for the third initial delay value;
#X text 56 213 (decay triggers after attack \, decay \, and sustain
time);
#X connect 0 0 3 0;
#X connect 1 0 4 0;
#X connect 2 0 5 0;
#X connect 3 0 6 0;
#X connect 4 0 3 0;
#X connect 4 1 3 1;
#X connect 5 0 3 0;
#X connect 5 1 3 2;
#X restore 186 90 pd adst;
#X connect 0 0 1 0;
#X connect 2 0 8 0;
#X connect 3 0 8 1;
#X connect 3 0 10 0;
#X connect 4 0 8 2;
#X connect 4 0 10 1;
#X connect 5 0 8 3;
#X connect 6 0 8 5;
#X connect 7 0 10 2;
#X connect 8 0 9 0;
#X connect 9 0 0 0;
#X connect 10 0 8 4;
#X restore 183 156 pd ADSR2;
#X text 18 18 Inlets:;
#X text 18 33 1: Trigger (bang);
#X text 18 48 2: Attack (ms);
#X text 18 63 3: Decay (ms);
#X text 18 78 4: Sustain (0 - 1);
#X text 17 92 5: Sustain Time (ms);
#X text 17 107 6: Release (ms);
