#N canvas 539 76 625 596 10;
#X floatatom 224 308 5 0 0 0 - - -;
#X obj 224 265 line;
#X obj 239 506 dac~;
#X obj 342 -9 bng 15 150 50 0 empty empty start/stop -21 -7 0 10 -4034
-1 -1;
#X obj 576 -7 vsl 15 128 0 0.8 0 0 empty empty volume 0 -9 0 10 -262144
-1 -1 5200 1;
#X obj 239 460 *~;
#X msg 78 185 set 0;
#X obj 84 108 tgl 15 0 empty empty empty 17 7 0 10 -262144 -1 -1 0
1;
#X floatatom 39 153 5 0 0 0 - - -;
#X obj 79 152 sel 0;
#X obj 115 152 sel 1;
#X obj 404 246 *;
#X obj 27 318 spigot;
#X obj 60 251 expr 1 - $f1;
#X floatatom 64 289 5 0 0 0 - - -;
#X obj 238 421 osc~;
#X obj 223 339 osc~;
#X obj 272 363 *~;
#X floatatom 402 -8 5 0 0 2 mod_amount - -;
#X floatatom 483 -8 5 0 0 2 carrier_freq - -;
#X obj 218 390 +~;
#X msg 221 218 \$1 \, \$2 \$3;
#X msg 152 21 0 200 120000;
#X text 137 -17 from - to - time (edit in edit mode);
#X connect 0 0 16 0;
#X connect 1 0 0 0;
#X connect 3 0 7 0;
#X connect 3 0 11 0;
#X connect 4 0 11 0;
#X connect 5 0 2 0;
#X connect 5 0 2 1;
#X connect 6 0 1 0;
#X connect 7 0 8 0;
#X connect 7 0 9 0;
#X connect 7 0 10 0;
#X connect 8 0 12 0;
#X connect 8 0 13 0;
#X connect 8 0 11 1;
#X connect 9 0 6 0;
#X connect 10 0 22 0;
#X connect 11 0 5 1;
#X connect 12 0 5 0;
#X connect 13 0 14 0;
#X connect 14 0 12 1;
#X connect 15 0 5 0;
#X connect 16 0 17 0;
#X connect 17 0 20 1;
#X connect 18 0 17 1;
#X connect 19 0 20 0;
#X connect 20 0 15 0;
#X connect 21 0 1 0;
#X connect 22 0 21 0;
