#N canvas 277 153 481 331 10;
#X obj 52 106 osc~;
#X obj 91 289 dac~;
#X floatatom 52 76 5 0 0 0 - - -;
#X obj 141 89 osc~;
#X obj 141 112 *~ 0.5;
#X text 108 46 amplitude modulator;
#X floatatom 142 65 5 0 0 0 - - -;
#X text 45 54 carrier;
#X obj 265 83 hsl 128 15 0 1 0 0 empty empty empty -2 -8 0 10 -262144
-1 -1 12700 1;
#X text 266 66 AM amount range 0 to 1;
#X obj 102 201 *~;
#X obj 140 140 *~ 0;
#X obj 141 166 +~ 0.5;
#X obj 265 179 hsl 128 15 0 1 0 0 empty empty empty -2 -8 0 10 -262144
-1 -1 1400 1;
#X text 263 160 volume;
#X obj 102 228 *~;
#X connect 0 0 10 0;
#X connect 2 0 0 0;
#X connect 3 0 4 0;
#X connect 4 0 11 0;
#X connect 6 0 3 0;
#X connect 8 0 11 1;
#X connect 10 0 15 0;
#X connect 11 0 12 0;
#X connect 12 0 10 1;
#X connect 13 0 15 1;
#X connect 15 0 1 0;
#X connect 15 0 1 1;
