#N canvas 229 270 237 322 10;
#N canvas 226 164 393 462 Wat 0;
#X obj 95 341 dac~;
#X obj 41 89 osc~;
#X obj 125 82 osc~;
#X obj 42 114 expr~ $v1 > $v2;
#N canvas 763 354 450 300 smoother 0;
#X obj 194 81 inlet;
#X obj 197 165 outlet~;
#X obj 196 110 pack 0 50;
#X obj 196 137 line~;
#X connect 0 0 2 0;
#X connect 2 0 3 0;
#X connect 3 0 1 0;
#X restore 36 25 pd smoother;
#N canvas 763 354 450 300 smoother 0;
#X obj 194 81 inlet;
#X obj 197 165 outlet~;
#X obj 196 110 pack 0 50;
#X obj 196 137 line~;
#X connect 0 0 2 0;
#X connect 2 0 3 0;
#X connect 3 0 1 0;
#X restore 124 27 pd smoother;
#X obj 100 294 *~;
#N canvas 763 354 450 300 smoother 0;
#X obj 194 81 inlet;
#X obj 197 165 outlet~;
#X obj 196 110 pack 0 50;
#X obj 196 137 line~;
#X connect 0 0 2 0;
#X connect 2 0 3 0;
#X connect 3 0 1 0;
#X restore 165 93 pd smoother;
#X obj 42 143 expr~ $v1 > $v2;
#X obj 165 114 osc~;
#X obj 43 168 hip~ 1;
#X text 88 169 remove dc offset;
#N canvas 763 354 450 300 smoother 0;
#X obj 194 81 inlet;
#X obj 197 165 outlet~;
#X obj 196 110 pack 0 50;
#X obj 196 137 line~;
#X connect 0 0 2 0;
#X connect 2 0 3 0;
#X connect 3 0 1 0;
#X restore 280 54 pd smoother;
#X obj 249 122 osc~;
#X obj 91 239 *~;
#X obj 250 143 *~ 0.5;
#X obj 260 171 *~ 0;
#X obj 260 196 +~ 0.5;
#N canvas 763 354 450 300 smoother 0;
#X obj 194 81 inlet;
#X obj 197 165 outlet~;
#X obj 196 110 pack 0 50;
#X obj 196 137 line~;
#X connect 0 0 2 0;
#X connect 2 0 3 0;
#X connect 3 0 1 0;
#X restore 184 -41 pd smoother;
#N canvas 763 354 450 300 smoother 0;
#X obj 194 81 inlet;
#X obj 197 165 outlet~;
#X obj 196 110 pack 0 50;
#X obj 196 137 line~;
#X connect 0 0 2 0;
#X connect 2 0 3 0;
#X connect 3 0 1 0;
#X restore 107 -71 pd smoother;
#X obj 107 -47 osc~;
#X obj 150 -20 *~;
#X obj 256 100 +~;
#X obj 125 61 +~;
#X obj 40 67 +~;
#X text 299 15 AM;
#X text 194 -89 FM;
#X obj 25 -5 r \$0_osc1_freq;
#X obj 123 6 r \$0_osc2_freq;
#X obj 165 73 r \$0_osc3_freq;
#X obj 115 266 r \$0_volume;
#X obj 280 32 r \$0_am_freq;
#X obj 302 141 r \$0_am_amt;
#X obj 106 -99 r \$0_fm_freq;
#X obj 184 -64 r \$0_fm_amt;
#N canvas 164 377 503 303 record 0;
#X obj 61 25 inlet~;
#X obj 204 42 t b b;
#X msg 197 78 start;
#X msg 316 46 stop;
#X msg 240 78 open -bytes 3 ./WatSound.wav;
#X obj 178 15 r \$0_start_recording;
#X obj 316 19 r \$0_stop_recording;
#X obj 146 168 writesf~;
#X connect 0 0 7 0;
#X connect 1 0 2 0;
#X connect 1 1 4 0;
#X connect 2 0 7 0;
#X connect 3 0 7 0;
#X connect 4 0 7 0;
#X connect 5 0 1 0;
#X connect 6 0 3 0;
#X restore 142 337 pd record;
#X obj 43 191 *~ 0.5;
#X connect 1 0 3 0;
#X connect 2 0 3 1;
#X connect 3 0 8 0;
#X connect 4 0 24 1;
#X connect 5 0 23 1;
#X connect 6 0 0 0;
#X connect 6 0 0 1;
#X connect 6 0 35 0;
#X connect 7 0 9 0;
#X connect 8 0 10 0;
#X connect 9 0 8 1;
#X connect 10 0 36 0;
#X connect 12 0 22 1;
#X connect 13 0 15 0;
#X connect 14 0 6 0;
#X connect 15 0 16 0;
#X connect 16 0 17 0;
#X connect 17 0 14 1;
#X connect 18 0 21 1;
#X connect 19 0 20 0;
#X connect 20 0 21 0;
#X connect 21 0 22 0;
#X connect 21 0 24 0;
#X connect 21 0 23 0;
#X connect 22 0 13 0;
#X connect 23 0 2 0;
#X connect 24 0 1 0;
#X connect 27 0 4 0;
#X connect 28 0 5 0;
#X connect 29 0 7 0;
#X connect 30 0 6 1;
#X connect 31 0 12 0;
#X connect 32 0 16 1;
#X connect 33 0 19 0;
#X connect 34 0 18 0;
#X connect 36 0 14 0;
#X restore 97 242 pd Wat;
#X obj 93 -32 hsl 50 15 0 1 0 0 \$0_volume empty volume 5 8 0 10 -262144
-1 -1 4900 1;
#X obj 18 -7 cnv 15 200 70 empty empty Oscillators 8 10 0 14 -261234
-86277 0;
#X floatatom 25 37 5 0 0 2 osc1_freq - #0_osc1_freq;
#X floatatom 93 37 5 0 0 2 osc2_freq - #0_osc2_freq;
#X floatatom 161 37 5 0 0 2 osc3_freq - #0_osc3_freq;
#X obj 19 69 cnv 15 200 45 empty empty FM 150 21 0 14 -203904 -16662
0;
#X floatatom 26 88 5 0 0 2 fm_freq - #0_fm_freq;
#X floatatom 96 87 5 0 5000 2 fm_amt - #0_fm_amt;
#X obj 19 119 cnv 15 200 45 empty empty AM 150 21 0 14 -204786 -13381
0;
#X floatatom 27 137 5 0 0 2 am_freq - #0_am_freq;
#X obj 92 132 hsl 50 15 0 1 0 0 \$0_am_amt empty am_amt 5 8 0 10 -262144
-1 -1 0 1;
#X obj 19 170 cnv 15 200 60 empty empty Record 75 40 0 14 -262130 -83269
0;
#X obj 51 176 bng 15 250 50 0 \$0_start_recording empty start 20 7
0 10 -204786 -4034 -1;
#X obj 148 176 bng 15 250 50 0 \$0_stop_recording empty stop 20 7 0
10 -261234 -258113 -1;
