#N canvas 176 266 450 300 10;
#N canvas 716 433 450 300 list-deletevalue 0;
#X obj 174 23 inlet list;
#X obj 68 25 inlet value;
#X obj 140 103 list-find;
#X obj 124 167 list-delete;
#X obj 57 79 list;
#X obj 191 126 t b;
#X obj 142 247 outlet;
#X text 267 54 First input the list;
#X text 265 72 Then the value to delete;
#X connect 0 0 2 1;
#X connect 0 0 4 1;
#X connect 1 0 2 0;
#X connect 2 0 3 1;
#X connect 2 1 5 0;
#X connect 3 0 6 0;
#X connect 4 0 3 0;
#X connect 5 0 4 0;
#X restore 167 139 pd list-deletevalue;
