#N canvas 176 266 363 252 10;
#N canvas 429 293 252 351 list-deletevalue 0;
#X obj -5 28 inlet list;
#X obj -111 30 inlet value;
#X obj -87 80 list-find;
#X obj -42 231 list-delete;
#X obj -20 190 list;
#X obj -101 318 outlet;
#X obj -22 111 limit 0 1;
#X obj -99 274 switch;
#X obj -23 135 + 1;
#X obj -23 160 t b f;
#X obj -2 55 list;
#X connect 0 0 10 0;
#X connect 1 0 2 0;
#X connect 2 0 3 1;
#X connect 2 1 6 0;
#X connect 3 0 7 2;
#X connect 4 0 3 0;
#X connect 4 0 7 1;
#X connect 6 0 8 0;
#X connect 7 0 5 0;
#X connect 7 0 10 0;
#X connect 8 0 9 0;
#X connect 9 0 4 0;
#X connect 9 1 7 0;
#X connect 10 0 4 1;
#X connect 10 0 2 1;
#X restore 81 123 pd list-deletevalue;
#X text -124 157 the value is not found;
#X text -121 33 Inlet 0: Value to delete;
#X text -122 51 Inlet 1: A list;
#X text -120 105 then the value to delete;
#X text -131 87 - First input the list \,;
#X text -137 142 - Outputs the complete list if;
#X text -132 193 - Stores the output list.;
