#N canvas 319 305 334 211 10;
#N canvas 702 317 210 352 list-deletevalue 1;
#X obj 14 27 inlet list;
#X obj -96 8 inlet value;
#X obj -68 79 list-find;
#X obj -23 230 list-delete;
#X obj -1 189 list;
#X obj -82 317 outlet;
#X obj -3 110 limit 0 1;
#X obj -80 273 switch;
#X obj -4 134 + 1;
#X obj -4 159 t b f;
#X obj 17 54 list;
#X obj -96 32 route bang;
#X msg -96 53 0;
#X connect 0 0 10 0;
#X connect 1 0 11 0;
#X connect 2 0 3 1;
#X connect 2 1 6 0;
#X connect 3 0 7 2;
#X connect 4 0 3 0;
#X connect 4 0 7 1;
#X connect 6 0 8 0;
#X connect 7 0 5 0;
#X connect 7 0 10 0;
#X connect 8 0 9 0;
#X connect 9 0 4 0;
#X connect 9 1 7 0;
#X connect 10 0 4 1;
#X connect 10 0 2 1;
#X connect 11 0 12 0;
#X connect 11 1 2 0;
#X connect 12 0 6 0;
#X restore -37 97 pd list-deletevalue;
#X text -114 149 the value is not found;
#X text -127 134 - Outputs the complete list if;
#X text -127 176 - Stores the output list.;
#X text -102 57 Inlet 1: a list.;
#X text -101 16 Inlet 0: (float) value to delete.;
#X text -45 35 (bang) output stored list.;
