#N canvas 109 22 1056 732 10;
#X obj 4 2 cnv 15 1040 720 empty empty empty 20 12 0 14 -1 -66577 0
;
#N canvas 154 110 450 363 Beating 0;
#X obj 34 -6 r \$0_freq;
#X obj 35 90 osc~;
#X obj 115 91 osc~;
#X obj 124 53 +;
#X obj 125 -4 r \$0_offset;
#X obj 125 18 t b f;
#X obj 368 27 metro 1;
#X obj 369 4 loadbang;
#X obj 349 5 bng 15 250 50 0 empty empty empty 17 7 0 10 -262144 -1
-1;
#X obj 370 53 s \$0_metro;
#X obj 115 150 snapshot~;
#X obj 131 126 r \$0_metro;
#X obj 29 149 snapshot~;
#X obj 45 125 r \$0_metro;
#X obj 30 175 s \$0_w1;
#X obj 114 172 s \$0_w2;
#X obj 73 31 t b;
#X msg 74 52 0;
#X obj 84 201 +~;
#X obj 83 227 *~ 0.5;
#X obj 83 275 snapshot~;
#X obj 104 252 r \$0_metro;
#X obj 81 304 s \$0_wsum;
#X floatatom 18 57 5 0 0 0 - - -;
#X connect 0 0 1 0;
#X connect 0 0 3 0;
#X connect 0 0 16 0;
#X connect 0 0 23 0;
#X connect 1 0 12 0;
#X connect 1 0 18 0;
#X connect 2 0 10 0;
#X connect 2 0 18 1;
#X connect 3 0 2 0;
#X connect 4 0 5 0;
#X connect 4 0 16 0;
#X connect 5 0 3 0;
#X connect 5 1 3 1;
#X connect 6 0 9 0;
#X connect 7 0 6 0;
#X connect 8 0 6 0;
#X connect 10 0 15 0;
#X connect 11 0 10 0;
#X connect 12 0 14 0;
#X connect 13 0 12 0;
#X connect 16 0 17 0;
#X connect 17 0 1 1;
#X connect 17 0 2 1;
#X connect 18 0 19 0;
#X connect 19 0 20 0;
#X connect 20 0 22 0;
#X connect 21 0 20 0;
#X restore 516 713 pd Beating;
#X obj 391 10 hsl 128 15 0 1 0 0 \$0_freq empty frequency 10 8 0 10
-99865 -262144 -262144 1900 1;
#X obj 537 11 hsl 128 15 0 0.5 0 0 \$0_offset empty offset 10 8 0 10
-99865 -262144 -262144 0 1;
#X obj 220 45 hsl 800 200 -1 1 0 0 empty \$0_w1 empty -2 -8 0 10 -1
-262144 -1 23089 1;
#X obj 221 261 hsl 800 200 -1 1 0 0 empty \$0_w2 empty -2 -8 0 10 -1
-262144 -1 23089 1;
#X obj 220 475 hsl 800 200 -1 1 0 0 empty \$0_wsum empty -2 -8 0 10
-1 -262144 -1 23089 1;
#X floatatom 349 9 5 0 0 0 - #0_freq -;
#X floatatom 675 10 5 0 0 0 - #0_offset -;
#X obj 16 552 cnv 15 100 60 empty empty Sum 0 0 0 100 -1 -262144 0
;
#X obj 18 324 cnv 15 100 60 empty empty Sin2 0 0 0 80 -1 -262144 0
;
#X obj 20 96 cnv 15 100 60 empty empty Sin1 0 0 0 80 -1 -262144 0;
