#N canvas 322 98 296 339 10;
#N canvas 619 281 454 345 listOfMIDINoteOn4 0;
#X obj 155 180 bag;
#X obj 134 262 list;
#X obj 197 239 t l;
#X msg 382 116 1;
#X obj 267 115 list split 1;
#X obj 267 83 t a b;
#X msg 66 138 flush;
#X obj 301 150 t l;
#X text 311 81 refill \, after flush;
#X obj 155 214 list;
#X obj 164 -1 notein;
#X obj 161 39 pack;
#X obj 40 85 inlet bang;
#X obj 135 300 outlet notes;
#X obj 40 110 t b b b;
#X connect 0 0 9 0;
#X connect 1 0 5 0;
#X connect 1 0 13 0;
#X connect 2 0 9 1;
#X connect 3 0 0 1;
#X connect 4 0 0 0;
#X connect 4 1 7 0;
#X connect 5 0 4 0;
#X connect 5 1 3 0;
#X connect 6 0 0 0;
#X connect 7 0 4 0;
#X connect 9 0 1 1;
#X connect 9 0 2 0;
#X connect 10 0 11 0;
#X connect 10 1 11 1;
#X connect 11 0 0 0;
#X connect 12 0 14 0;
#X connect 14 0 1 0;
#X connect 14 1 6 0;
#X connect 14 2 9 1;
#X connect 14 2 1 1;
#X restore 64 195 pd listOfMIDINoteOn4;
#X text 30 12 Different approach \, using [bag];
#X text 26 30 By Simon Wise from PD mailing list;
#X text 39 274 - Outlet: List of MIDI note on (keys;
#X text 41 248 - Inlet: Bang to get the list.;
#X text 51 288 that are being pressed).;
#X text 23 84 Changed by him to be "more consistent";
#X text 25 100 (in ver 3 position changes per query);
#X text 69 151 List of MIDI note-on;
