#N canvas 420 33 657 573 10;
#X obj 1 10 cnv 15 325 560 empty empty ¿¿¿ 10 400 0 100 -1 -262144
0;
#X obj 326 10 cnv 15 325 560 empty empty ??? 130 400 0 100 -1 -262144
0;
#N canvas 225 158 594 513 Wat3 0;
#X obj 284 311 vline~;
#X obj 222 460 dac~;
#X obj 178 115 wnode 1 8;
#X obj 177 86 loadbang;
#X obj 179 142 wnode 2 8;
#X obj 179 167 wnode 3 8;
#X obj 178 191 wnode 4 8;
#X obj 180 211 wnode 5 8;
#X obj 182 234 wnode 6 8;
#X obj 182 257 wnode 7 8;
#X obj 184 280 wnode 8 8;
#X obj 224 421 *~;
#X obj 263 372 r \$0_volume;
#N canvas 763 354 450 300 smoother 0;
#X obj 194 81 inlet;
#X obj 197 165 outlet~;
#X obj 196 110 pack 0 50;
#X obj 196 137 line~;
#X connect 0 0 2 0;
#X connect 2 0 3 0;
#X connect 3 0 1 0;
#X restore 262 393 pd smoother;
#X obj 417 348 metro 1000;
#X obj 360 389 tabwrite~ \$0_Waveform;
#N canvas 370 393 450 300 time1 0;
#N canvas 344 325 399 285 lfo1 0;
#X obj 126 185 outlet;
#X obj 168 28 r \$0_lfo1amt;
#X obj 75 28 r \$0_lfo1freq;
#X obj 75 56 osc~;
#X obj 125 135 *~;
#X obj 126 156 snapshot~;
#X obj 178 105 r \$0_snapmetro;
#X obj 76 85 +~ 1;
#X obj 77 107 *~ 2.5;
#X connect 1 0 4 1;
#X connect 2 0 3 0;
#X connect 3 0 7 0;
#X connect 4 0 5 0;
#X connect 5 0 0 0;
#X connect 6 0 5 0;
#X connect 7 0 8 0;
#X connect 8 0 4 0;
#X restore 138 42 pd lfo1;
#X obj 173 140 outlet;
#X obj 204 41 r \$0_n1;
#X obj 173 75 +;
#X obj 174 113 limit 0.001 5;
#X obj 234 141 s \$0_lfo1eye;
#X connect 0 0 3 0;
#X connect 2 0 3 1;
#X connect 3 0 4 0;
#X connect 4 0 1 0;
#X connect 4 0 5 0;
#X restore 283 79 pd time1;
#N canvas 399 195 485 355 sends 0;
#X obj 25 19 loadbang;
#X msg 25 40 2.5;
#X obj 44 217 s \$0_time1;
#X obj 114 217 s \$0_time2;
#X obj 189 219 s \$0_time3;
#X obj 259 220 s \$0_time4;
#X obj 82 286 s \$0_time5;
#X obj 155 287 s \$0_time6;
#X obj 233 288 s \$0_time7;
#X obj 310 288 s \$0_time8;
#X text 79 19 default;
#X obj 250 82 s \$0_snapmetro;
#X obj 249 36 loadbang;
#X obj 249 58 metro 1;
#X obj 249 16 bng 15 250 50 0 empty empty empty 17 7 0 10 -262144 -1
-1;
#X connect 0 0 1 0;
#X connect 1 0 2 0;
#X connect 1 0 3 0;
#X connect 1 0 4 0;
#X connect 1 0 5 0;
#X connect 1 0 6 0;
#X connect 1 0 7 0;
#X connect 1 0 8 0;
#X connect 1 0 9 0;
#X connect 12 0 13 0;
#X connect 13 0 11 0;
#X connect 14 0 12 0;
#X restore 26 36 pd sends;
#N canvas 370 393 450 300 time2 0;
#X obj 173 140 outlet;
#X obj 173 75 +;
#X obj 174 113 limit 0.001 5;
#X obj 204 42 r \$0_n2;
#X obj 234 141 s \$0_lfo2eye;
#N canvas 458 389 399 285 lfo2 0;
#X obj 126 185 outlet;
#X obj 75 56 osc~;
#X obj 125 135 *~;
#X obj 126 156 snapshot~;
#X obj 178 105 r \$0_snapmetro;
#X obj 76 85 +~ 1;
#X obj 77 107 *~ 2.5;
#X obj 75 28 r \$0_lfo2freq;
#X obj 168 28 r \$0_lfo2amt;
#X connect 1 0 5 0;
#X connect 2 0 3 0;
#X connect 3 0 0 0;
#X connect 4 0 3 0;
#X connect 5 0 6 0;
#X connect 6 0 2 0;
#X connect 7 0 1 0;
#X connect 8 0 2 1;
#X restore 138 41 pd lfo2;
#X connect 1 0 2 0;
#X connect 2 0 0 0;
#X connect 2 0 4 0;
#X connect 3 0 1 1;
#X connect 5 0 1 0;
#X restore 284 104 pd time2;
#N canvas 370 393 450 300 time3 0;
#X obj 173 140 outlet;
#X obj 173 75 +;
#X obj 174 113 limit 0.001 5;
#X obj 204 41 r \$0_n3;
#X obj 234 141 s \$0_lfo3eye;
#N canvas 344 325 399 285 lfo3 0;
#X obj 126 185 outlet;
#X obj 75 56 osc~;
#X obj 125 135 *~;
#X obj 126 156 snapshot~;
#X obj 178 105 r \$0_snapmetro;
#X obj 76 85 +~ 1;
#X obj 77 107 *~ 2.5;
#X obj 75 28 r \$0_lfo3freq;
#X obj 168 28 r \$0_lfo3amt;
#X connect 1 0 5 0;
#X connect 2 0 3 0;
#X connect 3 0 0 0;
#X connect 4 0 3 0;
#X connect 5 0 6 0;
#X connect 6 0 2 0;
#X connect 7 0 1 0;
#X connect 8 0 2 1;
#X restore 138 42 pd lfo3;
#X connect 1 0 2 0;
#X connect 2 0 0 0;
#X connect 2 0 4 0;
#X connect 3 0 1 1;
#X connect 5 0 1 0;
#X restore 282 128 pd time3;
#N canvas 370 393 450 300 time4 0;
#X obj 173 140 outlet;
#X obj 173 75 +;
#X obj 174 113 limit 0.001 5;
#X obj 204 41 r \$0_n4;
#X obj 234 141 s \$0_lfo4eye;
#N canvas 344 325 399 285 lfo4 0;
#X obj 126 185 outlet;
#X obj 75 56 osc~;
#X obj 125 135 *~;
#X obj 126 156 snapshot~;
#X obj 178 105 r \$0_snapmetro;
#X obj 76 85 +~ 1;
#X obj 77 107 *~ 2.5;
#X obj 75 28 r \$0_lfo4freq;
#X obj 168 28 r \$0_lfo4amt;
#X connect 1 0 5 0;
#X connect 2 0 3 0;
#X connect 3 0 0 0;
#X connect 4 0 3 0;
#X connect 5 0 6 0;
#X connect 6 0 2 0;
#X connect 7 0 1 0;
#X connect 8 0 2 1;
#X restore 138 42 pd lfo4;
#X connect 1 0 2 0;
#X connect 2 0 0 0;
#X connect 2 0 4 0;
#X connect 3 0 1 1;
#X connect 5 0 1 0;
#X restore 283 152 pd time4;
#N canvas 370 393 450 300 time5 0;
#X obj 173 140 outlet;
#X obj 173 75 +;
#X obj 174 113 limit 0.001 5;
#X obj 204 41 r \$0_n5;
#X obj 234 140 s \$0_lfo5eye;
#N canvas 344 325 399 285 lfo5 0;
#X obj 126 185 outlet;
#X obj 75 56 osc~;
#X obj 125 135 *~;
#X obj 126 156 snapshot~;
#X obj 178 105 r \$0_snapmetro;
#X obj 76 85 +~ 1;
#X obj 77 107 *~ 2.5;
#X obj 75 28 r \$0_lfo5freq;
#X obj 168 28 r \$0_lfo5amt;
#X connect 1 0 5 0;
#X connect 2 0 3 0;
#X connect 3 0 0 0;
#X connect 4 0 3 0;
#X connect 5 0 6 0;
#X connect 6 0 2 0;
#X connect 7 0 1 0;
#X connect 8 0 2 1;
#X restore 138 42 pd lfo5;
#X connect 1 0 2 0;
#X connect 2 0 0 0;
#X connect 2 0 4 0;
#X connect 3 0 1 1;
#X connect 5 0 1 0;
#X restore 283 178 pd time5;
#N canvas 370 393 450 300 time6 0;
#X obj 173 140 outlet;
#X obj 173 75 +;
#X obj 174 113 limit 0.001 5;
#X obj 204 41 r \$0_n6;
#X obj 234 141 s \$0_lfo6eye;
#N canvas 344 325 399 285 lfo6 0;
#X obj 126 185 outlet;
#X obj 75 56 osc~;
#X obj 125 135 *~;
#X obj 126 156 snapshot~;
#X obj 178 105 r \$0_snapmetro;
#X obj 76 85 +~ 1;
#X obj 77 107 *~ 2.5;
#X obj 75 28 r \$0_lfo6freq;
#X obj 168 28 r \$0_lfo6amt;
#X connect 1 0 5 0;
#X connect 2 0 3 0;
#X connect 3 0 0 0;
#X connect 4 0 3 0;
#X connect 5 0 6 0;
#X connect 6 0 2 0;
#X connect 7 0 1 0;
#X connect 8 0 2 1;
#X restore 138 42 pd lfo6;
#X connect 1 0 2 0;
#X connect 2 0 0 0;
#X connect 2 0 4 0;
#X connect 3 0 1 1;
#X connect 5 0 1 0;
#X restore 282 203 pd time6;
#N canvas 370 393 450 300 time7 0;
#X obj 173 140 outlet;
#X obj 173 75 +;
#X obj 174 113 limit 0.001 5;
#X obj 204 41 r \$0_n7;
#X obj 231 139 s \$0_lfo7eye;
#N canvas 344 325 399 285 lfo7 0;
#X obj 126 185 outlet;
#X obj 75 56 osc~;
#X obj 125 135 *~;
#X obj 126 156 snapshot~;
#X obj 178 105 r \$0_snapmetro;
#X obj 76 85 +~ 1;
#X obj 77 107 *~ 2.5;
#X obj 74 27 r \$0_lfo7freq;
#X obj 166 28 r \$0_lfo7amt;
#X connect 1 0 5 0;
#X connect 2 0 3 0;
#X connect 3 0 0 0;
#X connect 4 0 3 0;
#X connect 5 0 6 0;
#X connect 6 0 2 0;
#X connect 7 0 1 0;
#X connect 8 0 2 1;
#X restore 138 42 pd lfo7;
#X connect 1 0 2 0;
#X connect 2 0 0 0;
#X connect 2 0 4 0;
#X connect 3 0 1 1;
#X connect 5 0 1 0;
#X restore 280 227 pd time7;
#N canvas 370 393 450 300 time8 0;
#X obj 173 140 outlet;
#X obj 173 75 +;
#X obj 174 113 limit 0.001 5;
#X obj 204 41 r \$0_n8;
#X obj 234 141 s \$0_lfo8eye;
#N canvas 344 325 399 285 lfo8 0;
#X obj 126 185 outlet;
#X obj 75 56 osc~;
#X obj 125 135 *~;
#X obj 126 156 snapshot~;
#X obj 178 105 r \$0_snapmetro;
#X obj 76 85 +~ 1;
#X obj 77 107 *~ 2.5;
#X obj 75 28 r \$0_lfo8freq;
#X obj 168 28 r \$0_lfo8amt;
#X connect 1 0 5 0;
#X connect 2 0 3 0;
#X connect 3 0 0 0;
#X connect 4 0 3 0;
#X connect 5 0 6 0;
#X connect 6 0 2 0;
#X connect 7 0 1 0;
#X connect 8 0 2 1;
#X restore 138 41 pd lfo8;
#X connect 1 0 2 0;
#X connect 2 0 0 0;
#X connect 2 0 4 0;
#X connect 3 0 1 1;
#X connect 5 0 1 0;
#X restore 282 249 pd time8;
#X obj 447 300 loadbang;
#X connect 0 0 11 0;
#X connect 0 0 15 0;
#X connect 2 0 4 0;
#X connect 2 1 0 0;
#X connect 3 0 2 0;
#X connect 4 0 5 0;
#X connect 4 1 0 0;
#X connect 5 0 6 0;
#X connect 5 1 0 0;
#X connect 6 0 7 0;
#X connect 6 1 0 0;
#X connect 7 0 8 0;
#X connect 7 1 0 0;
#X connect 8 0 9 0;
#X connect 8 1 0 0;
#X connect 9 0 10 0;
#X connect 9 1 0 0;
#X connect 10 0 2 0;
#X connect 10 1 0 0;
#X connect 11 0 1 0;
#X connect 12 0 13 0;
#X connect 13 0 11 1;
#X connect 14 0 15 0;
#X connect 16 0 2 1;
#X connect 18 0 4 1;
#X connect 19 0 5 1;
#X connect 20 0 6 1;
#X connect 21 0 7 1;
#X connect 22 0 8 1;
#X connect 23 0 9 1;
#X connect 24 0 10 1;
#X connect 25 0 14 0;
#X restore 302 540 pd Wat3;
#X obj 124 114 hsl 128 15 5 0.001 0 0 \$0_n2 \$0_time2 node_2 10 8
0 10 -262144 -1 -1 0 1;
#X obj 123 148 hsl 128 15 5 0.001 0 0 \$0_n3 \$0_time3 node_3 10 8
0 10 -262144 -1 -1 6351 1;
#X obj 123 182 hsl 128 15 5 0.001 0 0 \$0_n4 \$0_time4 node_4 10 8
0 10 -262144 -1 -1 8951 1;
#X obj 123 219 hsl 128 15 5 0.001 0 0 \$0_n5 \$0_time5 node_5 10 8
0 10 -262144 -1 -1 9900 1;
#X obj 123 253 hsl 128 15 5 0.001 0 0 \$0_n6 \$0_time6 node_6 10 8
0 10 -262144 -1 -1 8800 1;
#X obj 123 285 hsl 127 15 5 0.001 0 0 \$0_n7 \$0_time7 node_7 10 8
0 10 -262144 -1 -1 9600 1;
#X obj 122 315 hsl 128 15 5 0.001 0 0 \$0_n8 \$0_time8 node_8 10 8
0 10 -262144 -1 -1 9500 1;
#X obj 270 81 hsl 80 15 0 1 0 0 \$0_lfo1amt empty lfo1_amt 10 8 0 10
-262144 -1 -1 0 1;
#X obj 270 117 hsl 80 15 0 1 0 0 \$0_lfo2amt empty lfo2_amt 10 8 0
10 -262144 -1 -1 0 1;
#X obj 270 154 hsl 80 15 0 1 0 0 \$0_lfo3amt empty lfo3_amt 10 8 0
10 -262144 -1 -1 3100 1;
#X obj 268 187 hsl 80 15 0 1 0 0 \$0_lfo4amt empty lfo4_amt 10 8 0
10 -262144 -1 -1 2600 1;
#X obj 269 220 hsl 80 15 0 1 0 0 \$0_lfo5amt empty lfo5_amt 10 8 0
10 -262144 -1 -1 2400 1;
#X obj 268 255 hsl 80 15 0 1 0 0 \$0_lfo6amt empty lfo6_amt 10 8 0
10 -262144 -1 -1 3200 1;
#X obj 267 289 hsl 80 15 0 1 0 0 \$0_lfo7amt empty lfo7_amt 10 8 0
10 -262144 -1 -1 1100 1;
#X obj 266 318 hsl 80 15 0 1 0 0 \$0_lfo8amt empty lfo8_amt 10 8 0
10 -262144 -1 -1 0 1;
#X obj 363 82 hsl 128 15 0 1 0 0 \$0_lfo1freq empty lfo1_freq 10 8
0 10 -262144 -1 -1 0 1;
#X obj 361 154 hsl 128 15 0 1 0 0 \$0_lfo3freq empty lfo3_freq 10 8
0 10 -262144 -1 -1 10400 1;
#X obj 361 188 hsl 128 15 0 1 0 0 \$0_lfo4freq empty lfo4_freq 10 8
0 10 -262144 -1 -1 9300 1;
#X obj 362 221 hsl 128 15 0 1 0 0 \$0_lfo5freq empty lfo5_freq 10 8
0 10 -262144 -1 -1 11800 1;
#X obj 363 256 hsl 128 15 0 1 0 0 \$0_lfo6freq empty lfo6_freq 10 8
0 10 -262144 -1 -1 12300 1;
#X obj 363 288 hsl 128 15 0 1 0 0 \$0_lfo7freq empty lfo7_freq 10 8
0 10 -262144 -1 -1 11400 1;
#X obj 361 320 hsl 128 15 0 1 0 0 \$0_lfo8freq empty lfo8_freq 10 8
0 10 -262144 -1 -1 12700 1;
#X obj 362 119 hsl 128 15 0 1 0 0 \$0_lfo2freq empty lfo2_freq 10 8
0 10 -262144 -1 -1 0 1;
#X obj 124 97 hsl 128 8 5 0.001 0 0 empty \$0_lfo1eye empty -2 -8 0
10 -1 -262144 -1 0 1;
#X obj 124 81 hsl 128 15 5 0.001 0 0 \$0_n1 \$0_time1 node_1 10 8 0
10 -262144 -1 -1 0 1;
#X obj 124 130 hsl 128 8 5 0.001 0 0 empty \$0_lfo2eye empty -2 -8
0 10 -1 -262144 -1 0 1;
#X obj 123 164 hsl 128 8 5 0.001 0 0 empty \$0_lfo3eye empty -2 -8
0 10 -1 -262144 -1 5775 1;
#X obj 123 198 hsl 128 8 5 0.001 0 0 empty \$0_lfo4eye empty -2 -8
0 10 -1 -262144 -1 5327 1;
#X obj 123 235 hsl 128 8 5 0.001 0 0 empty \$0_lfo5eye empty -2 -8
0 10 -1 -262144 -1 7092 1;
#X obj 123 269 hsl 128 8 5 0.001 0 0 empty \$0_lfo6eye empty -2 -8
0 10 -1 -262144 -1 4590 1;
#X obj 123 301 hsl 128 8 5 0.001 0 0 empty \$0_lfo7eye empty -2 -8
0 10 -1 -262144 -1 8345 1;
#X obj 122 331 hsl 128 8 5 0.001 0 0 empty \$0_lfo8eye empty -2 -8
0 10 -1 -262144 -1 9500 1;
#X obj 267 25 hsl 128 15 0 1 0 0 \$0_volume empty volume 10 8 0 10
-262144 -1 -1 12100 1;
#X obj 215 357 cnv 15 220 170 empty empty empty 20 12 0 14 -262144
-66577 0;
#N canvas 0 22 450 278 (subpatch) 0;
#X array \$0_Waveform 1000 float 4;
#X coords 0 1 999 -1 200 140 1 0 0;
#X restore 225 375 graph;
