#N canvas 175 275 406 220 10;
#X obj 167 160 outlet to_vline;
#X obj 72 14 inlet last_bang;
#X obj 178 15 inlet time;
#X obj 54 160 outlet next_bang;
#X obj 167 136 pack \$1 \$2;
#X obj 171 56 loadbang;
#X obj 55 129 delay 100;
#X obj 170 80 expr ( (float (\$1)) / \$2 ) - 0.5;
#X obj 222 100 r \$0_dtime;
#X connect 1 0 4 0;
#X connect 1 0 6 0;
#X connect 2 0 4 1;
#X connect 2 0 6 1;
#X connect 4 0 0 0;
#X connect 5 0 7 0;
#X connect 6 0 3 0;
#X connect 7 0 4 0;
#X connect 8 0 4 1;
