#N canvas 582 235 450 300 10;
#X obj 150 109 *~ 0;
#X obj 88 69 delwrite~ the_delay0 5000;
#X obj 87 166 delread~ the_delay0 1000;
#X obj 81 224 dac~;
#X obj 87 39 adc~;
#X obj 285 38 hsl 128 15 0 1 0 0 empty empty empty -2 -8 0 10 -262144
-1 -1 0 1;
#X text 316 53 feedback;
#X obj 283 81 hsl 128 15 0 600 0 0 empty empty empty -2 -8 0 10 -262144
-1 -1 12700 1;
#X text 311 99 delay time;
#X connect 0 0 1 0;
#X connect 2 0 0 0;
#X connect 2 0 3 0;
#X connect 2 0 3 1;
#X connect 4 0 1 0;
#X connect 5 0 0 1;
#X connect 7 0 2 0;
