#N canvas 647 55 450 300 10;
#N canvas -89 336 450 300 WaveDelay 1;
#X obj 170 23 adc~;
#X obj 156 270 dac~;
#N canvas 77 45 450 300 atom0 1;
#X obj 196 215 throw~ dly_out;
#X obj 236 34 r~ adc;
#X obj 331 83 r feedback;
#X obj 311 108 *~ 0;
#N canvas 467 380 450 300 time 0;
#X obj 67 33 r delay_time;
#X obj 158 32 r delay_offset;
#X obj 190 116 *;
#X obj 169 136 +;
#X obj 223 56 loadbang;
#X obj 170 234 outlet time;
#X obj 137 79 t b b;
#X msg 223 79 0;
#X connect 0 0 3 0;
#X connect 1 0 2 0;
#X connect 1 0 6 0;
#X connect 2 0 3 1;
#X connect 3 0 5 0;
#X connect 4 0 7 0;
#X connect 6 0 3 0;
#X connect 6 1 2 0;
#X connect 7 0 2 1;
#X restore 111 104 pd time;
#X obj 236 63 delwrite~ the_delay0 5000;
#X obj 196 176 delread~ the_delay0 1000;
#X connect 1 0 5 0;
#X connect 2 0 3 1;
#X connect 3 0 5 0;
#X connect 4 0 6 0;
#X connect 6 0 0 0;
#X connect 6 0 3 0;
#X restore 38 81 pd atom0;
#X obj 170 45 s~ adc;
#X obj 159 236 catch~ dly_out;
#N canvas 83 204 450 300 atom0 1;
#X obj 196 215 throw~ dly_out;
#X obj 236 34 r~ adc;
#X obj 331 83 r feedback;
#X obj 311 108 *~ 0;
#N canvas 467 380 450 300 time 0;
#X obj 67 33 r delay_time;
#X obj 158 32 r delay_offset;
#X obj 190 116 *;
#X obj 169 136 +;
#X msg 223 79 1;
#X obj 223 56 loadbang;
#X obj 170 234 outlet time;
#X obj 137 79 t b b;
#X connect 0 0 3 0;
#X connect 1 0 2 0;
#X connect 1 0 7 0;
#X connect 2 0 3 1;
#X connect 3 0 6 0;
#X connect 4 0 2 1;
#X connect 5 0 4 0;
#X connect 7 0 3 0;
#X connect 7 1 2 0;
#X restore 111 104 pd time;
#X obj 238 64 delwrite~ the_delay1 5000;
#X obj 196 176 delread~ the_delay1 1000;
#X connect 1 0 5 0;
#X connect 2 0 3 1;
#X connect 3 0 5 0;
#X connect 4 0 6 0;
#X connect 6 0 0 0;
#X connect 6 0 3 0;
#X restore 96 80 pd atom0;
#N canvas 128 492 450 300 atom0 1;
#X obj 196 215 throw~ dly_out;
#X obj 236 34 r~ adc;
#X obj 331 83 r feedback;
#X obj 311 108 *~ 0;
#N canvas 467 380 450 300 time 0;
#X obj 67 33 r delay_time;
#X obj 158 32 r delay_offset;
#X obj 190 116 *;
#X obj 169 136 +;
#X obj 223 56 loadbang;
#X obj 170 234 outlet time;
#X obj 137 79 t b b;
#X msg 223 79 2;
#X connect 0 0 3 0;
#X connect 1 0 2 0;
#X connect 1 0 6 0;
#X connect 2 0 3 1;
#X connect 3 0 5 0;
#X connect 4 0 7 0;
#X connect 6 0 3 0;
#X connect 6 1 2 0;
#X connect 7 0 2 1;
#X restore 111 104 pd time;
#X obj 236 63 delwrite~ the_delay2 5000;
#X obj 196 176 delread~ the_delay2 1000;
#X connect 1 0 5 0;
#X connect 2 0 3 1;
#X connect 3 0 5 0;
#X connect 4 0 6 0;
#X connect 6 0 0 0;
#X connect 6 0 3 0;
#X restore 156 82 pd atom0;
#X connect 0 0 3 0;
#X connect 4 0 1 0;
#X connect 4 0 1 1;
#X restore 6 276 pd WaveDelay;
#N canvas 376 313 450 300 cpu_usage 0;
#X obj 149 161 cputime;
#X obj 149 21 loadbang;
#X obj 149 105 metro 1000;
#X msg 149 49 1;
#X floatatom 149 77 0 0 0 0 - - -;
#X obj 149 133 t b b;
#X obj 149 221 * 0.1;
#X obj 149 190 int;
#X text 194 77 <-- on/off;
#X text 82 277 CPU load in percent;
#X obj 148 248 outlet;
#X connect 0 0 7 0;
#X connect 1 0 3 0;
#X connect 2 0 5 0;
#X connect 3 0 4 0;
#X connect 4 0 2 0;
#X connect 5 0 0 0;
#X connect 5 1 0 1;
#X connect 6 0 10 0;
#X connect 7 0 6 0;
#X restore -24 7 pd cpu_usage;
#X floatatom -24 31 5 0 0 0 - - -;
#X obj 54 110 s delay_time;
#X floatatom 54 87 5 0 0 0 - - -;
#X obj 240 128 s feedback;
#X obj 242 79 hsl 128 15 0 1 0 0 empty empty empty -2 -8 0 10 -262144
-1 -1 12700 1;
#X floatatom 239 104 5 0 1 0 - - -;
#X floatatom 138 86 5 0 0 0 - - -;
#X obj 138 110 s delay_offset;
#X text 13 191 TODO:;
#X text 12 207 Partial Amp Mode ala WaveSynth;
#X connect 1 0 2 0;
#X connect 4 0 3 0;
#X connect 6 0 7 0;
#X connect 7 0 5 0;
#X connect 8 0 9 0;
