#N canvas 87 22 450 300 10;
#N canvas 302 342 450 300 WaveDelay 1;
#X obj 170 23 adc~;
#X obj 156 270 dac~;
#N canvas 368 349 450 300 atom0 1;
#X obj 170 63 delwrite~ the_delay 5000;
#X obj 180 161 delread~ the_delay 1000;
#X obj 245 108 *~ 0.8;
#X obj 180 200 throw~ dly_out;
#X obj 170 33 r~ adc;
#X connect 1 0 2 0;
#X connect 1 0 3 0;
#X connect 2 0 0 0;
#X connect 4 0 0 0;
#X restore 38 81 pd atom0;
#X obj 170 45 s~ adc;
#X obj 157 238 catch~ dly_out;
#X connect 0 0 3 0;
#X connect 4 0 1 0;
#X connect 4 0 1 1;
#X restore 6 276 pd WaveDelay;
#N canvas 376 313 450 300 cpu_usage 0;
#X obj 149 161 cputime;
#X obj 149 21 loadbang;
#X obj 149 105 metro 1000;
#X msg 149 49 1;
#X floatatom 149 77 0 0 0 0 - - -;
#X obj 149 133 t b b;
#X obj 149 221 * 0.1;
#X obj 149 190 int;
#X text 194 77 <-- on/off;
#X text 82 277 CPU load in percent;
#X obj 148 248 outlet;
#X connect 0 0 7 0;
#X connect 1 0 3 0;
#X connect 2 0 5 0;
#X connect 3 0 4 0;
#X connect 4 0 2 0;
#X connect 5 0 0 0;
#X connect 5 1 0 1;
#X connect 6 0 10 0;
#X connect 7 0 6 0;
#X restore -24 7 pd cpu_usage;
#X floatatom -24 31 5 0 0 0 - - -;
#X connect 1 0 2 0;
