#N canvas 574 37 450 300 10;
#N canvas 568 336 450 300 WaveDelay 1;
#X obj 170 23 adc~;
#X obj 156 270 dac~;
#N canvas 103 253 450 300 atom0 1;
#X obj 196 215 throw~ dly_out;
#X obj 236 34 r~ adc;
#X obj 331 83 r feedback;
#X obj 311 108 *~ 0;
#N canvas 299 276 560 324 time 0;
#X obj 132 35 r delay_time;
#X obj 231 35 r delay_offset;
#X obj 210 197 outlet time;
#X obj 210 134 expr $f1+($f2*$f3);
#X obj 229 77 t b f;
#X obj 334 34 inlet atom_number;
#X connect 0 0 3 0;
#X connect 1 0 4 0;
#X connect 3 0 2 0;
#X connect 4 0 3 0;
#X connect 4 1 3 1;
#X connect 5 0 3 2;
#X restore 118 104 pd time;
#X obj 236 63 delwrite~ the_delay0 5000;
#X obj 196 176 delread~ the_delay0 1000;
#X obj 118 23 loadbang;
#X msg 118 46 0;
#X text 72 45 atom #;
#X connect 1 0 5 0;
#X connect 2 0 3 1;
#X connect 3 0 5 0;
#X connect 4 0 6 0;
#X connect 6 0 0 0;
#X connect 6 0 3 0;
#X connect 7 0 8 0;
#X connect 8 0 4 0;
#X restore 38 81 pd atom0;
#X obj 170 45 s~ adc;
#X obj 159 236 catch~ dly_out;
#X connect 0 0 3 0;
#X connect 4 0 1 0;
#X connect 4 0 1 1;
#X restore 6 276 pd WaveDelay;
#N canvas 376 313 450 300 cpu_usage 0;
#X obj 149 161 cputime;
#X obj 149 21 loadbang;
#X obj 149 105 metro 1000;
#X msg 149 49 1;
#X floatatom 149 77 0 0 0 0 - - -;
#X obj 149 133 t b b;
#X obj 149 221 * 0.1;
#X obj 149 190 int;
#X text 194 77 <-- on/off;
#X text 82 277 CPU load in percent;
#X obj 148 248 outlet;
#X connect 0 0 7 0;
#X connect 1 0 3 0;
#X connect 2 0 5 0;
#X connect 3 0 4 0;
#X connect 4 0 2 0;
#X connect 5 0 0 0;
#X connect 5 1 0 1;
#X connect 6 0 10 0;
#X connect 7 0 6 0;
#X restore -24 7 pd cpu_usage;
#X floatatom -24 31 5 0 0 0 - - -;
#X obj 54 110 s delay_time;
#X floatatom 54 87 5 0 0 0 - - -;
#X obj 240 128 s feedback;
#X obj 242 79 hsl 128 15 0 1 0 0 empty empty empty -2 -8 0 10 -262144
-1 -1 0 1;
#X floatatom 239 104 5 0 1 0 - - -;
#X floatatom 138 86 5 0 0 0 - - -;
#X obj 138 110 s delay_offset;
#X text 13 191 TODO:;
#X text 12 207 Partial Amp Mode ala WaveSynth;
#X connect 1 0 2 0;
#X connect 4 0 3 0;
#X connect 6 0 7 0;
#X connect 7 0 5 0;
#X connect 8 0 9 0;
