#N canvas 141 64 194 267 10;
#N canvas 572 56 393 462 Wat 1;
#X obj 95 341 dac~;
#X obj 41 89 osc~;
#X obj 125 82 osc~;
#X obj 42 114 expr~ $v1 > $v2;
#X obj 36 1 r osc1;
#X obj 124 6 r osc2;
#N canvas 763 354 450 300 smoother 0;
#X obj 194 81 inlet;
#X obj 197 165 outlet~;
#X obj 196 110 pack 0 50;
#X obj 196 137 line~;
#X connect 0 0 2 0;
#X connect 2 0 3 0;
#X connect 3 0 1 0;
#X restore 36 25 pd smoother;
#N canvas 763 354 450 300 smoother 0;
#X obj 194 81 inlet;
#X obj 197 165 outlet~;
#X obj 196 110 pack 0 50;
#X obj 196 137 line~;
#X connect 0 0 2 0;
#X connect 2 0 3 0;
#X connect 3 0 1 0;
#X restore 124 27 pd smoother;
#X obj 115 266 r volume;
#X obj 100 294 *~;
#X obj 43 192 *~ 0.2;
#X obj 165 73 r osc3;
#N canvas 763 354 450 300 smoother 0;
#X obj 194 81 inlet;
#X obj 197 165 outlet~;
#X obj 196 110 pack 0 50;
#X obj 196 137 line~;
#X connect 0 0 2 0;
#X connect 2 0 3 0;
#X connect 3 0 1 0;
#X restore 165 93 pd smoother;
#X obj 42 143 expr~ $v1 > $v2;
#X obj 165 114 osc~;
#X obj 43 168 hip~ 1;
#X text 87 169 remove dc offset;
#X obj 302 141 r am_amt;
#N canvas 763 354 450 300 smoother 0;
#X obj 194 81 inlet;
#X obj 197 165 outlet~;
#X obj 196 110 pack 0 50;
#X obj 196 137 line~;
#X connect 0 0 2 0;
#X connect 2 0 3 0;
#X connect 3 0 1 0;
#X restore 280 54 pd smoother;
#X obj 280 32 r am_freq;
#X obj 249 122 osc~;
#X obj 91 239 *~;
#X obj 250 143 *~ 0.5;
#X obj 260 171 *~ 0;
#X obj 260 196 +~ 0.5;
#X obj 107 -98 r fm_freq;
#X obj 184 -64 r fm_amt;
#N canvas 763 354 450 300 smoother 0;
#X obj 194 81 inlet;
#X obj 197 165 outlet~;
#X obj 196 110 pack 0 50;
#X obj 196 137 line~;
#X connect 0 0 2 0;
#X connect 2 0 3 0;
#X connect 3 0 1 0;
#X restore 184 -41 pd smoother;
#N canvas 763 354 450 300 smoother 0;
#X obj 194 81 inlet;
#X obj 197 165 outlet~;
#X obj 196 110 pack 0 50;
#X obj 196 137 line~;
#X connect 0 0 2 0;
#X connect 2 0 3 0;
#X connect 3 0 1 0;
#X restore 107 -71 pd smoother;
#X obj 107 -47 osc~;
#X obj 173 0 *~;
#X obj 256 100 +~;
#X obj 125 61 +~;
#X obj 40 67 +~;
#X text 299 15 AM;
#X text 194 -89 FM;
#X connect 1 0 3 0;
#X connect 2 0 3 1;
#X connect 3 0 13 0;
#X connect 4 0 6 0;
#X connect 5 0 7 0;
#X connect 6 0 33 1;
#X connect 7 0 32 1;
#X connect 8 0 9 1;
#X connect 9 0 0 0;
#X connect 9 0 0 1;
#X connect 10 0 21 0;
#X connect 11 0 12 0;
#X connect 12 0 14 0;
#X connect 13 0 15 0;
#X connect 14 0 13 1;
#X connect 15 0 10 0;
#X connect 17 0 23 1;
#X connect 18 0 31 1;
#X connect 19 0 18 0;
#X connect 20 0 22 0;
#X connect 21 0 9 0;
#X connect 22 0 23 0;
#X connect 23 0 24 0;
#X connect 24 0 21 1;
#X connect 25 0 28 0;
#X connect 26 0 27 0;
#X connect 27 0 30 1;
#X connect 28 0 29 0;
#X connect 29 0 30 0;
#X connect 30 0 31 0;
#X connect 30 0 33 0;
#X connect 30 0 32 0;
#X connect 31 0 20 0;
#X connect 32 0 2 0;
#X connect 33 0 1 0;
#X restore 74 183 pd Wat;
#X floatatom 33 25 5 0 0 0 - - -;
#X obj 33 46 s osc1;
#X floatatom 85 24 5 0 0 0 - - -;
#X obj 85 46 s osc2;
#X obj 72 -25 hsl 50 15 0 1 0 0 empty empty empty -2 -8 0 10 -262144
-1 -1 3200 1;
#X obj 70 -4 s volume;
#X floatatom 136 25 5 0 0 0 - - -;
#X obj 136 47 s osc3;
#X floatatom 34 74 5 0 0 0 - - -;
#X obj 98 95 s am_amt;
#X obj 101 74 hsl 50 15 0 1 0 0 empty empty empty -2 -8 0 10 -262144
-1 -1 4900 1;
#X obj 34 95 s am_freq;
#X floatatom 34 122 5 0 0 0 - - -;
#X obj 102 123 hsl 50 15 0 1000 0 0 empty empty empty -2 -8 0 10 -262144
-1 -1 3900 1;
#X obj 34 143 s fm_freq;
#X obj 99 144 s fm_amt;
#X connect 1 0 2 0;
#X connect 3 0 4 0;
#X connect 5 0 6 0;
#X connect 7 0 8 0;
#X connect 9 0 12 0;
#X connect 11 0 10 0;
#X connect 13 0 15 0;
#X connect 14 0 16 0;
