#N canvas 603 135 417 294 10;
#X obj 11 10 cnv 15 390 270 empty empty ¿¿¿WAAAAAAT??? 65 210 0
30 -41611 -262144 0;
#N canvas 100 223 372 417 Wat2 0;
#X obj 66 169 expr~ $v1 > $v2;
#X obj 203 170 expr~ $v1 > $v2;
#X obj 66 145 osc~;
#X obj 152 145 osc~;
#X obj 203 145 osc~;
#X obj 289 144 osc~;
#X obj 114 219 expr~ $v1 > $v2;
#X obj 106 47 *~;
#X obj 67 122 +~;
#X obj 151 122 +~;
#X obj 204 122 +~;
#X obj 287 122 +~;
#X obj 98 364 dac~;
#X obj 113 240 hip~ 1;
#X obj 144 337 s~ \$0_audio_out;
#X obj 56 10 r~ \$0_audio_out;
#X text 20 34 FM feedback;
#N canvas 321 174 583 206 table_sends 0;
#X obj -9 66 tabwrite~ \$0_wave50;
#X obj 114 66 tabwrite~ \$0_wave100;
#X obj 244 67 tabwrite~ \$0_wave200;
#X obj 32 9 r~ \$0_audio_out;
#X obj 157 13 r \$0_wave_bang;
#X obj 376 67 tabwrite~ \$0_wave400;
#X obj -8 92 tabwrite~ \$0_wave800;
#X obj 120 92 tabwrite~ \$0_wave1200;
#X obj 254 92 tabwrite~ \$0_wave2400;
#X obj 389 92 tabwrite~ \$0_wave4800;
#X obj -9 118 tabwrite~ \$0_wave6000;
#X obj 126 118 tabwrite~ \$0_wave10000;
#X obj 270 118 tabwrite~ \$0_wave12000;
#X obj 413 117 tabwrite~ \$0_wave15000;
#X obj -7 145 tabwrite~ \$0_wave17000;
#X obj 136 144 tabwrite~ \$0_wave19000;
#X obj 276 143 tabwrite~ \$0_wave22000;
#X obj 418 142 tabwrite~ \$0_wave44000;
#X connect 3 0 0 0;
#X connect 3 0 1 0;
#X connect 3 0 2 0;
#X connect 3 0 6 0;
#X connect 3 0 10 0;
#X connect 3 0 7 0;
#X connect 3 0 11 0;
#X connect 3 0 8 0;
#X connect 3 0 12 0;
#X connect 3 0 9 0;
#X connect 3 0 13 0;
#X connect 3 0 14 0;
#X connect 3 0 15 0;
#X connect 3 0 16 0;
#X connect 3 0 17 0;
#X connect 3 0 5 0;
#X connect 4 0 0 0;
#X connect 4 0 1 0;
#X connect 4 0 2 0;
#X connect 4 0 5 0;
#X connect 4 0 6 0;
#X connect 4 0 7 0;
#X connect 4 0 8 0;
#X connect 4 0 9 0;
#X connect 4 0 10 0;
#X connect 4 0 11 0;
#X connect 4 0 12 0;
#X connect 4 0 13 0;
#X connect 4 0 14 0;
#X connect 4 0 15 0;
#X connect 4 0 16 0;
#X connect 4 0 17 0;
#X restore 143 358 pd table_sends;
#X obj 83 93 r \$0_osc1;
#X obj 153 93 r \$0_osc2;
#X obj 219 91 r \$0_osc3;
#X obj 285 89 r \$0_osc4;
#X obj 157 9 r \$0_feedback;
#X obj 169 258 r \$0_volume;
#N canvas 763 354 450 300 smoother 0;
#X obj 194 81 inlet;
#X obj 197 165 outlet~;
#X obj 196 110 pack 0 50;
#X obj 196 137 line~;
#X connect 0 0 2 0;
#X connect 2 0 3 0;
#X connect 3 0 1 0;
#X restore 168 280 pd smoother;
#X obj 104 338 *~;
#N canvas 164 377 503 303 record 0;
#X obj 61 25 inlet~;
#X obj 204 42 t b b;
#X msg 197 78 start;
#X msg 316 46 stop;
#X obj 178 15 r \$0_start_recording;
#X obj 316 19 r \$0_stop_recording;
#X obj 146 168 writesf~;
#X msg 240 78 open -bytes 3 ./Wat2Sound.wav;
#X connect 0 0 6 0;
#X connect 1 0 2 0;
#X connect 1 1 7 0;
#X connect 2 0 6 0;
#X connect 3 0 6 0;
#X connect 4 0 1 0;
#X connect 5 0 3 0;
#X connect 7 0 6 0;
#X restore 73 382 pd record;
#X connect 0 0 6 0;
#X connect 1 0 6 1;
#X connect 2 0 0 0;
#X connect 3 0 0 1;
#X connect 4 0 1 0;
#X connect 5 0 1 1;
#X connect 6 0 13 0;
#X connect 7 0 8 0;
#X connect 7 0 9 0;
#X connect 7 0 10 0;
#X connect 7 0 11 0;
#X connect 8 0 2 0;
#X connect 9 0 3 0;
#X connect 10 0 4 0;
#X connect 11 0 5 0;
#X connect 13 0 14 0;
#X connect 13 0 25 0;
#X connect 15 0 7 0;
#X connect 18 0 8 1;
#X connect 19 0 9 1;
#X connect 20 0 10 1;
#X connect 21 0 11 1;
#X connect 22 0 7 1;
#X connect 23 0 24 0;
#X connect 24 0 25 1;
#X connect 25 0 12 0;
#X connect 25 0 12 1;
#X connect 25 0 26 0;
#X restore 36 145 pd Wat2;
#N canvas 64 22 897 756 waves 0;
#N canvas 0 22 450 278 (subpatch) 0;
#X array \$0_wave50 50 float 4;
#X coords 0 1 49 -1 200 140 1;
#X restore 32 109 graph;
#N canvas 0 22 450 278 (subpatch) 0;
#X array \$0_wave100 100 float 4;
#X coords 0 1 99 -1 200 140 1;
#X restore 243 109 graph;
#N canvas 0 22 450 278 (subpatch) 0;
#X array \$0_wave400 400 float 4;
#X coords 0 1 399 -1 200 140 1 0 0;
#X restore 666 110 graph;
#N canvas 0 22 450 278 (subpatch) 0;
#X array \$0_wave200 200 float 4;
#X coords 0 1 199 -1 200 140 1;
#X restore 455 109 graph;
#X obj 419 22 bng 50 250 50 0 \$0_wave_bang empty empty 17 7 0 10 -261234
-86277 -1;
#N canvas 0 22 450 278 (subpatch) 0;
#X array \$0_wave800 800 float 4;
#X coords 0 1 799 -1 200 140 1 0 0;
#X restore 32 270 graph;
#N canvas 0 22 450 278 (subpatch) 0;
#X array \$0_wave1200 1200 float 4;
#X coords 0 1 1199 -1 200 140 1;
#X restore 243 270 graph;
#N canvas 0 22 450 278 (subpatch) 0;
#X array \$0_wave4800 4800 float 4;
#X coords 0 1 4799 -1 200 140 1;
#X restore 666 271 graph;
#N canvas 0 22 450 278 (subpatch) 0;
#X array \$0_wave2400 2400 float 4;
#X coords 0 1 2399 -1 200 140 1;
#X restore 455 270 graph;
#N canvas 0 22 450 278 (subpatch) 0;
#X array \$0_wave6000 6000 float 4;
#X coords 0 1 5999 -1 200 140 1;
#X restore 32 430 graph;
#N canvas 0 22 450 278 (subpatch) 0;
#X array \$0_wave10000 10000 float 4;
#X coords 0 1 9999 -1 200 140 1;
#X restore 243 430 graph;
#N canvas 0 22 450 278 (subpatch) 0;
#X array \$0_wave15000 15000 float 4;
#X coords 0 1 14999 -1 200 140 1;
#X restore 666 431 graph;
#N canvas 0 22 450 278 (subpatch) 0;
#X array \$0_wave12000 12000 float 4;
#X coords 0 1 11999 -1 200 140 1;
#X restore 455 430 graph;
#N canvas 0 22 450 278 (subpatch) 0;
#X array \$0_wave17000 17000 float 4;
#X coords 0 1 16999 -1 200 140 1;
#X restore 32 589 graph;
#N canvas 0 22 450 278 (subpatch) 0;
#X array \$0_wave19000 19000 float 4;
#X coords 0 1 18999 -1 200 140 1;
#X restore 243 589 graph;
#N canvas 0 22 450 278 (subpatch) 0;
#X array \$0_wave44000 44000 float 4;
#X coords 0 1 43999 -1 200 140 1;
#X restore 666 590 graph;
#N canvas 0 22 450 278 (subpatch) 0;
#X array \$0_wave22000 22000 float 4;
#X coords 0 1 21999 -1 200 140 1;
#X restore 455 589 graph;
#X restore 319 143 pd waves;
#X obj 163 23 hsl 70 15 0 1 0 0 \$0_volume empty volume 10 8 0 10 -228856
-1 -1 3700 1;
#X obj 27 53 cnv 15 360 60 empty empty empty 20 12 0 14 -203904 -66577
0;
#X floatatom 38 77 8 0 0 2 osc1_freq - #0_osc1;
#X floatatom 101 77 8 0 0 2 osc2_freq - #0_osc2;
#X floatatom 164 77 8 0 0 2 osc3_freq - #0_osc3;
#X floatatom 225 76 8 0 0 2 osc4_freq - #0_osc4;
#X floatatom 288 76 8 0 0 2 feedback_fm_amt - #0_feedback;
#X obj 103 122 cnv 15 200 60 empty empty Record 75 40 0 14 -262130
-83269 0;
#X obj 135 128 bng 15 250 50 0 \$0_start_recording empty start 20 7
0 10 -204786 -4034 -1;
#X obj 232 128 bng 15 250 50 0 \$0_stop_recording empty stop 20 7 0
10 -261234 -258113 -1;
