#N canvas 502 406 450 300 10;
#X obj 116 267 throw~ dly_out;
#X obj 246 44 r~ adc;
#X obj 341 93 r feedback;
#X obj 321 118 *~ 0;
#N canvas 122 319 1042 340 time 0;
#X obj 166 13 r delay_time;
#X obj 297 9 r delay_offset;
#X obj 293 291 outlet time;
#X obj 400 8 inlet atom_number;
#X obj 351 35 *;
#X text 17 254 Normal Time -> delay_time + (offset*arom_number);
#X text 16 238 Pendulum Time -> T = 2pi*sqrt(L/g);
#X obj 23 8 r time_curve;
#X obj 69 151 expr $f1+$f2;
#X obj 23 30 + 1;
#X obj 25 52 t b f;
#X obj 10 151 loadbang;
#X msg 13 173 1;
#X obj 337 149 expr $f1+pow($f2 \, 1.0/3);
#X obj 153 151 expr $f1+6.2832*sqrt($f2/9.8);
#X obj 492 148 expr $f1+sqrt($f2);
#X obj 349 64 t b f;
#X obj 625 147 expr $f1+(sin($f2)*$f3);
#X obj 677 69 t b f;
#X obj 387 214 switch 6;
#N canvas 408 332 450 300 toFibonacci 0;
#X obj 104 75 inlet;
#X obj 105 188 outlet;
#X obj 104 118 expr (pow(((1 + sqrt(5))/2) \, $f1) - pow(1 - ((1 +
sqrt(5))/2) \, $f1)) / sqrt(5);
#X connect 0 0 2 0;
#X connect 2 0 1 0;
#X restore 852 94 pd toFibonacci;
#X obj 853 68 + 1;
#X obj 796 148 expr $f1+($f2*$f3);
#X connect 0 0 8 0;
#X connect 0 0 13 0;
#X connect 0 0 14 0;
#X connect 0 0 15 0;
#X connect 0 0 17 0;
#X connect 0 0 22 0;
#X connect 1 0 4 0;
#X connect 1 0 18 0;
#X connect 3 0 4 1;
#X connect 3 0 17 1;
#X connect 3 0 21 0;
#X connect 4 0 16 0;
#X connect 7 0 9 0;
#X connect 8 0 19 1;
#X connect 9 0 10 0;
#X connect 10 0 8 0;
#X connect 10 0 13 0;
#X connect 10 0 14 0;
#X connect 10 0 15 0;
#X connect 10 0 17 0;
#X connect 10 0 22 0;
#X connect 10 1 19 0;
#X connect 11 0 12 0;
#X connect 12 0 19 0;
#X connect 13 0 19 3;
#X connect 14 0 19 2;
#X connect 15 0 19 4;
#X connect 16 0 8 0;
#X connect 16 0 14 0;
#X connect 16 0 13 0;
#X connect 16 0 15 0;
#X connect 16 1 15 1;
#X connect 16 1 13 1;
#X connect 16 1 14 1;
#X connect 16 1 8 1;
#X connect 17 0 19 5;
#X connect 18 0 17 0;
#X connect 18 0 22 0;
#X connect 18 1 17 2;
#X connect 18 1 22 1;
#X connect 19 0 2 0;
#X connect 20 0 22 2;
#X connect 21 0 20 0;
#X connect 22 0 19 6;
#X restore 135 98 pd time;
#X obj 160 7 loadbang;
#X text 69 64 atom #;
#N canvas 602 591 450 300 amp 0;
#X obj 80 24 inlet~ audio_in;
#X obj 157 228 outlet~ audio_out;
#X obj 200 16 inlet atom_number;
#X obj 155 155 *~ 1;
#N canvas 809 462 843 305 amp_curve 0;
#X obj 188 -16 inlet atom_number;
#X obj 129 191 outlet;
#X obj 344 61 expr 1/($f1+1);
#X obj 77 -15 + 1;
#X obj 78 -38 r amp_curve;
#X obj 214 59 expr 1/(sqrt($f1+1));
#X obj 78 11 t b f;
#X msg 16 63 1;
#X obj 441 59 expr (1/(($f1+0.5)*2));
#X obj 584 58 expr 1/pow($f1+1 \, 2);
#X obj 45 62 expr 1/pow($f1+1 \, (1.0/3));
#X obj 715 59 expr abs(sin($f1+1));
#X obj 252 127 switch 7;
#X msg 16 -13 1;
#X obj 15 -37 loadbang;
#X connect 0 0 2 0;
#X connect 0 0 5 0;
#X connect 0 0 8 0;
#X connect 0 0 9 0;
#X connect 0 0 10 0;
#X connect 0 0 11 0;
#X connect 2 0 12 4;
#X connect 3 0 6 0;
#X connect 4 0 3 0;
#X connect 5 0 12 3;
#X connect 6 0 2 0;
#X connect 6 0 5 0;
#X connect 6 0 7 0;
#X connect 6 0 8 0;
#X connect 6 0 9 0;
#X connect 6 0 10 0;
#X connect 6 0 11 0;
#X connect 6 1 12 0;
#X connect 7 0 12 1;
#X connect 8 0 12 5;
#X connect 9 0 12 6;
#X connect 10 0 12 2;
#X connect 11 0 12 7;
#X connect 12 0 1 0;
#X connect 13 0 6 0;
#X connect 14 0 13 0;
#X restore 195 44 pd amp_curve;
#N canvas 841 380 450 300 active_atoms 0;
#X obj 234 35 inlet atom_number;
#X obj 206 232 outlet;
#X obj 105 35 r active_atoms;
#X obj 174 106 >=;
#X connect 0 0 3 1;
#X connect 2 0 3 0;
#X connect 3 0 1 0;
#X restore 288 44 pd active_atoms;
#X obj 243 159 s \$0-debug_amp;
#X obj 236 109 * 1;
#X obj 277 76 t b f;
#X connect 0 0 3 0;
#X connect 2 0 4 0;
#X connect 2 0 5 0;
#X connect 3 0 1 0;
#X connect 4 0 7 0;
#X connect 5 0 8 0;
#X connect 7 0 6 0;
#X connect 7 0 3 1;
#X connect 8 0 7 0;
#X connect 8 1 7 1;
#X restore 147 201 pd amp;
#X obj 254 253 outlet time;
#X text 301 271 for debug;
#X floatatom 116 65 5 0 0 0 - - -;
#X obj 160 32 f \$1;
#X obj 209 151 delread~ \$0-dly 1000;
#X obj 340 221 r \$0-debug_amp;
#X obj 341 254 outlet debug_amp;
#X obj 246 73 delwrite~ \$0-dly 10000;
#X connect 1 0 15 0;
#X connect 2 0 3 1;
#X connect 3 0 15 0;
#X connect 4 0 8 0;
#X connect 4 0 12 0;
#X connect 5 0 11 0;
#X connect 7 0 0 0;
#X connect 11 0 10 0;
#X connect 11 0 7 1;
#X connect 11 0 4 0;
#X connect 12 0 3 0;
#X connect 12 0 7 0;
#X connect 13 0 14 0;
