#N canvas 514 219 450 300 10;
#X obj 116 267 throw~ dly_out;
#X obj 246 44 r~ adc;
#X obj 341 93 r feedback;
#X obj 321 118 *~ 0;
#N canvas 488 344 560 324 time 1;
#X obj 221 13 r delay_time;
#X obj 319 11 r delay_offset;
#X obj 420 252 outlet time;
#X obj 422 10 inlet atom_number;
#X obj 360 36 *;
#X obj 209 43 t b f;
#X obj 349 60 t b f;
#X text 36 167 Normal Time -> delay_time + (offset*arom_number);
#X text 35 151 Pendulum Time -> T = 2pi*sqrt(L/g);
#X floatatom 322 240 5 0 0 0 - - -;
#X obj 79 112 expr $f3 \; if ($f1 == 0 \, $f2+$f3 \, $f2+6.2832*sqrt(abs($f3/9.8)))
\;;
#X obj 78 8 r time_curve;
#X connect 0 0 5 0;
#X connect 1 0 4 0;
#X connect 3 0 4 1;
#X connect 4 0 6 0;
#X connect 5 0 10 0;
#X connect 5 1 10 1;
#X connect 6 0 10 0;
#X connect 6 1 10 2;
#X connect 10 1 2 0;
#X connect 10 1 9 0;
#X connect 11 0 10 0;
#X restore 102 93 pd time;
#X obj 127 14 loadbang;
#X text 77 64 atom #;
#N canvas 635 386 450 300 amp 0;
#X obj 68 20 inlet~ audio_in;
#X obj 157 228 outlet~ audio_out;
#X obj 222 23 inlet atom_number;
#X obj 135 164 *~ 1;
#N canvas 243 371 843 305 amp_curve 0;
#X obj 188 -16 inlet atom_number;
#X obj 129 191 outlet;
#X obj 344 61 expr 1/($f1+1);
#X obj 77 -15 + 1;
#X obj 74 -39 r amp_curve;
#X obj 214 59 expr 1/(sqrt($f1+1));
#X obj 215 170 s \$0-debug_amp;
#X obj 78 11 t b f;
#X msg 16 63 1;
#X obj 441 59 expr (1/(($f1+0.5)*2));
#X obj 584 58 expr 1/pow($f1+1 \, 2);
#X obj 45 62 expr 1/pow($f1+1 \, (1.0/3));
#X obj 715 59 expr abs(sin($f1+1));
#X obj 252 127 switch 7;
#X connect 0 0 2 0;
#X connect 0 0 5 0;
#X connect 0 0 9 0;
#X connect 0 0 10 0;
#X connect 0 0 11 0;
#X connect 0 0 12 0;
#X connect 2 0 13 4;
#X connect 3 0 7 0;
#X connect 4 0 3 0;
#X connect 5 0 13 3;
#X connect 7 0 2 0;
#X connect 7 0 5 0;
#X connect 7 0 8 0;
#X connect 7 0 9 0;
#X connect 7 0 10 0;
#X connect 7 0 11 0;
#X connect 7 0 12 0;
#X connect 7 1 13 0;
#X connect 8 0 13 1;
#X connect 9 0 13 5;
#X connect 10 0 13 6;
#X connect 11 0 13 2;
#X connect 12 0 13 7;
#X connect 13 0 1 0;
#X connect 13 0 6 0;
#X restore 222 72 pd amp_curve;
#X connect 0 0 3 0;
#X connect 2 0 4 0;
#X connect 3 0 1 0;
#X connect 4 0 3 1;
#X restore 147 201 pd amp;
#X obj 254 238 outlet time;
#X text 260 265 for debug;
#X floatatom 124 65 5 0 0 0 - - -;
#X obj 127 38 f \$1;
#X obj 246 73 delwrite~ \$0-dly 5000;
#X obj 209 151 delread~ \$0-dly 1000;
#X obj 340 221 r \$0-debug_amp;
#X obj 341 254 outlet debug_amp;
#X connect 1 0 12 0;
#X connect 2 0 3 1;
#X connect 3 0 12 0;
#X connect 4 0 8 0;
#X connect 4 0 13 0;
#X connect 5 0 11 0;
#X connect 7 0 0 0;
#X connect 11 0 10 0;
#X connect 11 0 7 1;
#X connect 11 0 4 0;
#X connect 13 0 3 0;
#X connect 13 0 7 0;
#X connect 14 0 15 0;
