#N canvas 501 61 550 300 10;
#N canvas 35 412 450 300 WaveDelay 1;
#X obj 208 10 adc~;
#X obj 184 275 dac~;
#X obj 208 32 s~ adc;
#X floatatom 372 175 5 0 0 0 - - -;
#X floatatom 39 108 5 0 0 0 - - -;
#X floatatom 86 105 5 0 0 0 - - -;
#X floatatom 133 106 5 0 0 0 - - -;
#X floatatom 181 107 5 0 0 0 - - -;
#X floatatom 225 105 5 0 0 0 - - -;
#X floatatom 269 105 5 0 0 0 - - -;
#X floatatom 317 106 5 0 0 0 - - -;
#X floatatom 369 106 5 0 0 0 - - -;
#X floatatom 32 177 5 0 0 0 - - -;
#X floatatom 79 174 5 0 0 0 - - -;
#X floatatom 126 175 5 0 0 0 - - -;
#X floatatom 176 176 5 0 0 0 - - -;
#X floatatom 224 174 5 0 0 0 - - -;
#X floatatom 268 174 5 0 0 0 - - -;
#X floatatom 316 175 5 0 0 0 - - -;
#N canvas 509 410 450 300 amp 0;
#X obj 222 27 catch~ dly_out;
#X obj 137 272 outlet~ L;
#X obj 216 273 outlet~ R;
#X obj 323 28 r wet;
#N canvas 763 354 450 300 smoother 0;
#X obj 194 81 inlet;
#X obj 197 165 outlet~;
#X obj 196 110 pack 0 50;
#X obj 196 137 line~;
#X connect 0 0 2 0;
#X connect 2 0 3 0;
#X connect 3 0 1 0;
#X restore 324 55 pd smoother;
#X obj 283 86 *~;
#X obj 188 142 +~;
#X obj 70 22 r~ adc;
#X obj 126 24 r dry;
#N canvas 763 354 450 300 smoother 0;
#X obj 194 81 inlet;
#X obj 197 165 outlet~;
#X obj 196 110 pack 0 50;
#X obj 196 137 line~;
#X connect 0 0 2 0;
#X connect 2 0 3 0;
#X connect 3 0 1 0;
#X restore 127 52 pd smoother;
#X obj 95 82 *~;
#X obj 346 96 r volume;
#N canvas 763 354 450 300 smoother 0;
#X obj 194 81 inlet;
#X obj 197 165 outlet~;
#X obj 196 110 pack 0 50;
#X obj 196 137 line~;
#X connect 0 0 2 0;
#X connect 2 0 3 0;
#X connect 3 0 1 0;
#X restore 345 124 pd smoother;
#X obj 200 193 *~;
#X floatatom 301 126 5 0 0 0 - - -;
#X connect 0 0 5 0;
#X connect 3 0 4 0;
#X connect 3 0 14 0;
#X connect 4 0 5 1;
#X connect 5 0 6 1;
#X connect 6 0 13 0;
#X connect 7 0 10 0;
#X connect 8 0 9 0;
#X connect 8 0 14 0;
#X connect 9 0 10 1;
#X connect 10 0 6 0;
#X connect 11 0 12 0;
#X connect 11 0 14 0;
#X connect 12 0 13 1;
#X connect 13 0 1 0;
#X connect 13 0 2 0;
#X restore 179 248 pd amp;
#X obj 267 77 atom 5;
#X obj 35 73 atom 0;
#X obj 362 145 atom 15;
#X obj 84 75 atom 1;
#X obj 129 75 atom 2;
#X obj 173 76 atom 3;
#X obj 222 76 atom 4;
#X obj 312 77 atom 6;
#X obj 359 76 atom 7;
#X obj 28 142 atom 8;
#X obj 77 144 atom 9;
#X obj 122 144 atom 10;
#X obj 172 145 atom 11;
#X obj 221 145 atom 12;
#X obj 266 146 atom 13;
#X obj 311 146 atom 14;
#X connect 0 0 2 0;
#X connect 19 0 1 0;
#X connect 19 1 1 1;
#X connect 20 0 9 0;
#X connect 21 0 4 0;
#X connect 22 0 3 0;
#X connect 23 0 5 0;
#X connect 24 0 6 0;
#X connect 25 0 7 0;
#X connect 26 0 8 0;
#X connect 27 0 10 0;
#X connect 28 0 11 0;
#X connect 29 0 12 0;
#X connect 30 0 13 0;
#X connect 31 0 14 0;
#X connect 32 0 15 0;
#X connect 33 0 16 0;
#X connect 34 0 17 0;
#X connect 35 0 18 0;
#X restore 6 276 pd WaveDelay;
#N canvas 376 313 450 300 cpu_usage 0;
#X obj 149 161 cputime;
#X obj 149 21 loadbang;
#X obj 149 105 metro 1000;
#X msg 149 49 1;
#X floatatom 149 77 0 0 0 0 - - -;
#X obj 149 133 t b b;
#X obj 149 221 * 0.1;
#X obj 149 190 int;
#X text 194 77 <-- on/off;
#X text 82 277 CPU load in percent;
#X obj 148 248 outlet;
#X connect 0 0 7 0;
#X connect 1 0 3 0;
#X connect 2 0 5 0;
#X connect 3 0 4 0;
#X connect 4 0 2 0;
#X connect 5 0 0 0;
#X connect 5 1 0 1;
#X connect 6 0 10 0;
#X connect 7 0 6 0;
#X restore -24 7 pd cpu_usage;
#X floatatom -24 31 5 0 0 0 - - -;
#X obj -13 102 s delay_time;
#X floatatom -13 79 5 0 0 0 - - -;
#X obj 169 103 s feedback;
#X obj 172 81 hsl 128 15 0 1 0 1 empty empty empty -2 -8 0 10 -262144
-1 -1 0 1;
#X floatatom 71 78 5 0 0 0 - - -;
#X obj 71 102 s delay_offset;
#X obj -15 134 tgl 15 0 empty empty empty 17 7 0 10 -262144 -1 -1 1
1;
#X obj -14 156 s partial_amp;
#X obj -14 186 tgl 15 0 empty empty empty 17 7 0 10 -262144 -1 -1 0
1;
#X obj -13 209 s pendulum_time;
#X obj 169 62 tgl 15 0 empty empty empty 17 7 0 10 -262144 -1 -1 0
1;
#X obj 346 21 vsl 15 128 0 1 0 1 empty empty empty 0 -9 0 10 -262144
-1 -1 11200 1;
#X obj 378 20 vsl 15 128 0 1 0 1 empty empty empty 0 -9 0 10 -262144
-1 -1 9000 1;
#X obj 328 161 s dry;
#X obj 377 162 s wet;
#X obj 434 19 vsl 15 128 0 1 0 1 empty empty empty 0 -9 0 10 -262144
-1 -1 11400 1;
#X obj 434 160 s volume;
#X obj 128 156 vradio 15 1 0 3 empty empty empty 0 -8 0 10 -262144
-1 -1 0;
#X connect 1 0 2 0;
#X connect 4 0 3 0;
#X connect 6 0 5 0;
#X connect 7 0 8 0;
#X connect 9 0 10 0;
#X connect 11 0 12 0;
#X connect 13 0 6 0;
#X connect 14 0 16 0;
#X connect 15 0 17 0;
#X connect 18 0 19 0;
