#N canvas 478 22 550 300 10;
#N canvas 65 466 450 300 WaveDelay 1;
#X obj 208 10 adc~;
#X obj 184 275 dac~;
#X obj 208 32 s~ adc;
#X obj 188 241 catch~ dly_out;
#X floatatom 372 175 5 0 0 0 - - -;
#X obj 362 145 atom 15;
#X obj 35 73 atom 0;
#X obj 84 75 atom 1;
#X obj 129 75 atom 2;
#X obj 173 76 atom 3;
#X obj 222 76 atom 4;
#X obj 267 77 atom 5;
#X obj 312 77 atom 6;
#X obj 359 76 atom 7;
#X floatatom 39 108 5 0 0 0 - - -;
#X floatatom 86 105 5 0 0 0 - - -;
#X floatatom 133 106 5 0 0 0 - - -;
#X floatatom 181 107 5 0 0 0 - - -;
#X floatatom 225 105 5 0 0 0 - - -;
#X floatatom 269 105 5 0 0 0 - - -;
#X floatatom 317 106 5 0 0 0 - - -;
#X floatatom 369 106 5 0 0 0 - - -;
#X floatatom 32 177 5 0 0 0 - - -;
#X floatatom 79 174 5 0 0 0 - - -;
#X floatatom 126 175 5 0 0 0 - - -;
#X floatatom 176 176 5 0 0 0 - - -;
#X floatatom 224 174 5 0 0 0 - - -;
#X floatatom 268 174 5 0 0 0 - - -;
#X floatatom 316 175 5 0 0 0 - - -;
#X obj 28 142 atom 8;
#X obj 77 144 atom 9;
#X obj 122 144 atom 10;
#X obj 172 145 atom 11;
#X obj 221 145 atom 12;
#X obj 266 146 atom 13;
#X obj 311 146 atom 14;
#X connect 0 0 2 0;
#X connect 3 0 1 0;
#X connect 3 0 1 1;
#X connect 5 0 4 0;
#X connect 6 0 14 0;
#X connect 7 0 15 0;
#X connect 8 0 16 0;
#X connect 9 0 17 0;
#X connect 10 0 18 0;
#X connect 11 0 19 0;
#X connect 12 0 20 0;
#X connect 13 0 21 0;
#X connect 29 0 22 0;
#X connect 30 0 23 0;
#X connect 31 0 24 0;
#X connect 32 0 25 0;
#X connect 33 0 26 0;
#X connect 34 0 27 0;
#X connect 35 0 28 0;
#X restore 6 276 pd WaveDelay;
#N canvas 376 313 450 300 cpu_usage 0;
#X obj 149 161 cputime;
#X obj 149 21 loadbang;
#X obj 149 105 metro 1000;
#X msg 149 49 1;
#X floatatom 149 77 0 0 0 0 - - -;
#X obj 149 133 t b b;
#X obj 149 221 * 0.1;
#X obj 149 190 int;
#X text 194 77 <-- on/off;
#X text 82 277 CPU load in percent;
#X obj 148 248 outlet;
#X connect 0 0 7 0;
#X connect 1 0 3 0;
#X connect 2 0 5 0;
#X connect 3 0 4 0;
#X connect 4 0 2 0;
#X connect 5 0 0 0;
#X connect 5 1 0 1;
#X connect 6 0 10 0;
#X connect 7 0 6 0;
#X restore -24 7 pd cpu_usage;
#X floatatom -24 31 5 0 0 0 - - -;
#X obj -13 102 s delay_time;
#X floatatom -13 79 5 0 0 0 - - -;
#X obj 169 103 s feedback;
#X obj 172 70 hsl 128 15 0 1 0 0 empty empty empty -2 -8 0 10 -262144
-1 -1 0 1;
#X floatatom 71 78 5 0 0 0 - - -;
#X obj 71 102 s delay_offset;
#X obj -15 134 tgl 15 0 empty empty empty 17 7 0 10 -262144 -1 -1 1
1;
#X obj -14 156 s partial_amp;
#X obj -14 186 tgl 15 0 empty empty empty 17 7 0 10 -262144 -1 -1 1
1;
#X obj -13 209 s pendulum_time;
#X obj 169 49 tgl 15 0 empty empty empty 17 7 0 10 -262144 -1 -1 0
1;
#X connect 1 0 2 0;
#X connect 4 0 3 0;
#X connect 6 0 5 0;
#X connect 7 0 8 0;
#X connect 9 0 10 0;
#X connect 11 0 12 0;
#X connect 13 0 6 0;
