#N canvas 523 57 550 300 10;
#N canvas 38 468 450 300 WaveDelay 1;
#X obj 208 10 adc~;
#X obj 184 275 dac~;
#X obj 208 32 s~ adc;
#X floatatom 390 205 5 0 0 0 - - -;
#X floatatom 43 103 5 0 0 0 - - -;
#X floatatom 89 103 5 0 0 0 - - -;
#X floatatom 136 104 5 0 0 0 - - -;
#X floatatom 184 105 5 0 0 0 - - -;
#X floatatom 231 105 5 0 0 0 - - -;
#X floatatom 275 105 5 0 0 0 - - -;
#X floatatom 323 106 5 0 0 0 - - -;
#X floatatom 375 106 5 0 0 0 - - -;
#X floatatom 46 202 5 0 0 0 - - -;
#X floatatom 97 203 5 0 0 0 - - -;
#X floatatom 144 204 5 0 0 0 - - -;
#X floatatom 194 205 5 0 0 0 - - -;
#X floatatom 242 204 5 0 0 0 - - -;
#X floatatom 286 204 5 0 0 0 - - -;
#X floatatom 334 205 5 0 0 0 - - -;
#N canvas 509 410 450 300 amp 0;
#X obj 222 27 catch~ dly_out;
#X obj 137 272 outlet~ L;
#X obj 216 273 outlet~ R;
#X obj 323 28 r wet;
#N canvas 763 354 450 300 smoother 0;
#X obj 194 81 inlet;
#X obj 197 165 outlet~;
#X obj 196 110 pack 0 50;
#X obj 196 137 line~;
#X connect 0 0 2 0;
#X connect 2 0 3 0;
#X connect 3 0 1 0;
#X restore 324 55 pd smoother;
#X obj 283 86 *~;
#X obj 188 142 +~;
#X obj 70 22 r~ adc;
#X obj 126 24 r dry;
#N canvas 763 354 450 300 smoother 0;
#X obj 194 81 inlet;
#X obj 197 165 outlet~;
#X obj 196 110 pack 0 50;
#X obj 196 137 line~;
#X connect 0 0 2 0;
#X connect 2 0 3 0;
#X connect 3 0 1 0;
#X restore 127 52 pd smoother;
#X obj 95 82 *~;
#X obj 346 96 r volume;
#N canvas 763 354 450 300 smoother 0;
#X obj 194 81 inlet;
#X obj 197 165 outlet~;
#X obj 196 110 pack 0 50;
#X obj 196 137 line~;
#X connect 0 0 2 0;
#X connect 2 0 3 0;
#X connect 3 0 1 0;
#X restore 345 124 pd smoother;
#X obj 200 193 *~;
#X floatatom 301 126 5 0 0 0 - - -;
#X connect 0 0 5 0;
#X connect 3 0 4 0;
#X connect 3 0 14 0;
#X connect 4 0 5 1;
#X connect 5 0 6 1;
#X connect 6 0 13 0;
#X connect 7 0 10 0;
#X connect 8 0 9 0;
#X connect 8 0 14 0;
#X connect 9 0 10 1;
#X connect 10 0 6 0;
#X connect 11 0 12 0;
#X connect 11 0 14 0;
#X connect 12 0 13 1;
#X connect 13 0 1 0;
#X connect 13 0 2 0;
#X restore 179 248 pd amp;
#X obj 41 79 atom 0;
#X floatatom 42 62 5 0 0 0 - - -;
#X floatatom 89 59 5 0 0 0 - - -;
#X floatatom 136 60 5 0 0 0 - - -;
#X floatatom 184 61 5 0 0 0 - - -;
#X floatatom 227 61 5 0 0 0 - - -;
#X floatatom 271 61 5 0 0 0 - - -;
#X floatatom 319 62 5 0 0 0 - - -;
#X floatatom 371 62 5 0 0 0 - - -;
#X floatatom 387 162 5 0 0 0 - - -;
#X floatatom 47 159 5 0 0 0 - - -;
#X floatatom 94 156 5 0 0 0 - - -;
#X floatatom 141 157 5 0 0 0 - - -;
#X floatatom 191 158 5 0 0 0 - - -;
#X floatatom 239 161 5 0 0 0 - - -;
#X floatatom 283 161 5 0 0 0 - - -;
#X floatatom 331 162 5 0 0 0 - - -;
#X obj 273 83 atom 5;
#X obj 379 180 atom 15;
#X obj 90 81 atom 1;
#X obj 135 81 atom 2;
#X obj 179 82 atom 3;
#X obj 228 82 atom 4;
#X obj 318 83 atom 6;
#X obj 365 82 atom 7;
#X obj 45 177 atom 8;
#X obj 94 179 atom 9;
#X obj 139 179 atom 10;
#X obj 189 180 atom 11;
#X obj 238 180 atom 12;
#X obj 283 181 atom 13;
#X obj 328 181 atom 14;
#X connect 0 0 2 0;
#X connect 19 0 1 0;
#X connect 19 1 1 1;
#X connect 20 0 4 0;
#X connect 20 1 21 0;
#X connect 37 0 9 0;
#X connect 37 1 26 0;
#X connect 38 0 3 0;
#X connect 38 1 29 0;
#X connect 39 0 5 0;
#X connect 39 1 22 0;
#X connect 40 0 6 0;
#X connect 40 1 23 0;
#X connect 41 0 7 0;
#X connect 41 1 24 0;
#X connect 42 0 8 0;
#X connect 42 1 25 0;
#X connect 43 0 10 0;
#X connect 43 1 27 0;
#X connect 44 0 11 0;
#X connect 44 1 28 0;
#X connect 45 0 12 0;
#X connect 45 1 30 0;
#X connect 46 0 13 0;
#X connect 46 1 31 0;
#X connect 47 0 14 0;
#X connect 47 1 32 0;
#X connect 48 0 15 0;
#X connect 48 1 33 0;
#X connect 49 0 16 0;
#X connect 49 1 34 0;
#X connect 50 0 17 0;
#X connect 50 1 35 0;
#X connect 51 0 18 0;
#X connect 51 1 36 0;
#X restore 6 276 pd WaveDelay;
#N canvas 376 313 450 300 cpu_usage 0;
#X obj 149 161 cputime;
#X obj 149 21 loadbang;
#X obj 149 105 metro 1000;
#X msg 149 49 1;
#X floatatom 149 77 0 0 0 0 - - -;
#X obj 149 133 t b b;
#X obj 149 221 * 0.1;
#X obj 149 190 int;
#X text 194 77 <-- on/off;
#X text 82 277 CPU load in percent;
#X obj 148 248 outlet;
#X connect 0 0 7 0;
#X connect 1 0 3 0;
#X connect 2 0 5 0;
#X connect 3 0 4 0;
#X connect 4 0 2 0;
#X connect 5 0 0 0;
#X connect 5 1 0 1;
#X connect 6 0 10 0;
#X connect 7 0 6 0;
#X restore -24 7 pd cpu_usage;
#X floatatom -24 31 5 0 0 0 - - -;
#X obj -13 102 s delay_time;
#X floatatom -13 79 5 0 0 0 - - -;
#X obj 169 103 s feedback;
#X obj 172 81 hsl 128 15 0 1 0 0 empty empty empty -2 -8 0 10 -262144
-1 -1 0 1;
#X floatatom 71 78 5 0 0 0 - - -;
#X obj 71 102 s delay_offset;
#X obj 104 129 tgl 15 0 empty empty empty 17 7 0 10 -262144 -1 -1 0
1;
#X obj 105 152 s pendulum_time;
#X obj 169 62 tgl 15 0 empty empty empty 17 7 0 10 -262144 -1 -1 0
1;
#X obj 346 21 vsl 15 128 0 1 0 0 empty empty empty 0 -9 0 10 -262144
-1 -1 0 1;
#X obj 378 20 vsl 15 128 0 1 0 0 empty empty empty 0 -9 0 10 -262144
-1 -1 0 1;
#X obj 328 161 s dry;
#X obj 377 162 s wet;
#X obj 434 19 vsl 15 128 0 1 0 0 empty empty empty 0 -9 0 10 -262144
-1 -1 0 1;
#X obj 434 160 s volume;
#X obj -10 131 vradio 15 1 0 6 empty empty empty 0 -8 0 10 -262144
-1 -1 5;
#X text 8 130 1:1;
#X obj -10 233 s amp_curve;
#X text 8 175 1/n;
#X text 8 159 1/sqrt(n);
#X text 9 190 1/(n*2);
#X text 8 205 1/n^2;
#X text 8 145 1/cubert(n);
#X connect 1 0 2 0;
#X connect 4 0 3 0;
#X connect 6 0 5 0;
#X connect 7 0 8 0;
#X connect 9 0 10 0;
#X connect 11 0 6 0;
#X connect 12 0 14 0;
#X connect 13 0 15 0;
#X connect 16 0 17 0;
#X connect 18 0 20 0;
