#N canvas 521 22 550 300 10;
#N canvas 19 275 504 396 WaveDelay 1;
#X obj 208 10 adc~;
#X obj 205 372 dac~;
#X obj 208 32 s~ adc;
#X floatatom 237 124 7 0 0 0 - - -;
#N canvas 509 410 450 300 amp 0;
#X obj 222 27 catch~ dly_out;
#X obj 137 272 outlet~ L;
#X obj 216 273 outlet~ R;
#X obj 323 28 r wet;
#N canvas 763 354 450 300 smoother 0;
#X obj 194 81 inlet;
#X obj 197 165 outlet~;
#X obj 196 110 pack 0 50;
#X obj 196 137 line~;
#X connect 0 0 2 0;
#X connect 2 0 3 0;
#X connect 3 0 1 0;
#X restore 324 55 pd smoother;
#X obj 283 86 *~;
#X obj 188 142 +~;
#X obj 70 22 r~ adc;
#X obj 126 24 r dry;
#N canvas 763 354 450 300 smoother 0;
#X obj 194 81 inlet;
#X obj 197 165 outlet~;
#X obj 196 110 pack 0 50;
#X obj 196 137 line~;
#X connect 0 0 2 0;
#X connect 2 0 3 0;
#X connect 3 0 1 0;
#X restore 127 52 pd smoother;
#X obj 95 82 *~;
#X obj 346 96 r volume;
#N canvas 763 354 450 300 smoother 0;
#X obj 194 81 inlet;
#X obj 197 165 outlet~;
#X obj 196 110 pack 0 50;
#X obj 196 137 line~;
#X connect 0 0 2 0;
#X connect 2 0 3 0;
#X connect 3 0 1 0;
#X restore 345 124 pd smoother;
#X obj 200 193 *~;
#X floatatom 301 126 5 0 0 0 - - -;
#X connect 0 0 5 0;
#X connect 3 0 4 0;
#X connect 3 0 14 0;
#X connect 4 0 5 1;
#X connect 5 0 6 1;
#X connect 6 0 13 0;
#X connect 7 0 10 0;
#X connect 8 0 9 0;
#X connect 8 0 14 0;
#X connect 9 0 10 1;
#X connect 10 0 6 0;
#X connect 11 0 12 0;
#X connect 11 0 14 0;
#X connect 12 0 13 1;
#X connect 13 0 1 0;
#X connect 13 0 2 0;
#X restore 200 345 pd amp;
#X text 19 100 amp;
#X text 13 121 time;
#X obj 42 83 atom 0;
#N canvas 415 480 450 300 looad_state 0;
#X obj 51 18 loadbang;
#X msg 50 101 1;
#X obj 50 130 s active_atoms;
#X obj 114 59 t b b b;
#X obj 177 93 s uno;
#X obj 139 93 s dos;
#X obj 93 92 s tres;
#X connect 0 0 1 0;
#X connect 0 0 3 0;
#X connect 1 0 2 0;
#X connect 3 0 6 0;
#X connect 3 1 5 0;
#X connect 3 2 4 0;
#X restore 36 19 pd looad_state;
#X floatatom 286 124 7 0 0 0 - - -;
#X floatatom 333 124 7 0 0 0 - - -;
#X floatatom 381 124 7 0 0 0 - - -;
#X floatatom 42 124 7 0 0 0 - - -;
#X floatatom 92 124 7 0 0 0 - - -;
#X floatatom 140 124 7 0 0 0 - - -;
#X floatatom 188 125 7 0 0 0 - - -;
#X floatatom 241 105 7 0 0 0 - - -;
#X floatatom 290 105 7 0 0 0 - - -;
#X floatatom 337 105 7 0 0 0 - - -;
#X floatatom 385 105 7 0 0 0 - - -;
#X floatatom 47 105 7 0 0 0 - - -;
#X floatatom 96 105 7 0 0 0 - - -;
#X floatatom 144 105 7 0 0 0 - - -;
#X floatatom 192 106 7 0 0 0 - - -;
#X floatatom 233 205 7 0 0 0 - - -;
#X floatatom 282 205 7 0 0 0 - - -;
#X floatatom 329 205 7 0 0 0 - - -;
#X floatatom 377 205 7 0 0 0 - - -;
#X floatatom 38 205 7 0 0 0 - - -;
#X floatatom 88 205 7 0 0 0 - - -;
#X floatatom 136 205 7 0 0 0 - - -;
#X floatatom 184 206 7 0 0 0 - - -;
#X floatatom 238 185 7 0 0 0 - - -;
#X floatatom 287 185 7 0 0 0 - - -;
#X floatatom 334 185 7 0 0 0 - - -;
#X floatatom 382 185 7 0 0 0 - - -;
#X floatatom 42 185 7 0 0 0 - - -;
#X floatatom 93 185 7 0 0 0 - - -;
#X floatatom 141 185 7 0 0 0 - - -;
#X floatatom 189 186 7 0 0 0 - - -;
#X floatatom 235 287 7 0 0 0 - - -;
#X floatatom 284 287 7 0 0 0 - - -;
#X floatatom 331 287 7 0 0 0 - - -;
#X floatatom 379 287 7 0 0 0 - - -;
#X floatatom 40 287 7 0 0 0 - - -;
#X floatatom 90 287 7 0 0 0 - - -;
#X floatatom 138 287 7 0 0 0 - - -;
#X floatatom 186 288 7 0 0 0 - - -;
#X floatatom 240 265 7 0 0 0 - - -;
#X floatatom 289 265 7 0 0 0 - - -;
#X floatatom 336 265 7 0 0 0 - - -;
#X floatatom 384 265 7 0 0 0 - - -;
#X floatatom 44 265 7 0 0 0 - - -;
#X floatatom 95 265 7 0 0 0 - - -;
#X floatatom 143 265 7 0 0 0 - - -;
#X floatatom 191 266 7 0 0 0 - - -;
#X obj 188 84 atom 3;
#X obj 286 83 atom 5;
#X obj 92 83 atom 1;
#X obj 140 83 atom 2;
#X obj 237 83 atom 4;
#X obj 333 83 atom 6;
#X obj 381 83 atom 7;
#X obj 38 163 atom 8;
#X obj 88 163 atom 9;
#X obj 136 163 atom 10;
#X obj 184 164 atom 11;
#X obj 233 163 atom 12;
#X obj 282 163 atom 13;
#X obj 329 163 atom 14;
#X obj 377 163 atom 15;
#X obj 39 243 atom 16;
#X obj 89 243 atom 17;
#X obj 137 243 atom 18;
#X obj 185 244 atom 19;
#X obj 234 243 atom 20;
#X obj 283 243 atom 21;
#X obj 330 243 atom 22;
#X obj 378 243 atom 23;
#X connect 0 0 2 0;
#X connect 4 0 1 0;
#X connect 4 1 1 1;
#X connect 7 0 12 0;
#X connect 7 1 20 0;
#X connect 56 0 15 0;
#X connect 56 1 23 0;
#X connect 57 0 9 0;
#X connect 57 1 17 0;
#X connect 58 0 13 0;
#X connect 58 1 21 0;
#X connect 59 0 14 0;
#X connect 59 1 22 0;
#X connect 60 0 3 0;
#X connect 60 1 16 0;
#X connect 61 0 10 0;
#X connect 61 1 18 0;
#X connect 62 0 11 0;
#X connect 62 1 19 0;
#X connect 63 0 28 0;
#X connect 63 1 36 0;
#X connect 64 0 29 0;
#X connect 64 1 37 0;
#X connect 65 0 30 0;
#X connect 65 1 38 0;
#X connect 66 0 31 0;
#X connect 66 1 39 0;
#X connect 67 0 24 0;
#X connect 67 1 32 0;
#X connect 68 0 25 0;
#X connect 68 1 33 0;
#X connect 69 0 26 0;
#X connect 69 1 34 0;
#X connect 70 0 27 0;
#X connect 70 1 35 0;
#X connect 71 0 44 0;
#X connect 71 1 52 0;
#X connect 72 0 45 0;
#X connect 72 1 53 0;
#X connect 73 0 46 0;
#X connect 73 1 54 0;
#X connect 74 0 47 0;
#X connect 74 1 55 0;
#X connect 75 0 40 0;
#X connect 75 1 48 0;
#X connect 76 0 41 0;
#X connect 76 1 49 0;
#X connect 77 0 42 0;
#X connect 77 1 50 0;
#X connect 78 0 43 0;
#X connect 78 1 51 0;
#X restore 6 276 pd WaveDelay;
#N canvas 376 313 450 300 cpu_usage 0;
#X obj 149 161 cputime;
#X obj 149 21 loadbang;
#X obj 149 105 metro 1000;
#X msg 149 49 1;
#X floatatom 149 77 0 0 0 0 - - -;
#X obj 149 133 t b b;
#X obj 149 221 * 0.1;
#X obj 149 190 int;
#X text 194 77 <-- on/off;
#X text 82 277 CPU load in percent;
#X obj 148 248 outlet;
#X connect 0 0 7 0;
#X connect 1 0 3 0;
#X connect 2 0 5 0;
#X connect 3 0 4 0;
#X connect 4 0 2 0;
#X connect 5 0 0 0;
#X connect 5 1 0 1;
#X connect 6 0 10 0;
#X connect 7 0 6 0;
#X restore -24 7 pd cpu_usage;
#X floatatom -24 31 5 0 0 0 - - -;
#X obj -13 102 s delay_time;
#X floatatom -13 79 5 0 0 0 - - -;
#X obj 169 103 s feedback;
#X obj 172 81 hsl 128 15 0 1 0 0 empty empty empty -2 -8 0 10 -262144
-1 -1 12700 1;
#X floatatom 71 78 5 0 0 0 - - -;
#X obj 71 102 s delay_offset;
#X obj 169 62 tgl 15 0 empty empty empty 17 7 0 10 -262144 -1 -1 1
1;
#X obj 346 21 vsl 15 128 0 1 0 0 empty empty empty 0 -9 0 10 -262144
-1 -1 0 1;
#X obj 378 20 vsl 15 128 0 1 0 0 empty empty empty 0 -9 0 10 -262144
-1 -1 6100 1;
#X obj 328 161 s dry;
#X obj 377 162 s wet;
#X obj 434 19 vsl 15 128 0 1 0 0 empty empty empty 0 -9 0 10 -262144
-1 -1 6500 1;
#X obj 434 160 s volume;
#X obj -10 131 vradio 15 1 0 7 empty empty empty 0 -8 0 10 -262144
-1 -1 3;
#X text 8 130 1:1;
#X obj -10 242 s amp_curve;
#X text 8 175 1/n;
#X text 8 159 1/sqrt(n);
#X text 9 190 1/(n*2);
#X text 8 205 1/n^2;
#X text 8 145 1/cubert(n);
#X text 7 221 sin(n);
#X obj 101 242 s time_curve;
#X obj 102 145 vradio 15 1 0 6 empty empty empty 0 -8 0 10 -262144
-1 -1 0;
#X text 120 143 linear;
#X text 121 159 pendulum;
#X text 121 175 cubert(t);
#X text 121 190 sqrt(t);
#X text 122 206 sin(t);
#X text 121 220 fibonacci;
#X obj 210 134 vsl 15 100 1 24 0 0 empty empty empty 0 -9 0 10 -262144
-1 -1 9900 1;
#X obj 210 264 s active_atoms;
#X floatatom 210 243 5 0 0 0 - - -;
#X obj 314 213 tgl 15 0 empty empty empty 17 7 0 10 -262144 -1 -1 0
1;
#X obj 315 238 s analogish_mode;
#X connect 1 0 2 0;
#X connect 4 0 3 0;
#X connect 6 0 5 0;
#X connect 7 0 8 0;
#X connect 9 0 6 0;
#X connect 10 0 12 0;
#X connect 11 0 13 0;
#X connect 14 0 15 0;
#X connect 16 0 18 0;
#X connect 26 0 25 0;
#X connect 33 0 35 0;
#X connect 35 0 34 0;
#X connect 36 0 37 0;
