#N canvas 546 72 465 331 10;
#N canvas 339 241 255 264 KickMaker 0;
#N canvas 766 302 265 193 metronome 0;
#X obj 103 58 expr 1000/($f1/60);
#X obj 70 96 metro;
#X obj 71 127 outlet;
#X obj 103 29 r bpm;
#X obj 39 58 r play;
#X connect 0 0 1 1;
#X connect 1 0 2 0;
#X connect 3 0 0 0;
#X connect 4 0 1 0;
#X restore 24 24 pd metronome;
#N canvas 351 269 295 273 osc 0;
#X obj 100 27 inlet metronome;
#X obj 68 179 osc~ 30;
#X obj 32 31 r freq;
#X obj 67 223 outlet~;
#N canvas 291 336 450 300 freq_env 0;
#X obj 97 22 inlet trigger;
#X obj 159 263 outlet~;
#X obj 197 22 r freq_a;
#X obj 264 22 r freq_d;
#X obj 169 221 *~ 0;
#X obj 328 18 r freq_amt;
#X obj 159 115 vline~;
#X msg 159 91 1 \$2 \, 0 \$3 \$2;
#X obj 159 69 pack f f f;
#X obj 159 141 *~;
#X obj 159 166 *~;
#X connect 0 0 8 0;
#X connect 2 0 8 1;
#X connect 3 0 8 2;
#X connect 4 0 1 0;
#X connect 5 0 4 1;
#X connect 6 0 9 0;
#X connect 6 0 9 1;
#X connect 7 0 6 0;
#X connect 8 0 7 0;
#X connect 9 0 10 0;
#X connect 9 0 10 1;
#X connect 10 0 4 0;
#X restore 75 82 pd freq_env;
#X obj 62 135 +~;
#X obj 100 52 t b b;
#X obj 205 27 r phase;
#X floatatom 156 83 5 0 0 0 - - -;
#X connect 0 0 6 0;
#X connect 1 0 3 0;
#X connect 2 0 5 0;
#X connect 4 0 5 1;
#X connect 5 0 1 0;
#X connect 6 0 4 0;
#X connect 6 1 8 0;
#X connect 7 0 8 0;
#X connect 8 0 1 1;
#X restore 21 92 pd osc;
#N canvas 476 173 269 294 amp 0;
#X obj 23 16 inlet~;
#X obj 104 263 outlet~;
#X obj 190 23 r volume;
#X obj 81 19 inlet metronome;
#N canvas 686 457 450 300 amp_env 0;
#X obj 88 19 inlet trigger;
#X obj 168 224 outlet~;
#X obj 187 19 r amp_a;
#X obj 253 17 r amp_d;
#X obj 163 119 vline~;
#X msg 163 95 1 \$2 \, 0 \$3 \$2;
#X obj 163 73 pack f f f;
#X obj 163 145 *~;
#X obj 163 170 *~;
#X connect 0 0 6 0;
#X connect 2 0 6 1;
#X connect 3 0 6 2;
#X connect 4 0 7 0;
#X connect 4 0 7 1;
#X connect 5 0 4 0;
#X connect 6 0 5 0;
#X connect 7 0 8 0;
#X connect 7 0 8 1;
#X connect 8 0 1 0;
#X restore 72 60 pd amp_env;
#X obj 47 98 *~;
#N canvas 763 354 450 300 smoother 0;
#X obj 194 81 inlet;
#X obj 197 165 outlet~;
#X obj 196 110 pack 0 50;
#X obj 196 137 line~;
#X connect 0 0 2 0;
#X connect 2 0 3 0;
#X connect 3 0 1 0;
#X restore 160 77 pd smoother;
#X obj 97 156 *~;
#X connect 0 0 5 0;
#X connect 2 0 6 0;
#X connect 3 0 4 0;
#X connect 4 0 5 1;
#X connect 5 0 7 0;
#X connect 6 0 7 1;
#X connect 7 0 1 0;
#X restore 76 140 pd amp;
#X obj 69 197 dac~;
#N canvas 441 350 407 299 record 0;
#X obj 160 272 writesf~;
#X obj 5 63 inlet~;
#X obj 123 130 t b b;
#X msg 96 166 start;
#X msg 203 133 stop;
#X obj 306 9 r amp_a;
#X obj 248 9 r amp_d;
#X obj 283 65 +;
#X obj 209 101 delay 10;
#X msg 160 166 open -bytes 3 ./KickMakerSound.wav;
#X obj 111 9 inlet record_set;
#X connect 1 0 0 0;
#X connect 2 0 3 0;
#X connect 2 1 9 0;
#X connect 3 0 0 0;
#X connect 4 0 0 0;
#X connect 5 0 7 1;
#X connect 6 0 7 0;
#X connect 7 0 8 1;
#X connect 8 0 4 0;
#X connect 9 0 0 0;
#X connect 10 0 2 0;
#X connect 10 0 8 0;
#X restore 114 195 pd record;
#N canvas 646 398 337 240 record_trigger 0;
#X obj 120 26 r record;
#X obj 110 60 t b b;
#X obj 30 168 outlet record_trigger;
#X obj 182 169 outlet record_set;
#X obj 63 102 delay 0.5;
#X connect 0 0 1 0;
#X connect 1 0 4 0;
#X connect 1 1 3 0;
#X connect 4 0 2 0;
#X restore 110 24 pd record_trigger;
#X connect 0 0 1 0;
#X connect 0 0 2 1;
#X connect 1 0 2 0;
#X connect 2 0 3 0;
#X connect 2 0 3 1;
#X connect 2 0 4 0;
#X connect 5 0 1 0;
#X connect 5 0 2 1;
#X connect 5 1 4 1;
#X restore 202 276 pd KickMaker;
#X obj 12 94 cnv 15 150 120 empty empty empty 20 12 0 14 -204786 -66577
0;
#X obj 21 171 s amp_d;
#X obj 22 122 s amp_a;
#X floatatom 21 191 5 0 0 0 - - -;
#X floatatom 23 141 5 0 0 0 - - -;
#X text 56 143 ms;
#X text 55 193 ms;
#X obj 181 95 cnv 15 150 160 empty empty empty 20 12 0 14 -203904 -66577
0;
#X obj 192 123 s freq_a;
#X obj 192 173 s freq_d;
#X floatatom 192 141 5 0 0 0 - - -;
#X floatatom 192 191 5 0 0 0 - - -;
#X text 226 142 ms;
#X text 225 192 ms;
#X obj 190 216 s freq_amt;
#X floatatom 190 234 5 0 0 0 - - -;
#X text 224 236 Hz;
#X text 27 96 Amplitude Envelope;
#X text 197 100 Frequency Envelope;
#X obj 25 123 hsl 128 15 0 10 0 0 empty empty empty -2 -8 0 10 -262144
-1 -1 0 1;
#X obj 24 172 hsl 128 15 0 400 0 0 empty empty empty -2 -8 0 10 -262144
-1 -1 3100 1;
#X obj 194 124 hsl 128 15 0 40 0 0 empty empty empty -2 -8 0 10 -262144
-1 -1 0 1;
#X obj 195 174 hsl 128 15 0 400 0 0 empty empty empty -2 -8 0 10 -262144
-1 -1 2200 1;
#X obj 193 217 hsl 128 15 0 500 0 0 empty empty empty -2 -8 0 10 -262144
-1 -1 6500 1;
#X text 96 135 Attack;
#X text 98 186 Decay;
#X text 265 138 Attack;
#X text 264 189 Decay;
#X text 267 232 Amount;
#X obj 349 197 cnv 15 90 60 empty empty empty 20 12 0 14 -261234 -66577
0;
#X obj 372 207 bng 15 250 50 0 empty empty empty 17 7 0 10 -262144
-1 -1;
#X obj 372 225 s record;
#X obj 182 16 cnv 15 150 70 empty empty empty 20 12 0 14 -204800 -66577
0;
#X obj 190 41 s freq;
#X obj 193 42 hsl 128 15 0 127 0 0 empty empty empty -2 -8 0 10 -262144
-1 -1 0 1;
#X floatatom 190 60 5 0 0 0 - - -;
#X text 225 61 Hz;
#X text 214 21 Root Frequency;
#X obj 349 17 cnv 15 90 170 empty empty empty 20 12 0 14 -232576 -66577
0;
#X obj 374 161 s volume;
#X obj 374 26 vsl 15 128 0 1 0 0 empty empty empty 0 -9 0 10 -262144
-1 -1 8900 1;
#X obj 12 17 cnv 15 150 60 empty empty empty 20 12 0 14 -262130 -66577
0;
#X obj 95 38 tgl 15 0 empty empty empty 17 7 0 10 -262144 -1 -1 1 1
;
#X floatatom 34 38 5 0 0 0 - - -;
#X obj 96 56 s play;
#X obj 34 56 s bpm;
#X text 63 17 Preview;
#X obj 12 222 cnv 15 150 80 empty empty empty 20 12 0 14 -261682 -66577
0;
#X floatatom 22 271 5 0 0 0 - - -;
#X obj 24 250 s phase;
#X obj 27 251 hsl 128 15 0 1 0 0 empty empty empty -2 -8 0 10 -262144
-1 -1 0 1;
#X text 56 270 cycles;
#X text 71 227 Phase;
#X connect 20 0 3 0;
#X connect 20 0 5 0;
#X connect 21 0 2 0;
#X connect 21 0 4 0;
#X connect 22 0 9 0;
#X connect 22 0 11 0;
#X connect 23 0 10 0;
#X connect 23 0 12 0;
#X connect 24 0 15 0;
#X connect 24 0 16 0;
#X connect 31 0 32 0;
#X connect 35 0 34 0;
#X connect 35 0 36 0;
#X connect 41 0 40 0;
#X connect 43 0 45 0;
#X connect 44 0 46 0;
#X connect 51 0 49 0;
#X connect 51 0 50 0;
