#N canvas 683 54 467 372 10;
#N canvas 510 323 539 371 KickMaker 0;
#N canvas 766 302 450 300 metronome 0;
#X obj 217 111 expr 1000/($f1/60);
#X obj 184 149 metro;
#X obj 185 180 outlet;
#X obj 217 82 r bpm;
#X obj 153 111 r play;
#X connect 0 0 1 1;
#X connect 1 0 2 0;
#X connect 3 0 0 0;
#X connect 4 0 1 0;
#X restore 237 86 pd metronome;
#N canvas 686 296 450 300 osc 0;
#X obj 190 44 inlet metronome;
#X obj 158 196 osc~ 30;
#X obj 122 48 r freq;
#X obj 157 240 outlet~;
#N canvas 291 336 450 300 freq_env 0;
#X obj 97 22 inlet trigger;
#X obj 159 263 outlet~;
#X obj 152 179 vline~;
#X msg 139 128 1 \$2 \, 0 \$3 \$2;
#X obj 133 93 pack f f f;
#X obj 197 22 r freq_a;
#X obj 264 22 r freq_d;
#X obj 169 221 *~ 0;
#X obj 328 18 r freq_amt;
#X connect 0 0 4 0;
#X connect 2 0 7 0;
#X connect 3 0 2 0;
#X connect 4 0 3 0;
#X connect 5 0 4 1;
#X connect 6 0 4 2;
#X connect 7 0 1 0;
#X connect 8 0 7 1;
#X restore 165 99 pd freq_env;
#X obj 152 152 +~;
#X obj 190 69 t b f;
#X connect 0 0 6 0;
#X connect 1 0 3 0;
#X connect 2 0 5 0;
#X connect 4 0 5 1;
#X connect 5 0 1 0;
#X connect 6 0 4 0;
#X connect 6 1 5 1;
#X restore 221 129 pd osc;
#N canvas 538 314 450 300 amp 0;
#X obj 77 17 inlet~;
#X obj 158 264 outlet~;
#X obj 151 157 *~ 0.8;
#X obj 245 24 r volume;
#X obj 135 20 inlet metronome;
#N canvas 686 466 450 300 amp_env 0;
#X obj 88 19 inlet trigger;
#X obj 168 224 outlet~;
#X obj 167 146 vline~;
#X msg 164 112 1 \$2 \, 0 \$3 \$2;
#X obj 162 88 pack f f f;
#X obj 187 19 r amp_a;
#X obj 253 17 r amp_d;
#X connect 0 0 4 0;
#X connect 2 0 1 0;
#X connect 3 0 2 0;
#X connect 4 0 3 0;
#X connect 5 0 4 1;
#X connect 6 0 4 2;
#X restore 126 61 pd amp_env;
#X obj 101 99 *~;
#X connect 0 0 6 0;
#X connect 2 0 1 0;
#X connect 3 0 2 1;
#X connect 4 0 5 0;
#X connect 5 0 6 1;
#X connect 6 0 2 0;
#X restore 276 177 pd amp;
#X obj 269 234 dac~;
#X connect 0 0 1 0;
#X connect 0 0 2 1;
#X connect 1 0 2 0;
#X connect 2 0 3 0;
#X connect 2 0 3 1;
#X restore 189 343 pd KickMaker;
#X obj 17 27 tgl 15 0 empty empty empty 17 7 0 10 -262144 -1 -1 0 1
;
#X floatatom 67 27 5 0 0 0 - - -;
#X obj 17 44 s play;
#X obj 66 43 s bpm;
#X floatatom 116 26 5 0 0 0 - - -;
#X obj 115 44 s freq;
#X obj 388 164 s volume;
#X obj 385 24 vsl 15 128 0 1 0 0 empty empty empty 0 -9 0 10 -262144
-1 -1 12700 1;
#X obj 3 76 cnv 15 150 120 empty empty empty 20 12 0 14 -204786 -66577
0;
#X obj 12 153 s amp_d;
#X obj 13 104 s amp_a;
#X floatatom 12 173 5 0 0 0 - - -;
#X floatatom 14 123 5 0 0 0 - - -;
#X text 47 125 ms;
#X text 46 175 ms;
#X obj 174 73 cnv 15 150 160 empty empty empty 20 12 0 14 -261234 -66577
0;
#X obj 185 98 s freq_a;
#X obj 185 148 s freq_d;
#X floatatom 185 116 5 0 0 0 - - -;
#X floatatom 185 166 5 0 0 0 - - -;
#X text 219 117 ms;
#X text 218 168 ms;
#X obj 183 191 s freq_amt;
#X floatatom 183 209 5 0 0 0 - - -;
#X text 217 211 Hz;
#X text 18 78 Amplitude Envelope;
#X text 190 75 Frequency Envelope;
#X obj 16 105 hsl 128 15 0 40 0 0 empty empty empty -2 -8 0 10 -262144
-1 -1 100 1;
#X obj 15 154 hsl 128 15 0 400 0 0 empty empty empty -2 -8 0 10 -262144
-1 -1 0 1;
#X obj 187 99 hsl 128 15 0 40 0 0 empty empty empty -2 -8 0 10 -262144
-1 -1 0 1;
#X obj 188 149 hsl 128 15 0 400 0 0 empty empty empty -2 -8 0 10 -262144
-1 -1 0 1;
#X obj 186 192 hsl 128 15 0 500 0 0 empty empty empty -2 -8 0 10 -262144
-1 -1 0 1;
#X text 87 117 Attack;
#X text 89 168 Decay;
#X text 258 113 Attack;
#X text 261 164 Decay;
#X text 260 207 Amount;
#X connect 1 0 3 0;
#X connect 2 0 4 0;
#X connect 5 0 6 0;
#X connect 8 0 7 0;
#X connect 28 0 11 0;
#X connect 28 0 13 0;
#X connect 29 0 10 0;
#X connect 29 0 12 0;
#X connect 30 0 17 0;
#X connect 30 0 19 0;
#X connect 31 0 18 0;
#X connect 31 0 20 0;
#X connect 32 0 23 0;
#X connect 32 0 24 0;
