#N canvas 55 23 450 300 10;
#N canvas 43 467 450 300 ArpeggiatedHarmonics 1;
#X obj 79 267 outlet frequency;
#X obj 185 269 outlet amplitude;
#X floatatom 72 21 5 0 0 0 - - -;
#X obj 116 23 bng 15 250 50 0 empty empty empty 17 7 0 10 -262144 -1
-1;
#X obj 116 45 s start;
#X obj 168 22 bng 15 250 50 0 empty empty empty 17 7 0 10 -262144 -1
-1;
#X obj 168 45 s stop;
#N canvas 642 34 450 300 AHPatch 1;
#N canvas 600 412 450 300 metronome 0;
#X obj 199 99 expr 1000/($f1/60);
#X obj 172 130 metro;
#X obj 172 187 outlet;
#X obj 199 72 r bpm;
#X obj 81 58 r start;
#X obj 134 58 r stop;
#X msg 149 92 0;
#X connect 0 0 1 1;
#X connect 1 0 2 0;
#X connect 3 0 0 0;
#X connect 4 0 1 0;
#X connect 5 0 6 0;
#X connect 6 0 1 0;
#X restore 249 63 pd metronome;
#X obj 36 269 outlet frequency;
#X obj 164 267 outlet amplitude;
#N canvas 562 360 450 300 frequency 0;
#X obj 81 277 outlet frequency;
#X obj 218 26 r freq;
#X obj 69 25 inlet harmonic;
#X obj 123 116 * 1;
#X connect 1 0 3 1;
#X connect 2 0 3 0;
#X connect 3 0 0 0;
#X restore 38 203 pd frequency;
#N canvas 629 441 450 300 amplitude 0;
#X obj 35 258 outlet amplitude;
#X obj 37 37 inlet harmonic;
#X obj 38 113 expr 1/$f1;
#X connect 1 0 2 0;
#X connect 2 0 0 0;
#X restore 165 204 pd amplitude;
#X obj 299 269 outlet bang;
#N canvas 685 243 450 300 harmonics 1;
#X obj 26 8 inlet metronome;
#X obj 128 6 loadbang;
#X obj 189 6 r harmonics;
#X obj 141 273 outlet harmonics;
#N canvas 689 493 450 300 random 0;
#X obj 213 103 random;
#X obj 214 128 + 1;
#X obj 55 28 inlet metronome;
#X obj 170 28 inlet harmonics;
#X obj 261 197 outlet;
#X obj 292 26 inlet first_harmonic;
#X obj 255 160 +;
#X connect 0 0 1 0;
#X connect 1 0 6 0;
#X connect 2 0 0 0;
#X connect 3 0 0 1;
#X connect 5 0 6 1;
#X connect 6 0 4 0;
#X restore 187 103 pd random;
#N canvas 587 347 450 300 up 0;
#X obj 161 95 f;
#X obj 160 124 + 1;
#X msg 203 54 1;
#X obj 162 159 mod;
#X obj 162 185 + 1;
#X obj 164 235 +;
#X obj 44 17 inlet metronome;
#X obj 150 15 inlet loadbang;
#X obj 248 17 inlet harmonics;
#X obj 163 264 outlet;
#X obj 350 16 inlet first_harmonic;
#X connect 0 0 1 0;
#X connect 1 0 0 1;
#X connect 1 0 3 0;
#X connect 2 0 0 1;
#X connect 3 0 4 0;
#X connect 4 0 5 0;
#X connect 5 0 9 0;
#X connect 6 0 0 0;
#X connect 7 0 2 0;
#X connect 8 0 3 1;
#X connect 10 0 5 1;
#X restore 139 103 pd up;
#X obj 266 6 r first_harmonic;
#N canvas 572 373 450 300 switch 1;
#X obj 104 26 inlet up;
#X obj 179 26 inlet random;
#X obj 181 257 outlet;
#X obj 48 23 r mode;
#X obj 180 121 switch 2;
#X obj 66 55 + 1;
#X connect 0 0 4 1;
#X connect 1 0 4 2;
#X connect 3 0 5 0;
#X connect 4 0 2 0;
#X connect 5 0 4 0;
#X restore 153 162 pd switch;
#X connect 0 0 4 0;
#X connect 0 0 5 0;
#X connect 1 0 5 1;
#X connect 2 0 4 1;
#X connect 2 0 5 2;
#X connect 4 0 7 1;
#X connect 5 0 7 0;
#X connect 6 0 5 3;
#X connect 6 0 4 2;
#X connect 7 0 3 0;
#X restore 109 122 pd harmonics;
#X connect 0 0 5 0;
#X connect 0 0 6 0;
#X connect 3 0 1 0;
#X connect 4 0 2 0;
#X connect 6 0 3 0;
#X connect 6 0 4 0;
#X restore 188 232 pd AHPatch;
#X floatatom 21 23 5 0 0 0 - - -;
#X obj 21 47 s freq;
#X obj 72 47 s bpm;
#X floatatom 23 76 5 0 0 0 - - -;
#X obj 23 99 s harmonics;
#X obj 293 272 outlet bang;
#X obj 105 99 s first_harmonic;
#X floatatom 105 74 5 0 0 0 - - -;
#X obj 240 20 vradio 15 1 0 2 empty empty empty 0 -8 0 10 -262144 -1
-1 1;
#X obj 238 61 s mode;
#X text 260 18 up;
#X text 260 35 rnd;
#X connect 2 0 10 0;
#X connect 3 0 4 0;
#X connect 5 0 6 0;
#X connect 7 0 0 0;
#X connect 7 1 1 0;
#X connect 7 2 13 0;
#X connect 8 0 9 0;
#X connect 11 0 12 0;
#X connect 15 0 14 0;
#X connect 16 0 17 0;
#X restore 122 16 pd ArpeggiatedHarmonics;
#X floatatom 157 147 5 0 0 0 - - -;
#X floatatom 225 149 5 0 0 0 - - -;
#X obj 156 201 *~ 0.5;
#X obj 193 235 *~;
#X obj 188 278 dac~;
#X text 230 215 test zone will be removed;
#X obj 170 176 phasor~;
#X connect 0 0 1 0;
#X connect 0 1 2 0;
#X connect 1 0 7 0;
#X connect 2 0 4 1;
#X connect 3 0 4 0;
#X connect 4 0 5 0;
#X connect 4 0 5 1;
#X connect 7 0 3 0;
