#N canvas 55 23 450 300 10;
#N canvas 39 474 450 300 ArpeggiatedHarmonics 1;
#X obj 79 267 outlet frequency;
#X obj 185 269 outlet amplitude;
#X floatatom 72 21 5 0 0 0 - - -;
#X obj 116 23 bng 15 250 50 0 empty empty empty 17 7 0 10 -262144 -1
-1;
#X obj 116 45 s start;
#X obj 168 22 bng 15 250 50 0 empty empty empty 17 7 0 10 -262144 -1
-1;
#X obj 168 45 s stop;
#N canvas 642 34 450 300 AHPatch 1;
#N canvas 600 412 450 300 metronome 0;
#X obj 199 99 expr 1000/($f1/60);
#X obj 172 130 metro;
#X obj 172 187 outlet;
#X obj 199 72 r bpm;
#X obj 81 58 r start;
#X obj 134 58 r stop;
#X msg 149 92 0;
#X connect 0 0 1 1;
#X connect 1 0 2 0;
#X connect 3 0 0 0;
#X connect 4 0 1 0;
#X connect 5 0 6 0;
#X connect 6 0 1 0;
#X restore 249 63 pd metronome;
#X obj 36 269 outlet frequency;
#X obj 164 267 outlet amplitude;
#N canvas 562 360 450 300 frequency 0;
#X obj 81 277 outlet frequency;
#X obj 218 26 r freq;
#X obj 69 25 inlet harmonic;
#X obj 123 116 * 1;
#X connect 1 0 3 1;
#X connect 2 0 3 0;
#X connect 3 0 0 0;
#X restore 38 203 pd frequency;
#N canvas 629 441 450 300 amplitude 0;
#X obj 35 258 outlet amplitude;
#X obj 37 37 inlet harmonic;
#X obj 38 113 expr 1/$f1;
#X connect 1 0 2 0;
#X connect 2 0 0 0;
#X restore 165 204 pd amplitude;
#X obj 299 269 outlet bang;
#N canvas 666 224 450 300 harmonics 1;
#X obj 74 14 inlet metronome;
#X obj 141 76 f;
#X obj 140 105 + 1;
#X obj 183 14 loadbang;
#X msg 183 35 1;
#X obj 142 140 mod;
#X obj 184 67 r harmonics;
#X obj 142 166 + 1;
#X obj 141 273 outlet harmonics;
#N canvas 708 482 450 300 random 0;
#X obj 213 103 random;
#X obj 214 128 + 1;
#X obj 114 38 inlet metronome;
#X obj 253 39 inlet harmonics;
#X obj 219 178 outlet;
#X connect 0 0 1 0;
#X connect 1 0 4 0;
#X connect 2 0 0 0;
#X connect 3 0 0 1;
#X restore 259 139 pd random;
#X connect 0 0 1 0;
#X connect 0 0 9 0;
#X connect 1 0 2 0;
#X connect 2 0 1 1;
#X connect 2 0 5 0;
#X connect 3 0 4 0;
#X connect 4 0 1 1;
#X connect 5 0 7 0;
#X connect 6 0 5 1;
#X connect 6 0 9 1;
#X connect 7 0 8 0;
#X restore 109 122 pd harmonics;
#X connect 0 0 5 0;
#X connect 0 0 6 0;
#X connect 3 0 1 0;
#X connect 4 0 2 0;
#X connect 6 0 3 0;
#X connect 6 0 4 0;
#X restore 188 232 pd AHPatch;
#X floatatom 21 23 5 0 0 0 - - -;
#X obj 21 47 s freq;
#X obj 72 47 s bpm;
#X floatatom 23 76 5 0 0 0 - - -;
#X obj 23 99 s harmonics;
#X obj 293 272 outlet bang;
#X connect 2 0 10 0;
#X connect 3 0 4 0;
#X connect 5 0 6 0;
#X connect 7 0 0 0;
#X connect 7 1 1 0;
#X connect 7 2 13 0;
#X connect 8 0 9 0;
#X connect 11 0 12 0;
#X restore 122 16 pd ArpeggiatedHarmonics;
#X floatatom 157 147 5 0 0 0 - - -;
#X floatatom 225 149 5 0 0 0 - - -;
#X obj 156 201 *~ 0.5;
#X obj 193 235 *~;
#X obj 188 278 dac~;
#X text 230 215 test zone will be removed;
#X obj 157 170 phasor~;
#X connect 0 0 1 0;
#X connect 0 1 2 0;
#X connect 1 0 7 0;
#X connect 2 0 4 1;
#X connect 3 0 4 0;
#X connect 4 0 5 0;
#X connect 4 0 5 1;
#X connect 7 0 3 0;
