#N canvas 193 14 1050 976 10;
#X obj 321 13 inlet;
#N canvas 647 200 450 409 routing 0;
#X obj 197 231 s \$0-nr-of-octaves;
#X obj 58 125 s \$0-gate-time;
#X obj 234 264 s \$0-down/up;
#X obj 308 368 s \$0-hold;
#X obj 270 306 s \$0-repeat;
#X obj 22 19 inlet;
#X obj 343 129 outlet;
#X obj 308 338 expr ($f1-1)*-1;
#X obj 22 96 s \$0-reset;
#X obj 165 204 s \$0-random;
#X obj 129 178 s \$0-direction;
#X obj 95 152 s \$0-time-bpm;
#X obj 269 202 s \$0-on;
#X obj 22 55 route reset gate time direction random octaves down/up
repeat on hold;
#X connect 5 0 13 0;
#X connect 7 0 3 0;
#X connect 13 0 8 0;
#X connect 13 1 1 0;
#X connect 13 2 11 0;
#X connect 13 3 10 0;
#X connect 13 4 9 0;
#X connect 13 5 0 0;
#X connect 13 6 2 0;
#X connect 13 7 4 0;
#X connect 13 8 12 0;
#X connect 13 9 7 0;
#X connect 13 10 6 0;
#X restore 321 46 pd routing;
#X obj 321 104 unpack f f;
#X obj 378 303 +;
#X obj 378 193 t b f;
#X obj 405 220 != 0;
#X obj 405 248 * 2;
#X obj 405 273 - 1;
#X obj 378 270 f;
#X obj 271 259 r \$0-hold;
#X obj 202 151 unpack f f;
#X obj 321 73 t a a;
#X obj 202 550 list-extend;
#X obj 238 425 list-delete;
#X obj 238 315 list-find;
#X obj 202 260 demux;
#X obj 259 201 == 0;
#X obj 202 597 l;
#X obj 238 463 t a b;
#X obj 238 382 l;
#X obj 238 349 t b a;
#X obj 378 543 metro 500;
#X obj 378 608 f;
#X obj 414 608 + 1;
#X obj 378 640 mod;
#X obj 378 350 != 0;
#X obj 378 373 change;
#X obj 302 824 list-nth;
#X obj 263 713 l;
#N canvas 356 426 480 553 output 0;
#X obj 55 31 inlet;
#X obj 141 69 r \$0-gate-time;
#X obj 130 126 *;
#X obj 141 99 t b f;
#X obj 55 154 makenote 1 10;
#X obj 52 265 outlet;
#X obj 56 238 pack f f;
#X obj 130 39 inlet;
#X connect 0 0 4 0;
#X connect 1 0 3 0;
#X connect 2 0 4 2;
#X connect 3 0 2 0;
#X connect 3 1 2 1;
#X connect 4 0 6 0;
#X connect 4 1 6 1;
#X connect 6 0 5 0;
#X connect 7 0 2 0;
#X restore 341 893 pd output;
#X msg 618 445 60000 \$1;
#X obj 618 472 /;
#X obj 618 372 * 120;
#X obj 618 421 * 4;
#X obj 238 290 spigot;
#X obj 378 409 sel 0 1;
#X msg 378 443 0;
#X obj 513 353 r \$0-hold;
#X obj 456 262 f;
#X obj 456 479 mux 1 2;
#X obj 456 295 + 1;
#X obj 456 231 t b;
#X msg 566 207 -1;
#X obj 429 194 sel 0;
#X obj 378 480 spigot;
#X obj 278 582 route f;
#X obj 302 846 route 0;
#X obj 552 445 sel 0;
#X msg 550 553 0;
#N canvas 677 31 575 920 mod 0;
#X obj 73 97 inlet;
#X obj 73 791 outlet;
#X obj 167 505 div;
#X obj 167 529 mod;
#X obj 207 596 * 2;
#X obj 207 617 - 1;
#X obj 207 638 * 12;
#X obj 207 540 r \$0-down/up;
#X text 200 665 -12 12;
#X obj 167 99 inlet;
#X obj 167 219 f;
#X obj 200 218 + 1;
#X obj 218 100 r \$0-new-phrase;
#X obj 167 664 *;
#X obj 73 755 +;
#X obj 182 261 r \$0-nr-of-octaves;
#X obj 182 381 *;
#X obj 210 348 t b f;
#X obj 182 284 + 1;
#X obj 210 292 r \$0-nr-of-pitches;
#X obj 167 406 mod;
#X obj 167 135 t b;
#X obj 213 488 + 1;
#X msg 218 129 0;
#X obj 357 81 r \$0-repeat;
#X msg 357 140 1 \$1;
#X obj 357 162 /;
#X obj 357 112 + 1;
#X obj 213 461 r \$0-nr-of-octaves;
#X connect 0 0 14 0;
#X connect 2 0 3 0;
#X connect 3 0 13 0;
#X connect 4 0 5 0;
#X connect 5 0 6 0;
#X connect 6 0 13 1;
#X connect 7 0 4 0;
#X connect 9 0 21 0;
#X connect 10 0 11 0;
#X connect 10 0 20 0;
#X connect 11 0 10 1;
#X connect 12 0 23 0;
#X connect 13 0 14 1;
#X connect 14 0 1 0;
#X connect 15 0 18 0;
#X connect 16 0 20 1;
#X connect 17 0 16 0;
#X connect 17 1 16 1;
#X connect 18 0 16 0;
#X connect 19 0 17 0;
#X connect 19 0 2 1;
#X connect 20 0 2 0;
#X connect 21 0 10 0;
#X connect 22 0 3 1;
#X connect 23 0 10 1;
#X connect 24 0 27 0;
#X connect 25 0 26 0;
#X connect 26 0 11 1;
#X connect 27 0 25 0;
#X connect 28 0 22 0;
#X restore 341 871 pd mod;
#X obj 456 725 s \$0-nr-of-pitches;
#X obj 412 440 t b b;
#X obj 439 756 s \$0-new-phrase;
#X obj 378 326 t f f;
#X obj 378 667 t b f f;
#X msg 393 506 0;
#X obj 374 799 random;
#X obj 347 733 demux;
#X obj 374 767 t b;
#N canvas 906 516 450 300 direction 0;
#X obj 64 16 inlet;
#X obj 64 225 outlet;
#X obj 83 153 list-sort;
#X obj 134 96 - 1;
#X obj 103 121 != 0;
#X obj 64 182 mux 1 2;
#X obj 103 71 t f f;
#X obj 103 43 r \$0-direction;
#X connect 0 0 2 0;
#X connect 0 0 5 0;
#X connect 2 0 5 1;
#X connect 3 0 2 1;
#X connect 4 0 5 2;
#X connect 5 0 1 0;
#X connect 6 0 4 0;
#X connect 6 1 3 0;
#X connect 7 0 6 0;
#X restore 263 750 pd direction;
#X obj 618 396 + 60;
#X obj 374 706 r \$0-random;
#X obj 341 924 outlet;
#X obj 618 339 r \$0-time-bpm;
#X obj 566 42 r \$0-reset;
#X msg 535 93 0;
#X obj 130 467 t b b;
#X obj 378 159 spigot;
#X msg 505 189 1;
#X obj 378 130 t f f;
#X obj 478 163 sel 0;
#X obj 130 437 r \$0-reset;
#X obj 523 477 t b b;
#X obj 643 198 loadbang;
#X obj 643 268 s \$0-hold;
#X msg 643 230 0;
#X obj 513 386 t f f f;
#X obj 265 788 route 0;
#X connect 0 0 1 0;
#X connect 1 0 11 0;
#X connect 2 1 69 0;
#X connect 3 0 8 1;
#X connect 3 0 53 0;
#X connect 4 0 8 0;
#X connect 4 1 5 0;
#X connect 5 0 6 0;
#X connect 6 0 7 0;
#X connect 7 0 3 1;
#X connect 8 0 3 0;
#X connect 9 0 34 1;
#X connect 10 0 15 0;
#X connect 10 1 16 0;
#X connect 11 0 2 0;
#X connect 11 1 10 0;
#X connect 12 0 17 0;
#X connect 13 0 18 0;
#X connect 14 0 20 0;
#X connect 15 0 12 0;
#X connect 15 1 34 0;
#X connect 16 0 15 1;
#X connect 17 0 14 1;
#X connect 17 0 19 1;
#X connect 17 0 28 1;
#X connect 18 0 12 0;
#X connect 18 1 12 1;
#X connect 19 0 13 0;
#X connect 20 0 19 0;
#X connect 20 1 13 1;
#X connect 21 0 22 0;
#X connect 22 0 23 0;
#X connect 22 0 24 0;
#X connect 23 0 22 1;
#X connect 24 0 54 0;
#X connect 25 0 26 0;
#X connect 26 0 35 0;
#X connect 27 0 46 0;
#X connect 28 0 59 0;
#X connect 29 0 62 0;
#X connect 30 0 31 0;
#X connect 31 0 21 1;
#X connect 31 0 29 1;
#X connect 32 0 60 0;
#X connect 33 0 30 0;
#X connect 34 0 14 0;
#X connect 35 0 12 1;
#X connect 35 0 36 0;
#X connect 35 1 42 0;
#X connect 35 1 51 0;
#X connect 36 0 44 0;
#X connect 37 0 76 0;
#X connect 38 0 40 0;
#X connect 39 0 50 0;
#X connect 39 0 24 1;
#X connect 39 0 56 1;
#X connect 40 0 38 1;
#X connect 40 0 39 0;
#X connect 41 0 38 0;
#X connect 42 0 38 0;
#X connect 43 1 41 0;
#X connect 44 0 45 0;
#X connect 44 0 21 0;
#X connect 45 0 28 1;
#X connect 46 1 49 0;
#X connect 47 0 72 0;
#X connect 48 0 28 1;
#X connect 49 0 29 0;
#X connect 51 0 44 0;
#X connect 51 1 52 0;
#X connect 51 1 55 0;
#X connect 53 0 25 0;
#X connect 53 1 39 1;
#X connect 54 0 28 0;
#X connect 54 1 57 0;
#X connect 54 2 49 1;
#X connect 55 0 22 1;
#X connect 56 0 27 1;
#X connect 57 0 27 1;
#X connect 57 1 58 0;
#X connect 58 0 56 0;
#X connect 59 0 77 0;
#X connect 60 0 33 0;
#X connect 61 0 57 1;
#X connect 63 0 32 0;
#X connect 64 0 65 0;
#X connect 64 0 42 0;
#X connect 65 0 67 1;
#X connect 65 0 8 1;
#X connect 66 0 12 0;
#X connect 66 1 12 1;
#X connect 67 0 4 0;
#X connect 67 0 43 0;
#X connect 68 0 67 1;
#X connect 69 0 67 0;
#X connect 69 1 70 0;
#X connect 70 1 68 0;
#X connect 71 0 66 0;
#X connect 72 0 21 0;
#X connect 72 1 48 0;
#X connect 73 0 75 0;
#X connect 75 0 74 0;
#X connect 76 0 44 1;
#X connect 76 1 39 2;
#X connect 76 2 47 0;
#X connect 77 1 27 0;
#X coords 0 976 1 975 300 130 0;
