#N canvas 724 13 797 949 10;
#X obj 50 175 stripnote;
#X obj 50 245 f;
#X obj 83 244 + 1;
#X obj 50 275 mod 8;
#X obj 50 146 spigot;
#X obj 50 208 t b f;
#X obj 231 417 list-extend;
#X obj 50 758 list-dripslow;
#X obj 50 504 metro 500;
#X obj 197 721 l;
#X msg 216 620 0;
#X msg 50 423 1;
#X obj 77 572 f;
#X obj 110 571 + 1;
#X obj 77 621 mod 8;
#X obj 77 652 sel 7;
#X obj 50 540 t b b;
#X obj 50 389 t b b b;
#X obj 343 372 + 60;
#X msg 343 422 60000 \$1;
#X obj 343 449 /;
#X obj 343 653 *;
#X obj 50 798 makenote 1 10;
#X obj 362 622 t b f;
#X obj 343 333 * 120;
#X msg 50 112 -200;
#X obj 389 39 sel 0 1;
#X msg 389 114 8;
#X obj 180 239 - 1;
#X obj 389 146 * 1;
#X msg 416 114 1;
#X msg 464 114 2;
#X obj 389 71 t b b;
#X obj 437 70 t b b;
#X obj 95 904 outlet;
#X obj 95 874 pack f f;
#X obj 50 33 inlet;
#X obj 50 56 unpack;
#X obj 50 831 sel -200;
#X obj 343 398 * 4;
#X obj 512 51 route rec play notes bpm gate;
#X obj 543 151 s \$0-play;
#X obj 513 185 s \$0-rec;
#X obj 577 123 s \$0-notes;
#X obj 613 101 s \$0-bpm;
#X obj 653 80 s \$0-gate;
#X obj 509 23 inlet;
#X obj 215 893 outlet;
#X msg 291 831 rec \$1;
#X msg 215 844 play \$1;
#X obj 343 305 r \$0-bpm;
#X obj 362 596 r \$0-gate;
#X obj 389 12 r \$0-notes;
#X obj 216 678 l;
#X obj 50 353 once;
#X obj 197 552 f;
#X obj 197 579 sel 0 1;
#X obj 201 308 sel 0;
#X obj 294 73 r \$0-rec;
#X obj 101 455 r \$0-play;
#X obj 201 279 r \$0-play;
#X obj 50 304 sel 7;
#X msg 249 522 1;
#X msg 291 539 0;
#X obj 291 480 t b b;
#X obj 294 142 t b;
#X obj 50 329 t b b;
#X obj 50 85 sel 84;
#X text 95 85 midinote number to insert a silence;
#X msg 92 542 -1;
#X obj 164 552 f;
#X obj 164 591 - 1;
#X obj 216 644 t b b f;
#X obj 180 182 t f b;
#X msg 207 209 0;
#X connect 0 0 5 0;
#X connect 1 0 2 0;
#X connect 1 0 3 0;
#X connect 2 0 1 1;
#X connect 3 0 61 0;
#X connect 4 0 0 0;
#X connect 5 0 1 0;
#X connect 5 1 6 0;
#X connect 6 0 53 1;
#X connect 7 0 22 0;
#X connect 8 0 16 0;
#X connect 9 0 7 1;
#X connect 10 0 72 0;
#X connect 11 0 49 0;
#X connect 12 0 13 0;
#X connect 12 0 14 0;
#X connect 13 0 12 1;
#X connect 14 0 15 0;
#X connect 15 0 55 0;
#X connect 16 0 7 0;
#X connect 16 1 12 0;
#X connect 17 0 11 0;
#X connect 17 1 9 0;
#X connect 17 2 69 0;
#X connect 18 0 39 0;
#X connect 19 0 20 0;
#X connect 20 0 8 1;
#X connect 20 0 21 0;
#X connect 21 0 22 2;
#X connect 22 0 38 0;
#X connect 22 1 35 1;
#X connect 23 0 21 0;
#X connect 23 1 21 1;
#X connect 24 0 18 0;
#X connect 25 0 4 0;
#X connect 26 0 32 0;
#X connect 26 1 33 0;
#X connect 27 0 29 0;
#X connect 28 0 61 1;
#X connect 29 0 70 1;
#X connect 29 0 73 0;
#X connect 30 0 29 1;
#X connect 31 0 29 1;
#X connect 32 0 27 0;
#X connect 32 1 30 0;
#X connect 33 0 27 0;
#X connect 33 1 31 0;
#X connect 35 0 34 0;
#X connect 36 0 37 0;
#X connect 37 0 67 0;
#X connect 37 1 0 1;
#X connect 38 1 35 0;
#X connect 39 0 19 0;
#X connect 40 0 42 0;
#X connect 40 1 41 0;
#X connect 40 2 43 0;
#X connect 40 3 44 0;
#X connect 40 4 45 0;
#X connect 46 0 40 0;
#X connect 48 0 47 0;
#X connect 49 0 47 0;
#X connect 50 0 24 0;
#X connect 51 0 23 0;
#X connect 52 0 26 0;
#X connect 53 0 9 0;
#X connect 54 0 17 0;
#X connect 55 0 56 0;
#X connect 56 0 9 0;
#X connect 56 1 10 0;
#X connect 57 0 54 1;
#X connect 58 0 4 1;
#X connect 58 0 65 0;
#X connect 59 0 8 0;
#X connect 60 0 57 0;
#X connect 61 0 66 0;
#X connect 62 0 55 1;
#X connect 63 0 48 0;
#X connect 64 0 63 0;
#X connect 64 1 62 0;
#X connect 65 0 6 1;
#X connect 66 0 54 0;
#X connect 66 1 64 0;
#X connect 67 0 25 0;
#X connect 67 1 4 0;
#X connect 69 0 12 1;
#X connect 70 0 14 1;
#X connect 70 0 71 0;
#X connect 71 0 15 1;
#X connect 72 0 53 0;
#X connect 72 1 70 0;
#X connect 72 2 55 1;
#X connect 73 0 3 1;
#X connect 73 0 28 0;
#X connect 73 1 74 0;
#X connect 74 0 1 1;
#X coords 0 949 1 948 150 110 0;
