#N canvas 492 207 253 277 10;
#N canvas 474 145 524 532 list-MIDInoteon3 0;
#X obj 168 158 bag;
#X obj 168 192 list prepend;
#X obj 147 240 list;
#X obj 257 215 t l;
#X msg 111 127 flush;
#X msg 399 105 1;
#X obj 113 160 t b b a;
#X obj 308 105 list split 1;
#X obj 308 73 t a b;
#X obj 342 140 t a;
#X obj 167 77 notein;
#X obj 167 103 pack;
#X obj 153 430 outlet notes;
#X obj 107 29 inlet query;
#X connect 0 0 1 0;
#X connect 1 0 2 1;
#X connect 1 0 3 0;
#X connect 2 0 8 0;
#X connect 2 0 12 0;
#X connect 3 0 1 1;
#X connect 4 0 6 0;
#X connect 5 0 0 1;
#X connect 6 0 2 1;
#X connect 6 1 2 0;
#X connect 6 1 1 1;
#X connect 6 2 0 0;
#X connect 7 0 0 0;
#X connect 7 1 9 0;
#X connect 8 0 7 0;
#X connect 8 1 5 0;
#X connect 9 0 7 0;
#X connect 10 0 11 0;
#X connect 10 1 11 1;
#X connect 11 0 0 0;
#X connect 13 0 4 0;
#X restore 58 138 pd list-MIDInoteon3;
#X text 14 79 Keeps track in a list of which keys;
#X text 21 94 are being pressed (MIDI note on);
#X text 22 212 - Outlet: List of MIDI note on (keys;
#X text 22 188 - Inlet: Bang to get the list.;
#X text 34 226 that are being pressed).;
#X text 21 21 Different approach \, using [bag];
#X text 17 39 By Simon Wise from PD mailing list;
