#N canvas 517 35 474 330 10;
#N canvas 645 300 462 405 list-MIDInoteon2 0;
#N canvas 1019 51 274 329 on_off_route 0;
#X obj 86 31 notein;
#X obj 72 132 route 0;
#X obj 23 245 outlet on;
#X obj 114 246 outlet off;
#X obj 111 160 list split 1;
#X obj 86 73 swap;
#X obj 84 100 pack;
#X connect 0 0 5 0;
#X connect 0 1 5 1;
#X connect 1 0 3 0;
#X connect 1 1 4 0;
#X connect 4 1 2 0;
#X connect 5 0 6 0;
#X connect 5 1 6 1;
#X connect 6 0 1 0;
#X restore 163 16 pd on_off_route;
#X obj 88 122 list prepend;
#X obj 157 102 t l;
#X obj 301 93 list;
#X obj 251 113 list-find;
#X obj 264 196 list-delete;
#X obj 146 305 list;
#X obj 250 60 t a b;
#X obj 252 166 list;
#X obj 252 133 t b a;
#X obj 265 220 s \$0-newlist;
#X obj 321 68 r \$0-newlist;
#X obj 167 284 r \$0-newlist;
#X obj 157 82 r \$0-newlist;
#X obj 308 137 r \$0-newlist;
#X obj 88 144 s \$0-newlist;
#X obj 86 255 inlet query;
#X obj 146 330 outlet notes;
#X connect 0 0 1 0;
#X connect 0 1 7 0;
#X connect 1 0 15 0;
#X connect 2 0 1 1;
#X connect 3 0 4 1;
#X connect 4 0 9 0;
#X connect 5 0 10 0;
#X connect 6 0 17 0;
#X connect 7 0 4 0;
#X connect 7 1 3 0;
#X connect 8 0 5 0;
#X connect 9 0 8 0;
#X connect 9 1 5 1;
#X connect 11 0 3 1;
#X connect 12 0 6 1;
#X connect 13 0 2 0;
#X connect 14 0 8 1;
#X connect 16 0 6 0;
#X restore 171 138 pd list-MIDInoteon2;
#X text 136 55 Keeps track in a list of which keys;
#X text 143 70 are being pressed (MIDI note on);
#X text 139 222 - Outlet: List of MIDI note on (keys;
#X text 140 202 - Inlet: Bang to get the list.;
#X text 151 236 that are being pressed).;
#X text 124 10 Simpler approach \, uses vanilla objects only;
