#N canvas 635 292 450 300 10;
#N canvas 614 447 224 297 on_off_route 0;
#X obj 86 31 notein;
#X obj 72 72 pack f f;
#X obj 72 132 route 0;
#X obj 72 102 zl rev;
#X obj 23 245 outlet on;
#X obj 114 246 outlet off;
#X obj 111 160 list split 1;
#X connect 0 0 1 0;
#X connect 0 1 1 1;
#X connect 1 0 3 0;
#X connect 2 0 5 0;
#X connect 2 1 6 0;
#X connect 3 0 2 0;
#X connect 6 1 4 0;
#X restore 174 115 pd on_off_route;
#X text 137 38 Routes MIDI note on messages to;
#X text 137 56 the left outlet \, and note off;
#X text 138 74 messages to the right outlet;
#X text 148 121 on;
#X text 277 120 off;
