#N canvas 277 227 450 300 10;
#N canvas 318 398 450 300 Pan 0;
#X obj 187 119 inlet~;
#X obj 177 235 outlet~ L;
#X obj 265 211 outlet~ R;
#X obj 266 179 *~;
#X obj 183 171 expr~ 1-$v1;
#N canvas 763 354 450 300 smoother 0;
#X obj 194 81 inlet;
#X obj 197 165 outlet~;
#X obj 196 110 pack 0 50;
#X obj 196 137 line~;
#X connect 0 0 2 0;
#X connect 2 0 3 0;
#X connect 3 0 1 0;
#X restore 285 121 pd smoother;
#X obj 279 67 r pan;
#X obj 169 198 *~;
#X connect 0 0 3 0;
#X connect 0 0 7 0;
#X connect 3 0 2 0;
#X connect 4 0 7 1;
#X connect 5 0 4 0;
#X connect 5 0 3 1;
#X connect 6 0 5 0;
#X connect 7 0 1 0;
#X restore 182 128 pd Pan;
#X text 143 91 0 = L 1 = R 0.5 = C;
