#N canvas 597 87 518 301 10;
#X declare -lib sfruit;
#N canvas 589 366 484 299 vmetro 0;
#X obj 104 254 outlet;
#X obj 327 29 inlet;
#X obj 94 7 inlet;
#X obj 107 195 delay;
#X obj 234 178 list-onearg \$1 1;
#X msg 105 152 stop;
#X msg 184 131 bang;
#X obj 77 218 t b b;
#X obj 234 155 loadbang;
#X obj 375 29 import sfruit;
#X obj 94 30 route stop;
#X obj 190 90 route 0;
#X msg 104 128 bang;
#X obj 153 58 route bang float;
#X connect 1 0 4 1;
#X connect 2 0 10 0;
#X connect 3 0 7 0;
#X connect 4 0 3 1;
#X connect 5 0 3 0;
#X connect 6 0 3 0;
#X connect 7 0 3 0;
#X connect 7 1 0 0;
#X connect 8 0 4 0;
#X connect 10 0 12 0;
#X connect 10 1 13 0;
#X connect 11 0 12 0;
#X connect 11 1 6 0;
#X connect 12 0 5 0;
#X connect 13 0 6 0;
#X connect 13 1 11 0;
#X restore 206 126 pd vmetro;
#X text 72 37 (message) bang;
#X text 183 52 (float) 0;
#X text 72 54 (float) non-zero;
#X text 20 37 Inlet 1:;
#X text 182 39 (message) stop;
#X text 75 21 to start:;
#X text 185 23 to stop:;
#X text 22 100 Inlet 2: Time in ms;
#X text 165 177 Based on sfruit vmetro;
#X text 104 194 Bang wasn't working \, so I made some modifications
;
