#N canvas 41 48 836 356 10;
#X floatatom 412 221 5 0 0 0 - - -;
#X obj 230 44 s BPfreq;
#X obj 397 41 s BPq;
#X floatatom 397 18 5 0 0 0 - - -;
#X obj 423 245 s coarse;
#X obj 237 17 hsl 128 15 0 20000 0 0 empty empty empty -2 -8 0 10 -262144
-1 -1 6800 1;
#X obj 275 103 hsl 128 15 0 127 0 0 panX paninput pan 8 8 0 10 -262144
-1 -1 6400 1;
#X obj 274 150 hsl 128 15 0 127 0 0 ampX ampinput volume 8 8 0 10 -262144
-1 -1 10300 1;
#N canvas 656 359 135 252 cpu 0;
#X obj 23 220 outlet;
#X obj 23 130 cputime;
#X obj 22 15 loadbang;
#X obj 23 74 metro 1000;
#X msg 22 43 1;
#X obj 23 102 t b b;
#X obj 23 190 * 0.1;
#X obj 23 159 int;
#X connect 1 0 7 0;
#X connect 2 0 4 0;
#X connect 3 0 5 0;
#X connect 4 0 3 0;
#X connect 5 0 1 0;
#X connect 5 1 1 1;
#X connect 6 0 0 0;
#X connect 7 0 6 0;
#X restore 727 7 pd cpu;
#X floatatom 727 33 5 0 0 0 - - -;
#N canvas 329 403 255 240 select 0;
#X obj 39 43 inlet trigger;
#X obj 67 109 f;
#X obj 67 135 + 1;
#X msg 144 51 0;
#X obj 143 23 loadbang;
#X obj 67 183 s selection;
#X obj 68 159 mod 2;
#X obj 39 69 metro 1000;
#X connect 0 0 7 0;
#X connect 1 0 2 0;
#X connect 2 0 1 1;
#X connect 2 0 6 0;
#X connect 3 0 1 1;
#X connect 4 0 3 0;
#X connect 6 0 5 0;
#X connect 7 0 1 0;
#X restore 582 278 pd select;
#X obj 583 248 bng 15 250 50 0 empty empty empty 17 7 0 10 -262144
-1 -1;
#X obj 275 125 hsl 128 15 0 127 0 0 panvarianceX panvarianceinput pan_variance
8 8 0 10 -262144 -1 -1 12700 1;
#X obj 33 126 s freq1;
#X obj 86 127 s freq2;
#X obj 139 126 s freq3;
#X obj 74 43 s octaves;
#X floatatom 74 18 5 0 0 0 - - -;
#X obj 332 87 bng 15 250 50 0 panresetX _nothing empty 17 7 0 10 -262144
-1 -1;
#N canvas 826 41 450 300 CLODrone 1;
#N canvas 734 352 450 300 controlvalues 0;
#N canvas 850 168 252 94 pan 0;
#X obj 6 10 r panvarianceX;
#X obj 7 58 s panvariance;
#X obj 6 34 / 127;
#X obj 107 35 / 127;
#X obj 106 11 r panX;
#X obj 108 59 s pan;
#X obj 157 9 r panresetX;
#X obj 157 61 s paninput;
#X msg 157 34 64;
#X connect 0 0 2 0;
#X connect 2 0 1 0;
#X connect 3 0 5 0;
#X connect 4 0 3 0;
#X connect 6 0 8 0;
#X connect 8 0 7 0;
#X restore 11 11 pd pan;
#N canvas 1007 371 186 114 amp 0;
#X obj 9 12 r ampX;
#X obj 9 36 / 127;
#X obj 9 62 s amp;
#X obj 61 12 r ampvarianceX;
#X obj 61 37 / 127;
#X obj 60 89 s ampvariance;
#X obj 59 60 * 0.5;
#X connect 0 0 1 0;
#X connect 1 0 2 0;
#X connect 3 0 4 0;
#X connect 4 0 6 0;
#X connect 6 0 5 0;
#X restore 59 11 pd amp;
#N canvas 283 562 236 170 dist 0;
#X obj 17 17 r distamtX;
#X obj 17 124 s distamt;
#X obj 17 44 / 127;
#X obj 17 71 * 9;
#X obj 17 97 + 0.5;
#X obj 99 17 r distvarianceX;
#X obj 99 41 / 127;
#X obj 99 68 s distvariance;
#X connect 0 0 2 0;
#X connect 2 0 3 0;
#X connect 3 0 4 0;
#X connect 4 0 1 0;
#X connect 5 0 6 0;
#X connect 6 0 7 0;
#X restore 108 13 pd dist;
#N canvas 203 535 688 221 env 0;
#X obj 27 14 r attackX;
#X obj 134 15 r decayX;
#X obj 259 18 r sustainlevelX;
#X obj 368 19 r sustaintimeX;
#X obj 498 13 r releaseX;
#X obj 27 144 s att;
#X obj 137 137 s dcy;
#X obj 259 72 s sus;
#X obj 355 170 s sut;
#X obj 499 150 s rel;
#X obj 259 44 / 127;
#X obj 27 37 / 127;
#X obj 27 60 * 1000;
#X obj 27 81 * 10;
#X obj 27 105 + 1000;
#X obj 71 164 s attnum;
#X obj 69 139 / 1000;
#X obj 135 38 / 127;
#X obj 135 61 * 1000;
#X obj 135 82 * 10;
#X obj 198 140 / 1000;
#X obj 198 164 s dcynum;
#X obj 368 43 / 127;
#X obj 369 67 * 1000;
#X obj 369 88 * 10;
#X obj 369 112 + 1000;
#X obj 411 146 / 1000;
#X obj 412 176 s sutnum;
#X obj 499 35 / 127;
#X obj 500 59 * 1000;
#X obj 500 104 + 1000;
#X obj 542 138 / 1000;
#X obj 543 170 s relnum;
#X obj 500 80 * 60;
#X connect 0 0 11 0;
#X connect 1 0 17 0;
#X connect 2 0 10 0;
#X connect 3 0 22 0;
#X connect 4 0 28 0;
#X connect 10 0 7 0;
#X connect 11 0 12 0;
#X connect 12 0 13 0;
#X connect 13 0 14 0;
#X connect 14 0 5 0;
#X connect 14 0 16 0;
#X connect 16 0 15 0;
#X connect 17 0 18 0;
#X connect 18 0 19 0;
#X connect 19 0 6 0;
#X connect 19 0 20 0;
#X connect 20 0 21 0;
#X connect 22 0 23 0;
#X connect 23 0 24 0;
#X connect 24 0 25 0;
#X connect 25 0 26 0;
#X connect 25 0 8 0;
#X connect 26 0 27 0;
#X connect 28 0 29 0;
#X connect 29 0 33 0;
#X connect 30 0 31 0;
#X connect 30 0 9 0;
#X connect 31 0 32 0;
#X connect 33 0 30 0;
#X restore 161 15 pd env;
#N canvas 829 386 258 60 fm 0;
#N canvas 264 359 248 278 fmamt 0;
#X obj 46 195 s fmamt;
#X obj 18 16 r fmamtX;
#X obj 18 41 / 127;
#X obj 18 64 * 100;
#X obj 88 2 r fmamtmulX;
#X obj 88 26 + 1;
#X obj 88 114 switch 3;
#X obj 88 51 t b f;
#X obj 51 152 *;
#X obj 111 193 s fmamtnum;
#X msg 100 80 10;
#X msg 134 80 100;
#X msg 169 80 1000;
#X connect 1 0 2 0;
#X connect 2 0 3 0;
#X connect 3 0 8 0;
#X connect 4 0 5 0;
#X connect 5 0 7 0;
#X connect 6 0 8 1;
#X connect 7 0 10 0;
#X connect 7 0 11 0;
#X connect 7 0 12 0;
#X connect 7 1 6 0;
#X connect 8 0 0 0;
#X connect 8 0 9 0;
#X connect 10 0 6 1;
#X connect 11 0 6 2;
#X connect 12 0 6 3;
#X restore 14 12 pd fmamt;
#N canvas 597 468 368 245 fm 0;
#X obj 25 18 r fmcoarseX;
#X obj 25 43 + 1;
#X obj 145 167 switch 10;
#X obj 25 66 t b f;
#X msg 20 110 0.25;
#X msg 57 111 0.5;
#X msg 91 110 1;
#X msg 122 109 2;
#X msg 156 111 3;
#X msg 191 113 4;
#X msg 216 112 5;
#X msg 250 113 6;
#X msg 280 114 7;
#X msg 314 115 8;
#X obj 137 198 s coarse;
#X obj 199 196 s coarsenum;
#X connect 0 0 1 0;
#X connect 1 0 3 0;
#X connect 2 0 14 0;
#X connect 2 0 15 0;
#X connect 3 0 4 0;
#X connect 3 0 5 0;
#X connect 3 0 6 0;
#X connect 3 0 7 0;
#X connect 3 0 8 0;
#X connect 3 0 9 0;
#X connect 3 0 10 0;
#X connect 3 0 11 0;
#X connect 3 0 12 0;
#X connect 3 0 13 0;
#X connect 3 1 2 0;
#X connect 4 0 2 1;
#X connect 5 0 2 2;
#X connect 6 0 2 3;
#X connect 7 0 2 4;
#X connect 8 0 2 5;
#X connect 9 0 2 6;
#X connect 10 0 2 7;
#X connect 11 0 2 8;
#X connect 12 0 2 9;
#X connect 13 0 2 10;
#X restore 73 12 pd fm coarse;
#N canvas 915 584 450 300 fmvariance 0;
#X restore 155 14 pd fmvariance;
#X restore 207 15 pd fm;
#X restore 9 12 pd controlvalues;
#N canvas 269 424 450 300 defaults 0;
#N canvas 327 626 198 121 pan 0;
#X obj 15 12 loadbang;
#X msg 15 45 127;
#X obj 61 68 s paninput;
#X msg 62 46 64;
#X obj 10 92 s panvarianceinput;
#X connect 0 0 1 0;
#X connect 0 0 3 0;
#X connect 1 0 4 0;
#X restore 17 18 pd pan;
#N canvas 743 462 222 108 amp 0;
#X obj 14 -15 loadbang;
#X msg 15 21 100;
#X obj 15 44 s ampinput;
#X msg 89 21 0;
#X obj 88 45 s ampvarianceinput;
#X connect 0 0 1 0;
#X connect 0 0 3 0;
#X connect 1 0 2 0;
#X connect 3 0 4 0;
#X restore 66 18 pd amp;
#N canvas 650 317 395 184 env 0;
#X obj 17 14 loadbang;
#X obj 14 107 s attackinput;
#X msg 16 79 64;
#X obj 53 76 s decayinput;
#X msg 56 49 0;
#X obj 114 131 s sustainlevelinput;
#X msg 114 103 127;
#X obj 162 77 s sustaintimeinput;
#X msg 163 48 115;
#X obj 250 133 s releaseinput;
#X msg 249 107 125;
#X connect 0 0 2 0;
#X connect 0 0 4 0;
#X connect 0 0 6 0;
#X connect 0 0 8 0;
#X connect 0 0 10 0;
#X connect 2 0 1 0;
#X connect 4 0 3 0;
#X connect 6 0 5 0;
#X connect 8 0 7 0;
#X connect 10 0 9 0;
#X restore 118 20 pd env;
#X restore 120 13 pd defaults;
#X obj 165 174 drone 0;
#X restore 686 294 pd CLODrone;
#X obj 275 172 hsl 128 15 0 127 0 0 ampvarianceX ampvarianceinput volume_variance
8 8 0 10 -262144 -1 -1 3500 1;
#X obj 38 284 hsl 128 15 0 127 0 0 distamtX distamtinput distortion
8 8 0 10 -262144 -1 -1 9700 1;
#X obj 37 307 hsl 128 15 0 127 0 0 distvarianceX distvarianceinput
distortion_variance 8 8 0 10 -262144 -1 -1 9900 1;
#X msg 33 97 440;
#X msg 83 98 523.251;
#X msg 143 98 659.255;
#X obj 91 72 loadbang;
#X obj 503 73 hsl 128 15 0 127 0 0 attackX attackinput attack 8 8 0
10 -262144 -1 -1 6400 1;
#X obj 504 95 hsl 128 15 0 127 0 0 decayX decayinput decay 8 8 0 10
-262144 -1 -1 0 1;
#X obj 505 118 hsl 128 15 0 127 0 0 sustainlevelX sustainlevelinput
sustain_level 8 8 0 10 -262144 -1 -1 12700 1;
#X obj 503 142 hsl 128 15 0 127 0 0 sustaintimeX sustaintimeinput sustain_time
8 8 0 10 -262144 -1 -1 11500 1;
#X obj 504 164 hsl 128 15 0 127 0 0 releaseX releaseinput release 8
8 0 10 -262144 -1 -1 12500 1;
#X obj 639 73 nbx 4 14 -1e+37 1e+37 0 0 __nothing attnum empty 0 -8
0 10 -262144 -1 -1 6.03937 256;
#X obj 640 96 nbx 4 14 -1e+37 1e+37 0 0 __nothing dcynum empty 0 -8
0 10 -262144 -1 -1 0 256;
#X obj 639 142 nbx 4 14 -1e+37 1e+37 0 0 __nothing sutnum empty 0 -8
0 10 -262144 -1 -1 10.0551 256;
#X obj 639 164 nbx 4 14 -1e+37 1e+37 0 0 __nothing relnum empty 0 -8
0 10 -262144 -1 -1 60.0551 256;
#X obj 41 214 hsl 128 15 0 127 0 0 fmamtX fmamtinput FM_amount 8 8
0 10 -262144 -1 -1 12700 1;
#X obj 175 214 hradio 15 1 0 3 fmamtmulX fmamtmulinput empty 0 -8 0
10 -262144 -1 -1 1;
#X obj 226 214 nbx 5 14 -1e+37 1e+37 0 0 __nothing fmamtnum empty 0
-8 0 10 -262144 -1 -1 10000 256;
#X obj 71 240 hradio 15 1 0 10 fmcoarseX fmcoarseinput empty 0 -8 0
10 -262144 -1 -1 7;
#X obj 229 241 nbx 4 14 -1e+37 1e+37 0 0 __nothing coarsenum empty
0 -8 0 10 -262144 -1 -1 6 256;
#X connect 0 0 4 0;
#X connect 3 0 2 0;
#X connect 5 0 1 0;
#X connect 8 0 9 0;
#X connect 11 0 10 0;
#X connect 17 0 16 0;
#X connect 23 0 13 0;
#X connect 24 0 14 0;
#X connect 25 0 15 0;
#X connect 26 0 23 0;
#X connect 26 0 24 0;
#X connect 26 0 25 0;
