#N canvas 24 81 776 335 10;
#X floatatom 100 148 5 0 0 0 - - -;
#X floatatom 32 79 5 0 0 0 - - -;
#X floatatom 49 151 5 0 0 0 - - -;
#X obj 230 44 s BPfreq;
#X obj 280 102 s BPq;
#X floatatom 280 79 5 0 0 0 - - -;
#X obj 111 172 s coarse;
#X obj 46 174 s fmamt;
#X obj 237 17 hsl 128 15 0 20000 0 0 empty empty empty -2 -8 0 10 -262144
-1 -1 6800 1;
#X obj 233 173 hsl 128 15 0 127 0 0 panX paninput pan 8 8 0 10 -262144
-1 -1 6400 1;
#X obj 236 262 hsl 128 15 0 127 0 0 ampX ampinput volume 8 8 0 10 -262144
-1 -1 10300 1;
#X obj 547 110 s dcy;
#X obj 508 109 s att;
#X obj 587 111 s sus;
#X obj 626 110 s sut;
#X obj 667 110 s rel;
#X floatatom 508 69 5 0 0 0 - - -;
#X floatatom 548 70 5 0 0 0 - - -;
#X floatatom 592 70 5 0 0 0 - - -;
#X floatatom 629 70 5 0 0 0 - - -;
#X floatatom 669 73 5 0 0 0 - - -;
#N canvas 656 359 135 252 cpu 0;
#X obj 23 220 outlet;
#X obj 23 130 cputime;
#X obj 22 15 loadbang;
#X obj 23 74 metro 1000;
#X msg 22 43 1;
#X obj 23 102 t b b;
#X obj 23 190 * 0.1;
#X obj 23 159 int;
#X connect 1 0 7 0;
#X connect 2 0 4 0;
#X connect 3 0 5 0;
#X connect 4 0 3 0;
#X connect 5 0 1 0;
#X connect 5 1 1 1;
#X connect 6 0 0 0;
#X connect 7 0 6 0;
#X restore 399 23 pd cpu;
#X floatatom 399 49 5 0 0 0 - - -;
#N canvas 329 403 255 240 select 0;
#X obj 39 43 inlet trigger;
#X obj 67 109 f;
#X obj 67 135 + 1;
#X msg 144 51 0;
#X obj 143 23 loadbang;
#X obj 67 183 s selection;
#X obj 68 159 mod 2;
#X obj 39 69 metro 1000;
#X connect 0 0 7 0;
#X connect 1 0 2 0;
#X connect 2 0 1 1;
#X connect 2 0 6 0;
#X connect 3 0 1 1;
#X connect 4 0 3 0;
#X connect 6 0 5 0;
#X connect 7 0 1 0;
#X restore 478 224 pd select;
#X obj 479 194 bng 15 250 50 0 empty empty empty 17 7 0 10 -262144
-1 -1;
#X obj 233 195 hsl 128 15 0 127 0 0 panvarianceX panvarianceinput pan_variance
8 8 0 10 -262144 -1 -1 12700 1;
#X obj 32 104 s freq1;
#X obj 85 105 s freq2;
#X obj 138 104 s freq3;
#X floatatom 84 78 8 0 0 0 - - -;
#X floatatom 137 77 8 0 0 0 - - -;
#X obj 70 49 s octaves;
#X floatatom 74 18 5 0 0 0 - - -;
#X obj 290 157 bng 15 250 50 0 panresetX _nothing empty 17 7 0 10 -262144
-1 -1;
#N canvas 826 41 450 300 CLODrone 1;
#N canvas 769 233 450 300 controlvalues 0;
#N canvas 850 168 252 94 pan 0;
#X obj 6 10 r panvarianceX;
#X obj 7 58 s panvariance;
#X obj 6 34 / 127;
#X obj 107 35 / 127;
#X obj 106 11 r panX;
#X obj 108 59 s pan;
#X obj 157 9 r panresetX;
#X obj 157 61 s paninput;
#X msg 157 34 64;
#X connect 0 0 2 0;
#X connect 2 0 1 0;
#X connect 3 0 5 0;
#X connect 4 0 3 0;
#X connect 6 0 8 0;
#X connect 8 0 7 0;
#X restore 11 11 pd pan;
#N canvas 1007 371 186 114 amp 0;
#X obj 9 12 r ampX;
#X obj 9 36 / 127;
#X obj 9 62 s amp;
#X obj 61 12 r ampvarianceX;
#X obj 61 37 / 127;
#X obj 60 89 s ampvariance;
#X obj 59 60 * 0.5;
#X connect 0 0 1 0;
#X connect 1 0 2 0;
#X connect 3 0 4 0;
#X connect 4 0 6 0;
#X connect 6 0 5 0;
#X restore 59 11 pd amp;
#N canvas 283 562 236 170 dist 0;
#X obj 17 17 r distamtX;
#X obj 17 124 s distamt;
#X obj 17 44 / 127;
#X obj 17 71 * 9;
#X obj 17 97 + 0.5;
#X obj 99 17 r distvarianceX;
#X obj 99 41 / 127;
#X obj 99 68 s distvariance;
#X connect 0 0 2 0;
#X connect 2 0 3 0;
#X connect 3 0 4 0;
#X connect 4 0 1 0;
#X connect 5 0 6 0;
#X connect 6 0 7 0;
#X restore 108 13 pd dist;
#X restore 9 12 pd controlvalues;
#N canvas 269 424 450 300 defaults 0;
#N canvas 327 626 198 121 pan 0;
#X obj 15 12 loadbang;
#X msg 15 45 127;
#X obj 61 68 s paninput;
#X msg 62 46 64;
#X obj 10 92 s panvarianceinput;
#X connect 0 0 1 0;
#X connect 0 0 3 0;
#X connect 1 0 4 0;
#X restore 17 18 pd pan;
#N canvas 743 462 222 108 amp 0;
#X obj 14 -15 loadbang;
#X msg 15 21 100;
#X obj 15 44 s ampinput;
#X msg 89 21 0;
#X obj 88 45 s ampvarianceinput;
#X connect 0 0 1 0;
#X connect 0 0 3 0;
#X connect 1 0 2 0;
#X connect 3 0 4 0;
#X restore 66 18 pd amp;
#X restore 120 13 pd defaults;
#X obj 165 174 drone 0;
#X restore 649 269 pd CLODrone;
#X obj 237 284 hsl 128 15 0 127 0 0 ampvarianceX ampvarianceinput volume_variance
8 8 0 10 -262144 -1 -1 0 1;
#X obj 49 260 hsl 128 15 0 127 0 0 distamtX distamtinput distortion
8 8 0 10 -262144 -1 -1 8100 1;
#X obj 48 283 hsl 128 15 0 127 0 0 distvarianceX distvarianceinput
distortion_variance 8 8 0 10 -262144 -1 -1 9400 1;
#X connect 0 0 6 0;
#X connect 1 0 26 0;
#X connect 2 0 7 0;
#X connect 5 0 4 0;
#X connect 8 0 3 0;
#X connect 16 0 12 0;
#X connect 17 0 11 0;
#X connect 18 0 13 0;
#X connect 19 0 14 0;
#X connect 20 0 15 0;
#X connect 21 0 22 0;
#X connect 24 0 23 0;
#X connect 29 0 27 0;
#X connect 30 0 28 0;
#X connect 32 0 31 0;
