#N canvas 21 99 776 335 10;
#X floatatom 100 148 5 0 0 0 - - -;
#X floatatom 32 79 5 0 0 0 - - -;
#X floatatom 49 151 5 0 0 0 - - -;
#X obj 230 44 s BPfreq;
#X obj 280 102 s BPq;
#X floatatom 280 79 5 0 0 0 - - -;
#X obj 111 172 s coarse;
#X obj 46 174 s fmamt;
#X floatatom 98 251 5 0 0 0 - - -;
#X obj 95 293 s distamt;
#X obj 237 17 hsl 128 15 0 20000 0 0 empty empty empty -2 -8 0 10 -262144
-1 -1 12700 1;
#X obj 231 204 s pan;
#X obj 233 173 hsl 128 15 0 1 0 0 empty empty empty -2 -8 0 10 -262144
-1 -1 6500 1;
#X obj 226 289 s amp;
#X obj 236 262 hsl 128 15 0 1 0 0 empty empty empty -2 -8 0 10 -262144
-1 -1 8500 1;
#X obj 547 110 s dcy;
#X obj 508 109 s att;
#X obj 587 111 s sus;
#X obj 626 110 s sut;
#X obj 667 110 s rel;
#X floatatom 508 69 5 0 0 0 - - -;
#X floatatom 548 70 5 0 0 0 - - -;
#X floatatom 592 70 5 0 0 0 - - -;
#X floatatom 629 70 5 0 0 0 - - -;
#X floatatom 669 73 5 0 0 0 - - -;
#N canvas 656 359 135 252 cpu 0;
#X obj 23 220 outlet;
#X obj 23 130 cputime;
#X obj 22 15 loadbang;
#X obj 23 74 metro 1000;
#X msg 22 43 1;
#X obj 23 102 t b b;
#X obj 23 190 * 0.1;
#X obj 23 159 int;
#X connect 1 0 7 0;
#X connect 2 0 4 0;
#X connect 3 0 5 0;
#X connect 4 0 3 0;
#X connect 5 0 1 0;
#X connect 5 1 1 1;
#X connect 6 0 0 0;
#X connect 7 0 6 0;
#X restore 399 23 pd cpu;
#X floatatom 399 49 5 0 0 0 - - -;
#N canvas 329 403 255 240 select 0;
#X obj 39 43 inlet trigger;
#X obj 67 109 f;
#X obj 67 135 + 1;
#X msg 144 51 0;
#X obj 143 23 loadbang;
#X obj 67 183 s selection;
#X obj 68 159 mod 2;
#X obj 39 69 metro 1000;
#X connect 0 0 7 0;
#X connect 1 0 2 0;
#X connect 2 0 1 1;
#X connect 2 0 6 0;
#X connect 3 0 1 1;
#X connect 4 0 3 0;
#X connect 6 0 5 0;
#X connect 7 0 1 0;
#X restore 478 224 pd select;
#X obj 479 194 bng 15 250 50 0 empty empty empty 17 7 0 10 -262144
-1 -1;
#X obj 626 288 drone 0;
#X obj 305 229 s panvariance;
#X obj 307 203 hsl 128 15 0 1 0 0 empty empty empty -2 -8 0 10 -262144
-1 -1 12700 1;
#X obj 32 104 s freq1;
#X obj 85 105 s freq2;
#X obj 138 104 s freq3;
#X floatatom 84 78 8 0 0 0 - - -;
#X floatatom 137 77 8 0 0 0 - - -;
#X obj 70 44 s octaves;
#X floatatom 74 18 5 0 0 0 - - -;
#X connect 0 0 6 0;
#X connect 1 0 32 0;
#X connect 2 0 7 0;
#X connect 5 0 4 0;
#X connect 8 0 9 0;
#X connect 10 0 3 0;
#X connect 12 0 11 0;
#X connect 14 0 13 0;
#X connect 20 0 16 0;
#X connect 21 0 15 0;
#X connect 22 0 17 0;
#X connect 23 0 18 0;
#X connect 24 0 19 0;
#X connect 25 0 26 0;
#X connect 28 0 27 0;
#X connect 31 0 30 0;
#X connect 35 0 33 0;
#X connect 36 0 34 0;
#X connect 38 0 37 0;
