#N canvas 24 34 838 391 10;
#X obj 230 44 s BPfreq;
#X obj 397 41 s BPq;
#X floatatom 397 18 5 0 0 0 - - -;
#X obj 237 17 hsl 128 15 0 20000 0 0 empty empty empty -2 -8 0 10 -262144
-1 -1 0 1;
#X obj 327 95 hsl 128 15 0 127 0 0 panX paninput pan 8 8 0 10 -262144
-1 -1 6400 1;
#X obj 327 116 hsl 128 15 0 127 0 0 ampX ampinput volume 8 8 0 10 -262144
-1 -1 3000 1;
#N canvas 656 359 135 252 cpu 0;
#X obj 23 220 outlet;
#X obj 23 130 cputime;
#X obj 22 15 loadbang;
#X obj 23 74 metro 1000;
#X msg 22 43 1;
#X obj 23 102 t b b;
#X obj 23 190 * 0.1;
#X obj 23 159 int;
#X connect 1 0 7 0;
#X connect 2 0 4 0;
#X connect 3 0 5 0;
#X connect 4 0 3 0;
#X connect 5 0 1 0;
#X connect 5 1 1 1;
#X connect 6 0 0 0;
#X connect 7 0 6 0;
#X restore 727 7 pd cpu;
#X floatatom 727 33 5 0 0 0 - - -;
#X obj 601 280 bng 15 250 50 0 metrotrigger empty start_metronome 17
7 0 10 -262144 -1 -1;
#X obj 327 138 hsl 128 15 0 127 0 0 panvarianceX panvarianceinput pan_variance
8 8 0 10 -262144 -1 -1 12700 1;
#X obj 33 126 s freq1;
#X obj 86 127 s freq2;
#X obj 139 126 s freq3;
#X obj 74 43 s octaves;
#X floatatom 74 18 5 0 0 0 - - -;
#X obj 384 79 bng 15 250 50 0 panresetX _nothing empty 17 7 0 10 -262144
-1 -1;
#N canvas 360 427 450 300 CLODrone 1;
#N canvas 730 353 273 126 controlvalues 0;
#N canvas 850 168 252 94 pan 0;
#X obj 6 10 r panvarianceX;
#X obj 7 58 s panvariance;
#X obj 6 34 / 127;
#X obj 107 35 / 127;
#X obj 106 11 r panX;
#X obj 108 59 s pan;
#X obj 157 9 r panresetX;
#X obj 157 61 s paninput;
#X msg 157 34 64;
#X connect 0 0 2 0;
#X connect 2 0 1 0;
#X connect 3 0 5 0;
#X connect 4 0 3 0;
#X connect 6 0 8 0;
#X connect 8 0 7 0;
#X restore 11 11 pd pan;
#N canvas 1007 371 186 114 amp 0;
#X obj 9 12 r ampX;
#X obj 9 36 / 127;
#X obj 9 62 s amp;
#X obj 61 12 r ampvarianceX;
#X obj 61 37 / 127;
#X obj 60 89 s ampvariance;
#X obj 59 60 * 0.5;
#X connect 0 0 1 0;
#X connect 1 0 2 0;
#X connect 3 0 4 0;
#X connect 4 0 6 0;
#X connect 6 0 5 0;
#X restore 59 11 pd amp;
#N canvas 283 562 236 170 dist 0;
#X obj 17 17 r distamtX;
#X obj 17 124 s distamt;
#X obj 17 44 / 127;
#X obj 17 71 * 9;
#X obj 17 97 + 0.5;
#X obj 99 17 r distvarianceX;
#X obj 99 41 / 127;
#X obj 99 68 s distvariance;
#X connect 0 0 2 0;
#X connect 2 0 3 0;
#X connect 3 0 4 0;
#X connect 4 0 1 0;
#X connect 5 0 6 0;
#X connect 6 0 7 0;
#X restore 108 13 pd dist;
#N canvas 203 535 688 221 env 0;
#X obj 27 14 r attackX;
#X obj 134 15 r decayX;
#X obj 259 18 r sustainlevelX;
#X obj 368 19 r sustaintimeX;
#X obj 498 13 r releaseX;
#X obj 27 144 s att;
#X obj 137 137 s dcy;
#X obj 259 72 s sus;
#X obj 355 170 s sut;
#X obj 499 150 s rel;
#X obj 259 44 / 127;
#X obj 27 37 / 127;
#X obj 27 60 * 1000;
#X obj 27 81 * 10;
#X obj 27 105 + 1000;
#X obj 71 164 s attnum;
#X obj 69 139 / 1000;
#X obj 135 38 / 127;
#X obj 135 61 * 1000;
#X obj 135 82 * 10;
#X obj 198 140 / 1000;
#X obj 198 164 s dcynum;
#X obj 368 43 / 127;
#X obj 369 67 * 1000;
#X obj 369 88 * 10;
#X obj 369 112 + 1000;
#X obj 411 146 / 1000;
#X obj 412 176 s sutnum;
#X obj 499 35 / 127;
#X obj 500 59 * 1000;
#X obj 500 104 + 1000;
#X obj 542 138 / 1000;
#X obj 543 170 s relnum;
#X obj 500 80 * 60;
#X connect 0 0 11 0;
#X connect 1 0 17 0;
#X connect 2 0 10 0;
#X connect 3 0 22 0;
#X connect 4 0 28 0;
#X connect 10 0 7 0;
#X connect 11 0 12 0;
#X connect 12 0 13 0;
#X connect 13 0 14 0;
#X connect 14 0 5 0;
#X connect 14 0 16 0;
#X connect 16 0 15 0;
#X connect 17 0 18 0;
#X connect 18 0 19 0;
#X connect 19 0 6 0;
#X connect 19 0 20 0;
#X connect 20 0 21 0;
#X connect 22 0 23 0;
#X connect 23 0 24 0;
#X connect 24 0 25 0;
#X connect 25 0 26 0;
#X connect 25 0 8 0;
#X connect 26 0 27 0;
#X connect 28 0 29 0;
#X connect 29 0 33 0;
#X connect 30 0 31 0;
#X connect 30 0 9 0;
#X connect 31 0 32 0;
#X connect 33 0 30 0;
#X restore 161 15 pd env;
#N canvas 668 398 176 46 fm 0;
#N canvas 321 378 362 249 fmamt 0;
#X obj 37 218 s fmamt;
#X obj 18 16 r fmamtX;
#X obj 18 41 / 127;
#X obj 18 64 * 100;
#X obj 88 2 r fmamtmulX;
#X obj 88 26 + 1;
#X obj 88 114 switch 3;
#X obj 88 51 t b f;
#X obj 42 175 *;
#X obj 101 219 s fmamtnum;
#X msg 100 80 10;
#X msg 134 80 100;
#X msg 169 80 1000;
#X obj 71 144 t b f;
#X obj 230 43 r fmamtvarianceX;
#X obj 229 68 / 127;
#X obj 229 92 s fmamtvariance;
#X connect 1 0 2 0;
#X connect 2 0 3 0;
#X connect 3 0 8 0;
#X connect 4 0 5 0;
#X connect 5 0 7 0;
#X connect 6 0 13 0;
#X connect 7 0 10 0;
#X connect 7 0 11 0;
#X connect 7 0 12 0;
#X connect 7 1 6 0;
#X connect 8 0 0 0;
#X connect 8 0 9 0;
#X connect 10 0 6 1;
#X connect 11 0 6 2;
#X connect 12 0 6 3;
#X connect 13 0 8 0;
#X connect 13 1 8 1;
#X connect 14 0 15 0;
#X connect 15 0 16 0;
#X restore 14 12 pd fmamt;
#N canvas 649 134 366 385 fmcoarse 0;
#X obj 25 18 r fmcoarseX;
#X obj 25 43 + 1;
#X obj 119 47 / 127;
#X obj 119 73 s coarsevariance;
#X obj 118 21 r fmcoarsevarianceX;
#X obj 25 70 s fmcoarse;
#X obj 149 248 switch 10;
#X obj 115 134 t b f;
#X msg 24 191 0.25;
#X msg 61 192 0.5;
#X msg 95 191 1;
#X msg 126 190 2;
#X msg 160 192 3;
#X msg 195 194 4;
#X msg 220 193 5;
#X msg 254 194 6;
#X msg 284 195 7;
#X msg 318 196 8;
#X obj 173 313 s coarsenum;
#X connect 0 0 1 0;
#X connect 1 0 5 0;
#X connect 1 0 7 0;
#X connect 2 0 3 0;
#X connect 4 0 2 0;
#X connect 6 0 18 0;
#X connect 7 0 8 0;
#X connect 7 0 9 0;
#X connect 7 0 10 0;
#X connect 7 0 11 0;
#X connect 7 0 12 0;
#X connect 7 0 13 0;
#X connect 7 0 14 0;
#X connect 7 0 15 0;
#X connect 7 0 16 0;
#X connect 7 0 17 0;
#X connect 7 1 6 0;
#X connect 8 0 6 1;
#X connect 9 0 6 2;
#X connect 10 0 6 3;
#X connect 11 0 6 4;
#X connect 12 0 6 5;
#X connect 13 0 6 6;
#X connect 14 0 6 7;
#X connect 15 0 6 8;
#X connect 16 0 6 9;
#X connect 17 0 6 10;
#X restore 73 12 pd fmcoarse;
#X restore 207 15 pd fm;
#N canvas 855 424 450 300 mods 0;
#N canvas 368 613 596 127 vibrato 0;
#X obj 19 14 r vibratodepthX;
#X obj 18 38 / 127;
#X obj 20 65 s vibratodepth;
#X obj 138 14 r vibratofreqX;
#X obj 138 40 / 127;
#X obj 139 87 s vibratofreq;
#X obj 138 61 * 10;
#X obj 236 15 r vibratodepthvarianceX;
#X obj 236 47 / 127;
#X obj 237 81 s vibratodepthvariance;
#X obj 399 14 r vibratofreqvarianceX;
#X obj 398 83 s vibratofreqvariance;
#X obj 400 49 / 127;
#X connect 0 0 1 0;
#X connect 1 0 2 0;
#X connect 3 0 4 0;
#X connect 4 0 6 0;
#X connect 6 0 5 0;
#X connect 7 0 8 0;
#X connect 8 0 9 0;
#X connect 10 0 12 0;
#X connect 12 0 11 0;
#X restore 33 24 pd vibrato;
#X restore 21 44 pd mods;
#X restore 9 7 pd controlvalues;
#N canvas 490 464 305 172 defaults 0;
#N canvas 327 626 198 121 pan 0;
#X obj 15 12 loadbang;
#X msg 15 45 127;
#X obj 61 68 s paninput;
#X msg 62 46 64;
#X obj 10 92 s panvarianceinput;
#X connect 0 0 1 0;
#X connect 0 0 3 0;
#X connect 1 0 4 0;
#X connect 3 0 2 0;
#X restore 17 18 pd pan;
#N canvas 743 462 222 108 amp 0;
#X obj 14 -15 loadbang;
#X obj 15 44 s ampinput;
#X obj 88 45 s ampvarianceinput;
#X msg 14 21 30;
#X msg 87 22 30;
#X connect 0 0 3 0;
#X connect 0 0 4 0;
#X connect 3 0 1 0;
#X connect 4 0 2 0;
#X restore 66 18 pd amp;
#N canvas 650 317 395 184 env 0;
#X obj 17 14 loadbang;
#X obj 14 107 s attackinput;
#X obj 53 76 s decayinput;
#X msg 56 49 0;
#X obj 114 131 s sustainlevelinput;
#X msg 114 103 127;
#X obj 162 77 s sustaintimeinput;
#X obj 250 133 s releaseinput;
#X msg 249 107 125;
#X msg 16 78 110;
#X msg 163 48 120;
#X connect 0 0 9 0;
#X connect 0 0 3 0;
#X connect 0 0 5 0;
#X connect 0 0 10 0;
#X connect 0 0 8 0;
#X connect 3 0 2 0;
#X connect 5 0 4 0;
#X connect 8 0 7 0;
#X connect 9 0 1 0;
#X connect 10 0 6 0;
#X restore 118 20 pd env;
#N canvas 434 390 437 189 fm 0;
#X obj 15 12 loadbang;
#X obj 15 121 s fmcoarseinput;
#X obj 54 88 s fmamtinput;
#X msg 53 61 127;
#X obj 120 146 s fmamtmulinput;
#X obj 150 86 s fmamtvarianceinput;
#X obj 242 143 s fmcoarsevarianceinput;
#X msg 153 56 127;
#X msg 240 114 127;
#X msg 14 93 4;
#X msg 118 116 0;
#X connect 0 0 9 0;
#X connect 0 0 3 0;
#X connect 0 0 10 0;
#X connect 0 0 7 0;
#X connect 0 0 8 0;
#X connect 3 0 2 0;
#X connect 7 0 5 0;
#X connect 8 0 6 0;
#X connect 9 0 1 0;
#X connect 10 0 4 0;
#X restore 169 22 pd fm;
#N canvas 456 358 302 152 dist 0;
#X obj 19 17 loadbang;
#X msg 74 55 20;
#X msg 10 55 20;
#X obj 13 90 s distamtinput;
#X obj 135 91 s distvarianceinput;
#X connect 0 0 2 0;
#X connect 0 0 1 0;
#X connect 1 0 4 0;
#X connect 2 0 3 0;
#X restore 213 23 pd dist;
#N canvas 586 526 450 300 mod 0;
#N canvas 661 341 418 166 vibrato 0;
#X obj 9 9 loadbang;
#X obj 12 108 s vibratodepthinput;
#X obj 69 80 s vibratofreqinput;
#X obj 163 109 s vibratodepthvarianceinput;
#X obj 218 84 s vibratofreqvarianceinput;
#X msg 24 61 5;
#X msg 77 52 1;
#X msg 160 53 5;
#X msg 231 46 5;
#X connect 0 0 5 0;
#X connect 0 0 6 0;
#X connect 0 0 7 0;
#X connect 0 0 8 0;
#X connect 5 0 1 0;
#X connect 6 0 2 0;
#X connect 7 0 3 0;
#X connect 8 0 4 0;
#X restore 14 22 pd vibrato;
#X restore 29 49 pd mod;
#X restore 119 8 pd defaults;
#N canvas 742 469 370 226 dronereception 0;
#X obj 125 44 catch~ ML;
#X obj 195 45 catch~ MR;
#X obj 166 156 dac~;
#X obj 125 92 *~ 0.2;
#X obj 197 92 *~ 0.2;
#X connect 0 0 3 0;
#X connect 1 0 4 0;
#X connect 3 0 2 0;
#X connect 4 0 2 1;
#X restore 149 258 pd dronereception;
#X obj 34 80 drone 0;
#X obj 297 136 drone 14;
#X obj 99 83 drone 1;
#X obj 158 81 drone 2;
#X obj 226 84 drone 3;
#X obj 289 84 drone 4;
#X obj 35 111 drone 5;
#X obj 98 110 drone 6;
#X obj 161 110 drone 7;
#X obj 228 111 drone 8;
#X obj 292 110 drone 9;
#X obj 40 137 drone 10;
#X obj 103 136 drone 11;
#X obj 166 135 drone 12;
#X obj 233 137 drone 13;
#X obj 39 163 drone 15;
#X obj 103 162 drone 16;
#X obj 165 161 drone 17;
#X obj 232 163 drone 18;
#X obj 296 162 drone 19;
#X obj 36 186 drone 20;
#X obj 101 184 drone 21;
#X obj 162 184 drone 22;
#X obj 230 186 drone 23;
#X obj 294 185 drone 24;
#X obj 37 210 drone 25;
#X obj 102 208 drone 26;
#X obj 163 207 drone 27;
#X obj 231 208 drone 28;
#X obj 295 209 drone 29;
#N canvas 253 485 255 240 select 0;
#X obj 67 109 f;
#X obj 67 135 + 1;
#X msg 144 51 0;
#X obj 143 23 loadbang;
#X obj 67 183 s selection;
#X floatatom 29 196 5 0 0 0 - - -;
#X obj 39 69 metro 1000;
#X obj 66 159 mod 30;
#X obj 39 43 r metrotrigger;
#X connect 0 0 1 0;
#X connect 1 0 0 1;
#X connect 1 0 7 0;
#X connect 2 0 0 1;
#X connect 3 0 2 0;
#X connect 6 0 0 0;
#X connect 7 0 4 0;
#X connect 7 0 5 0;
#X connect 8 0 6 0;
#X restore 155 52 pd select;
#X restore 712 362 pd CLODrone;
#X obj 327 161 hsl 128 15 0 127 0 0 ampvarianceX ampvarianceinput volume_variance
8 8 0 10 -262144 -1 -1 3000 1;
#X obj 22 320 hsl 128 15 0 127 0 0 distamtX distamtinput distortion
8 8 0 10 -262144 -1 -1 2000 1;
#X obj 21 343 hsl 128 15 0 127 0 0 distvarianceX distvarianceinput
distortion_variance 8 8 0 10 -262144 -1 -1 2000 1;
#X msg 33 97 440;
#X msg 83 98 523.251;
#X msg 143 98 659.255;
#X obj 91 72 loadbang;
#X obj 503 73 hsl 128 15 0 127 0 0 attackX attackinput attack 8 8 0
10 -262144 -1 -1 11000 1;
#X obj 503 95 hsl 128 15 0 127 0 0 decayX decayinput decay 8 8 0 10
-262144 -1 -1 0 1;
#X obj 503 118 hsl 128 15 0 127 0 0 sustainlevelX sustainlevelinput
sustain_level 8 8 0 10 -262144 -1 -1 12700 1;
#X obj 503 142 hsl 128 15 0 127 0 0 sustaintimeX sustaintimeinput sustain_time
8 8 0 10 -262144 -1 -1 12000 1;
#X obj 503 164 hsl 128 15 0 127 0 0 releaseX releaseinput release 8
8 0 10 -262144 -1 -1 12500 1;
#X obj 639 73 nbx 4 14 -1e+37 1e+37 0 0 __nothing attnum empty 0 -8
0 10 -262144 -1 -1 9.66142 256;
#X obj 640 96 nbx 4 14 -1e+37 1e+37 0 0 __nothing dcynum empty 0 -8
0 10 -262144 -1 -1 0 256;
#X obj 639 142 nbx 4 14 -1e+37 1e+37 0 0 __nothing sutnum empty 0 -8
0 10 -262144 -1 -1 10.4488 256;
#X obj 639 164 nbx 4 14 -1e+37 1e+37 0 0 __nothing relnum empty 0 -8
0 10 -262144 -1 -1 60.0551 256;
#X obj 27 217 hsl 128 15 0 127 0 0 fmamtX fmamtinput FM_amount 8 8
0 10 -262144 -1 -1 12700 1;
#X obj 161 217 hradio 15 1 0 3 fmamtmulX fmamtmulinput empty 0 -8 0
10 -262144 -1 -1 0;
#X obj 212 217 nbx 5 14 -1e+37 1e+37 0 0 __nothing fmamtnum empty 0
-8 0 10 -262144 -1 -1 1000 256;
#X obj 53 194 hradio 15 1 0 10 fmcoarseX fmcoarseinput empty 0 -8 0
10 -262144 -1 -1 4;
#X obj 211 195 nbx 4 14 -1e+37 1e+37 0 0 __nothing coarsenum empty
0 -8 0 10 -262144 -1 -1 3 256;
#X obj 27 240 hsl 128 15 0 127 0 0 fmamtvarianceX fmamtvarianceinput
FM_amount_variance 8 8 0 10 -262144 -1 -1 12700 1;
#X obj 27 262 hsl 128 15 0 127 0 0 fmcoarsevarianceX fmcoarsevarianceinput
FM_coarse_variance 8 8 0 10 -262144 -1 -1 12700 1;
#X obj 332 219 hsl 128 15 0 127 0 0 vibratodepthX vibratodepthinput
vibrato_depth 8 8 0 10 -262144 -1 -1 500 1;
#X obj 332 241 hsl 128 15 0 127 0 0 vibratofreqX vibratofreqinput vibrato_frequency
8 8 0 10 -262144 -1 -1 100 1;
#X obj 333 265 hsl 128 15 0 127 0 0 vibratodepthvarianceX vibratodepthvarianceinput
depth_variance 8 8 0 10 -262144 -1 -1 500 1;
#X obj 333 287 hsl 128 15 0 127 0 0 vibratofreqvarianceX vibratofreqvarianceinput
frequency_variance 8 8 0 10 -262144 -1 -1 500 1;
#X text 322 337 todo: monitor \, que se vean los parametros del ultimo
dron o mas;
#X connect 2 0 1 0;
#X connect 3 0 0 0;
#X connect 6 0 7 0;
#X connect 14 0 13 0;
#X connect 20 0 10 0;
#X connect 21 0 11 0;
#X connect 22 0 12 0;
#X connect 23 0 20 0;
#X connect 23 0 21 0;
#X connect 23 0 22 0;
