#N canvas 717 274 450 300 10;
#X obj 188 263 dac~;
#N canvas 502 309 450 300 \$0_FMOperator 0;
#X obj 169 111 osc~;
#X obj 176 145 *~;
#X obj 186 180 +~;
#X obj 187 206 osc~;
#X obj 172 86 *;
#X obj 182 61 t b f;
#X obj 187 267 outlet~;
#X obj 136 34 r coarse;
#X obj 210 106 r fmamt;
#X obj 233 32 r \$0_freq;
#X connect 0 0 1 0;
#X connect 1 0 2 0;
#X connect 2 0 3 0;
#X connect 3 0 6 0;
#X connect 4 0 0 0;
#X connect 5 0 4 0;
#X connect 5 1 4 1;
#X connect 7 0 4 0;
#X connect 8 0 1 1;
#X connect 9 0 2 1;
#X connect 9 0 5 0;
#X restore 169 79 pd \$0_FMOperator;
#N canvas 649 509 205 179 \$0_BPF 0;
#X obj 29 26 inlet~;
#X obj 79 124 outlet~;
#X obj 103 53 r BPq;
#X obj 80 29 r BPfreq;
#X obj 78 88 vcf~;
#X connect 0 0 4 0;
#X connect 2 0 4 2;
#X connect 3 0 4 1;
#X connect 4 0 1 0;
#X restore 169 126 pd \$0_BPF;
#N canvas 220 362 167 156 \$0_Distortion 0;
#X obj 24 36 inlet~;
#X obj 46 104 outlet~;
#X obj 56 72 dist~ 1;
#X obj 82 35 r distamt;
#X connect 0 0 2 0;
#X connect 2 0 1 0;
#X connect 3 0 2 1;
#X restore 169 104 pd \$0_Distortion;
#N canvas 334 419 210 144 \$0_Amp 0;
#X obj 34 40 inlet~;
#X obj 60 99 outlet~;
#X obj 60 69 *~;
#N canvas 763 354 450 300 smoother 0;
#X obj 194 81 inlet;
#X obj 197 165 outlet~;
#X obj 196 110 pack 0 50;
#X obj 196 137 line~;
#X connect 0 0 2 0;
#X connect 2 0 3 0;
#X connect 3 0 1 0;
#X restore 85 41 pd smoother;
#X obj 85 11 r amp;
#X connect 0 0 2 0;
#X connect 2 0 1 0;
#X connect 3 0 2 1;
#X connect 4 0 3 0;
#X restore 169 176 pd \$0_Amp;
#N canvas 246 428 310 266 \$0_Pan 0;
#X obj 33 103 inlet~;
#X obj 29 221 outlet~ L;
#X obj 117 197 outlet~ R;
#X obj 118 165 *~;
#X obj 35 157 expr~ 1-$v1;
#N canvas 763 354 450 300 smoother 0;
#X obj 194 81 inlet;
#X obj 197 165 outlet~;
#X obj 196 110 pack 0 50;
#X obj 196 137 line~;
#X connect 0 0 2 0;
#X connect 2 0 3 0;
#X connect 3 0 1 0;
#X restore 131 134 pd smoother;
#X obj 121 15 r pan;
#X obj 21 184 *~;
#N canvas 575 294 203 241 panrng 0;
#X obj 54 15 r \$0_trigger;
#X obj 75 131 *;
#X obj 115 75 r panvariance;
#X obj 67 198 outlet;
#X obj 54 40 random 1000;
#X obj 52 66 / 1000;
#X obj 53 90 - 0.5;
#X connect 0 0 4 0;
#X connect 1 0 3 0;
#X connect 2 0 1 1;
#X connect 4 0 5 0;
#X connect 5 0 6 0;
#X connect 6 0 1 0;
#X restore 171 17 pd panrng;
#X obj 134 69 +;
#X obj 156 40 t b f;
#X obj 129 95 limit 0 1;
#X connect 0 0 3 0;
#X connect 0 0 7 0;
#X connect 3 0 2 0;
#X connect 4 0 7 1;
#X connect 5 0 4 0;
#X connect 5 0 3 1;
#X connect 6 0 9 0;
#X connect 7 0 1 0;
#X connect 8 0 10 0;
#X connect 9 0 11 0;
#X connect 10 0 9 0;
#X connect 10 1 9 1;
#X connect 11 0 5 0;
#X restore 169 203 pd \$0_Pan;
#N canvas 334 508 281 250 \$0_Env 0;
#X obj 45 64 inlet~;
#X obj 59 215 outlet~;
#N canvas 688 386 393 323 ADSR2qua 0;
#X obj 78 200 vline~;
#X obj -7 72 inlet trigger;
#X obj 73 39 inlet a;
#X obj 128 40 inlet d;
#X obj 187 39 inlet s;
#X obj 311 40 inlet r;
#X obj 245 40 inlet st;
#X obj 77 142 pack f f f f f f;
#N canvas 705 320 449 277 adst 0;
#X obj 89 45 inlet a;
#X obj 155 46 inlet d;
#X obj 215 46 inlet st;
#X obj 142 111 expr $f1+$f2+$f3;
#X obj 155 70 t b f;
#X obj 215 69 t b f;
#X obj 141 141 outlet result;
#X text 78 178 sum of attack \, decay \, and sustain time;
#X text 78 195 used for the third initial delay value;
#X text 56 213 (decay triggers after attack \, decay \, and sustain
time);
#X connect 0 0 3 0;
#X connect 1 0 4 0;
#X connect 2 0 5 0;
#X connect 3 0 6 0;
#X connect 4 0 3 0;
#X connect 4 1 3 1;
#X connect 5 0 3 0;
#X connect 5 1 3 2;
#X restore 186 90 pd adst;
#X obj 78 233 *~;
#X obj 77 262 *~;
#X obj 77 293 outlet~;
#X msg 78 173 0 10 \, 1 \$2 10 \, \$4 \$3 \$2 \, 0 \$6 \$5;
#X connect 0 0 9 0;
#X connect 0 0 9 1;
#X connect 1 0 7 0;
#X connect 2 0 7 1;
#X connect 2 0 8 0;
#X connect 3 0 7 2;
#X connect 3 0 8 1;
#X connect 4 0 7 3;
#X connect 5 0 7 5;
#X connect 6 0 8 2;
#X connect 7 0 12 0;
#X connect 8 0 7 4;
#X connect 9 0 10 0;
#X connect 9 0 10 1;
#X connect 10 0 11 0;
#X connect 12 0 0 0;
#X restore 90 125 pd ADSR2qua;
#X obj 70 158 *~;
#X obj 158 27 r att;
#X obj 198 19 r dcy;
#X obj 198 42 r sus;
#X obj 211 64 r sut;
#X obj 199 89 r rel;
#X obj 94 51 r \$0_trigger;
#X connect 0 0 3 0;
#X connect 2 0 3 1;
#X connect 3 0 1 0;
#X connect 4 0 2 1;
#X connect 5 0 2 2;
#X connect 6 0 2 3;
#X connect 7 0 2 4;
#X connect 8 0 2 5;
#X connect 9 0 2 0;
#X restore 169 152 pd \$0_Env;
#N canvas 798 401 158 119 \$0_select-trig 0;
#X obj 31 20 r selection;
#X obj 32 44 sel \$1;
#X obj 32 69 s \$0_trigger;
#X connect 0 0 1 0;
#X connect 1 0 2 0;
#X restore 17 16 pd \$0_select-trig;
#N canvas 380 317 451 312 \$0_decideFreq 1;
#X obj 12 14 r \$0_trigger;
#X obj 13 115 s \$0_freq;
#X obj 12 90 pipe 10;
#N canvas 817 294 453 388 decide 1;
#X obj 88 123 sel 0;
#X obj 180 133 sel 1;
#X obj 280 123 sel 2;
#X obj 97 171 f 0;
#X obj 120 146 r freq1;
#X obj 223 132 r freq2;
#X obj 331 133 r freq3;
#X obj 311 162 f 0;
#X obj 194 170 f 0;
#X obj 179 64 random 4;
#X obj 184 4 inlet;
#X obj 245 334 outlet;
#X obj 269 235 random 1;
#X obj 317 187 r octaves;
#X obj 318 210 + 1;
#X obj 268 265 + 1;
#X obj 241 300 *;
#X obj 189 28 t b b;
#X floatatom 303 325 5 0 0 0 - - -;
#X connect 0 0 3 0;
#X connect 1 0 8 0;
#X connect 2 0 7 0;
#X connect 3 0 16 0;
#X connect 4 0 3 1;
#X connect 5 0 8 1;
#X connect 6 0 7 1;
#X connect 7 0 16 0;
#X connect 8 0 16 0;
#X connect 9 0 0 0;
#X connect 9 0 1 0;
#X connect 9 0 2 0;
#X connect 10 0 17 0;
#X connect 12 0 15 0;
#X connect 13 0 14 0;
#X connect 14 0 12 1;
#X connect 15 0 16 1;
#X connect 15 0 18 0;
#X connect 16 0 11 0;
#X connect 17 0 9 0;
#X connect 17 1 12 0;
#X restore 16 49 pd decide;
#X floatatom 129 109 5 0 0 0 - - -;
#X connect 0 0 3 0;
#X connect 2 0 1 0;
#X connect 3 0 2 0;
#X connect 3 0 4 0;
#X restore 130 16 pd \$0_decideFreq;
#X connect 1 0 3 0;
#X connect 2 0 6 0;
#X connect 3 0 2 0;
#X connect 4 0 5 0;
#X connect 5 0 0 0;
#X connect 5 1 0 1;
#X connect 6 0 4 0;
