#N canvas 881 101 450 300 10;
#N canvas 374 457 304 298 \$0_FMOperator 0;
#X obj 74 108 osc~;
#X obj 104 143 *~;
#X obj 114 178 +~;
#X obj 115 232 osc~;
#X obj 77 83 *;
#X obj 87 58 t b f;
#X obj 115 260 outlet~;
#X obj 131 13 r \$0_freq;
#N canvas 670 425 199 172 fmamt 0;
#X obj 46 139 outlet;
#X obj 28 45 r fmamt;
#N canvas 677 389 225 242 fmamtrng 0;
#X obj -4 199 outlet;
#X obj -15 12 r \$0_trigger;
#X obj -15 34 delay 10;
#X obj 3 128 *;
#X obj 59 92 r fmamtvariance;
#X obj -15 57 random 10000;
#X obj -1 86 - 5000;
#X connect 1 0 2 0;
#X connect 2 0 5 0;
#X connect 3 0 0 0;
#X connect 4 0 3 1;
#X connect 5 0 6 0;
#X connect 6 0 3 0;
#X restore 98 15 pd fmamtrng;
#X obj 49 73 +;
#X obj 96 43 t b f;
#X obj 46 96 limit 0 100000;
#X connect 1 0 3 0;
#X connect 2 0 3 1;
#X connect 2 0 4 0;
#X connect 3 0 5 0;
#X connect 4 0 3 0;
#X connect 4 1 3 1;
#X connect 5 0 0 0;
#X restore 119 104 pd fmamt;
#N canvas 341 219 469 382 coarse 0;
#X obj 158 353 outlet;
#X obj 104 55 r fmcoarse;
#X obj 177 270 switch 10;
#X obj 143 156 t b f;
#X msg 52 213 0.25;
#X msg 89 214 0.5;
#X msg 123 213 1;
#X msg 154 212 2;
#X msg 188 214 3;
#X msg 223 216 4;
#X msg 248 215 5;
#X msg 282 216 6;
#X msg 312 217 7;
#X msg 346 218 8;
#X obj 147 131 limit 1 10;
#N canvas 800 473 282 285 coarserng 0;
#X obj 142 18 r coarsevariance;
#X obj 60 18 r \$0_trigger;
#X obj 60 73 random 1000;
#X obj 74 181 *;
#X obj 59 99 / 1000;
#X obj 72 206 + 0.5;
#X obj 73 231 int;
#X obj 71 262 outlet;
#X obj 61 49 delay 10;
#X obj 58 122 * 20;
#X obj 55 145 - 10;
#X connect 0 0 3 1;
#X connect 1 0 8 0;
#X connect 2 0 4 0;
#X connect 3 0 5 0;
#X connect 4 0 9 0;
#X connect 5 0 6 0;
#X connect 6 0 7 0;
#X connect 8 0 2 0;
#X connect 9 0 10 0;
#X connect 10 0 3 0;
#X restore 197 40 pd coarserng;
#X obj 150 106 +;
#X obj 196 68 t b f;
#X connect 1 0 16 0;
#X connect 2 0 0 0;
#X connect 3 0 4 0;
#X connect 3 0 5 0;
#X connect 3 0 6 0;
#X connect 3 0 7 0;
#X connect 3 0 8 0;
#X connect 3 0 9 0;
#X connect 3 0 10 0;
#X connect 3 0 11 0;
#X connect 3 0 12 0;
#X connect 3 0 13 0;
#X connect 3 1 2 0;
#X connect 4 0 2 1;
#X connect 5 0 2 2;
#X connect 6 0 2 3;
#X connect 7 0 2 4;
#X connect 8 0 2 5;
#X connect 9 0 2 6;
#X connect 10 0 2 7;
#X connect 11 0 2 8;
#X connect 12 0 2 9;
#X connect 13 0 2 10;
#X connect 14 0 3 0;
#X connect 15 0 17 0;
#X connect 16 0 14 0;
#X connect 17 0 16 0;
#X connect 17 1 16 1;
#X restore 29 30 pd coarse;
#X obj 115 205 +~;
#N canvas 698 468 540 296 vibrato 1;
#X obj 130 204 osc~;
#X obj 162 240 *~;
#X obj 162 269 outlet~;
#X obj 214 15 inlet freq;
#X obj 305 26 r vibratodepth;
#X obj 288 55 t b f;
#X obj 241 137 *;
#X obj 17 34 r vibratofreq;
#X obj 200 66 * 1.0594;
#X obj 214 44 t f f;
#X obj 221 90 -;
#X text 103 63 one semitone ->;
#N canvas 703 107 450 300 vibratorng 0;
#X obj 206 245 outlet;
#X obj 280 47 r vibratodepthvariance;
#X obj 152 24 r \$0_trigger;
#X obj 152 49 delay 10;
#X obj 152 74 random 1000;
#X obj 152 101 / 1000;
#X obj 185 188 *;
#X obj 155 151 - 0.5;
#X connect 1 0 6 1;
#X connect 2 0 3 0;
#X connect 3 0 4 0;
#X connect 4 0 5 0;
#X connect 5 0 7 0;
#X connect 6 0 0 0;
#X connect 7 0 6 0;
#X restore 399 27 pd vibratorng;
#X obj 321 117 *;
#X obj 267 177 +;
#N canvas 703 107 450 300 vibratorng 1;
#X obj 206 245 outlet;
#X obj 152 24 r \$0_trigger;
#X obj 152 49 delay 10;
#X obj 152 74 random 1000;
#X obj 152 101 / 1000;
#X obj 185 188 *;
#X obj 280 48 r vibratofreqvariance;
#X floatatom 286 92 5 0 0 0 - - -;
#X obj 154 131 * 10;
#X obj 154 156 - 5;
#X connect 1 0 2 0;
#X connect 2 0 3 0;
#X connect 3 0 4 0;
#X connect 4 0 8 0;
#X connect 5 0 0 0;
#X connect 6 0 5 1;
#X connect 6 0 7 0;
#X connect 8 0 9 0;
#X connect 9 0 5 0;
#X restore 81 85 pd vibratorng 2;
#X obj 83 147 +;
#X obj 83 170 limit 0 15;
#X obj 87 109 t b f;
#X connect 0 0 1 0;
#X connect 1 0 2 0;
#X connect 3 0 9 0;
#X connect 4 0 5 0;
#X connect 5 0 6 0;
#X connect 5 1 6 1;
#X connect 6 0 14 0;
#X connect 7 0 16 0;
#X connect 8 0 10 0;
#X connect 9 0 8 0;
#X connect 9 1 10 1;
#X connect 10 0 6 0;
#X connect 10 0 13 0;
#X connect 12 0 13 1;
#X connect 13 0 14 1;
#X connect 14 0 1 1;
#X connect 15 0 18 0;
#X connect 16 0 17 0;
#X connect 17 0 0 0;
#X connect 18 0 16 0;
#X connect 18 1 16 1;
#X restore 207 98 pd vibrato;
#X connect 0 0 1 0;
#X connect 1 0 2 0;
#X connect 2 0 10 0;
#X connect 3 0 6 0;
#X connect 4 0 0 0;
#X connect 5 0 4 0;
#X connect 5 1 4 1;
#X connect 7 0 2 1;
#X connect 7 0 5 0;
#X connect 7 0 11 0;
#X connect 8 0 1 1;
#X connect 9 0 4 0;
#X connect 10 0 3 0;
#X connect 11 0 10 1;
#X restore 169 79 pd \$0_FMOperator;
#N canvas 649 509 205 179 \$0_BPF 0;
#X obj 29 26 inlet~;
#X obj 79 124 outlet~;
#X obj 103 53 r BPq;
#X obj 80 29 r BPfreq;
#X obj 78 88 vcf~;
#X connect 0 0 4 0;
#X connect 2 0 4 2;
#X connect 3 0 4 1;
#X connect 4 0 1 0;
#X restore 169 126 pd \$0_BPF;
#N canvas 842 465 278 222 \$0_Distortion 0;
#X obj 24 36 inlet~;
#X obj 54 180 outlet~;
#X obj 82 35 r distamt;
#X obj 64 148 dist~ 1;
#N canvas 513 512 269 252 distrng 0;
#X obj 73 9 r \$0_trigger;
#X obj 94 182 *;
#X obj 86 218 outlet;
#X obj 73 60 random 1000;
#X obj 134 95 r distvariance;
#X obj 71 86 / 100;
#X obj 77 118 * 2;
#X obj 79 147 - 10;
#X obj 73 35 delay 10;
#X connect 0 0 8 0;
#X connect 1 0 2 0;
#X connect 3 0 5 0;
#X connect 4 0 1 1;
#X connect 5 0 6 0;
#X connect 6 0 7 0;
#X connect 7 0 1 0;
#X connect 8 0 3 0;
#X restore 156 38 pd distrng;
#X obj 126 90 +;
#X obj 157 60 t b f;
#X obj 95 114 limit 0.5 10;
#X connect 0 0 3 0;
#X connect 2 0 5 0;
#X connect 3 0 1 0;
#X connect 4 0 6 0;
#X connect 5 0 7 0;
#X connect 6 0 5 0;
#X connect 6 1 5 1;
#X connect 7 0 3 1;
#X restore 169 104 pd \$0_Distortion;
#N canvas 297 564 245 172 \$0_Amp 0;
#X obj 27 74 inlet~;
#X obj 57 145 outlet~;
#X obj 57 115 *~;
#N canvas 763 354 450 300 smoother 0;
#X obj 194 81 inlet;
#X obj 197 165 outlet~;
#X obj 196 110 pack 0 50;
#X obj 196 137 line~;
#X connect 0 0 2 0;
#X connect 2 0 3 0;
#X connect 3 0 1 0;
#X restore 82 87 pd smoother;
#X obj 85 11 r amp;
#N canvas 780 444 206 241 amprng 0;
#X obj 41 18 r \$0_trigger;
#X obj 62 134 *;
#X obj 57 183 outlet;
#X obj 41 43 random 1000;
#X obj 39 69 / 1000;
#X obj 103 78 r ampvariance;
#X obj 34 97 - 0.5;
#X connect 0 0 3 0;
#X connect 1 0 2 0;
#X connect 3 0 4 0;
#X connect 4 0 6 0;
#X connect 5 0 1 1;
#X connect 6 0 1 0;
#X restore 134 9 pd amprng;
#X obj 100 60 +;
#X obj 132 33 t b f;
#X connect 0 0 2 0;
#X connect 2 0 1 0;
#X connect 3 0 2 1;
#X connect 4 0 6 0;
#X connect 5 0 7 0;
#X connect 6 0 3 0;
#X connect 7 0 6 0;
#X connect 7 1 6 1;
#X restore 169 176 pd \$0_Amp;
#N canvas 246 428 310 266 \$0_Pan 0;
#X obj 33 103 inlet~;
#X obj 29 221 outlet~ L;
#X obj 117 197 outlet~ R;
#X obj 118 165 *~;
#X obj 35 157 expr~ 1-$v1;
#N canvas 763 354 450 300 smoother 0;
#X obj 194 81 inlet;
#X obj 197 165 outlet~;
#X obj 196 110 pack 0 50;
#X obj 196 137 line~;
#X connect 0 0 2 0;
#X connect 2 0 3 0;
#X connect 3 0 1 0;
#X restore 131 134 pd smoother;
#X obj 121 15 r pan;
#X obj 21 184 *~;
#N canvas 575 294 203 241 panrng 0;
#X obj 54 15 r \$0_trigger;
#X obj 75 131 *;
#X obj 115 75 r panvariance;
#X obj 67 198 outlet;
#X obj 54 40 random 1000;
#X obj 52 66 / 1000;
#X obj 53 90 - 0.5;
#X connect 0 0 4 0;
#X connect 1 0 3 0;
#X connect 2 0 1 1;
#X connect 4 0 5 0;
#X connect 5 0 6 0;
#X connect 6 0 1 0;
#X restore 171 17 pd panrng;
#X obj 134 69 +;
#X obj 156 40 t b f;
#X obj 129 95 limit 0 1;
#X connect 0 0 3 0;
#X connect 0 0 7 0;
#X connect 3 0 2 0;
#X connect 4 0 7 1;
#X connect 5 0 4 0;
#X connect 5 0 3 1;
#X connect 6 0 9 0;
#X connect 7 0 1 0;
#X connect 8 0 10 0;
#X connect 9 0 11 0;
#X connect 10 0 9 0;
#X connect 10 1 9 1;
#X connect 11 0 5 0;
#X restore 169 203 pd \$0_Pan;
#N canvas 334 508 281 250 \$0_Env 0;
#X obj 45 64 inlet~;
#X obj 59 215 outlet~;
#N canvas 688 386 393 323 ADSR2qua 0;
#X obj 78 200 vline~;
#X obj -7 72 inlet trigger;
#X obj 73 39 inlet a;
#X obj 128 40 inlet d;
#X obj 187 39 inlet s;
#X obj 311 40 inlet r;
#X obj 245 40 inlet st;
#X obj 77 142 pack f f f f f f;
#N canvas 705 320 449 277 adst 0;
#X obj 89 45 inlet a;
#X obj 155 46 inlet d;
#X obj 215 46 inlet st;
#X obj 142 111 expr $f1+$f2+$f3;
#X obj 155 70 t b f;
#X obj 215 69 t b f;
#X obj 141 141 outlet result;
#X text 78 178 sum of attack \, decay \, and sustain time;
#X text 78 195 used for the third initial delay value;
#X text 56 213 (decay triggers after attack \, decay \, and sustain
time);
#X connect 0 0 3 0;
#X connect 1 0 4 0;
#X connect 2 0 5 0;
#X connect 3 0 6 0;
#X connect 4 0 3 0;
#X connect 4 1 3 1;
#X connect 5 0 3 0;
#X connect 5 1 3 2;
#X restore 186 90 pd adst;
#X obj 78 233 *~;
#X obj 77 262 *~;
#X obj 77 293 outlet~;
#X msg 78 173 0 10 \, 1 \$2 10 \, \$4 \$3 \$2 \, 0 \$6 \$5;
#X connect 0 0 9 0;
#X connect 0 0 9 1;
#X connect 1 0 7 0;
#X connect 2 0 7 1;
#X connect 2 0 8 0;
#X connect 3 0 7 2;
#X connect 3 0 8 1;
#X connect 4 0 7 3;
#X connect 5 0 7 5;
#X connect 6 0 8 2;
#X connect 7 0 12 0;
#X connect 8 0 7 4;
#X connect 9 0 10 0;
#X connect 9 0 10 1;
#X connect 10 0 11 0;
#X connect 12 0 0 0;
#X restore 90 125 pd ADSR2qua;
#X obj 70 158 *~;
#X obj 158 27 r att;
#X obj 198 19 r dcy;
#X obj 198 42 r sus;
#X obj 211 64 r sut;
#X obj 199 89 r rel;
#X obj 94 51 r \$0_trigger;
#X connect 0 0 3 0;
#X connect 2 0 3 1;
#X connect 3 0 1 0;
#X connect 4 0 2 1;
#X connect 5 0 2 2;
#X connect 6 0 2 3;
#X connect 7 0 2 4;
#X connect 8 0 2 5;
#X connect 9 0 2 0;
#X restore 169 152 pd \$0_Env;
#N canvas 798 401 158 119 \$0_select-trig 0;
#X obj 31 20 r selection;
#X obj 32 44 sel \$1;
#X obj 32 69 s \$0_trigger;
#X connect 0 0 1 0;
#X connect 1 0 2 0;
#X restore 17 16 pd \$0_select-trig;
#N canvas 461 321 143 171 \$0_decideFreq 0;
#X obj 12 14 r \$0_trigger;
#X obj 13 115 s \$0_freq;
#X obj 12 90 pipe 10;
#N canvas 779 327 453 388 decide 0;
#X obj 88 123 sel 0;
#X obj 180 133 sel 1;
#X obj 280 123 sel 2;
#X obj 97 171 f 0;
#X obj 120 146 r freq1;
#X obj 223 132 r freq2;
#X obj 331 133 r freq3;
#X obj 311 162 f 0;
#X obj 194 170 f 0;
#X obj 184 4 inlet;
#X obj 245 334 outlet;
#X obj 269 235 random 1;
#X obj 317 187 r octaves;
#X obj 318 210 + 1;
#X obj 268 265 + 1;
#X obj 241 300 *;
#X obj 189 28 t b b;
#X obj 179 64 random 3;
#X connect 0 0 3 0;
#X connect 1 0 8 0;
#X connect 2 0 7 0;
#X connect 3 0 15 0;
#X connect 4 0 3 1;
#X connect 5 0 8 1;
#X connect 6 0 7 1;
#X connect 7 0 15 0;
#X connect 8 0 15 0;
#X connect 9 0 16 0;
#X connect 11 0 14 0;
#X connect 12 0 13 0;
#X connect 13 0 11 1;
#X connect 14 0 15 1;
#X connect 15 0 10 0;
#X connect 16 0 17 0;
#X connect 16 1 11 0;
#X connect 17 0 0 0;
#X connect 17 0 1 0;
#X connect 17 0 2 0;
#X restore 16 49 pd decide;
#X connect 0 0 3 0;
#X connect 2 0 1 0;
#X connect 3 0 2 0;
#X restore 130 16 pd \$0_decideFreq;
#X obj 152 262 throw~ ML;
#X obj 230 265 throw~ MR;
#X connect 0 0 2 0;
#X connect 1 0 5 0;
#X connect 2 0 1 0;
#X connect 3 0 4 0;
#X connect 4 0 8 0;
#X connect 4 1 9 0;
#X connect 5 0 3 0;
