#N canvas 602 56 475 328 10;
#N canvas 199 391 450 300 Cloud1 1;
#N canvas 761 398 450 300 trigger 0;
#X obj 116 258 outlet;
#X obj 104 117 metro 50;
#X obj 176 117 random 1000;
#X obj 240 72 r metro_ceil_v;
#X obj 181 150 + 0;
#X obj 256 97 r metro_floor_v;
#X obj 180 173 / 100;
#X obj 103 71 r start;
#X connect 1 0 2 0;
#X connect 1 0 0 0;
#X connect 2 0 4 0;
#X connect 3 0 2 1;
#X connect 4 0 6 0;
#X connect 5 0 4 1;
#X connect 6 0 1 1;
#X connect 7 0 1 0;
#X restore 177 12 pd trigger;
#N canvas 415 354 465 380 MIDItoValue 0;
#X obj -17 11 r metro_ceil;
#X obj 86 11 r metro_floor;
#X obj -17 59 s metro_ceil_v;
#X obj -17 34 * 100;
#X obj 86 35 * 100;
#X obj 86 60 s metro_floor_v;
#X obj 205 10 r attack;
#X obj 204 57 s attack_v;
#X obj 313 10 r decay;
#X obj 313 59 s decay_v;
#X obj 180 33 expr $f1/127*1000;
#X obj -4 104 r cutoff;
#X obj -5 127 * 100;
#X obj -7 150 s cutoff_v;
#X obj 75 102 r res;
#X obj 75 127 expr 4 * ($f1/127);
#X obj 296 33 expr $f1/127*1000;
#X obj 209 109 r volume;
#X obj 209 134 / 127;
#X obj 208 159 s volume_v;
#X obj 318 105 r pan;
#X obj 304 130 expr ($f1/127);
#N canvas 763 354 450 300 smoother 0;
#X obj 194 81 inlet;
#X obj 197 165 outlet~;
#X obj 196 110 pack 0 50;
#X obj 196 137 line~;
#X connect 0 0 2 0;
#X connect 2 0 3 0;
#X connect 3 0 1 0;
#X restore 76 148 pd smoother;
#X obj 75 170 s~ res_v;
#X obj -7 227 r pan_variance;
#X obj -7 255 / 127;
#X obj -7 284 s pan_variance_v;
#X obj 313 177 s pan_v;
#X connect 0 0 3 0;
#X connect 1 0 4 0;
#X connect 3 0 2 0;
#X connect 4 0 5 0;
#X connect 6 0 10 0;
#X connect 8 0 16 0;
#X connect 10 0 7 0;
#X connect 11 0 12 0;
#X connect 12 0 13 0;
#X connect 14 0 15 0;
#X connect 15 0 22 0;
#X connect 16 0 9 0;
#X connect 17 0 18 0;
#X connect 18 0 19 0;
#X connect 20 0 21 0;
#X connect 21 0 27 0;
#X connect 22 0 23 0;
#X connect 24 0 25 0;
#X connect 25 0 26 0;
#X restore 12 13 pd MIDItoValue;
#N canvas 857 439 450 300 selector 0;
#X obj 123 49 inlet trigger;
#X obj 187 106 f;
#X obj 187 132 + 1;
#X msg 228 57 0;
#X obj 187 180 outlet;
#X obj 227 29 loadbang;
#X obj 187 156 mod 50;
#X connect 0 0 1 0;
#X connect 1 0 2 0;
#X connect 2 0 1 1;
#X connect 2 0 6 0;
#X connect 3 0 1 1;
#X connect 5 0 3 0;
#X connect 6 0 4 0;
#X restore 120 65 pd selector;
#X floatatom 120 86 5 0 0 0 - - -;
#X obj 120 107 s selection;
#X obj 175 261 dac~;
#N canvas 677 323 450 300 freq_list 1;
#X obj 196 74 t l l;
#X obj 242 105 list length;
#X obj 240 164 random;
#X obj 185 190 list split;
#X obj 222 217 list split 1;
#X obj 193 20 inlet trigger;
#X obj 222 259 outlet freq;
#X obj 242 138 t b f;
#X obj 118 45 list 55 110 130.813 164.814 220 261.626 329.628 440;
#X obj 221 238 / 1.5;
#X connect 0 0 3 0;
#X connect 0 1 1 0;
#X connect 1 0 7 0;
#X connect 2 0 3 1;
#X connect 3 1 4 0;
#X connect 4 0 9 0;
#X connect 5 0 8 0;
#X connect 7 0 2 0;
#X connect 7 1 2 1;
#X connect 8 0 0 0;
#X connect 9 0 6 0;
#X restore 205 65 pd freq_list;
#X floatatom 205 87 8 0 0 0 - - -;
#X obj 206 107 s random_freq;
#N canvas 61 418 450 300 cells 0;
#X obj 14 23 synthcell 0;
#X obj 97 23 synthcell 1;
#X obj 179 23 synthcell 2;
#X obj 261 21 synthcell 3;
#X obj 344 23 synthcell 4;
#X obj 97 45 synthcell 6;
#X obj 14 45 synthcell 5;
#X obj 179 45 synthcell 7;
#X obj 261 42 synthcell 8;
#X obj 344 45 synthcell 9;
#X obj 353 189 synthcell 39;
#X obj 16 69 synthcell 10;
#X obj 17 92 synthcell 15;
#X obj 17 116 synthcell 20;
#X obj 18 139 synthcell 25;
#X obj 18 164 synthcell 30;
#X obj 23 189 synthcell 35;
#X obj 23 213 synthcell 40;
#X obj 24 235 synthcell 45;
#X obj 108 235 synthcell 46;
#X obj 190 235 synthcell 47;
#X obj 271 233 synthcell 48;
#X obj 354 234 synthcell 49;
#X obj 99 69 synthcell 11;
#X obj 181 69 synthcell 12;
#X obj 263 67 synthcell 13;
#X obj 346 69 synthcell 14;
#X obj 100 92 synthcell 16;
#X obj 181 92 synthcell 17;
#X obj 264 90 synthcell 18;
#X obj 347 92 synthcell 19;
#X obj 100 116 synthcell 21;
#X obj 182 116 synthcell 22;
#X obj 265 114 synthcell 23;
#X obj 347 116 synthcell 24;
#X obj 101 139 synthcell 26;
#X obj 184 139 synthcell 27;
#X obj 265 138 synthcell 28;
#X obj 348 140 synthcell 29;
#X obj 102 164 synthcell 31;
#X obj 182 164 synthcell 32;
#X obj 266 162 synthcell 33;
#X obj 349 164 synthcell 34;
#X obj 106 188 synthcell 36;
#X obj 188 189 synthcell 37;
#X obj 270 187 synthcell 38;
#X obj 105 213 synthcell 41;
#X obj 188 212 synthcell 42;
#X obj 270 211 synthcell 43;
#X obj 353 213 synthcell 44;
#X restore 178 156 pd cells;
#N canvas 769 355 450 300 master_amp 0;
#X obj 102 115 *~;
#X obj 240 19 r volume_v;
#N canvas 763 354 450 300 smoother 0;
#X obj 194 81 inlet;
#X obj 197 165 outlet~;
#X obj 196 110 pack 0 50;
#X obj 196 137 line~;
#X connect 0 0 2 0;
#X connect 2 0 3 0;
#X connect 3 0 1 0;
#X restore 238 50 pd smoother;
#X obj 95 21 inlet~ L;
#X obj 157 19 inlet~ R;
#X obj 145 113 *~;
#X obj 94 246 outlet~ L;
#X obj 169 247 outlet~ R;
#X connect 0 0 6 0;
#X connect 1 0 2 0;
#X connect 2 0 0 1;
#X connect 2 0 5 1;
#X connect 3 0 0 0;
#X connect 4 0 5 0;
#X connect 5 0 7 0;
#X restore 168 225 pd master_amp;
#X obj 151 193 catch~ synth_L;
#X obj 264 195 catch~ synth_R;
#X obj 177 33 t b b b;
#N canvas 670 406 450 300 rng 0;
#X obj 190 17 inlet trigger;
#X obj 199 268 outlet;
#X obj 191 40 random 10000;
#X obj 191 64 / 10000;
#X connect 0 0 2 0;
#X connect 2 0 3 0;
#X connect 3 0 1 0;
#X restore 301 63 pd rng;
#X floatatom 302 85 6 0 0 0 - - -;
#X obj 302 108 s rng;
#X connect 0 0 13 0;
#X connect 2 0 3 0;
#X connect 3 0 4 0;
#X connect 6 0 7 0;
#X connect 7 0 8 0;
#X connect 10 0 5 0;
#X connect 10 1 5 1;
#X connect 11 0 10 0;
#X connect 12 0 10 1;
#X connect 13 0 2 0;
#X connect 13 1 6 0;
#X connect 13 2 14 0;
#X connect 14 0 15 0;
#X connect 15 0 16 0;
#X restore 183 277 pd Cloud1;
#X obj 7 72 s metro_ceil;
#X obj 10 52 hsl 128 15 0 127 0 1 empty empty empty -2 -8 0 10 -262144
-1 -1 5100 1;
#X obj 10 98 hsl 128 15 0 127 0 1 empty empty empty -2 -8 0 10 -262144
-1 -1 1900 1;
#X obj 8 121 s metro_floor;
#X obj 7 6 tgl 15 0 empty empty empty 17 7 0 10 -262144 -1 -1 1 1;
#X obj 8 29 s start;
#X obj 159 108 hsl 128 15 0 127 0 1 empty empty empty -2 -8 0 10 -262144
-1 -1 0 1;
#X obj 158 152 hsl 128 15 0 127 0 1 empty empty empty -2 -8 0 10 -262144
-1 -1 1100 1;
#X obj 156 127 s attack;
#X obj 155 172 s decay;
#X obj 163 6 hsl 128 15 0 127 0 1 empty empty empty -2 -8 0 10 -262144
-1 -1 9800 1;
#X obj 160 27 s cutoff;
#X obj 160 59 hsl 128 15 0 127 0 1 empty empty empty -2 -8 0 10 -262144
-1 -1 1700 1;
#X obj 158 79 s res;
#X obj 407 -13 vsl 15 128 0 127 0 1 empty empty empty 0 -9 0 10 -262144
-1 -1 500 1;
#X obj 407 128 s volume;
#X obj 320 176 hsl 128 15 0 127 0 1 empty empty empty -2 -8 0 10 -262144
-1 -1 6500 1;
#X obj 317 196 s pan;
#N canvas 376 313 450 300 cpu_usage 0;
#X obj 149 161 cputime;
#X obj 149 21 loadbang;
#X obj 149 105 metro 1000;
#X msg 149 49 1;
#X floatatom 149 77 0 0 0 0 - - -;
#X obj 149 133 t b b;
#X obj 149 221 * 0.1;
#X obj 149 190 int;
#X text 194 77 <-- on/off;
#X text 82 277 CPU load in percent;
#X obj 148 248 outlet;
#X connect 0 0 7 0;
#X connect 1 0 3 0;
#X connect 2 0 5 0;
#X connect 3 0 4 0;
#X connect 4 0 2 0;
#X connect 5 0 0 0;
#X connect 5 1 0 1;
#X connect 6 0 10 0;
#X connect 7 0 6 0;
#X restore 7 254 pd cpu_usage;
#X floatatom 7 276 5 0 0 0 - - -;
#X obj 320 234 hsl 128 15 0 127 0 1 empty empty empty -2 -8 0 10 -262144
-1 -1 12700 1;
#X obj 317 256 s pan_variance;
#X text 317 157 L;
#X text 436 158 R;
#X text 316 218 0%;
#X text 424 219 100%;
#X connect 2 0 1 0;
#X connect 3 0 4 0;
#X connect 5 0 6 0;
#X connect 7 0 9 0;
#X connect 8 0 10 0;
#X connect 11 0 12 0;
#X connect 13 0 14 0;
#X connect 15 0 16 0;
#X connect 17 0 18 0;
#X connect 19 0 20 0;
#X connect 21 0 22 0;
