#N canvas 531 200 782 538 10;
#N canvas 0 67 450 300 Cloud1 1;
#N canvas 761 398 450 300 trigger 0;
#X obj 116 258 outlet;
#X obj 104 117 metro 50;
#X obj 176 117 random 1000;
#X obj 240 72 r metro_ceil_v;
#X obj 181 150 + 0;
#X obj 256 97 r metro_floor_v;
#X obj 180 173 / 100;
#X obj 103 71 r start;
#X connect 1 0 2 0;
#X connect 1 0 0 0;
#X connect 2 0 4 0;
#X connect 3 0 2 1;
#X connect 4 0 6 0;
#X connect 5 0 4 1;
#X connect 6 0 1 1;
#X connect 7 0 1 0;
#X restore 177 12 pd trigger;
#N canvas 243 389 956 545 MIDItoValue 0;
#X obj -17 11 r metro_ceil;
#X obj 86 11 r metro_floor;
#X obj -17 59 s metro_ceil_v;
#X obj -17 34 * 100;
#X obj 86 60 s metro_floor_v;
#X obj 205 10 r attack;
#X obj 204 57 s attack_v;
#X obj 313 10 r decay;
#X obj 313 59 s decay_v;
#X obj 425 15 r cutoff;
#X obj 424 38 * 100;
#X obj 422 61 s cutoff_v;
#X obj 504 13 r res;
#X obj 504 38 expr 4 * ($f1/127);
#X obj 296 33 expr $f1/127*1000;
#X obj 638 16 r volume;
#X obj 638 41 / 127;
#X obj 637 66 s volume_v;
#X obj 747 12 r pan;
#X obj 733 37 expr ($f1/127);
#N canvas 763 354 450 300 smoother 0;
#X obj 194 81 inlet;
#X obj 197 165 outlet~;
#X obj 196 110 pack 0 50;
#X obj 196 137 line~;
#X connect 0 0 2 0;
#X connect 2 0 3 0;
#X connect 3 0 1 0;
#X restore 505 59 pd smoother;
#X obj 504 81 s~ res_v;
#X obj -8 120 r pan_variance;
#X obj -8 148 / 127;
#X obj -8 177 s pan_variance_v;
#X obj 742 70 s pan_v;
#X obj 125 119 r volume_variance;
#X obj 125 151 / 127;
#X obj 125 177 s volume_variance_v;
#X obj 86 35 * 600;
#X obj 273 119 r saw_volume_variance;
#X obj 438 117 r sqr_volume_variance;
#X obj 275 177 s saw_volume_variance_v;
#X obj 438 175 s sqr_volume_variance_v;
#X obj 276 147 / 127;
#X obj 438 143 / 127;
#X obj 180 33 expr $f1/127*300;
#X obj 598 119 r saw_freq_variance;
#X obj 773 120 r sqr_freq_variance;
#X obj 596 173 s saw_freq_variance_v;
#X obj 773 169 s sqr_freq_variance_v;
#X obj 598 143 / 30;
#X obj 773 142 / 30;
#X obj -7 227 r saw_volume;
#X obj 97 225 r sqr_volume;
#X obj -7 247 / 127;
#X obj 97 246 / 127;
#N canvas 763 354 450 300 smoother 0;
#X obj 194 81 inlet;
#X obj 197 165 outlet~;
#X obj 196 110 pack 0 50;
#X obj 196 137 line~;
#X connect 0 0 2 0;
#X connect 2 0 3 0;
#X connect 3 0 1 0;
#X restore -7 268 pd smoother;
#N canvas 763 354 450 300 smoother 0;
#X obj 194 81 inlet;
#X obj 197 165 outlet~;
#X obj 196 110 pack 0 50;
#X obj 196 137 line~;
#X connect 0 0 2 0;
#X connect 2 0 3 0;
#X connect 3 0 1 0;
#X restore 96 267 pd smoother;
#X obj 95 288 s~ sqr_volume_v;
#X obj -7 289 s~ saw_volume_v;
#X obj 201 289 s saw_freq_offset_v;
#X obj 202 223 r saw_freq_offset;
#X obj 339 224 r sqr_freq_offset;
#X obj 337 291 s sqr_freq_offset_v;
#X obj 200 257 / 30;
#X obj 337 255 / 30;
#X obj 472 223 r sustain_level;
#X obj 471 287 s sustain_level_v;
#X obj 472 248 / 127;
#X obj 592 226 r sustain_time;
#X obj 591 291 s sustain_time_v;
#X obj 587 261 expr $f1/127*4000;
#X obj 714 231 r release;
#X obj 716 284 s release_v;
#X obj 716 257 expr $f1/127*1000;
#X connect 0 0 3 0;
#X connect 1 0 29 0;
#X connect 3 0 2 0;
#X connect 5 0 36 0;
#X connect 7 0 14 0;
#X connect 9 0 10 0;
#X connect 10 0 11 0;
#X connect 12 0 13 0;
#X connect 13 0 20 0;
#X connect 14 0 8 0;
#X connect 15 0 16 0;
#X connect 16 0 17 0;
#X connect 18 0 19 0;
#X connect 19 0 25 0;
#X connect 20 0 21 0;
#X connect 22 0 23 0;
#X connect 23 0 24 0;
#X connect 26 0 27 0;
#X connect 27 0 28 0;
#X connect 29 0 4 0;
#X connect 30 0 34 0;
#X connect 31 0 35 0;
#X connect 34 0 32 0;
#X connect 35 0 33 0;
#X connect 36 0 6 0;
#X connect 37 0 41 0;
#X connect 38 0 42 0;
#X connect 41 0 39 0;
#X connect 42 0 40 0;
#X connect 43 0 45 0;
#X connect 44 0 46 0;
#X connect 45 0 47 0;
#X connect 46 0 48 0;
#X connect 47 0 50 0;
#X connect 48 0 49 0;
#X connect 52 0 55 0;
#X connect 53 0 56 0;
#X connect 55 0 51 0;
#X connect 56 0 54 0;
#X connect 57 0 59 0;
#X connect 59 0 58 0;
#X connect 60 0 62 0;
#X connect 62 0 61 0;
#X connect 63 0 65 0;
#X connect 65 0 64 0;
#X restore 12 13 pd MIDItoValue;
#N canvas 857 439 450 300 selector 0;
#X obj 123 49 inlet trigger;
#X obj 187 106 f;
#X obj 187 132 + 1;
#X msg 228 57 0;
#X obj 187 180 outlet;
#X obj 227 29 loadbang;
#X obj 188 156 mod 20;
#X connect 0 0 1 0;
#X connect 1 0 2 0;
#X connect 2 0 1 1;
#X connect 2 0 6 0;
#X connect 3 0 1 1;
#X connect 5 0 3 0;
#X connect 6 0 4 0;
#X restore 229 61 pd selector;
#X floatatom 229 82 5 0 0 0 - - -;
#X obj 229 103 s selection;
#X obj 188 270 dac~;
#N canvas 649 37 462 377 freq_list 1;
#X obj 196 133 t l l;
#X obj 242 164 list length;
#X obj 240 223 random;
#X obj 185 249 list split;
#X obj 222 276 list split 1;
#X obj 197 44 inlet trigger;
#X obj 223 322 outlet freq;
#X obj 242 197 t b f;
#N canvas 455 318 572 308 list-MIDInoteon 0;
#X obj 153 17 inlet bang;
#N canvas 623 364 450 300 on_off_route 0;
#X obj 86 31 notein;
#X obj 72 72 pack f f;
#X obj 72 132 route 0;
#X obj 72 102 zl rev;
#X obj 23 245 outlet on;
#X obj 114 246 outlet off;
#X obj 111 160 list split 1;
#X text 192 16 Routes MIDI note on messages to;
#X text 192 34 the left outlet \, and note off;
#X text 193 52 messages to the right outlet;
#X connect 0 0 1 0;
#X connect 0 1 1 1;
#X connect 1 0 3 0;
#X connect 2 0 5 0;
#X connect 2 1 6 0;
#X connect 3 0 2 0;
#X connect 6 1 4 0;
#X restore 258 26 pd on_off_route;
#X obj 207 126 list-extend;
#N canvas 429 293 527 367 list-deletevalue 0;
#X obj 174 23 inlet list;
#X obj 68 25 inlet value;
#X obj 92 75 list-find;
#X obj 137 226 list-delete;
#X obj 159 185 list;
#X obj 78 313 outlet;
#X obj 157 106 limit 0 1;
#X obj 80 269 switch;
#X obj 156 130 + 1;
#X obj 156 155 t b f;
#X text -128 121 the value is not found;
#X text -133 13 Inlet 0: Value to delete;
#X text -134 31 Inlet 1: A list;
#X text -130 80 then the value to delete;
#X text -139 64 - First input the list \,;
#X text -141 106 - Outputs the complete list if;
#X obj 177 50 list;
#X text -142 154 - Stores the output list.;
#X connect 0 0 16 0;
#X connect 1 0 2 0;
#X connect 2 0 3 1;
#X connect 2 1 6 0;
#X connect 3 0 7 2;
#X connect 4 0 3 0;
#X connect 4 0 7 1;
#X connect 6 0 8 0;
#X connect 7 0 5 0;
#X connect 7 0 16 0;
#X connect 8 0 9 0;
#X connect 9 0 4 0;
#X connect 9 1 7 0;
#X connect 16 0 4 1;
#X connect 16 0 2 1;
#X restore 272 215 pd list-deletevalue;
#X obj 249 169 spigot;
#X msg 338 87 1;
#X obj 222 59 t f b;
#X msg 243 85 0;
#X obj 319 56 t f b b;
#X obj 201 264 outlet;
#X obj 203 181 list;
#X text -95 23 Keeps track in a list of which keys;
#X text -84 39 are being pressed (MIDI note on);
#X text -89 103 - Outlet: List of MIDI note on (keys;
#X text -88 83 - Inlet: Bang to get the list.;
#X text -77 117 that are being pressed).;
#X connect 0 0 2 0;
#X connect 0 0 10 0;
#X connect 1 0 6 0;
#X connect 1 1 8 0;
#X connect 2 0 4 0;
#X connect 2 0 10 1;
#X connect 3 0 2 1;
#X connect 4 0 3 1;
#X connect 5 0 4 1;
#X connect 6 0 2 0;
#X connect 6 1 7 0;
#X connect 7 0 4 1;
#X connect 8 0 3 0;
#X connect 8 1 2 0;
#X connect 8 2 5 0;
#X connect 10 0 9 0;
#X restore 195 73 pd list-MIDInoteon;
#X obj 222 299 mtof;
#X obj 113 152 print LIST;
#X connect 0 0 3 0;
#X connect 0 1 1 0;
#X connect 1 0 7 0;
#X connect 2 0 3 1;
#X connect 3 1 4 0;
#X connect 4 0 9 0;
#X connect 5 0 8 0;
#X connect 7 0 2 0;
#X connect 7 1 2 1;
#X connect 8 0 0 0;
#X connect 8 0 10 0;
#X connect 9 0 6 0;
#X restore 132 59 pd freq_list;
#X floatatom 132 81 8 0 0 0 - - -;
#X obj 133 101 s random_freq;
#N canvas 313 415 757 394 cells 0;
#X obj 60 36 synthcell 0;
#X floatatom 44 58 5 0 0 0 - - -;
#X floatatom 82 58 5 0 0 0 - - -;
#X floatatom 119 59 5 0 0 0 - - -;
#X obj 85 22 bng 15 250 50 0 empty empty empty 17 7 0 10 -262144 -1
-1;
#X floatatom 165 59 5 0 0 0 - - -;
#X floatatom 203 59 5 0 0 0 - - -;
#X floatatom 240 60 5 0 0 0 - - -;
#X obj 206 23 bng 15 250 50 0 empty empty empty 17 7 0 10 -262144 -1
-1;
#X floatatom 293 61 5 0 0 0 - - -;
#X floatatom 331 61 5 0 0 0 - - -;
#X floatatom 368 62 5 0 0 0 - - -;
#X obj 334 25 bng 15 250 50 0 empty empty empty 17 7 0 10 -262144 -1
-1;
#X obj 180 37 synthcell 1;
#X obj 309 39 synthcell 2;
#X floatatom 415 61 5 0 0 0 - - -;
#X floatatom 453 61 5 0 0 0 - - -;
#X floatatom 490 62 5 0 0 0 - - -;
#X obj 456 25 bng 15 250 50 0 empty empty empty 17 7 0 10 -262144 -1
-1;
#X floatatom 543 63 5 0 0 0 - - -;
#X floatatom 581 63 5 0 0 0 - - -;
#X floatatom 618 64 5 0 0 0 - - -;
#X obj 584 27 bng 15 250 50 0 empty empty empty 17 7 0 10 -262144 -1
-1;
#X floatatom 45 123 5 0 0 0 - - -;
#X floatatom 83 123 5 0 0 0 - - -;
#X floatatom 120 124 5 0 0 0 - - -;
#X obj 86 87 bng 15 250 50 0 empty empty empty 17 7 0 10 -262144 -1
-1;
#X floatatom 166 124 5 0 0 0 - - -;
#X floatatom 204 124 5 0 0 0 - - -;
#X floatatom 241 125 5 0 0 0 - - -;
#X obj 207 88 bng 15 250 50 0 empty empty empty 17 7 0 10 -262144 -1
-1;
#X floatatom 294 126 5 0 0 0 - - -;
#X floatatom 332 126 5 0 0 0 - - -;
#X floatatom 369 127 5 0 0 0 - - -;
#X obj 335 90 bng 15 250 50 0 empty empty empty 17 7 0 10 -262144 -1
-1;
#X floatatom 416 126 5 0 0 0 - - -;
#X floatatom 454 126 5 0 0 0 - - -;
#X floatatom 491 127 5 0 0 0 - - -;
#X obj 457 90 bng 15 250 50 0 empty empty empty 17 7 0 10 -262144 -1
-1;
#X floatatom 544 128 5 0 0 0 - - -;
#X floatatom 582 128 5 0 0 0 - - -;
#X floatatom 619 129 5 0 0 0 - - -;
#X obj 585 92 bng 15 250 50 0 empty empty empty 17 7 0 10 -262144 -1
-1;
#X obj 430 38 synthcell 3;
#X obj 559 41 synthcell 4;
#X obj 61 101 synthcell 5;
#X obj 181 102 synthcell 6;
#X obj 310 104 synthcell 7;
#X obj 431 104 synthcell 8;
#X obj 560 106 synthcell 9;
#X floatatom 45 190 5 0 0 0 - - -;
#X floatatom 83 190 5 0 0 0 - - -;
#X floatatom 120 191 5 0 0 0 - - -;
#X obj 86 154 bng 15 250 50 0 empty empty empty 17 7 0 10 -262144 -1
-1;
#X floatatom 166 191 5 0 0 0 - - -;
#X floatatom 204 191 5 0 0 0 - - -;
#X floatatom 241 192 5 0 0 0 - - -;
#X obj 207 155 bng 15 250 50 0 empty empty empty 17 7 0 10 -262144
-1 -1;
#X floatatom 294 193 5 0 0 0 - - -;
#X floatatom 332 193 5 0 0 0 - - -;
#X floatatom 369 194 5 0 0 0 - - -;
#X obj 335 157 bng 15 250 50 0 empty empty empty 17 7 0 10 -262144
-1 -1;
#X floatatom 416 193 5 0 0 0 - - -;
#X floatatom 454 193 5 0 0 0 - - -;
#X floatatom 491 194 5 0 0 0 - - -;
#X obj 457 157 bng 15 250 50 0 empty empty empty 17 7 0 10 -262144
-1 -1;
#X floatatom 544 195 5 0 0 0 - - -;
#X floatatom 582 195 5 0 0 0 - - -;
#X floatatom 619 196 5 0 0 0 - - -;
#X obj 585 159 bng 15 250 50 0 empty empty empty 17 7 0 10 -262144
-1 -1;
#X floatatom 46 255 5 0 0 0 - - -;
#X floatatom 84 255 5 0 0 0 - - -;
#X floatatom 121 256 5 0 0 0 - - -;
#X obj 87 219 bng 15 250 50 0 empty empty empty 17 7 0 10 -262144 -1
-1;
#X floatatom 167 256 5 0 0 0 - - -;
#X floatatom 205 256 5 0 0 0 - - -;
#X floatatom 242 257 5 0 0 0 - - -;
#X obj 208 220 bng 15 250 50 0 empty empty empty 17 7 0 10 -262144
-1 -1;
#X floatatom 295 258 5 0 0 0 - - -;
#X floatatom 333 258 5 0 0 0 - - -;
#X floatatom 370 259 5 0 0 0 - - -;
#X obj 336 222 bng 15 250 50 0 empty empty empty 17 7 0 10 -262144
-1 -1;
#X floatatom 417 258 5 0 0 0 - - -;
#X floatatom 455 258 5 0 0 0 - - -;
#X floatatom 492 259 5 0 0 0 - - -;
#X obj 458 222 bng 15 250 50 0 empty empty empty 17 7 0 10 -262144
-1 -1;
#X floatatom 545 260 5 0 0 0 - - -;
#X floatatom 583 260 5 0 0 0 - - -;
#X floatatom 620 261 5 0 0 0 - - -;
#X obj 586 224 bng 15 250 50 0 empty empty empty 17 7 0 10 -262144
-1 -1;
#X obj 61 169 synthcell 10;
#X obj 181 169 synthcell 11;
#X obj 310 171 synthcell 12;
#X obj 431 170 synthcell 13;
#X obj 560 173 synthcell 14;
#X obj 62 233 synthcell 15;
#X obj 182 234 synthcell 16;
#X obj 311 236 synthcell 17;
#X obj 432 236 synthcell 18;
#X obj 561 238 synthcell 19;
#X connect 0 0 1 0;
#X connect 0 1 2 0;
#X connect 0 2 3 0;
#X connect 0 3 4 0;
#X connect 13 0 5 0;
#X connect 13 1 6 0;
#X connect 13 2 7 0;
#X connect 13 3 8 0;
#X connect 14 0 9 0;
#X connect 14 1 10 0;
#X connect 14 2 11 0;
#X connect 14 3 12 0;
#X connect 43 0 15 0;
#X connect 43 1 16 0;
#X connect 43 2 17 0;
#X connect 43 3 18 0;
#X connect 44 0 19 0;
#X connect 44 1 20 0;
#X connect 44 2 21 0;
#X connect 44 3 22 0;
#X connect 45 0 23 0;
#X connect 45 1 24 0;
#X connect 45 2 25 0;
#X connect 45 3 26 0;
#X connect 46 0 27 0;
#X connect 46 1 28 0;
#X connect 46 2 29 0;
#X connect 46 3 30 0;
#X connect 47 0 31 0;
#X connect 47 1 32 0;
#X connect 47 2 33 0;
#X connect 47 3 34 0;
#X connect 48 0 35 0;
#X connect 48 1 36 0;
#X connect 48 2 37 0;
#X connect 48 3 38 0;
#X connect 49 0 39 0;
#X connect 49 1 40 0;
#X connect 49 2 41 0;
#X connect 49 3 42 0;
#X connect 90 0 50 0;
#X connect 90 1 51 0;
#X connect 90 2 52 0;
#X connect 90 3 53 0;
#X connect 91 0 54 0;
#X connect 91 1 55 0;
#X connect 91 2 56 0;
#X connect 91 3 57 0;
#X connect 92 0 58 0;
#X connect 92 1 59 0;
#X connect 92 2 60 0;
#X connect 92 3 61 0;
#X connect 93 0 62 0;
#X connect 93 1 63 0;
#X connect 93 2 64 0;
#X connect 93 3 65 0;
#X connect 94 0 66 0;
#X connect 94 1 67 0;
#X connect 94 2 68 0;
#X connect 94 3 69 0;
#X connect 95 0 70 0;
#X connect 95 1 71 0;
#X connect 95 2 72 0;
#X connect 95 3 73 0;
#X connect 96 0 74 0;
#X connect 96 1 75 0;
#X connect 96 2 76 0;
#X connect 96 3 77 0;
#X connect 97 0 78 0;
#X connect 97 1 79 0;
#X connect 97 2 80 0;
#X connect 97 3 81 0;
#X connect 98 0 82 0;
#X connect 98 1 83 0;
#X connect 98 2 84 0;
#X connect 98 3 85 0;
#X connect 99 0 86 0;
#X connect 99 1 87 0;
#X connect 99 2 88 0;
#X connect 99 3 89 0;
#X restore 178 156 pd cells;
#N canvas 769 355 450 300 master_amp 0;
#X obj 102 115 *~;
#X obj 240 19 r volume_v;
#N canvas 763 354 450 300 smoother 0;
#X obj 194 81 inlet;
#X obj 197 165 outlet~;
#X obj 196 110 pack 0 50;
#X obj 196 137 line~;
#X connect 0 0 2 0;
#X connect 2 0 3 0;
#X connect 3 0 1 0;
#X restore 238 50 pd smoother;
#X obj 95 21 inlet~ L;
#X obj 157 19 inlet~ R;
#X obj 145 113 *~;
#X obj 94 246 outlet~ L;
#X obj 169 247 outlet~ R;
#X obj 95 47 *~ 0.2;
#X obj 154 48 *~ 0.2;
#X connect 0 0 6 0;
#X connect 1 0 2 0;
#X connect 2 0 0 1;
#X connect 2 0 5 1;
#X connect 3 0 8 0;
#X connect 4 0 9 0;
#X connect 5 0 7 0;
#X connect 8 0 0 0;
#X connect 9 0 5 0;
#X restore 163 240 pd master_amp;
#X obj 137 208 catch~ synth_L;
#X obj 243 208 catch~ synth_R;
#X obj 177 33 t b b;
#X obj 92 126 print rnd_freq;
#X connect 0 0 13 0;
#X connect 2 0 3 0;
#X connect 3 0 4 0;
#X connect 6 0 7 0;
#X connect 6 0 14 0;
#X connect 7 0 8 0;
#X connect 10 0 5 0;
#X connect 10 1 5 1;
#X connect 11 0 10 0;
#X connect 12 0 10 1;
#X connect 13 0 6 0;
#X connect 13 1 2 0;
#X restore 100 481 pd Cloud1;
#X obj 7 72 s metro_ceil;
#X obj 10 52 hsl 128 15 0 127 0 1 empty empty empty -2 -8 0 10 -262144
-1 -1 12700 1;
#X obj 10 98 hsl 128 15 0 127 0 1 empty empty empty -2 -8 0 10 -262144
-1 -1 10700 1;
#X obj 8 121 s metro_floor;
#X obj 7 6 tgl 15 0 empty empty empty 17 7 0 10 -262144 -1 -1 1 1;
#X obj 8 29 s start;
#X obj 181 114 hsl 128 15 0 127 0 1 empty empty empty -2 -8 0 10 -262144
-1 -1 0 1;
#X obj 180 158 hsl 128 15 0 127 0 1 empty empty empty -2 -8 0 10 -262144
-1 -1 1600 1;
#X obj 178 133 s attack;
#X obj 177 178 s decay;
#X obj 185 12 hsl 128 15 0 127 0 1 empty empty empty -2 -8 0 10 -262144
-1 -1 9200 1;
#X obj 182 33 s cutoff;
#X obj 182 65 hsl 128 15 0 127 0 1 empty empty empty -2 -8 0 10 -262144
-1 -1 0 1;
#X obj 180 85 s res;
#X obj 353 27 s volume;
#X obj 355 188 hsl 128 15 0 127 0 1 empty empty empty -2 -8 0 10 -262144
-1 -1 6500 1;
#X obj 352 208 s pan;
#N canvas 376 313 450 300 cpu_usage 0;
#X obj 149 161 cputime;
#X obj 149 21 loadbang;
#X obj 149 105 metro 1000;
#X msg 149 49 1;
#X floatatom 149 77 0 0 0 0 - - -;
#X obj 149 133 t b b;
#X obj 149 221 * 0.1;
#X obj 149 190 int;
#X text 194 77 <-- on/off;
#X text 82 277 CPU load in percent;
#X obj 148 248 outlet;
#X connect 0 0 7 0;
#X connect 1 0 3 0;
#X connect 2 0 5 0;
#X connect 3 0 4 0;
#X connect 4 0 2 0;
#X connect 5 0 0 0;
#X connect 5 1 0 1;
#X connect 6 0 10 0;
#X connect 7 0 6 0;
#X restore 9 480 pd cpu_usage;
#X floatatom 9 502 5 0 0 0 - - -;
#X obj 502 187 hsl 128 15 0 127 0 1 empty empty empty -2 -8 0 10 -262144
-1 -1 12700 1;
#X obj 499 209 s pan_variance;
#X text 353 173 L;
#X text 477 173 R;
#X text 498 171 0%;
#X text 606 172 100%;
#X obj 502 5 hsl 128 15 0 127 0 1 empty empty empty -2 -8 0 10 -262144
-1 -1 0 1;
#X obj 499 26 s volume_variance;
#X text 497 -10 0%;
#X text 609 -11 100%;
#X obj 356 6 hsl 128 15 0 127 0 1 empty empty empty -2 -8 0 10 -262144
-1 -1 12700 1;
#X text 352 -10 0%;
#X text 465 -9 100%;
#X obj 501 61 hsl 128 15 0 127 0 1 empty empty empty -2 -8 0 10 -262144
-1 -1 0 1;
#X obj 499 81 s saw_volume_variance;
#X obj 503 123 hsl 128 15 0 127 0 1 empty empty empty -2 -8 0 10 -262144
-1 -1 0 1;
#X obj 500 148 s sqr_volume_variance;
#X text 496 45 0%;
#X text 607 44 100%;
#X text 498 107 0%;
#X text 601 107 100%;
#X obj 378 329 hsl 128 15 0 127 0 1 empty empty empty -2 -8 0 10 -262144
-1 -1 4700 1;
#X obj 375 351 s saw_freq_variance;
#X obj 378 374 hsl 128 15 0 127 0 1 empty empty empty -2 -8 0 10 -262144
-1 -1 4900 1;
#X obj 375 396 s sqr_freq_variance;
#X obj 357 61 hsl 128 15 0 127 0 1 empty empty empty -2 -8 0 10 -262144
-1 -1 12700 1;
#X obj 354 82 s saw_volume;
#X text 353 46 0%;
#X text 461 45 100%;
#X obj 357 122 hsl 128 15 0 127 0 1 empty empty empty -2 -8 0 10 -262144
-1 -1 0 1;
#X obj 354 143 s sqr_volume;
#X text 354 107 0%;
#X text 460 107 100%;
#X obj 535 348 s saw_freq_offset;
#X obj 532 394 s sqr_freq_offset;
#X obj 538 329 hsl 128 15 0 127 0 0 empty empty empty -2 -8 0 10 -262144
-1 -1 0 1;
#X obj 535 372 hsl 128 15 0 127 0 0 empty empty empty -2 -8 0 10 -262144
-1 -1 0 1;
#X obj 179 202 hsl 128 15 0 127 0 1 empty empty empty -2 -8 0 10 -262144
-1 -1 2800 1;
#X obj 177 252 hsl 128 15 0 127 0 1 empty empty empty -2 -8 0 10 -262144
-1 -1 8100 1;
#X obj 174 274 s sustain_time;
#X obj 174 306 hsl 128 15 0 127 0 1 empty empty empty -2 -8 0 10 -262144
-1 -1 3700 1;
#X obj 171 329 s release;
#X obj 176 222 s sustain_level;
#X connect 2 0 1 0;
#X connect 3 0 4 0;
#X connect 5 0 6 0;
#X connect 7 0 9 0;
#X connect 8 0 10 0;
#X connect 11 0 12 0;
#X connect 13 0 14 0;
#X connect 16 0 17 0;
#X connect 18 0 19 0;
#X connect 20 0 21 0;
#X connect 26 0 27 0;
#X connect 30 0 15 0;
#X connect 33 0 34 0;
#X connect 35 0 36 0;
#X connect 41 0 42 0;
#X connect 43 0 44 0;
#X connect 45 0 46 0;
#X connect 49 0 50 0;
#X connect 55 0 53 0;
#X connect 56 0 54 0;
#X connect 57 0 62 0;
#X connect 58 0 59 0;
#X connect 60 0 61 0;
