#N canvas 648 59 450 300 10;
#N canvas 829 411 450 300 Cloud1 1;
#N canvas 761 398 450 300 trigger 0;
#X obj 116 258 outlet;
#X obj 104 117 metro 50;
#X obj 176 117 random 1000;
#X obj 240 72 r metro_ceil_v;
#X obj 181 150 + 0;
#X obj 256 97 r metro_floor_v;
#X obj 180 173 / 100;
#X obj 103 71 r start;
#X connect 1 0 2 0;
#X connect 1 0 0 0;
#X connect 2 0 4 0;
#X connect 3 0 2 1;
#X connect 4 0 6 0;
#X connect 5 0 4 1;
#X connect 6 0 1 1;
#X connect 7 0 1 0;
#X restore 177 12 pd trigger;
#N canvas 672 320 450 300 MIDItoValue 1;
#X obj -17 11 r metro_ceil;
#X obj 86 11 r metro_floor;
#X obj -17 59 s metro_ceil_v;
#X obj -17 34 * 100;
#X obj 86 35 * 100;
#X obj 86 60 s metro_floor_v;
#X obj 205 10 r attack;
#X obj 204 57 s attack_v;
#X obj 313 10 r decay;
#X obj 313 59 s decay_v;
#X obj 180 33 expr $f1/127*1000;
#X obj -12 86 r cutoff;
#X obj -13 109 * 100;
#X obj -15 132 s cutoff_v;
#X obj 52 84 r res;
#X obj 57 134 s res_v;
#X obj 52 109 expr 4 * ($f1/127);
#X obj 296 33 expr $f1/127*1000;
#X connect 0 0 3 0;
#X connect 1 0 4 0;
#X connect 3 0 2 0;
#X connect 4 0 5 0;
#X connect 6 0 10 0;
#X connect 8 0 17 0;
#X connect 10 0 7 0;
#X connect 11 0 12 0;
#X connect 12 0 13 0;
#X connect 14 0 16 0;
#X connect 16 0 15 0;
#X connect 17 0 9 0;
#X restore 12 13 pd MIDItoValue;
#N canvas 857 439 450 300 selector 0;
#X obj 123 49 inlet trigger;
#X obj 187 106 f;
#X obj 187 132 + 1;
#X msg 228 57 0;
#X obj 187 180 outlet;
#X obj 227 29 loadbang;
#X obj 187 156 mod 10;
#X connect 0 0 1 0;
#X connect 1 0 2 0;
#X connect 2 0 1 1;
#X connect 2 0 6 0;
#X connect 3 0 1 1;
#X connect 5 0 3 0;
#X connect 6 0 4 0;
#X restore 177 34 pd selector;
#X floatatom 177 55 5 0 0 0 - - -;
#X obj 177 76 s selection;
#X obj 181 228 catch~ synth_audio;
#X obj 175 261 dac~;
#X obj 14 111 synthcell 1;
#X connect 0 0 2 0;
#X connect 2 0 3 0;
#X connect 3 0 4 0;
#X connect 5 0 6 0;
#X connect 5 0 6 1;
#X restore 193 271 pd Cloud1;
#X obj 7 72 s metro_ceil;
#X obj 10 52 hsl 128 15 0 127 0 0 empty empty empty -2 -8 0 10 -262144
-1 -1 8600 1;
#X obj 10 98 hsl 128 15 0 127 0 0 empty empty empty -2 -8 0 10 -262144
-1 -1 0 1;
#X obj 8 121 s metro_floor;
#X obj 7 7 tgl 15 0 empty empty empty 17 7 0 10 -262144 -1 -1 1 1;
#X obj 8 29 s start;
#X obj 159 108 hsl 128 15 0 127 0 0 empty empty empty -2 -8 0 10 -262144
-1 -1 0 1;
#X obj 158 152 hsl 128 15 0 127 0 0 empty empty empty -2 -8 0 10 -262144
-1 -1 1400 1;
#X obj 156 127 s attack;
#X obj 155 172 s decay;
#X obj 163 6 hsl 128 15 0 127 0 0 empty empty empty -2 -8 0 10 -262144
-1 -1 6500 1;
#X obj 160 27 s cutoff;
#X obj 161 59 hsl 128 15 0 127 0 0 empty empty empty -2 -8 0 10 -262144
-1 -1 0 1;
#X obj 158 79 s res;
#X connect 2 0 1 0;
#X connect 3 0 4 0;
#X connect 5 0 6 0;
#X connect 7 0 9 0;
#X connect 8 0 10 0;
#X connect 11 0 12 0;
#X connect 13 0 14 0;
