#N canvas 549 289 537 297 10;
#N canvas 22 372 780 470 saw 1;
#X obj 49 64 phasor~;
#X obj 108 8 inlet~ envelope;
#X obj 118 157 moog~;
#X obj 212 6 r cutoff_v;
#X obj 142 50 *~;
#X obj 20 9 r random_freq;
#X obj 48 96 *~ 0.1;
#X obj 292 11 r~ res_v;
#X obj 357 11 inlet rng;
#X obj 518 13 r saw_volume_variance_v;
#X obj 423 13 inlet equals_me;
#X obj 307 244 *~;
#X obj 307 293 outlet~;
#X obj 381 70 * 0.5;
#X obj 421 131 * 0;
#X obj 421 154 + 0.5;
#N canvas 763 354 450 300 smoother 0;
#X obj 194 81 inlet;
#X obj 197 165 outlet~;
#X obj 196 137 line~;
#X obj 196 110 pack 0 50;
#X connect 0 0 3 0;
#X connect 2 0 1 0;
#X connect 3 0 2 0;
#X restore 421 180 pd smoother;
#X obj 381 48 expr ($f1-0.5)*2;
#X obj 390 98 spigot;
#X obj 119 83 +~;
#X connect 0 0 6 0;
#X connect 1 0 4 0;
#X connect 2 0 11 0;
#X connect 3 0 4 1;
#X connect 4 0 19 0;
#X connect 5 0 0 0;
#X connect 5 0 19 1;
#X connect 6 0 2 0;
#X connect 7 0 2 2;
#X connect 8 0 17 0;
#X connect 9 0 14 1;
#X connect 10 0 18 1;
#X connect 11 0 12 0;
#X connect 13 0 18 0;
#X connect 14 0 15 0;
#X connect 15 0 16 0;
#X connect 16 0 11 1;
#X connect 17 0 13 0;
#X connect 18 0 14 0;
#X connect 19 0 2 1;
#X restore 66 169 pd saw;
#X obj 73 9 r selection;
#X obj 63 54 sel \$1;
#N canvas 528 277 450 300 AD 0;
#X obj 97 22 inlet trigger;
#X obj 158 243 outlet~;
#X obj 152 179 vline~;
#X msg 139 128 1 \$2 \, 0 \$3 \$2;
#X obj 133 93 pack f f f;
#X obj 197 22 inlet attack;
#X obj 289 17 inlet decay;
#X connect 0 0 4 0;
#X connect 2 0 1 0;
#X connect 3 0 2 0;
#X connect 4 0 3 0;
#X connect 5 0 4 1;
#X connect 6 0 4 2;
#X restore 86 140 pd AD;
#X obj 294 26 r decay_v;
#X obj 224 26 r attack_v;
#N canvas 851 387 450 300 amp 0;
#X obj 137 119 inlet~;
#X obj 198 247 outlet~;
#X obj 308 24 r volume_variance_v;
#X obj 193 42 * 0.5;
#X obj 233 103 * 0;
#X obj 233 126 + 0.5;
#X obj 200 190 *~;
#N canvas 763 354 450 300 smoother 0;
#X obj 194 81 inlet;
#X obj 197 165 outlet~;
#X obj 196 137 line~;
#X obj 196 110 pack 0 50;
#X connect 0 0 3 0;
#X connect 2 0 1 0;
#X connect 3 0 2 0;
#X restore 235 152 pd smoother;
#X obj 193 20 expr ($f1-0.5)*2;
#X obj 202 70 spigot;
#X obj 330 209 s \$0_volchng;
#X obj 195 0 inlet rng;
#X obj 262 -7 inlet equals_me;
#X connect 0 0 6 0;
#X connect 2 0 4 1;
#X connect 3 0 9 0;
#X connect 4 0 5 0;
#X connect 5 0 7 0;
#X connect 5 0 10 0;
#X connect 6 0 1 0;
#X connect 7 0 6 1;
#X connect 8 0 3 0;
#X connect 9 0 4 0;
#X connect 11 0 8 0;
#X connect 12 0 9 1;
#X restore 90 202 pd amp;
#N canvas 651 260 753 312 sqr 1;
#X obj 26 44 phasor~;
#X obj 285 275 outlet~;
#X obj 34 72 expr~ $v1 > 0.5;
#X obj 101 18 inlet~ envelope;
#X obj 121 141 moog~;
#X obj 205 16 r cutoff_v;
#X obj 154 62 *~;
#X obj 286 16 r res_v;
#N canvas 763 354 450 300 smoother 0;
#X obj 194 81 inlet;
#X obj 197 165 outlet~;
#X obj 196 110 pack 0 50;
#X obj 196 137 line~;
#X connect 0 0 2 0;
#X connect 2 0 3 0;
#X connect 3 0 1 0;
#X restore 221 81 pd smoother;
#X obj 16 14 r random_freq;
#X obj 35 105 *~ 0.1;
#X obj 358 17 inlet rng;
#X obj 539 17 r sqr_volume_variance_v;
#X obj 430 18 inlet equals_me;
#X obj 381 70 * 0.5;
#X obj 421 131 * 0;
#X obj 421 154 + 0.5;
#N canvas 763 354 450 300 smoother 0;
#X obj 194 81 inlet;
#X obj 197 165 outlet~;
#X obj 196 137 line~;
#X obj 196 110 pack 0 50;
#X connect 0 0 3 0;
#X connect 2 0 1 0;
#X connect 3 0 2 0;
#X restore 421 180 pd smoother;
#X obj 381 48 expr ($f1-0.5)*2;
#X obj 390 98 spigot;
#X obj 287 237 *~;
#X obj 127 108 +~;
#X connect 0 0 2 0;
#X connect 2 0 10 0;
#X connect 3 0 6 0;
#X connect 4 0 20 0;
#X connect 5 0 6 1;
#X connect 6 0 21 0;
#X connect 7 0 8 0;
#X connect 8 0 4 2;
#X connect 9 0 0 0;
#X connect 9 0 21 1;
#X connect 10 0 4 0;
#X connect 11 0 18 0;
#X connect 12 0 15 1;
#X connect 13 0 19 1;
#X connect 14 0 19 0;
#X connect 15 0 16 0;
#X connect 16 0 17 0;
#X connect 17 0 20 1;
#X connect 18 0 14 0;
#X connect 19 0 15 0;
#X connect 20 0 1 0;
#X connect 21 0 4 1;
#X restore 122 169 pd sqr;
#X obj 26 268 throw~ synth_L;
#X obj 132 267 throw~ synth_R;
#N canvas 519 367 518 359 pan 0;
#X obj 165 195 inlet~;
#X obj 128 297 outlet~ L;
#X obj 224 295 outlet~ R;
#X obj 128 272 *~;
#X obj 225 263 *~;
#X obj 148 250 expr~ 1-$v1;
#X obj 300 55 r pan_variance_v;
#N canvas 763 354 450 300 smoother 0;
#X obj 194 81 inlet;
#X obj 197 165 outlet~;
#X obj 196 110 pack 0 50;
#X obj 196 137 line~;
#X connect 0 0 2 0;
#X connect 2 0 3 0;
#X connect 3 0 1 0;
#X restore 244 205 pd smoother;
#X obj 273 105 *;
#X obj 270 29 spigot;
#X obj 243 182 limit 0 1 0;
#X obj 181 59 r pan_v;
#X obj 245 150 +;
#X obj 209 102 t b f;
#X obj 269 3 - 0.5;
#X obj 284 78 t b f;
#X obj 377 244 s \$0_pan;
#X obj 246 -26 inlet rng2;
#X obj 315 -20 inlet equals_me;
#X connect 0 0 3 0;
#X connect 0 0 4 0;
#X connect 3 0 1 0;
#X connect 4 0 2 0;
#X connect 5 0 3 1;
#X connect 6 0 15 0;
#X connect 7 0 5 0;
#X connect 7 0 4 1;
#X connect 8 0 12 0;
#X connect 9 0 8 0;
#X connect 10 0 7 0;
#X connect 10 0 16 0;
#X connect 11 0 13 0;
#X connect 12 0 10 0;
#X connect 13 0 12 0;
#X connect 13 1 12 1;
#X connect 14 0 9 0;
#X connect 15 0 8 0;
#X connect 15 1 8 1;
#X connect 17 0 14 0;
#X connect 18 0 9 1;
#X restore 93 228 pd pan;
#X obj 146 65 == \$1;
#X obj 304 220 r \$0_volchng;
#X obj 396 224 r \$0_pan;
#X obj 304 249 outlet volchng;
#X obj 396 249 outlet pan;
#X obj 234 230 env~;
#X obj 233 251 outlet amp;
#X obj 465 251 outlet bang;
#N canvas 697 407 450 300 rngs 0;
#X obj 178 19 inlet trigger;
#N canvas 565 382 450 300 rng 0;
#X obj 190 17 inlet trigger;
#X obj 199 268 outlet;
#X obj 191 40 random 10000;
#X obj 191 64 / 10000;
#X connect 0 0 2 0;
#X connect 2 0 3 0;
#X connect 3 0 1 0;
#X restore 73 76 pd rng;
#N canvas 565 382 450 300 rng 0;
#X obj 190 17 inlet trigger;
#X obj 199 268 outlet;
#X obj 191 40 random 10000;
#X obj 191 64 / 10000;
#X connect 0 0 2 0;
#X connect 2 0 3 0;
#X connect 3 0 1 0;
#X restore 140 72 pd rng;
#X obj 81 278 outlet;
#X obj 141 280 outlet;
#N canvas 565 382 450 300 rng 0;
#X obj 190 17 inlet trigger;
#X obj 199 268 outlet;
#X obj 191 40 random 10000;
#X obj 191 64 / 10000;
#X connect 0 0 2 0;
#X connect 2 0 3 0;
#X connect 3 0 1 0;
#X restore 202 75 pd rng;
#N canvas 565 382 450 300 rng 0;
#X obj 190 17 inlet trigger;
#X obj 199 268 outlet;
#X obj 191 40 random 10000;
#X obj 191 64 / 10000;
#X connect 0 0 2 0;
#X connect 2 0 3 0;
#X connect 3 0 1 0;
#X restore 264 73 pd rng;
#X obj 200 277 outlet;
#X obj 253 272 outlet;
#X connect 0 0 1 0;
#X connect 0 0 2 0;
#X connect 0 0 5 0;
#X connect 0 0 6 0;
#X connect 1 0 3 0;
#X connect 2 0 4 0;
#X connect 5 0 7 0;
#X connect 6 0 8 0;
#X restore 92 104 pd rngs;
#X obj 73 30 t f f;
#X obj 69 79 t b b;
#X connect 0 0 6 0;
#X connect 1 0 20 0;
#X connect 2 0 18 0;
#X connect 2 0 21 0;
#X connect 3 0 0 0;
#X connect 3 0 7 0;
#X connect 4 0 3 2;
#X connect 5 0 3 1;
#X connect 6 0 10 0;
#X connect 6 0 16 0;
#X connect 7 0 6 0;
#X connect 10 0 8 0;
#X connect 10 1 9 0;
#X connect 11 0 7 2;
#X connect 11 0 0 2;
#X connect 11 0 6 2;
#X connect 11 0 10 2;
#X connect 12 0 14 0;
#X connect 13 0 15 0;
#X connect 16 0 17 0;
#X connect 19 0 6 1;
#X connect 19 1 10 1;
#X connect 19 2 0 1;
#X connect 19 3 7 1;
#X connect 20 0 2 0;
#X connect 20 1 11 0;
#X connect 21 0 3 0;
#X connect 21 1 19 0;
