#N canvas 544 302 549 364 10;
#X obj 74 -13 r selection;
#X obj 64 32 sel \$1;
#N canvas 528 277 450 300 AD 0;
#X obj 97 22 inlet trigger;
#X obj 133 192 outlet~;
#X obj 134 154 vline~;
#X msg 133 123 1 \$2 \, 0 \$3 \$2;
#X obj 133 93 pack f f f;
#X obj 266 20 r decay_v;
#X obj 189 20 r attack_v;
#X connect 0 0 4 0;
#X connect 2 0 1 0;
#X connect 3 0 2 0;
#X connect 4 0 3 0;
#X connect 5 0 4 2;
#X connect 6 0 4 1;
#X restore 68 140 pd AD;
#N canvas 732 398 450 300 amp 0;
#X obj 198 247 outlet~;
#X obj 308 24 r volume_variance_v;
#X obj 193 42 * 0.5;
#X obj 233 103 * 0;
#X obj 233 126 + 0.5;
#X obj 200 190 *~;
#N canvas 763 354 450 300 smoother 0;
#X obj 194 81 inlet;
#X obj 197 165 outlet~;
#X obj 196 137 line~;
#X obj 196 110 pack 0 50;
#X connect 0 0 3 0;
#X connect 2 0 1 0;
#X connect 3 0 2 0;
#X restore 235 152 pd smoother;
#X obj 193 20 expr ($f1-0.5)*2;
#X obj 202 70 spigot;
#X obj 330 209 s \$0_volchng;
#X obj 262 -7 r \$0_equals_me;
#X obj 16 41 inlet~ saw;
#X obj 92 42 inlet~ sqr;
#X obj 69 97 +~;
#X obj 195 0 r \$0_rng1;
#X connect 1 0 3 1;
#X connect 2 0 8 0;
#X connect 3 0 4 0;
#X connect 4 0 6 0;
#X connect 4 0 9 0;
#X connect 5 0 0 0;
#X connect 6 0 5 1;
#X connect 7 0 2 0;
#X connect 8 0 3 0;
#X connect 10 0 8 1;
#X connect 11 0 13 0;
#X connect 12 0 13 1;
#X connect 13 0 5 0;
#X connect 14 0 7 0;
#X restore 90 202 pd amp;
#X obj 26 268 throw~ synth_L;
#X obj 132 267 throw~ synth_R;
#N canvas 519 367 518 359 pan 0;
#X obj 165 195 inlet~;
#X obj 128 297 outlet~ L;
#X obj 224 295 outlet~ R;
#X obj 128 272 *~;
#X obj 225 263 *~;
#X obj 148 250 expr~ 1-$v1;
#X obj 300 55 r pan_variance_v;
#N canvas 763 354 450 300 smoother 0;
#X obj 194 81 inlet;
#X obj 197 165 outlet~;
#X obj 196 110 pack 0 50;
#X obj 196 137 line~;
#X connect 0 0 2 0;
#X connect 2 0 3 0;
#X connect 3 0 1 0;
#X restore 244 205 pd smoother;
#X obj 273 105 *;
#X obj 270 29 spigot;
#X obj 243 182 limit 0 1 0;
#X obj 181 59 r pan_v;
#X obj 245 150 +;
#X obj 209 102 t b f;
#X obj 269 3 - 0.5;
#X obj 284 78 t b f;
#X obj 377 244 s \$0_pan;
#X obj 315 -20 r \$0_equals_me;
#X obj 246 -26 r \$0_rng2;
#X connect 0 0 3 0;
#X connect 0 0 4 0;
#X connect 3 0 1 0;
#X connect 4 0 2 0;
#X connect 5 0 3 1;
#X connect 6 0 15 0;
#X connect 7 0 5 0;
#X connect 7 0 4 1;
#X connect 8 0 12 0;
#X connect 9 0 8 0;
#X connect 10 0 7 0;
#X connect 10 0 16 0;
#X connect 11 0 13 0;
#X connect 12 0 10 0;
#X connect 13 0 12 0;
#X connect 13 1 12 1;
#X connect 14 0 9 0;
#X connect 15 0 8 0;
#X connect 15 1 8 1;
#X connect 17 0 9 1;
#X connect 18 0 14 0;
#X restore 93 228 pd pan;
#X obj 128 33 == \$1;
#X obj 304 220 r \$0_volchng;
#X obj 396 224 r \$0_pan;
#X obj 304 249 outlet volchng;
#X obj 396 249 outlet pan;
#X obj 234 230 env~;
#X obj 233 251 outlet amp;
#X obj 465 251 outlet bang;
#N canvas 697 407 448 194 rngs 0;
#X obj 144 26 inlet trigger;
#N canvas 565 382 450 300 rng 0;
#X obj 190 17 inlet trigger;
#X obj 199 268 outlet;
#X obj 191 40 random 10000;
#X obj 191 64 / 10000;
#X connect 0 0 2 0;
#X connect 2 0 3 0;
#X connect 3 0 1 0;
#X restore 28 78 pd rng;
#N canvas 565 382 450 300 rng 0;
#X obj 190 17 inlet trigger;
#X obj 199 268 outlet;
#X obj 191 40 random 10000;
#X obj 191 64 / 10000;
#X connect 0 0 2 0;
#X connect 2 0 3 0;
#X connect 3 0 1 0;
#X restore 95 74 pd rng;
#N canvas 565 382 450 300 rng 0;
#X obj 190 17 inlet trigger;
#X obj 199 268 outlet;
#X obj 191 40 random 10000;
#X obj 191 64 / 10000;
#X connect 0 0 2 0;
#X connect 2 0 3 0;
#X connect 3 0 1 0;
#X restore 157 77 pd rng;
#N canvas 565 382 450 300 rng 0;
#X obj 190 17 inlet trigger;
#X obj 199 268 outlet;
#X obj 191 40 random 10000;
#X obj 191 64 / 10000;
#X connect 0 0 2 0;
#X connect 2 0 3 0;
#X connect 3 0 1 0;
#X restore 219 75 pd rng;
#X obj 157 101 s \$0_rng3;
#X obj 220 100 s \$0_rng4;
#X obj 27 103 s \$0_rng1;
#X obj 93 102 s \$0_rng2;
#N canvas 565 382 450 300 rng 0;
#X obj 190 17 inlet trigger;
#X obj 199 268 outlet;
#X obj 191 40 random 10000;
#X obj 191 64 / 10000;
#X connect 0 0 2 0;
#X connect 2 0 3 0;
#X connect 3 0 1 0;
#X restore 283 78 pd rng;
#N canvas 565 382 450 300 rng 0;
#X obj 190 17 inlet trigger;
#X obj 199 268 outlet;
#X obj 191 40 random 10000;
#X obj 191 64 / 10000;
#X connect 0 0 2 0;
#X connect 2 0 3 0;
#X connect 3 0 1 0;
#X restore 352 77 pd rng;
#X obj 284 102 s \$0_rng5;
#X obj 354 102 s \$0_rng6;
#X connect 0 0 1 0;
#X connect 0 0 2 0;
#X connect 0 0 3 0;
#X connect 0 0 4 0;
#X connect 0 0 9 0;
#X connect 0 0 10 0;
#X connect 1 0 7 0;
#X connect 2 0 8 0;
#X connect 3 0 5 0;
#X connect 4 0 6 0;
#X connect 9 0 11 0;
#X connect 10 0 12 0;
#X restore 79 82 pd rngs;
#X obj 74 8 t f f;
#X obj 65 55 t b b;
#N canvas 672 391 450 300 oscillators 1;
#X obj 24 247 outlet~ saw;
#X obj 115 251 outlet~ sqr;
#X obj 15 10 inlet~ AD;
#X obj 85 10 r \$0_equals_me;
#N canvas 268 403 780 470 saw 0;
#X obj 20 66 phasor~;
#X obj 156 13 inlet~ envelope;
#X obj 207 217 moog~;
#X obj 260 11 r cutoff_v;
#X obj 190 55 *~;
#X obj 20 96 *~ 0.1;
#X obj 340 16 r~ res_v;
#X obj 595 24 r saw_volume_variance_v;
#X obj 500 24 inlet equals_me;
#X obj 357 278 *~;
#X obj 385 385 outlet~;
#X obj 458 81 * 0.5;
#X obj 498 142 * 0;
#X obj 498 165 + 0.5;
#N canvas 763 354 450 300 smoother 0;
#X obj 194 81 inlet;
#X obj 197 165 outlet~;
#X obj 196 137 line~;
#X obj 196 110 pack 0 50;
#X connect 0 0 3 0;
#X connect 2 0 1 0;
#X connect 3 0 2 0;
#X restore 498 191 pd smoother;
#X obj 458 59 expr ($f1-0.5)*2;
#X obj 467 109 spigot;
#X obj 182 86 +~;
#X obj 434 21 r \$0_rng3;
#X obj 20 9 inlet freq;
#N canvas 619 361 450 300 frequency 0;
#X obj 18 14 inlet frequency;
#X obj 131 12 r \$0_rng5;
#X obj 133 38 expr $f1*2-1;
#X obj 226 15 r saw_freq_variance_v;
#X obj 167 79 *;
#X obj 81 122 +;
#X obj 79 261 outlet frequency;
#X obj 130 123 r saw_freq_offset_v;
#X obj 102 167 +;
#X connect 0 0 5 0;
#X connect 1 0 2 0;
#X connect 2 0 4 0;
#X connect 3 0 4 1;
#X connect 4 0 5 1;
#X connect 5 0 8 0;
#X connect 7 0 8 1;
#X connect 8 0 6 0;
#X restore 20 37 pd frequency;
#X obj 386 335 *~;
#X obj 450 258 r~ saw_volume_v;
#X connect 0 0 5 0;
#X connect 1 0 4 0;
#X connect 2 0 9 0;
#X connect 3 0 4 1;
#X connect 4 0 17 0;
#X connect 5 0 2 0;
#X connect 6 0 2 2;
#X connect 7 0 12 1;
#X connect 8 0 16 1;
#X connect 9 0 21 0;
#X connect 11 0 16 0;
#X connect 12 0 13 0;
#X connect 13 0 14 0;
#X connect 14 0 9 1;
#X connect 15 0 11 0;
#X connect 16 0 12 0;
#X connect 17 0 2 1;
#X connect 18 0 15 0;
#X connect 19 0 17 1;
#X connect 19 0 20 0;
#X connect 20 0 0 0;
#X connect 21 0 10 0;
#X connect 22 0 21 1;
#X restore 48 168 pd saw;
#N canvas 159 222 756 415 sqr 1;
#X obj 21 61 phasor~;
#X obj 327 340 outlet~;
#X obj 30 85 expr~ $v1 > 0.5;
#X obj 101 18 inlet~ envelope;
#X obj 121 141 moog~;
#X obj 205 16 r cutoff_v;
#X obj 154 62 *~;
#X obj 31 118 *~ 0.1;
#X obj 539 17 r sqr_volume_variance_v;
#X obj 430 18 inlet equals_me;
#X obj 381 70 * 0.5;
#X obj 421 131 * 0;
#X obj 421 154 + 0.5;
#N canvas 763 354 450 300 smoother 0;
#X obj 194 81 inlet;
#X obj 197 165 outlet~;
#X obj 196 137 line~;
#X obj 196 110 pack 0 50;
#X connect 0 0 3 0;
#X connect 2 0 1 0;
#X connect 3 0 2 0;
#X restore 421 180 pd smoother;
#X obj 381 48 expr ($f1-0.5)*2;
#X obj 390 98 spigot;
#X obj 287 237 *~;
#X obj 127 108 +~;
#X obj 358 17 r \$0_rng4;
#X obj 286 16 r~ res_v;
#X obj 16 14 inlet freq;
#N canvas 521 423 450 300 frequency 1;
#X obj 18 14 inlet frequency;
#X obj 133 38 expr $f1*2-1;
#X obj 167 79 *;
#X obj 81 122 +;
#X obj 79 261 outlet frequency;
#X obj 131 12 r \$0_rng6;
#X obj 226 15 r sqr_freq_variance_v;
#X obj 147 176 +;
#X obj 224 118 r sqr_freq_offset_v;
#X connect 0 0 3 0;
#X connect 1 0 2 0;
#X connect 2 0 3 1;
#X connect 3 0 7 0;
#X connect 5 0 1 0;
#X connect 6 0 2 1;
#X connect 7 0 4 0;
#X connect 8 0 7 1;
#X restore 15 36 pd frequency;
#X obj 328 286 *~;
#X obj 372 245 r~ sqr_volume_v;
#X connect 0 0 2 0;
#X connect 2 0 7 0;
#X connect 3 0 6 0;
#X connect 4 0 16 0;
#X connect 5 0 6 1;
#X connect 6 0 17 0;
#X connect 7 0 4 0;
#X connect 8 0 11 1;
#X connect 9 0 15 1;
#X connect 10 0 15 0;
#X connect 11 0 12 0;
#X connect 12 0 13 0;
#X connect 13 0 16 1;
#X connect 14 0 10 0;
#X connect 15 0 11 0;
#X connect 16 0 22 0;
#X connect 17 0 4 1;
#X connect 18 0 14 0;
#X connect 19 0 4 2;
#X connect 20 0 17 1;
#X connect 20 0 21 0;
#X connect 21 0 0 0;
#X connect 22 0 1 0;
#X connect 23 0 22 1;
#X restore 104 168 pd sqr;
#X obj 198 11 r random_freq;
#X obj 136 62 spigot;
#X connect 2 0 5 1;
#X connect 2 0 4 1;
#X connect 3 0 4 2;
#X connect 3 0 5 2;
#X connect 3 0 7 1;
#X connect 4 0 0 0;
#X connect 5 0 1 0;
#X connect 6 0 7 0;
#X connect 7 0 4 0;
#X connect 7 0 5 0;
#X restore 71 167 pd oscillators;
#X obj 128 58 s \$0_equals_me;
#X connect 0 0 16 0;
#X connect 1 0 14 0;
#X connect 1 0 17 0;
#X connect 2 0 18 0;
#X connect 3 0 6 0;
#X connect 3 0 12 0;
#X connect 6 0 4 0;
#X connect 6 1 5 0;
#X connect 7 0 19 0;
#X connect 8 0 10 0;
#X connect 9 0 11 0;
#X connect 12 0 13 0;
#X connect 16 0 1 0;
#X connect 16 1 7 0;
#X connect 17 0 2 0;
#X connect 17 1 15 0;
#X connect 18 0 3 0;
#X connect 18 1 3 1;
