#N canvas 612 425 450 300 10;
#N canvas 133 316 450 300 saw 1;
#X obj 105 53 phasor~;
#X obj 138 204 outlet~;
#X obj 175 16 inlet~ envelope;
#X obj 104 85 *~ 0.4;
#X obj 147 142 moog~;
#X floatatom 122 25 5 0 0 0 - - -;
#X obj 279 14 r cutoff_v;
#X obj 182 86 *~;
#X obj 359 19 r res_v;
#N canvas 763 354 450 300 smoother 0;
#X obj 194 81 inlet;
#X obj 197 165 outlet~;
#X obj 196 110 pack 0 50;
#X obj 196 137 line~;
#X connect 0 0 2 0;
#X connect 2 0 3 0;
#X connect 3 0 1 0;
#X restore 275 72 pd smoother;
#X connect 0 0 3 0;
#X connect 2 0 7 0;
#X connect 3 0 4 0;
#X connect 4 0 1 0;
#X connect 5 0 0 0;
#X connect 6 0 7 1;
#X connect 7 0 4 1;
#X connect 8 0 9 0;
#X connect 9 0 4 2;
#X restore 143 129 pd saw;
#N canvas 165 482 450 300 sqr 1;
#X obj 121 37 phasor~;
#X obj 172 175 outlet~;
#X obj 121 67 expr~ $v1 > 0.5;
#X obj 122 100 *~ 0.4;
#X obj 188 13 inlet~ envelope;
#X obj 208 136 moog~;
#X obj 292 11 r cutoff_v;
#X obj 243 80 *~;
#X obj 385 29 r res_v;
#N canvas 763 354 450 300 smoother 0;
#X obj 194 81 inlet;
#X obj 197 165 outlet~;
#X obj 196 110 pack 0 50;
#X obj 196 137 line~;
#X connect 0 0 2 0;
#X connect 2 0 3 0;
#X connect 3 0 1 0;
#X restore 336 66 pd smoother;
#X floatatom 97 3 5 0 0 0 - - -;
#X connect 0 0 2 0;
#X connect 2 0 3 0;
#X connect 3 0 5 0;
#X connect 4 0 7 0;
#X connect 5 0 1 0;
#X connect 6 0 7 1;
#X connect 7 0 5 1;
#X connect 8 0 9 0;
#X connect 9 0 5 2;
#X connect 10 0 0 0;
#X restore 199 129 pd sqr;
#X obj 132 20 r selection;
#X obj 132 43 sel \$1;
#N canvas 528 277 450 300 AD 0;
#X obj 97 22 inlet trigger;
#X obj 158 243 outlet~;
#X obj 152 179 vline~;
#X msg 139 128 1 \$2 \, 0 \$3 \$2;
#X obj 133 93 pack f f f;
#X obj 197 22 inlet attack;
#X obj 289 17 inlet decay;
#X connect 0 0 4 0;
#X connect 2 0 1 0;
#X connect 3 0 2 0;
#X connect 4 0 3 0;
#X connect 5 0 4 1;
#X connect 6 0 4 2;
#X restore 171 86 pd AD;
#X obj 294 26 r decay_v;
#X obj 224 26 r attack_v;
#N canvas 395 206 450 300 amp 0;
#X obj 200 22 inlet~;
#X obj 200 213 outlet~;
#X connect 0 0 1 0;
#X restore 169 178 pd amp;
#X obj 168 222 throw~ synth_audio;
#X connect 0 0 7 0;
#X connect 1 0 7 0;
#X connect 2 0 3 0;
#X connect 3 0 4 0;
#X connect 4 0 0 0;
#X connect 4 0 1 0;
#X connect 5 0 4 2;
#X connect 6 0 4 1;
#X connect 7 0 8 0;
