#N canvas 607 459 450 300 10;
#N canvas 133 316 450 300 saw 0;
#X obj 105 53 phasor~;
#X obj 138 204 outlet~;
#X obj 175 16 inlet~ envelope;
#X obj 147 142 moog~;
#X obj 279 14 r cutoff_v;
#X obj 182 86 *~;
#X obj 86 14 r random_freq;
#X obj 104 85 *~ 0.1;
#X obj 359 19 r~ res_v;
#X connect 0 0 7 0;
#X connect 2 0 5 0;
#X connect 3 0 1 0;
#X connect 4 0 5 1;
#X connect 5 0 3 1;
#X connect 6 0 0 0;
#X connect 7 0 3 0;
#X connect 8 0 3 2;
#X restore 143 129 pd saw;
#X obj 132 20 r selection;
#X obj 132 43 sel \$1;
#N canvas 528 277 450 300 AD 0;
#X obj 97 22 inlet trigger;
#X obj 158 243 outlet~;
#X obj 152 179 vline~;
#X msg 139 128 1 \$2 \, 0 \$3 \$2;
#X obj 133 93 pack f f f;
#X obj 197 22 inlet attack;
#X obj 289 17 inlet decay;
#X connect 0 0 4 0;
#X connect 2 0 1 0;
#X connect 3 0 2 0;
#X connect 4 0 3 0;
#X connect 5 0 4 1;
#X connect 6 0 4 2;
#X restore 171 86 pd AD;
#X obj 294 26 r decay_v;
#X obj 224 26 r attack_v;
#N canvas 395 206 450 300 amp 0;
#X obj 200 22 inlet~;
#X obj 200 213 outlet~;
#X connect 0 0 1 0;
#X restore 167 162 pd amp;
#N canvas 359 332 450 300 sqr 0;
#X obj 121 37 phasor~;
#X obj 172 175 outlet~;
#X obj 121 67 expr~ $v1 > 0.5;
#X obj 188 13 inlet~ envelope;
#X obj 208 136 moog~;
#X obj 292 11 r cutoff_v;
#X obj 243 80 *~;
#X obj 385 29 r res_v;
#N canvas 763 354 450 300 smoother 0;
#X obj 194 81 inlet;
#X obj 197 165 outlet~;
#X obj 196 110 pack 0 50;
#X obj 196 137 line~;
#X connect 0 0 2 0;
#X connect 2 0 3 0;
#X connect 3 0 1 0;
#X restore 336 66 pd smoother;
#X obj 103 9 r random_freq;
#X obj 122 100 *~ 0.1;
#X connect 0 0 2 0;
#X connect 2 0 10 0;
#X connect 3 0 6 0;
#X connect 4 0 1 0;
#X connect 5 0 6 1;
#X connect 6 0 4 1;
#X connect 7 0 8 0;
#X connect 8 0 4 2;
#X connect 9 0 0 0;
#X connect 10 0 4 0;
#X restore 199 129 pd sqr;
#X obj 122 246 throw~ synth_L;
#X obj 228 245 throw~ synth_R;
#N canvas 606 411 518 359 pan 1;
#X obj 165 195 inlet~;
#X obj 128 297 outlet~ L;
#X obj 224 295 outlet~ R;
#X obj 128 272 *~;
#X obj 225 263 *~;
#X obj 148 250 expr~ 1-$v1;
#X obj 268 -22 r rng;
#X obj 300 55 r pan_variance_v;
#N canvas 763 354 450 300 smoother 0;
#X obj 194 81 inlet;
#X obj 197 165 outlet~;
#X obj 196 110 pack 0 50;
#X obj 196 137 line~;
#X connect 0 0 2 0;
#X connect 2 0 3 0;
#X connect 3 0 1 0;
#X restore 244 205 pd smoother;
#X obj 273 105 *;
#X obj 312 5 == \$1;
#X obj 315 -20 inlet selection;
#X obj 270 29 spigot;
#X obj 243 182 limit 0 1 0;
#X obj 181 59 r pan_v;
#X obj 245 150 +;
#X obj 209 102 t b f;
#X obj 269 3 - 0.5;
#X obj 284 78 t b f;
#X floatatom 316 243 5 0 0 0 - - -;
#X connect 0 0 3 0;
#X connect 0 0 4 0;
#X connect 3 0 1 0;
#X connect 4 0 2 0;
#X connect 5 0 3 1;
#X connect 6 0 17 0;
#X connect 7 0 18 0;
#X connect 8 0 5 0;
#X connect 8 0 4 1;
#X connect 9 0 15 0;
#X connect 10 0 12 1;
#X connect 11 0 10 0;
#X connect 12 0 9 0;
#X connect 13 0 8 0;
#X connect 13 0 19 0;
#X connect 14 0 16 0;
#X connect 15 0 13 0;
#X connect 16 0 15 0;
#X connect 16 1 15 1;
#X connect 17 0 12 0;
#X connect 18 0 9 0;
#X connect 18 1 9 1;
#X restore 170 188 pd pan;
#X connect 0 0 6 0;
#X connect 1 0 2 0;
#X connect 1 0 10 1;
#X connect 2 0 3 0;
#X connect 3 0 0 0;
#X connect 3 0 7 0;
#X connect 4 0 3 2;
#X connect 5 0 3 1;
#X connect 6 0 10 0;
#X connect 7 0 6 0;
#X connect 10 0 8 0;
#X connect 10 1 9 0;
